<svg width="353" height="267" viewBox="0 0 353 267" fill="none" xmlns="http://www.w3.org/2000/svg">
<path d="M197.545 46.7903C198.227 46.7903 198.78 46.2363 198.78 45.553C198.78 44.8696 198.227 44.3157 197.545 44.3157C196.863 44.3157 196.31 44.8696 196.31 45.553C196.31 46.2363 196.863 46.7903 197.545 46.7903Z" fill="#BDABFF" fill-opacity="0.33"/>
<path d="M149.015 55.088L156.551 78.262L147.765 55.532L149.015 55.088Z" fill="#BDABFF" fill-opacity="0.33"/>
<path d="M100.498 75.8016L122.387 93.1384L99.6987 76.857L100.498 75.8016Z" fill="#BDABFF" fill-opacity="0.33"/>
<path d="M72.3441 112.09L102.663 118.888L72.0825 113.385L72.3441 112.09Z" fill="#BDABFF" fill-opacity="0.33"/>
<path d="M72.0825 154.13L102.663 148.627L72.3441 155.425L72.0825 154.13Z" fill="#BDABFF" fill-opacity="0.33"/>
<path d="M99.6987 190.652L122.387 174.378L100.498 191.714L99.6987 190.652Z" fill="#BDABFF" fill-opacity="0.33"/>
<path d="M147.765 211.985L156.551 189.248L149.015 212.429L147.765 211.985Z" fill="#BDABFF" fill-opacity="0.33"/>
<path d="M203.533 212.422L195.997 189.248L204.776 211.978L203.533 212.422Z" fill="#BDABFF" fill-opacity="0.33"/>
<path d="M252.049 191.714L230.16 174.378L252.849 190.652L252.049 191.714Z" fill="#BDABFF" fill-opacity="0.33"/>
<path d="M280.202 155.425L249.883 148.62L280.463 154.122L280.202 155.425Z" fill="#BDABFF" fill-opacity="0.33"/>
<path d="M280.457 113.387L249.876 118.89L280.195 112.084L280.457 113.387Z" fill="#BDABFF" fill-opacity="0.33"/>
<path d="M252.841 76.857L230.153 93.1384L252.049 75.8016L252.841 76.857Z" fill="#BDABFF" fill-opacity="0.33"/>
<path d="M204.775 55.532L195.989 78.2692L203.533 55.088L204.775 55.532Z" fill="#BDABFF" fill-opacity="0.33"/>
<path d="M177.284 79.1129L173.672 77.3079L171.194 80.5031L171.79 76.5L167.989 75.1244L171.972 74.4548L172.103 70.4154L173.97 74.0036L177.851 72.8755L175.017 75.7649L177.284 79.1129Z" fill="#BDABFF" fill-opacity="0.33"/>
<path d="M241.069 132.47L242.763 131.43L242.079 129.566L243.584 130.862L245.146 129.632L244.383 131.473L246.033 132.579L244.056 132.419L243.511 134.326L243.046 132.398L241.069 132.47Z" fill="#BDABFF" fill-opacity="0.33"/>
<path d="M104.503 135.221L101.792 135.345L101.37 138.038L100.418 135.483L97.7295 135.927L99.8588 134.224L98.6161 131.801L100.883 133.3L102.802 131.371L102.075 133.999L104.503 135.221Z" fill="#BDABFF" fill-opacity="0.33"/>
<path d="M124.764 208.113L125.237 204.649L121.93 203.506L125.368 202.88L125.433 199.379L127.09 202.458L130.433 201.439L128.02 203.972L130.019 206.839L126.872 205.318L124.764 208.113Z" fill="#BDABFF" fill-opacity="0.33"/>
<path d="M240.066 209.868L237.319 207.633L234.594 209.889L235.866 206.585L232.886 204.693L236.411 204.882L237.29 201.454L238.206 204.875L241.73 204.649L238.765 206.578L240.066 209.868Z" fill="#BDABFF" fill-opacity="0.33"/>
<path d="M129.269 101.158L127.728 99.7897L126.086 101.027L126.914 99.1419L125.228 97.9628L127.277 98.1594L127.873 96.1942L128.317 98.203L130.373 98.1666L128.593 99.2074L129.269 101.158Z" fill="#BDABFF" fill-opacity="0.33"/>
<path d="M176.542 96.3919C176.544 96.6415 176.471 96.886 176.333 97.0941C176.196 97.3023 176 97.4648 175.77 97.561C175.54 97.6572 175.286 97.6828 175.042 97.6344C174.797 97.5861 174.572 97.466 174.396 97.2895C174.22 97.113 174.1 96.8879 174.052 96.643C174.003 96.3981 174.029 96.1443 174.125 95.9139C174.221 95.6836 174.383 95.487 174.591 95.3492C174.799 95.2114 175.043 95.1386 175.292 95.14C175.623 95.1419 175.94 95.2744 176.174 95.5088C176.408 95.7432 176.54 96.0605 176.542 96.3919Z" fill="#BDABFF" fill-opacity="0.33"/>
<path d="M242.821 108.918C242.821 109.062 242.778 109.202 242.698 109.322C242.618 109.442 242.505 109.535 242.372 109.59C242.239 109.645 242.093 109.66 241.952 109.631C241.811 109.603 241.682 109.534 241.58 109.432C241.478 109.331 241.409 109.201 241.381 109.06C241.353 108.918 241.368 108.772 241.423 108.639C241.478 108.506 241.571 108.392 241.69 108.312C241.81 108.233 241.95 108.19 242.094 108.19C242.287 108.19 242.472 108.267 242.608 108.403C242.744 108.539 242.821 108.725 242.821 108.918Z" fill="#BDABFF" fill-opacity="0.33"/>
<path d="M272.579 177.674C272.579 177.84 272.513 178 272.396 178.117C272.279 178.234 272.12 178.3 271.954 178.3C271.788 178.3 271.629 178.234 271.512 178.117C271.395 178 271.329 177.84 271.329 177.674C271.329 177.508 271.395 177.349 271.512 177.232C271.629 177.114 271.788 177.048 271.954 177.048C272.12 177.048 272.279 177.114 272.396 177.232C272.513 177.349 272.579 177.508 272.579 177.674Z" fill="#BDABFF" fill-opacity="0.33"/>
<path d="M190.794 181.962C190.794 182.128 190.728 182.288 190.611 182.405C190.494 182.522 190.335 182.588 190.169 182.588C190.003 182.588 189.844 182.522 189.727 182.405C189.61 182.288 189.544 182.128 189.544 181.962C189.544 181.796 189.61 181.637 189.727 181.52C189.844 181.402 190.003 181.336 190.169 181.336C190.335 181.336 190.494 181.402 190.611 181.52C190.728 181.637 190.794 181.796 190.794 181.962V181.962Z" fill="#BDABFF" fill-opacity="0.33"/>
<path d="M96.0076 204.48C96.0091 204.754 95.9293 205.022 95.7785 205.25C95.6276 205.479 95.4125 205.657 95.1603 205.763C94.9081 205.869 94.6303 205.897 94.362 205.845C94.0936 205.792 93.8469 205.661 93.6531 205.468C93.4593 205.275 93.327 205.028 93.2732 204.76C93.2193 204.491 93.2462 204.213 93.3505 203.96C93.4548 203.707 93.6318 203.49 93.859 203.338C94.0862 203.186 94.3535 203.104 94.6269 203.104C94.9918 203.104 95.3419 203.249 95.6007 203.507C95.8594 203.765 96.0057 204.115 96.0076 204.48V204.48Z" fill="#BDABFF" fill-opacity="0.33"/>
<path d="M112.758 128.962C113.035 128.962 113.26 128.737 113.26 128.46C113.26 128.182 113.035 127.957 112.758 127.957C112.481 127.957 112.257 128.182 112.257 128.46C112.257 128.737 112.481 128.962 112.758 128.962Z" fill="#BDABFF" fill-opacity="0.33"/>
<path d="M106.879 65.7144C107.501 65.7144 108.005 65.2093 108.005 64.5863C108.005 63.9632 107.501 63.4581 106.879 63.4581C106.257 63.4581 105.752 63.9632 105.752 64.5863C105.752 65.2093 106.257 65.7144 106.879 65.7144Z" fill="#BDABFF" fill-opacity="0.33"/>
<path d="M142.525 77.8605C143.216 77.8605 143.775 77.3001 143.775 76.6087C143.775 75.9173 143.216 75.3568 142.525 75.3568C141.835 75.3568 141.275 75.9173 141.275 76.6087C141.275 77.3001 141.835 77.8605 142.525 77.8605Z" fill="#BDABFF" fill-opacity="0.33"/>
<path d="M212.304 94.1426C212.304 94.2866 212.261 94.4273 212.182 94.547C212.102 94.6667 211.988 94.76 211.855 94.815C211.723 94.8701 211.576 94.8845 211.436 94.8565C211.295 94.8284 211.165 94.7591 211.063 94.6573C210.962 94.5555 210.893 94.4258 210.865 94.2846C210.837 94.1434 210.851 93.9971 210.906 93.8641C210.961 93.7311 211.054 93.6174 211.174 93.5375C211.293 93.4575 211.434 93.4148 211.577 93.4148C211.77 93.4148 211.955 93.4915 212.091 93.628C212.227 93.7645 212.304 93.9496 212.304 94.1426Z" fill="#BDABFF" fill-opacity="0.33"/>
<path d="M211.31 134.093C211.31 134.216 211.273 134.337 211.205 134.44C211.136 134.543 211.038 134.624 210.924 134.671C210.81 134.718 210.684 134.731 210.563 134.707C210.442 134.682 210.331 134.623 210.243 134.535C210.156 134.448 210.096 134.336 210.072 134.215C210.048 134.093 210.06 133.967 210.108 133.853C210.155 133.739 210.235 133.641 210.338 133.572C210.441 133.503 210.561 133.467 210.685 133.467C210.767 133.466 210.849 133.481 210.925 133.512C211.002 133.543 211.071 133.59 211.129 133.648C211.187 133.706 211.233 133.776 211.264 133.852C211.295 133.928 211.311 134.01 211.31 134.093V134.093Z" fill="#BDABFF" fill-opacity="0.33"/>
<path d="M98.5005 88.3791L93.5587 88.9904L93.1808 93.9688L91.0733 89.4417L86.2261 90.628L89.8742 87.2145L87.258 82.9713L91.6184 85.3877L94.845 81.5812L93.893 86.4867L98.5005 88.3791Z" fill="#BDABFF" fill-opacity="0.33"/>
<path d="M256.322 99.6513L253.924 99.4912L253.292 101.82L252.703 99.4839L250.305 99.6077L252.34 98.3194L251.482 96.0704L253.328 97.6134L255.196 96.0996L254.309 98.334L256.322 99.6513Z" fill="#BDABFF" fill-opacity="0.33"/>
<path d="M251.816 173.796L254.338 172.151L253.219 169.356L255.559 171.248L257.87 169.32L256.802 172.136L259.338 173.737L256.337 173.585L255.603 176.503L254.818 173.599L251.816 173.796Z" fill="#BDABFF" fill-opacity="0.33"/>
<path d="M178.535 187.952L176.362 187.144L175.149 189.124L175.243 186.795L172.983 186.249L175.221 185.623L175.047 183.308L176.333 185.237L178.477 184.356L177.038 186.176L178.535 187.952Z" fill="#BDABFF" fill-opacity="0.33"/>
<path d="M98.7545 178.308L97.6644 175.637L94.8374 176.183L97.0321 174.327L95.6441 171.802L98.0931 173.316L100.055 171.212L99.3722 174.014L101.974 175.237L99.1105 175.448L98.7545 178.308Z" fill="#BDABFF" fill-opacity="0.33"/>
<path d="M224.558 75.3569L221.629 73.1734L218.918 75.6189L220.088 72.1545L216.92 70.3276L220.575 70.3713L221.331 66.7904L222.421 70.284L226.055 69.8982L223.075 72.0162L224.558 75.3569Z" fill="#BDABFF" fill-opacity="0.33"/>
<path d="M77.6206 131.212C77.9658 131.212 78.2456 130.931 78.2456 130.586C78.2456 130.24 77.9658 129.96 77.6206 129.96C77.2754 129.96 76.9956 130.24 76.9956 130.586C76.9956 130.931 77.2754 131.212 77.6206 131.212Z" fill="#BDABFF" fill-opacity="0.33"/>
<path d="M110.76 171.773C110.739 172.023 110.624 172.257 110.439 172.427C110.254 172.597 110.012 172.692 109.761 172.692C109.509 172.692 109.267 172.597 109.082 172.427C108.897 172.257 108.783 172.023 108.761 171.773C108.75 171.634 108.767 171.494 108.812 171.363C108.856 171.231 108.928 171.11 109.022 171.008C109.116 170.905 109.23 170.824 109.357 170.768C109.484 170.712 109.622 170.683 109.761 170.683C109.9 170.683 110.037 170.712 110.164 170.768C110.291 170.824 110.405 170.905 110.499 171.008C110.593 171.11 110.665 171.231 110.71 171.363C110.755 171.494 110.772 171.634 110.76 171.773Z" fill="#BDABFF" fill-opacity="0.33"/>
<path d="M142.524 179.306C142.528 179.506 142.473 179.704 142.364 179.872C142.256 180.04 142.099 180.173 141.915 180.251C141.731 180.33 141.528 180.352 141.331 180.314C141.135 180.276 140.954 180.18 140.812 180.038C140.671 179.896 140.575 179.715 140.537 179.518C140.499 179.321 140.52 179.118 140.599 178.933C140.678 178.749 140.81 178.592 140.978 178.483C141.146 178.375 141.343 178.319 141.543 178.323C141.801 178.329 142.048 178.434 142.231 178.617C142.413 178.8 142.519 179.047 142.524 179.306V179.306Z" fill="#BDABFF" fill-opacity="0.33"/>
<path d="M124.269 187.319C124.271 187.518 124.213 187.713 124.104 187.879C123.995 188.045 123.839 188.175 123.655 188.252C123.472 188.329 123.27 188.35 123.075 188.312C122.88 188.274 122.701 188.179 122.56 188.039C122.419 187.899 122.323 187.72 122.283 187.525C122.244 187.33 122.264 187.127 122.339 186.943C122.415 186.759 122.544 186.602 122.709 186.491C122.874 186.381 123.068 186.322 123.267 186.322C123.531 186.322 123.785 186.426 123.973 186.613C124.161 186.8 124.267 187.054 124.269 187.319V187.319Z" fill="#BDABFF" fill-opacity="0.33"/>
<path d="M220.03 180.812C220.03 181.11 219.941 181.401 219.776 181.649C219.611 181.897 219.376 182.09 219.101 182.204C218.826 182.318 218.524 182.348 218.232 182.29C217.94 182.232 217.672 182.088 217.462 181.877C217.251 181.667 217.108 181.398 217.05 181.106C216.992 180.814 217.022 180.511 217.136 180.236C217.249 179.96 217.442 179.725 217.69 179.559C217.937 179.394 218.228 179.306 218.525 179.306C218.924 179.306 219.307 179.464 219.589 179.747C219.871 180.029 220.03 180.413 220.03 180.812Z" fill="#BDABFF" fill-opacity="0.33"/>
<path d="M253.824 141.604C253.824 141.728 253.787 141.849 253.718 141.952C253.65 142.055 253.552 142.135 253.438 142.183C253.324 142.23 253.198 142.242 253.077 142.218C252.956 142.194 252.844 142.135 252.757 142.047C252.669 141.96 252.61 141.848 252.586 141.727C252.562 141.605 252.574 141.479 252.621 141.365C252.669 141.251 252.749 141.153 252.851 141.084C252.954 141.015 253.075 140.979 253.199 140.979C253.281 140.979 253.362 140.995 253.438 141.026C253.514 141.058 253.583 141.104 253.641 141.162C253.699 141.22 253.745 141.289 253.776 141.365C253.808 141.441 253.824 141.522 253.824 141.604V141.604Z" fill="#BDABFF" fill-opacity="0.33"/>
<path d="M280.079 121.698C280.632 121.698 281.081 121.249 281.081 120.694C281.081 120.139 280.632 119.689 280.079 119.689C279.525 119.689 279.076 120.139 279.076 120.694C279.076 121.249 279.525 121.698 280.079 121.698Z" fill="#BDABFF" fill-opacity="0.33"/>
<path d="M263.073 80.4893C263.069 80.7118 262.999 80.928 262.873 81.1108C262.746 81.2936 262.568 81.4347 262.361 81.5166C262.155 81.5984 261.929 81.6172 261.712 81.5706C261.494 81.5241 261.296 81.4142 261.141 81.2549C260.986 81.0956 260.881 80.8939 260.84 80.6752C260.799 80.4565 260.824 80.2306 260.911 80.0258C260.998 79.8211 261.143 79.6467 261.329 79.5246C261.515 79.4024 261.732 79.338 261.954 79.3394C262.104 79.3393 262.252 79.3693 262.389 79.4274C262.527 79.4855 262.652 79.5707 262.756 79.6779C262.86 79.7851 262.942 79.9121 262.997 80.0515C263.051 80.1908 263.077 80.3397 263.073 80.4893V80.4893Z" fill="#BDABFF" fill-opacity="0.33"/>
<path d="M226.571 84.7457C226.573 85.0195 226.493 85.2876 226.342 85.516C226.191 85.7443 225.976 85.9227 225.724 86.0285C225.472 86.1343 225.194 86.1627 224.925 86.1102C224.657 86.0576 224.41 85.9265 224.217 85.7334C224.023 85.5403 223.891 85.2939 223.837 85.0255C223.783 84.757 223.81 84.4786 223.914 84.2255C224.018 83.9724 224.195 83.756 224.422 83.6037C224.65 83.4514 224.917 83.3701 225.19 83.3701C225.371 83.3692 225.551 83.404 225.718 83.4727C225.886 83.5414 226.038 83.6426 226.166 83.7705C226.295 83.8983 226.396 84.0503 226.466 84.2176C226.535 84.385 226.571 84.5645 226.571 84.7457V84.7457Z" fill="#BDABFF" fill-opacity="0.33"/>
<path d="M117.017 73.7277C117.017 73.9022 117.069 74.0728 117.166 74.2178C117.263 74.3627 117.401 74.4756 117.562 74.542C117.723 74.6085 117.9 74.6255 118.071 74.5909C118.241 74.5563 118.398 74.4717 118.521 74.3479C118.644 74.224 118.727 74.0664 118.76 73.895C118.793 73.7237 118.774 73.5464 118.707 73.3857C118.639 73.2249 118.525 73.0878 118.38 72.9919C118.234 72.8961 118.063 72.8456 117.889 72.8471C117.774 72.8471 117.66 72.8699 117.554 72.9142C117.448 72.9586 117.351 73.0236 117.27 73.1055C117.189 73.1873 117.125 73.2845 117.081 73.3913C117.038 73.4981 117.016 73.6124 117.017 73.7277V73.7277Z" fill="#BDABFF" fill-opacity="0.33"/>
<path d="M223.126 266.571L210.401 227.435L225.233 265.821L223.126 266.571Z" fill="#BDABFF" fill-opacity="0.33"/>
<path d="M305.036 231.599L268.089 202.333L306.38 229.808L305.036 231.599Z" fill="#BDABFF" fill-opacity="0.33"/>
<path d="M352.557 170.339L301.374 158.854L353 168.148L352.557 170.339Z" fill="#BDABFF" fill-opacity="0.33"/>
<path d="M353 99.3688L301.374 108.656L352.557 97.1781L353 99.3688Z" fill="#BDABFF" fill-opacity="0.33"/>
<path d="M306.38 37.6997L268.075 65.1751L305.036 35.9165L306.38 37.6997Z" fill="#BDABFF" fill-opacity="0.33"/>
<path d="M225.234 1.69424L210.409 40.0724L223.127 0.94458L225.234 1.69424Z" fill="#BDABFF" fill-opacity="0.33"/>
<path d="M131.086 0.94458L143.811 40.0724L128.986 1.69424L131.086 0.94458Z" fill="#BDABFF" fill-opacity="0.33"/>
<path d="M49.176 35.9165L86.13 65.1751L47.8315 37.6997L49.176 35.9165Z" fill="#BDABFF" fill-opacity="0.33"/>
<path d="M1.65717 97.1781L52.8405 108.656L1.21387 99.3688L1.65717 97.1781Z" fill="#BDABFF" fill-opacity="0.33"/>
<path d="M1.21387 168.148L52.8405 158.861L1.65717 170.346L1.21387 168.148Z" fill="#BDABFF" fill-opacity="0.33"/>
<path d="M47.8394 229.808L86.1451 202.333L49.1838 231.599L47.8394 229.808Z" fill="#BDABFF" fill-opacity="0.33"/>
<path d="M128.986 265.814L143.818 227.435L131.093 266.563L128.986 265.814Z" fill="#BDABFF" fill-opacity="0.33"/>
<path d="M175.395 226.01L181.5 229.06L185.686 223.666L184.676 230.421L191.093 232.742L184.363 233.863L184.145 240.697L180.991 234.635L174.443 236.534L179.225 231.665L175.395 226.01Z" fill="#BDABFF" fill-opacity="0.33"/>
<path d="M67.7229 135.934L64.8669 137.681L66.0151 140.833L63.4716 138.649L60.8335 140.716L62.1198 137.616L59.3438 135.745L62.6794 136.014L63.6024 132.79L64.38 136.051L67.7229 135.934Z" fill="#BDABFF" fill-opacity="0.33"/>
<path d="M298.27 131.283L302.856 131.072L303.561 126.531L305.174 130.839L309.709 130.097L306.119 132.964L308.219 137.055L304.382 134.522L301.148 137.79L302.369 133.357L298.27 131.283Z" fill="#BDABFF" fill-opacity="0.33"/>
<path d="M264.062 8.2229L263.277 14.0819L268.851 16.0106L263.045 17.066L262.936 22.9686L260.145 17.772L254.499 19.4896L258.575 15.2173L255.196 10.3773L260.509 12.9392L264.062 8.2229Z" fill="#BDABFF" fill-opacity="0.33"/>
<path d="M69.4169 5.26901L74.0461 9.03186L78.6463 5.22534L76.5024 10.8005L81.5387 14.0102L75.5795 13.6899L74.097 19.4761L72.5563 13.6972L66.5972 14.0757L71.6116 10.8223L69.4169 5.26901Z" fill="#BDABFF" fill-opacity="0.33"/>
<path d="M256.469 188.795L259.063 191.102L261.832 189.014L260.437 192.194L263.285 194.188L259.826 193.846L258.816 197.173L258.075 193.774L254.601 193.839L257.595 192.078L256.469 188.795Z" fill="#BDABFF" fill-opacity="0.33"/>
<path d="M176.666 196.824C176.666 196.404 176.79 195.995 177.023 195.646C177.256 195.298 177.586 195.026 177.973 194.866C178.36 194.706 178.786 194.664 179.196 194.747C179.606 194.829 179.983 195.032 180.279 195.328C180.574 195.625 180.775 196.003 180.856 196.415C180.937 196.826 180.894 197.252 180.732 197.639C180.571 198.026 180.299 198.356 179.95 198.588C179.602 198.82 179.192 198.943 178.774 198.942C178.496 198.942 178.222 198.887 177.965 198.78C177.709 198.674 177.477 198.517 177.281 198.321C177.085 198.124 176.93 197.89 176.824 197.633C176.719 197.377 176.665 197.101 176.666 196.824V196.824Z" fill="#BDABFF" fill-opacity="0.33"/>
<path d="M64.773 175.682C64.773 175.43 64.8477 175.183 64.9878 174.973C65.1279 174.764 65.3269 174.601 65.5597 174.504C65.7926 174.408 66.0486 174.383 66.2955 174.433C66.5424 174.483 66.769 174.605 66.9466 174.784C67.1242 174.963 67.2447 175.19 67.293 175.438C67.3412 175.685 67.315 175.942 67.2176 176.174C67.1202 176.407 66.9561 176.605 66.746 176.744C66.5359 176.883 66.2893 176.957 66.0375 176.955C65.8708 176.955 65.7058 176.922 65.5519 176.858C65.398 176.794 65.2583 176.7 65.1408 176.582C65.0232 176.464 64.9302 176.323 64.8671 176.169C64.804 176.014 64.772 175.849 64.773 175.682V175.682Z" fill="#BDABFF" fill-opacity="0.33"/>
<path d="M14.5279 59.6079C14.5269 59.4687 14.5534 59.3307 14.606 59.2018C14.6585 59.0729 14.736 58.9557 14.8339 58.857C14.9319 58.7582 15.0483 58.6798 15.1767 58.6263C15.305 58.5728 15.4426 58.5453 15.5816 58.5453C15.7206 58.5453 15.8582 58.5728 15.9865 58.6263C16.1149 58.6798 16.2314 58.7582 16.3293 58.857C16.4272 58.9557 16.5047 59.0729 16.5572 59.2018C16.6098 59.3307 16.6363 59.4687 16.6354 59.6079C16.6354 59.8878 16.5243 60.1562 16.3267 60.3541C16.1291 60.5521 15.8611 60.6633 15.5816 60.6633C15.3021 60.6633 15.0341 60.5521 14.8365 60.3541C14.6389 60.1562 14.5279 59.8878 14.5279 59.6079V59.6079Z" fill="#BDABFF" fill-opacity="0.33"/>
<path d="M152.598 52.4095C152.596 52.1987 152.657 51.9922 152.773 51.8164C152.889 51.6405 153.055 51.5032 153.249 51.4219C153.443 51.3406 153.657 51.3189 153.864 51.3597C154.07 51.4004 154.26 51.5018 154.409 51.6508C154.558 51.7999 154.659 51.9899 154.7 52.1967C154.74 52.4035 154.719 52.6178 154.638 52.8122C154.556 53.0067 154.419 53.1726 154.244 53.2888C154.068 53.405 153.862 53.4663 153.651 53.4648C153.372 53.4648 153.104 53.3536 152.906 53.1557C152.709 52.9578 152.598 52.6894 152.598 52.4095V52.4095Z" fill="#BDABFF" fill-opacity="0.33"/>
<path d="M312.628 14.3596C312.627 14.054 312.687 13.7514 312.803 13.4688C312.919 13.1863 313.089 12.9295 313.305 12.7131C313.52 12.4968 313.776 12.3251 314.058 12.2079C314.34 12.0908 314.642 12.0305 314.947 12.0305C315.563 12.0305 316.155 12.2759 316.591 12.7127C317.027 13.1495 317.272 13.7419 317.272 14.3596C317.272 14.6651 317.212 14.9676 317.095 15.2497C316.978 15.5319 316.807 15.7882 316.591 16.0039C316.375 16.2196 316.118 16.3904 315.836 16.5067C315.554 16.6229 315.252 16.6823 314.947 16.6813C314.332 16.6813 313.742 16.4367 313.307 16.0013C312.873 15.5659 312.628 14.9753 312.628 14.3596V14.3596Z" fill="#BDABFF" fill-opacity="0.33"/>
<path d="M283.496 142.695C283.497 142.528 283.548 142.366 283.641 142.228C283.735 142.09 283.867 141.983 284.021 141.92C284.175 141.858 284.344 141.842 284.508 141.875C284.671 141.909 284.82 141.99 284.937 142.108C285.054 142.226 285.134 142.377 285.166 142.54C285.198 142.704 285.181 142.873 285.117 143.027C285.053 143.181 284.945 143.312 284.806 143.405C284.668 143.497 284.505 143.547 284.339 143.547C284.227 143.547 284.117 143.525 284.014 143.482C283.912 143.439 283.818 143.376 283.74 143.297C283.662 143.218 283.6 143.124 283.558 143.02C283.516 142.917 283.495 142.807 283.496 142.695V142.695Z" fill="#BDABFF" fill-opacity="0.33"/>
<path d="M294.258 252.436C295.306 252.436 296.155 251.586 296.155 250.537C296.155 249.487 295.306 248.637 294.258 248.637C293.211 248.637 292.361 249.487 292.361 250.537C292.361 251.586 293.211 252.436 294.258 252.436Z" fill="#BDABFF" fill-opacity="0.33"/>
<path d="M231.978 230.232C231.978 229.813 232.102 229.404 232.334 229.055C232.566 228.707 232.897 228.436 233.283 228.275C233.669 228.115 234.095 228.073 234.505 228.155C234.915 228.237 235.292 228.438 235.588 228.734C235.883 229.031 236.085 229.408 236.166 229.819C236.248 230.23 236.206 230.656 236.046 231.043C235.886 231.43 235.615 231.76 235.267 231.993C234.919 232.226 234.511 232.35 234.092 232.35C233.814 232.351 233.539 232.297 233.282 232.191C233.025 232.085 232.791 231.929 232.595 231.732C232.398 231.535 232.243 231.301 232.137 231.044C232.031 230.786 231.977 230.511 231.978 230.232Z" fill="#BDABFF" fill-opacity="0.33"/>
<path d="M116.283 200.63C116.283 200.379 116.357 200.133 116.497 199.923C116.636 199.714 116.834 199.551 117.066 199.454C117.298 199.357 117.553 199.332 117.8 199.38C118.046 199.429 118.273 199.55 118.451 199.727C118.629 199.904 118.751 200.131 118.801 200.377C118.851 200.624 118.827 200.88 118.732 201.113C118.636 201.345 118.475 201.545 118.266 201.686C118.058 201.826 117.813 201.902 117.562 201.904C117.394 201.906 117.227 201.874 117.072 201.811C116.916 201.748 116.775 201.654 116.656 201.536C116.537 201.417 116.442 201.276 116.378 201.12C116.314 200.965 116.282 200.798 116.283 200.63Z" fill="#BDABFF" fill-opacity="0.33"/>
<path d="M117.976 133.198C117.976 132.989 118.038 132.785 118.154 132.612C118.269 132.438 118.434 132.303 118.627 132.223C118.819 132.143 119.031 132.122 119.235 132.163C119.44 132.204 119.628 132.304 119.775 132.452C119.922 132.599 120.023 132.787 120.063 132.992C120.104 133.197 120.083 133.409 120.003 133.602C119.924 133.795 119.789 133.959 119.615 134.075C119.442 134.191 119.238 134.253 119.03 134.253C118.75 134.253 118.482 134.142 118.285 133.944C118.087 133.746 117.976 133.478 117.976 133.198V133.198Z" fill="#BDABFF" fill-opacity="0.33"/>
<path d="M308.4 210.362L316.758 209.336L317.39 200.929L320.951 208.564L329.134 206.577L322.971 212.327L327.39 219.504L320.028 215.413L314.585 221.84L316.184 213.564L308.4 210.362Z" fill="#BDABFF" fill-opacity="0.33"/>
<path d="M41.9668 191.328L46.0147 191.597L47.0757 187.674L48.0713 191.612L52.1264 191.408L48.6963 193.577L50.1425 197.376L47.0175 194.771L43.8636 197.325L45.3679 193.548L41.9668 191.328Z" fill="#BDABFF" fill-opacity="0.33"/>
<path d="M49.5699 66.1578L45.3186 68.9381L47.2008 73.6544L43.2547 70.4665L39.3522 73.7126L41.1617 68.9672L36.874 66.2597L41.9393 66.5144L43.182 61.587L44.5046 66.4926L49.5699 66.1578Z" fill="#BDABFF" fill-opacity="0.33"/>
<path d="M173.287 42.2695L176.957 43.6305L179.013 40.2898L178.853 44.2128L182.661 45.1371L178.89 46.1924L179.188 50.1081L177.015 46.8402L173.388 48.3323L175.816 45.2536L173.287 42.2695Z" fill="#BDABFF" fill-opacity="0.33"/>
<path d="M307.979 58.5453L309.818 63.0505L314.585 62.1262L310.886 65.2704L313.234 69.5282L309.098 66.9735L305.785 70.518L306.94 65.7944L302.536 63.7347L307.383 63.378L307.979 58.5453Z" fill="#BDABFF" fill-opacity="0.33"/>
<path d="M95.593 232.35L100.535 236.04L105.12 231.906L103.144 237.758L108.478 240.844L102.315 240.771L101.036 246.812L99.1976 240.917L93.0713 241.564L98.1002 237.991L95.593 232.35Z" fill="#BDABFF" fill-opacity="0.33"/>
<path d="M342.606 139.108C342.606 138.899 342.668 138.695 342.784 138.522C342.899 138.348 343.064 138.213 343.256 138.133C343.449 138.053 343.661 138.032 343.865 138.073C344.07 138.114 344.257 138.214 344.405 138.362C344.552 138.51 344.653 138.698 344.693 138.902C344.734 139.107 344.713 139.319 344.633 139.512C344.553 139.705 344.418 139.87 344.245 139.986C344.072 140.102 343.868 140.164 343.66 140.164C343.38 140.164 343.112 140.052 342.915 139.854C342.717 139.657 342.606 139.388 342.606 139.108V139.108Z" fill="#BDABFF" fill-opacity="0.33"/>
<path d="M287.718 69.5422C287.718 69.2082 287.817 68.8818 288.002 68.6041C288.188 68.3264 288.451 68.11 288.759 67.9822C289.067 67.8544 289.406 67.8209 289.733 67.8861C290.06 67.9512 290.361 68.1121 290.596 68.3482C290.832 68.5844 290.993 68.8852 291.058 69.2128C291.123 69.5403 291.09 69.8798 290.962 70.1884C290.834 70.4969 290.618 70.7606 290.341 70.9462C290.064 71.1317 289.738 71.2307 289.404 71.2307C288.958 71.2288 288.53 71.0503 288.214 70.7341C287.898 70.4178 287.72 69.9894 287.718 69.5422V69.5422Z" fill="#BDABFF" fill-opacity="0.33"/>
<path d="M234.093 56.856C234.093 56.5221 234.192 56.1956 234.377 55.9179C234.562 55.6402 234.825 55.4238 235.134 55.296C235.442 55.1682 235.781 55.1348 236.108 55.1999C236.435 55.2651 236.735 55.4259 236.971 55.662C237.207 55.8982 237.367 56.1991 237.432 56.5266C237.497 56.8542 237.464 57.1937 237.336 57.5022C237.209 57.8108 236.993 58.0745 236.715 58.26C236.438 58.4456 236.112 58.5446 235.779 58.5446C235.332 58.5446 234.903 58.3667 234.587 58.05C234.27 57.7334 234.093 57.3039 234.093 56.856Z" fill="#BDABFF" fill-opacity="0.33"/>
<path d="M264.912 43.3268C264.911 42.9907 265.009 42.6619 265.194 42.3819C265.38 42.1019 265.644 41.8834 265.954 41.7541C266.264 41.6249 266.605 41.5907 266.934 41.6559C267.263 41.7211 267.565 41.8828 267.803 42.1204C268.04 42.358 268.201 42.6608 268.266 42.9904C268.332 43.3201 268.297 43.6616 268.168 43.9718C268.039 44.282 267.821 44.5468 267.542 44.7325C267.262 44.9183 266.934 45.0167 266.598 45.0153C266.151 45.0153 265.722 44.8374 265.406 44.5207C265.09 44.2041 264.912 43.7746 264.912 43.3268Z" fill="#BDABFF" fill-opacity="0.33"/>
<path d="M103.195 54.3167C103.195 53.8143 103.344 53.3232 103.622 52.9055C103.901 52.4878 104.297 52.1622 104.761 51.97C105.224 51.7777 105.734 51.7274 106.226 51.8254C106.718 51.9234 107.17 52.1654 107.525 52.5206C107.879 52.8758 108.121 53.3284 108.219 53.8212C108.317 54.3139 108.266 54.8246 108.074 55.2888C107.882 55.7529 107.557 56.1496 107.14 56.4287C106.723 56.7079 106.233 56.8568 105.731 56.8568C105.398 56.8578 105.068 56.7927 104.759 56.6654C104.451 56.5381 104.171 56.3511 103.936 56.115C103.7 55.8789 103.513 55.5985 103.386 55.2899C103.259 54.9813 103.194 54.6506 103.195 54.3167V54.3167Z" fill="#BDABFF" fill-opacity="0.33"/>
<path d="M46.189 120.497C46.1876 120.287 46.2486 120.081 46.3643 119.905C46.48 119.729 46.6452 119.592 46.8389 119.51C47.0327 119.429 47.2462 119.407 47.4525 119.447C47.6588 119.487 47.8485 119.588 47.9977 119.736C48.1468 119.884 48.2485 120.074 48.2901 120.28C48.3316 120.486 48.311 120.7 48.2309 120.895C48.1509 121.089 48.0149 121.256 47.8402 121.373C47.6656 121.49 47.4602 121.553 47.25 121.553C47.111 121.553 46.9732 121.527 46.8445 121.474C46.7158 121.422 46.5988 121.344 46.5002 121.246C46.4016 121.148 46.3233 121.031 46.2699 120.903C46.2165 120.774 46.189 120.636 46.189 120.497V120.497Z" fill="#BDABFF" fill-opacity="0.33"/>
<path d="M0.166504 155.812C0.166504 155.362 0.344902 154.93 0.662452 154.612C0.980002 154.294 1.41069 154.116 1.85978 154.116C2.0818 154.116 2.30164 154.16 2.50667 154.245C2.7117 154.33 2.89788 154.455 3.05454 154.613C3.2112 154.77 3.33523 154.957 3.41953 155.163C3.50384 155.369 3.54674 155.589 3.54578 155.812C3.54578 156.259 3.36815 156.689 3.05196 157.006C2.73578 157.322 2.30693 157.5 1.85978 157.5C1.63776 157.501 1.41773 157.458 1.21234 157.374C1.00694 157.289 0.820221 157.165 0.66289 157.008C0.50556 156.851 0.380719 156.665 0.295535 156.459C0.210351 156.254 0.166502 156.034 0.166504 155.812V155.812Z" fill="#BDABFF" fill-opacity="0.33"/>
<path d="M32.4695 225.581C33.5171 225.581 34.3663 224.731 34.3663 223.682C34.3663 222.633 33.5171 221.782 32.4695 221.782C31.422 221.782 30.5728 222.633 30.5728 223.682C30.5728 224.731 31.422 225.581 32.4695 225.581Z" fill="#BDABFF" fill-opacity="0.33"/>
<path d="M92.2144 216.491C92.2144 216.03 92.3507 215.58 92.6063 215.197C92.8618 214.814 93.225 214.515 93.6499 214.339C94.0749 214.163 94.5425 214.117 94.9936 214.206C95.4447 214.296 95.859 214.518 96.1843 214.844C96.5095 215.17 96.731 215.585 96.8207 216.036C96.9104 216.488 96.8644 216.956 96.6884 217.382C96.5124 217.808 96.2143 218.171 95.8319 218.427C95.4494 218.683 94.9998 218.82 94.5399 218.82C93.9231 218.82 93.3316 218.574 92.8955 218.138C92.4594 217.701 92.2144 217.108 92.2144 216.491V216.491Z" fill="#BDABFF" fill-opacity="0.33"/>
<path d="M277.157 235.092C277.157 234.804 277.072 234.523 276.912 234.283C276.753 234.044 276.526 233.857 276.26 233.747C275.995 233.637 275.702 233.608 275.42 233.664C275.138 233.721 274.879 233.859 274.676 234.063C274.473 234.266 274.334 234.526 274.278 234.808C274.222 235.091 274.251 235.383 274.361 235.649C274.471 235.915 274.657 236.143 274.896 236.302C275.135 236.462 275.416 236.548 275.704 236.548C276.089 236.548 276.459 236.394 276.732 236.121C277.004 235.848 277.157 235.478 277.157 235.092Z" fill="#BDABFF" fill-opacity="0.33"/>
</svg>
