<svg width="40" height="41" viewBox="0 0 40 41" fill="none" xmlns="http://www.w3.org/2000/svg">
<g filter="url(#filter0_d_545_4778)">
<circle cx="20" cy="15" r="15" fill="white"/>
</g>
<path fill-rule="evenodd" clip-rule="evenodd" d="M14.4186 15.3235C13.8647 14.7824 12.9693 14.7824 12.4154 15.3235C11.8615 15.8646 11.8615 16.7391 12.4154 17.2802L16.6654 21.4317C16.9317 21.6919 17.2916 21.8372 17.667 21.8372C17.6826 21.8372 17.6982 21.8372 17.7137 21.8372C18.1062 21.8234 18.4745 21.6532 18.7323 21.3653L28.6489 10.2946C29.1646 9.71892 29.1051 8.84433 28.5172 8.342C27.9279 7.83828 27.0339 7.89917 26.5183 8.47069L17.5976 18.4288L14.4186 15.3235Z" fill="#3CC4C4"/>
<defs>
<filter id="filter0_d_545_4778" x="0" y="0" width="40" height="41" filterUnits="userSpaceOnUse" color-interpolation-filters="sRGB">
<feFlood flood-opacity="0" result="BackgroundImageFix"/>
<feColorMatrix in="SourceAlpha" type="matrix" values="0 0 0 0 0 0 0 0 0 0 0 0 0 0 0 0 0 0 127 0" result="hardAlpha"/>
<feOffset dy="6"/>
<feGaussianBlur stdDeviation="2.5"/>
<feComposite in2="hardAlpha" operator="out"/>
<feColorMatrix type="matrix" values="0 0 0 0 0 0 0 0 0 0 0 0 0 0 0 0 0 0 0.25 0"/>
<feBlend mode="normal" in2="BackgroundImageFix" result="effect1_dropShadow_545_4778"/>
<feBlend mode="normal" in="SourceGraphic" in2="effect1_dropShadow_545_4778" result="shape"/>
</filter>
</defs>
</svg>
