<svg width="100" height="101" viewBox="0 0 100 101" fill="none" xmlns="http://www.w3.org/2000/svg">
<g filter="url(#filter0_dd_1417_2042)">
<rect x="5" y="1" width="90" height="90" rx="12" fill="#0D94CE" shape-rendering="crispEdges"/>
<g filter="url(#filter1_d_1417_2042)">
<path fill-rule="evenodd" clip-rule="evenodd" d="M34.9088 36.1643C36.0861 20.3156 37.6916 15.1565 42.1654 12.9924C43.0859 12.5333 43.514 12.4677 44.9696 12.5114C47.0674 12.5989 48.3732 13.1891 49.8288 14.7193C52.5045 17.4956 53.9387 23.7914 54.7736 36.3829L55.0305 40.121L58.0915 40.2303C61.0027 40.3396 61.1954 40.3615 61.5807 40.8643C62.2229 41.6731 62.1159 42.9847 61.3452 43.728C60.8101 44.2308 60.7031 44.515 60.7031 45.3457V46.3512H62.0945C64.6632 46.3512 65.6265 47.3349 65.6265 50.0019C65.6265 51.4228 65.6693 51.5977 66.0332 51.5977C66.5255 51.5977 66.6968 52.0131 66.6968 53.1498C66.6968 53.893 66.761 54.0023 67.1891 54.0023C67.9169 54.0023 68.1952 54.4177 68.1952 55.467V56.407H70.5284C72.3051 56.407 72.9045 56.4726 73.1186 56.7349C73.247 56.9098 73.3112 57.1502 73.2256 57.2814C73.14 57.4344 65.8191 57.5 50 57.5C34.181 57.5 26.8601 57.4344 26.7745 57.2814C26.6888 57.1502 26.7531 56.9098 26.8815 56.7349C27.0956 56.4726 27.6949 56.407 29.4716 56.407H31.8049V55.467C31.8049 54.4177 32.0832 54.0023 32.811 54.0023C33.2391 54.0023 33.3033 53.893 33.3033 53.0624C33.3033 52.0349 33.4532 51.7507 34.0097 51.5321C34.3308 51.401 34.3736 51.0293 34.3736 47.8159C34.3736 44.7773 34.3094 44.1652 34.0311 43.9247C33.1963 43.2252 33.2819 41.4545 34.1596 40.8206C34.5449 40.5582 34.6305 40.0336 34.9088 36.1643ZM48.2875 14.8724C48.2875 14.7412 47.7738 14.3914 47.1744 14.1072C45.2693 13.1891 42.4437 13.517 41.459 14.7193C41.2021 15.0691 41.4376 15.091 44.7341 15.091C47.0674 15.091 48.2875 15.0035 48.2875 14.8724ZM50.4282 17.6049C50.4282 17.5175 50.2783 17.1895 50.1071 16.8398L49.7646 16.184H44.8626C40.0462 16.184 39.9606 16.184 39.6395 16.6649C38.9117 17.7142 38.9331 17.7142 44.8626 17.7142C47.9236 17.7142 50.4282 17.6705 50.4282 17.6049ZM41.1165 21.8677C41.2878 20.5998 41.4376 19.3974 41.4376 19.1788C41.4376 18.8728 41.2236 18.8072 40.0462 18.8072C38.719 18.8072 38.6334 18.8291 38.4194 19.3974C38.2909 19.7472 38.1411 20.3374 38.0769 20.7091L37.9484 21.4305H39.0615C40.1104 21.4305 40.1747 21.4742 40.1104 21.9114C40.0462 22.3486 39.8964 22.4142 38.8261 22.4797C38.2625 22.5076 37.9575 22.496 37.7653 22.6376C37.5049 22.8293 37.4514 23.3021 37.242 24.5346L37.1136 25.3435L38.3551 25.409C39.4683 25.4746 39.6181 25.5402 39.6823 25.9555C39.7465 26.4365 39.6823 26.4583 38.3551 26.4583H36.9637L36.8353 27.4858C36.6931 28.6353 36.6034 29.0949 36.7912 29.2985C36.9427 29.4627 37.2748 29.4602 37.9056 29.5188C39.0187 29.6062 39.19 29.6937 39.19 30.0653C39.19 30.4588 39.0187 30.5025 37.8842 30.5681C36.4072 30.6337 36.3002 30.7648 36.3002 32.5136V33.4318L37.5417 33.4974C38.612 33.5629 38.7619 33.6285 38.8261 34.0439C38.8903 34.5248 38.8261 34.5467 37.4989 34.5467C36.1503 34.5467 36.0861 34.5685 36.0861 35.0713C36.0861 35.3555 36.0219 36.0332 35.9577 36.6015L35.8078 37.6071H37.8628H39.8964L40.0248 36.0113C40.0576 35.3587 40.1907 33.4251 40.3378 31.2891C40.3828 30.6348 40.4292 29.9615 40.4743 29.3002C40.667 26.4802 40.9667 23.1356 41.1165 21.8677ZM47.4527 23.6821C47.624 23.5072 47.4313 21.2337 47.0888 19.3974L46.9604 18.8072H44.8412C43.3213 18.8072 42.6792 18.8947 42.6149 19.0695C42.4651 19.5505 42.0798 22.4797 42.0798 23.1574C42.0798 23.6821 42.1868 23.8351 42.4865 23.8351C42.7862 23.8351 42.9146 23.6165 43.0217 22.9825C43.0859 22.5016 43.3642 21.8458 43.621 21.496C43.8993 21.1681 44.2204 20.6872 44.3488 20.4686C44.7127 19.7909 45.0766 19.8128 45.3121 20.5342C45.4405 20.9058 45.6118 21.2118 45.6974 21.2118C45.9757 21.2118 46.5751 22.4797 46.5751 23.0481C46.5751 23.6602 47.1102 24.0318 47.4527 23.6821ZM49.4649 21.977C49.4649 21.6053 49.6361 21.5398 50.5994 21.4742C51.841 21.4086 51.841 21.3649 51.4128 19.9002L51.1346 18.9165L49.5933 18.8509C48.0949 18.7854 48.0735 18.8072 48.1805 19.2881C48.5658 21.1244 49.2722 29.1034 49.4863 34.1094L49.6361 37.6071H51.7339H53.8317L53.7033 36.3392C53.6244 35.3606 53.5989 34.9156 53.3642 34.7136C53.1533 34.532 52.7733 34.5467 52.0336 34.5467C50.8135 34.5467 50.6422 34.5029 50.6422 34.1313C50.6422 33.6067 51.0489 33.4536 52.3761 33.4536C53.3822 33.4536 53.425 33.4318 53.425 32.8415C53.425 32.5136 53.3608 31.8797 53.2966 31.4425L53.1681 30.6337L51.7339 30.5681C50.4924 30.5025 50.3211 30.4588 50.3211 30.0653C50.3211 29.6718 50.4924 29.6281 51.6911 29.5625L53.0611 29.4969L52.9327 28.2072C52.8684 27.5076 52.7614 26.83 52.6758 26.6988C52.6116 26.5676 51.9694 26.4583 51.263 26.4583C50.2997 26.4583 49.9572 26.3709 49.8502 26.1086C49.6575 25.6058 50.1713 25.3653 51.4771 25.3653C52.5474 25.3653 52.6116 25.3435 52.5045 24.8625C52.4208 24.6059 52.3165 23.9935 52.2318 23.4963L52.2263 23.4635L52.0978 22.5453L50.7707 22.4797C49.6361 22.4142 49.4649 22.3704 49.4649 21.977ZM44.7556 23.7258C45.2907 23.7258 45.4191 23.6165 45.4619 23.1574C45.5048 22.8295 45.3549 22.4579 45.098 22.2174C44.6913 21.8458 44.6699 21.8458 44.3274 22.3923C43.8137 23.2011 43.9849 23.7258 44.7556 23.7258ZM48.1591 29.8904C48.1377 29.803 48.0521 28.6444 47.9665 27.3327L47.8166 24.9281H44.8626H41.9085L41.7801 25.9555C41.743 26.2965 41.6916 26.8346 41.6383 27.3925C41.5994 27.8003 41.5594 28.2188 41.5232 28.5788L41.3948 30.1746H42.037C42.6364 30.1746 42.6792 30.109 42.7862 29.169C42.8504 28.4695 43.0645 27.9667 43.514 27.4858C43.8779 27.0923 44.2204 26.6114 44.2846 26.3927C44.4345 25.9993 45.2907 25.8681 45.2907 26.2616C45.2907 26.3927 45.6332 26.8955 46.0399 27.3765C46.5323 27.9667 46.8105 28.5788 46.9176 29.2346C47.046 30.109 47.1102 30.1964 47.624 30.1309C47.9236 30.0871 48.1591 29.9997 48.1591 29.8904ZM45.7188 29.4532C45.7188 29.0597 45.569 28.5132 45.3763 28.2509C45.2051 27.9886 44.9696 27.7699 44.8626 27.7699C44.4987 27.7699 43.7923 28.9285 43.7923 29.5406C43.7923 30.1527 43.8351 30.1746 44.7556 30.1746C45.6974 30.1746 45.7188 30.1527 45.7188 29.4532ZM48.5016 36.1206C48.5016 35.2899 48.4374 33.869 48.3732 32.9508L48.2233 31.2676H44.8412H41.459L41.352 31.9671C41.2878 32.3606 41.2021 33.8034 41.1379 35.1369L41.0309 37.6071H41.7801C42.4437 37.6071 42.5079 37.5415 42.5079 36.9731C42.5079 35.749 42.7862 34.9401 43.4926 34.175C43.8779 33.7597 44.2632 33.2132 44.3274 32.9946C44.4987 32.4918 45.2907 32.4262 45.2907 32.929C45.2907 33.1257 45.676 33.716 46.1469 34.2406C46.939 35.115 47.0032 35.2899 47.0032 36.4048V37.6071H47.7524H48.5016V36.1206ZM45.9329 36.5578C45.9329 35.7271 45.8259 35.3992 45.4405 35.0276C45.1623 34.7653 44.8198 34.5467 44.6913 34.5467C44.2204 34.5467 43.5568 35.9239 43.621 36.7327C43.6488 37.0631 43.6645 37.2508 43.7648 37.3628C43.8968 37.51 44.1752 37.5261 44.8198 37.5634L45.9329 37.629V36.5578ZM53.8531 40.2303V39.4652V38.7001H44.884H35.9148L35.8078 39.2903C35.7436 39.6401 35.7436 39.968 35.8078 40.0555C35.8506 40.1648 39.9392 40.2303 44.884 40.2303H53.8531ZM55.1375 42.5475C55.1375 42.2852 54.9662 41.8917 54.7522 41.695C54.3883 41.3671 53.4036 41.3234 44.8412 41.3234C38.7833 41.3234 35.2084 41.4108 34.973 41.5638C34.7375 41.695 34.5877 42.0447 34.5877 42.4164C34.5877 42.8973 34.6947 43.0503 35.08 43.1159C35.3369 43.1596 39.9606 43.1596 45.3549 43.1159L55.1375 43.0722V42.5475ZM60.8101 42.9629V42.1978V41.4327L58.3698 41.3671C56.2078 41.3234 55.9509 41.3452 56.0794 41.6513C56.1436 41.848 56.2078 42.2633 56.2078 42.5475V43.094L58.5196 43.0285L60.8101 42.9629ZM37.3276 47.9689C37.3705 44.4494 37.3705 44.4275 36.8995 44.2964C36.2573 44.1215 35.765 44.1215 35.5938 44.3182C35.5081 44.3838 35.4439 46.067 35.4439 48.0345V51.6196L36.3644 51.554L37.2634 51.4884L37.3276 47.9689ZM40.2603 51.4884V47.8815V44.2745H39.4468C38.9973 44.2526 38.5906 44.2964 38.5478 44.3619C38.4836 44.4057 38.4408 46.067 38.4408 48.0345V51.6196L39.3612 51.554L40.2603 51.4884ZM47.9665 51.4884V47.8815V44.2745L44.8412 44.2089C43.1287 44.1871 41.6731 44.2308 41.5875 44.2964C41.5018 44.3838 41.4376 46.067 41.4376 48.0345V51.6196L44.7127 51.554L47.9665 51.4884ZM56.6359 51.5977L56.5931 47.9252L56.5289 44.2745H55.9295C55.6084 44.2526 55.2873 44.2964 55.2445 44.3619C55.1803 44.4057 55.1375 46.067 55.1375 48.0345V51.5977H55.8867H56.6359ZM59.5257 51.4884V47.8815V44.2964L58.7123 44.2526C58.22 44.2089 57.8561 44.2964 57.7918 44.4494C57.749 44.6024 57.7276 46.2419 57.749 48.1001L57.8132 51.4884H58.6695H59.5257ZM51.0703 51.5977V47.9908V44.3838H50.1071H49.1438V47.9908V51.5977H50.1071H51.0703ZM53.9602 51.4884L54.0244 47.9252L54.0672 44.3838H53.1039H52.1406V48.0126V51.6196L53.0611 51.554L53.9602 51.4884ZM64.5562 50.0675C64.5562 48.7121 64.4919 48.4498 64.021 47.9908C63.5715 47.5098 63.3146 47.4442 62.0945 47.4442H60.7031V49.521V51.5977H62.6296H64.5562V50.0675ZM40.3673 54.0023V53.3465V52.6907H37.4775C35.1014 52.6907 34.5449 52.7563 34.4592 53.0186C34.1167 53.893 34.4592 54.0023 37.4775 54.0023H40.3673ZM48.0735 54.0023V53.3465V52.6907H44.7556H41.4376V53.3465V54.0023H44.7556H48.0735ZM53.9602 53.893L54.0244 53.281L54.0886 52.6907H51.6269H49.1438V53.3465V54.0242L51.5627 53.9586L53.9602 53.893ZM65.5194 53.893V53.3465V52.8L60.3392 52.7344L55.1375 52.6907V53.3465V54.0023L60.3392 53.9586L65.5194 53.893ZM38.8689 56.407V55.7512V55.0954H36.0219C34.4378 55.0954 33.0892 55.1609 33.025 55.2484C32.9394 55.314 32.8752 55.62 32.8752 55.9042V56.407H35.872H38.8689ZM49.4274 55.7457C49.4328 55.6883 49.4381 55.6309 49.4435 55.5763C49.4649 55.2265 49.0796 55.2047 44.7127 55.1391L39.9392 55.0954V55.7512V56.407H44.6485C47.624 56.407 49.3579 56.3195 49.3793 56.1884C49.3953 56.09 49.4114 55.9179 49.4274 55.7457ZM55.3515 56.407V55.7512V55.0954H52.9969H50.6422V55.7512V56.407H52.9969H55.3515ZM67.1463 56.407L67.0821 55.7949L67.0178 55.2047L61.859 55.1391C59.0334 55.1172 56.6573 55.1609 56.5717 55.2265C56.4861 55.314 56.4219 55.62 56.4219 55.9042V56.407H61.7948H67.1463ZM42.9005 47.8884C42.9005 46.8845 43.0037 46.1208 43.1481 45.968C43.3957 45.7062 45.7063 45.597 46.284 45.8371C46.5522 45.9462 46.6141 46.339 46.6141 47.8884C46.6141 49.4377 46.5522 49.8305 46.284 49.9396C45.7063 50.1797 43.3957 50.0706 43.1481 49.8087C43.0037 49.6559 42.9005 48.8922 42.9005 47.8884ZM45.6032 49.0013L45.5413 47.9538C45.4794 46.95 45.4588 46.9064 44.7986 46.8409C44.0352 46.7536 43.8702 47.0155 43.9733 48.1502C44.0352 48.8049 44.0971 48.8703 44.8192 48.9358L45.6032 49.0013Z" fill="white"/>
</g>
<path d="M17.0361 75.1416H18.4961C18.4668 75.6201 18.335 76.0449 18.1006 76.416C17.8695 76.7871 17.5456 77.0768 17.1289 77.2852C16.7155 77.4935 16.2174 77.5977 15.6348 77.5977C15.179 77.5977 14.7705 77.5195 14.4092 77.3633C14.0479 77.2038 13.7386 76.9759 13.4814 76.6797C13.2275 76.3835 13.0339 76.0254 12.9004 75.6055C12.7669 75.1855 12.7002 74.7152 12.7002 74.1943V73.7012C12.7002 73.1803 12.7686 72.71 12.9053 72.29C13.0452 71.8669 13.2438 71.5072 13.501 71.2109C13.7614 70.9147 14.0723 70.6868 14.4336 70.5273C14.7949 70.3678 15.1986 70.2881 15.6445 70.2881C16.237 70.2881 16.7367 70.3955 17.1436 70.6104C17.5537 70.8252 17.8711 71.1214 18.0957 71.499C18.3236 71.8766 18.4603 72.3063 18.5059 72.7881H17.041C17.0247 72.5016 16.9678 72.2591 16.8701 72.0605C16.7725 71.8587 16.6243 71.7074 16.4258 71.6064C16.2305 71.5023 15.9701 71.4502 15.6445 71.4502C15.4004 71.4502 15.1872 71.4958 15.0049 71.5869C14.8226 71.6781 14.6696 71.8164 14.5459 72.002C14.4222 72.1875 14.3294 72.4219 14.2676 72.7051C14.209 72.985 14.1797 73.3138 14.1797 73.6914V74.1943C14.1797 74.5622 14.2074 74.8861 14.2627 75.166C14.318 75.4427 14.4027 75.6771 14.5166 75.8691C14.6338 76.0579 14.7835 76.2012 14.9658 76.2988C15.1514 76.3932 15.3743 76.4404 15.6348 76.4404C15.9408 76.4404 16.193 76.3916 16.3916 76.2939C16.5902 76.1963 16.7415 76.0514 16.8457 75.8594C16.9531 75.6673 17.0166 75.4281 17.0361 75.1416ZM24.1992 73.2861V74.4287H20.4883V73.2861H24.1992ZM20.9229 70.3906V77.5H19.458V70.3906H20.9229ZM25.2441 70.3906V77.5H23.7842V70.3906H25.2441ZM31.2598 73.2861V74.4287H27.5488V73.2861H31.2598ZM27.9834 70.3906V77.5H26.5186V70.3906H27.9834ZM32.3047 70.3906V77.5H30.8447V70.3906H32.3047ZM36.5576 71.6064L34.624 77.5H33.0664L35.708 70.3906H36.6992L36.5576 71.6064ZM38.1641 77.5L36.2256 71.6064L36.0693 70.3906H37.0703L39.7266 77.5H38.1641ZM38.0762 74.8535V76.001H34.3213V74.8535H38.0762ZM42.959 70.3906V77.5H41.499V70.3906H42.959ZM45.1465 70.3906V71.5381H39.3457V70.3906H45.1465ZM49.2383 70.3906V77.5H47.7783V70.3906H49.2383ZM51.4258 70.3906V71.5381H45.625V70.3906H51.4258ZM53.8184 70.3906V77.5H52.3584V70.3906H53.8184ZM58.8916 75.6396C58.8916 75.5127 58.8721 75.3988 58.833 75.2979C58.7972 75.1937 58.7288 75.0993 58.6279 75.0146C58.527 74.9268 58.3854 74.8405 58.2031 74.7559C58.0208 74.6712 57.7848 74.5833 57.4951 74.4922C57.1729 74.388 56.8669 74.2708 56.5771 74.1406C56.2907 74.0104 56.0368 73.859 55.8154 73.6865C55.5973 73.5107 55.4248 73.3073 55.2979 73.0762C55.1742 72.8451 55.1123 72.5765 55.1123 72.2705C55.1123 71.9743 55.1774 71.7057 55.3076 71.4648C55.4378 71.2207 55.6201 71.0124 55.8545 70.8398C56.0889 70.6641 56.3656 70.529 56.6846 70.4346C57.0068 70.3402 57.36 70.293 57.7441 70.293C58.2682 70.293 58.7256 70.3874 59.1162 70.5762C59.5068 70.765 59.8096 71.0238 60.0244 71.3525C60.2425 71.6813 60.3516 72.0573 60.3516 72.4805H58.8965C58.8965 72.2721 58.8525 72.0898 58.7646 71.9336C58.68 71.7741 58.5498 71.6488 58.374 71.5576C58.2015 71.4665 57.9834 71.4209 57.7197 71.4209C57.4658 71.4209 57.2542 71.46 57.085 71.5381C56.9157 71.613 56.7887 71.7155 56.7041 71.8457C56.6195 71.9727 56.5771 72.1159 56.5771 72.2754C56.5771 72.3958 56.6064 72.5049 56.665 72.6025C56.7269 72.7002 56.818 72.7913 56.9385 72.876C57.0589 72.9606 57.207 73.0404 57.3828 73.1152C57.5586 73.1901 57.762 73.2633 57.9932 73.335C58.3805 73.4521 58.7207 73.584 59.0137 73.7305C59.3099 73.877 59.5573 74.0413 59.7559 74.2236C59.9544 74.4059 60.1042 74.6126 60.2051 74.8438C60.306 75.0749 60.3564 75.3369 60.3564 75.6299C60.3564 75.9391 60.2962 76.2158 60.1758 76.46C60.0553 76.7041 59.8812 76.9108 59.6533 77.0801C59.4255 77.2493 59.1536 77.3779 58.8379 77.4658C58.5221 77.5537 58.1689 77.5977 57.7783 77.5977C57.4268 77.5977 57.0801 77.5521 56.7383 77.4609C56.3965 77.3665 56.0856 77.2249 55.8057 77.0361C55.529 76.8473 55.3076 76.6064 55.1416 76.3135C54.9756 76.0205 54.8926 75.6738 54.8926 75.2734H56.3623C56.3623 75.4948 56.3965 75.682 56.4648 75.835C56.5332 75.988 56.6292 76.1117 56.7529 76.2061C56.8799 76.3005 57.0296 76.3688 57.2021 76.4111C57.3779 76.4535 57.57 76.4746 57.7783 76.4746C58.0322 76.4746 58.2406 76.4388 58.4033 76.3672C58.5693 76.2956 58.6914 76.1963 58.7695 76.0693C58.8509 75.9424 58.8916 75.7992 58.8916 75.6396ZM66.9873 73.7842V76.6016C66.8766 76.735 66.7057 76.8799 66.4746 77.0361C66.2435 77.1891 65.9456 77.321 65.5811 77.4316C65.2165 77.5423 64.7754 77.5977 64.2578 77.5977C63.7988 77.5977 63.3805 77.5228 63.0029 77.373C62.6253 77.2201 62.2998 76.9971 62.0264 76.7041C61.7562 76.4111 61.5479 76.0531 61.4014 75.6299C61.2549 75.2035 61.1816 74.7168 61.1816 74.1699V73.7256C61.1816 73.1787 61.2516 72.6921 61.3916 72.2656C61.5348 71.8392 61.7383 71.4795 62.002 71.1865C62.2656 70.8936 62.5798 70.6706 62.9443 70.5176C63.3089 70.3646 63.7142 70.2881 64.1602 70.2881C64.7786 70.2881 65.2865 70.389 65.6836 70.5908C66.0807 70.7894 66.3835 71.0661 66.5918 71.4209C66.8034 71.7725 66.9336 72.1761 66.9824 72.6318H65.5615C65.5257 72.391 65.4574 72.181 65.3564 72.002C65.2555 71.8229 65.1107 71.6829 64.9219 71.582C64.7363 71.4811 64.4954 71.4307 64.1992 71.4307C63.9551 71.4307 63.737 71.4811 63.5449 71.582C63.3561 71.6797 63.1966 71.8245 63.0664 72.0166C62.9362 72.2087 62.8369 72.4463 62.7686 72.7295C62.7002 73.0127 62.666 73.3415 62.666 73.7158V74.1699C62.666 74.541 62.7018 74.8698 62.7734 75.1562C62.8451 75.4395 62.9508 75.6787 63.0908 75.874C63.234 76.0661 63.4098 76.2109 63.6182 76.3086C63.8265 76.4062 64.069 76.4551 64.3457 76.4551C64.5768 76.4551 64.7689 76.4355 64.9219 76.3965C65.0781 76.3574 65.2035 76.3102 65.2979 76.2549C65.3955 76.1963 65.4704 76.141 65.5225 76.0889V74.8291H64.1846V73.7842H66.9873ZM71.0596 71.6064L69.126 77.5H67.5684L70.21 70.3906H71.2012L71.0596 71.6064ZM72.666 77.5L70.7275 71.6064L70.5713 70.3906H71.5723L74.2285 77.5H72.666ZM72.5781 74.8535V76.001H68.8232V74.8535H72.5781ZM74.8877 70.3906H77.5391C78.0827 70.3906 78.5498 70.472 78.9404 70.6348C79.3343 70.7975 79.637 71.0384 79.8486 71.3574C80.0602 71.6764 80.166 72.0687 80.166 72.5342C80.166 72.915 80.1009 73.2422 79.9707 73.5156C79.8438 73.7858 79.6631 74.012 79.4287 74.1943C79.1976 74.3734 78.9258 74.5166 78.6133 74.624L78.1494 74.8682H75.8447L75.835 73.7256H77.5488C77.806 73.7256 78.0192 73.68 78.1885 73.5889C78.3577 73.4977 78.4847 73.3708 78.5693 73.208C78.6572 73.0452 78.7012 72.8564 78.7012 72.6416C78.7012 72.4137 78.6589 72.2168 78.5742 72.0508C78.4896 71.8848 78.361 71.7578 78.1885 71.6699C78.016 71.582 77.7995 71.5381 77.5391 71.5381H76.3525V77.5H74.8877V70.3906ZM78.8623 77.5L77.2412 74.3311L78.7891 74.3213L80.4297 77.4316V77.5H78.8623ZM86.0352 73.2861V74.4287H82.3242V73.2861H86.0352ZM82.7588 70.3906V77.5H81.2939V70.3906H82.7588ZM87.0801 70.3906V77.5H85.6201V70.3906H87.0801Z" fill="white"/>
</g>
<defs>
<filter id="filter0_dd_1417_2042" x="0.0437061" y="0.291958" width="99.9126" height="99.9126" filterUnits="userSpaceOnUse" color-interpolation-filters="sRGB">
<feFlood flood-opacity="0" result="BackgroundImageFix"/>
<feColorMatrix in="SourceAlpha" type="matrix" values="0 0 0 0 0 0 0 0 0 0 0 0 0 0 0 0 0 0 127 0" result="hardAlpha"/>
<feMorphology radius="0.708042" operator="dilate" in="SourceAlpha" result="effect1_dropShadow_1417_2042"/>
<feOffset dy="4.24825"/>
<feGaussianBlur stdDeviation="2.12413"/>
<feComposite in2="hardAlpha" operator="out"/>
<feColorMatrix type="matrix" values="0 0 0 0 0.12549 0 0 0 0 0.419608 0 0 0 0 0.545098 0 0 0 0.51 0"/>
<feBlend mode="normal" in2="BackgroundImageFix" result="effect1_dropShadow_1417_2042"/>
<feColorMatrix in="SourceAlpha" type="matrix" values="0 0 0 0 0 0 0 0 0 0 0 0 0 0 0 0 0 0 127 0" result="hardAlpha"/>
<feOffset dy="3"/>
<feComposite in2="hardAlpha" operator="out"/>
<feColorMatrix type="matrix" values="0 0 0 0 0.124902 0 0 0 0 0.417997 0 0 0 0 0.544059 0 0 0 1 0"/>
<feBlend mode="normal" in2="effect1_dropShadow_1417_2042" result="effect2_dropShadow_1417_2042"/>
<feBlend mode="normal" in="SourceGraphic" in2="effect2_dropShadow_1417_2042" result="shape"/>
</filter>
<filter id="filter1_d_1417_2042" x="22.7355" y="12.5" width="54.5292" height="53" filterUnits="userSpaceOnUse" color-interpolation-filters="sRGB">
<feFlood flood-opacity="0" result="BackgroundImageFix"/>
<feColorMatrix in="SourceAlpha" type="matrix" values="0 0 0 0 0 0 0 0 0 0 0 0 0 0 0 0 0 0 127 0" result="hardAlpha"/>
<feOffset dy="4"/>
<feGaussianBlur stdDeviation="2"/>
<feComposite in2="hardAlpha" operator="out"/>
<feColorMatrix type="matrix" values="0 0 0 0 0 0 0 0 0 0 0 0 0 0 0 0 0 0 0.25 0"/>
<feBlend mode="normal" in2="BackgroundImageFix" result="effect1_dropShadow_1417_2042"/>
<feBlend mode="normal" in="SourceGraphic" in2="effect1_dropShadow_1417_2042" result="shape"/>
</filter>
</defs>
</svg>
