<svg width="24" height="24" viewBox="0 0 24 24" fill="none" xmlns="http://www.w3.org/2000/svg">
<g clip-path="url(#clip0_367_416)">
<path d="M14.0625 11.7812H16.8125" stroke="#777777" stroke-linecap="round" stroke-linejoin="round"/>
<path d="M7.1875 11.7812H9.9375" stroke="#777777" stroke-linecap="round" stroke-linejoin="round"/>
<path d="M8.5625 10.4062V13.1562" stroke="#777777" stroke-linecap="round" stroke-linejoin="round"/>
<path d="M15.783 7.28979L8.21929 7.31216C7.16864 7.31223 6.15158 7.6824 5.34667 8.35766C4.54176 9.03293 4.00042 9.97014 3.8177 11.0048L3.81843 11.0049L2.41211 18.2377C2.32328 18.7416 2.39743 19.2608 2.62378 19.7198C2.85013 20.1787 3.2169 20.5536 3.67081 20.7899C4.12472 21.0262 4.64215 21.1116 5.14794 21.0338C5.65372 20.956 6.12154 20.7189 6.48342 20.3571L6.48328 20.357L10.1988 16.2497L15.783 16.2273C16.9682 16.2273 18.1048 15.7565 18.9429 14.9184C19.7809 14.0804 20.2517 12.9437 20.2517 11.7585C20.2517 10.5734 19.7809 9.43671 18.9429 8.59866C18.1048 7.76061 16.9682 7.28979 15.783 7.28979V7.28979Z" stroke="#777777" stroke-linecap="round" stroke-linejoin="round"/>
<path d="M20.1837 10.9827L21.5888 18.2378C21.6777 18.7417 21.6035 19.2609 21.3772 19.7199C21.1508 20.1788 20.7841 20.5537 20.3302 20.79C19.8762 21.0263 19.3588 21.1117 18.853 21.0339C18.3472 20.9561 17.8794 20.7191 17.5175 20.3572L17.5177 20.3571L13.8047 16.2353" stroke="#777777" stroke-linecap="round" stroke-linejoin="round"/>
</g>
<defs>
<clipPath id="clip0_367_416">
<rect width="24" height="24" fill="white"/>
</clipPath>
</defs>
</svg>
