<svg width="25" height="25" viewBox="0 0 25 25" fill="none" xmlns="http://www.w3.org/2000/svg">
<path d="M14.8438 10.5469H17.9688" stroke="#212121" stroke-linecap="round" stroke-linejoin="round"/>
<path d="M7.03125 10.5469H10.1562" stroke="#212121" stroke-linecap="round" stroke-linejoin="round"/>
<path d="M8.59375 8.98438V12.1094" stroke="#212121" stroke-linecap="round" stroke-linejoin="round"/>
<path d="M17.2357 5.44312L8.64058 5.46853C7.44665 5.46861 6.29091 5.88925 5.37624 6.6566C4.46156 7.42395 3.84641 8.48896 3.63877 9.66469L3.6396 9.66484L2.04151 17.8839C1.94057 18.4566 2.02483 19.0465 2.28205 19.5681C2.53926 20.0896 2.95604 20.5156 3.47185 20.7841C3.98766 21.0526 4.57565 21.1497 5.15041 21.0613C5.72516 20.9729 6.25677 20.7035 6.668 20.2924L6.66784 20.2922L10.8901 15.6248L17.2357 15.5994C18.5825 15.5994 19.8741 15.0644 20.8265 14.112C21.7788 13.1597 22.3138 11.868 22.3138 10.5212C22.3138 9.17444 21.7788 7.8828 20.8265 6.93046C19.8741 5.97813 18.5825 5.44312 17.2357 5.44312V5.44312Z" stroke="#212121" stroke-width="1.5" stroke-linecap="round" stroke-linejoin="round"/>
<path d="M21.7996 9.6394L23.3964 17.8838C23.4974 18.4565 23.4131 19.0465 23.1559 19.568C22.8987 20.0896 22.4819 20.5156 21.9661 20.7841C21.4503 21.0526 20.8623 21.1497 20.2875 21.0613C19.7128 20.9728 19.1812 20.7035 18.7699 20.2923L18.7701 20.2922L14.5508 15.6083" stroke="#212121" stroke-linecap="round" stroke-linejoin="round"/>
</svg>
