<svg width="147" height="125" viewBox="0 0 147 125" fill="none" xmlns="http://www.w3.org/2000/svg">
<g filter="url(#filter0_dd_545_3899)">
<rect x="7.83334" y="1.88892" width="131.556" height="110" rx="16" fill="url(#paint0_linear_545_3899)"/>
</g>
<g filter="url(#filter1_d_545_3899)">
<g style="mix-blend-mode:screen" opacity="0.4">
<path d="M78.6597 18.7778C84.5258 18.7763 90.2765 20.4082 95.2675 23.4907C100.259 26.5732 104.293 30.9845 106.918 36.2304C109.543 41.4763 110.656 47.3496 110.132 53.1922C109.607 59.0349 107.466 64.6161 103.949 69.3107H53.3705C49.853 64.6161 47.7121 59.0349 47.1877 53.1922C46.6633 47.3496 47.7761 41.4763 50.4014 36.2304C53.0267 30.9845 57.0608 26.5732 62.0518 23.4907C67.0428 20.4082 72.7935 18.7763 78.6597 18.7778V18.7778Z" fill="url(#paint1_linear_545_3899)"/>
<path d="M95.3947 42.8821C93.4079 42.9048 92.9891 43.1612 92.7294 43.4891C91.2815 43.2781 88.9669 43.606 88.7818 44.1903C87.5872 44.2131 86.6782 44.4955 86.6068 44.8916H108.718C108.672 44.3559 107.744 44.3072 106.569 44.1903C106.637 43.5605 105.166 43.2164 103.39 43.3495C103.296 43.3495 103.225 43.3723 103.131 43.3723C103.131 43.2781 103.157 43.1872 103.157 43.0931C103.014 42.671 102.572 42.3204 101.589 42.0867C100.568 41.872 99.5223 41.801 98.4819 41.8757C96.9854 41.9698 95.794 42.3432 95.3947 42.8821Z" fill="url(#paint2_linear_545_3899)"/>
<path d="M87.2139 33.6267C84.3636 33.7208 83.7565 34.211 83.3799 34.8181C81.3022 34.4221 77.9585 35.0746 77.702 36.2433C75.9717 36.2433 74.6634 36.8049 74.5693 37.6002H106.429C106.358 36.5257 105.027 36.4316 103.342 36.1978C103.436 34.9804 101.31 34.3052 98.7384 34.5746L98.3878 34.6428C98.4106 34.4578 98.4106 34.2695 98.4333 34.1072C98.1995 33.2664 97.5697 32.5651 96.1608 32.1204C94.7019 31.7105 93.1795 31.5751 91.6711 31.7211C89.5058 31.8964 87.7982 32.5749 87.2139 33.6267Z" fill="#FFC640"/>
<path d="M73.7057 49.076C71.0405 49.1214 70.4789 49.4721 70.1347 49.9168C68.1869 49.6149 65.1094 50.1051 64.8529 50.9232C63.2297 50.9232 62.0253 51.3192 61.9312 51.8971H91.5672C91.5218 51.1244 90.2687 51.079 88.6942 50.9232C88.7883 50.0564 86.8243 49.5662 84.4155 49.7545C84.3213 49.7772 84.2045 49.7772 84.0908 49.7999C84.1168 49.6603 84.1168 49.5435 84.1395 49.4039C83.9285 48.8195 83.3442 48.3261 82.0359 48.0015C80.6611 47.7122 79.2525 47.6171 77.8513 47.719C75.8321 47.8359 74.2414 48.3196 73.7057 49.076Z" fill="url(#paint3_linear_545_3899)"/>
<path d="M71.8586 29.2537C70.8295 29.2797 70.5957 29.4647 70.4789 29.6985C69.7322 29.5361 68.5148 29.7926 68.4207 30.2374C67.7909 30.2374 67.3234 30.4484 67.278 30.7503H78.7993C78.7766 30.3542 78.2864 30.3055 77.6793 30.2146C77.702 29.7699 76.9521 29.5134 76.0172 29.6043C75.9717 29.6043 75.9263 29.6303 75.8776 29.6303C75.8962 29.5616 75.9038 29.4904 75.9003 29.4193C75.8466 29.232 75.7425 29.063 75.5994 28.9308C75.4563 28.7986 75.2796 28.7081 75.0887 28.6694C74.5616 28.5191 74.0119 28.4642 73.4655 28.507C72.6767 28.5785 72.0696 28.8577 71.8586 29.2537Z" fill="#FFC640"/>
<path d="M74.9426 25.329C75.6925 26.6275 79.1629 25.329 79.6661 26.3808C80.1335 25.329 83.6136 26.6373 84.3863 25.329C83.9415 26.9522 80.2958 25.8419 79.6661 27.4553C79.033 25.8419 75.3873 26.9651 74.9426 25.329Z" fill="white"/>
<path d="M84.1525 29.4193C84.6427 30.2601 86.886 29.4193 87.2138 30.0978C87.519 29.4193 89.7622 30.2601 90.2524 29.4193C89.9733 30.4711 87.6132 29.7439 87.2138 30.773C86.7951 29.7472 84.4317 30.4646 84.1525 29.4193Z" fill="white"/>
<path d="M74.1472 32.5975C74.592 33.3702 76.6729 32.5975 76.9521 33.2273C77.2573 32.5975 79.3382 33.3702 79.7829 32.5975C79.5005 33.5714 77.3514 32.9027 76.9521 33.8604C76.5788 32.9027 74.407 33.5779 74.1472 32.5975Z" fill="white"/>
<path d="M88.5481 34.7726C89.0383 35.6134 91.2815 34.7726 91.5867 35.4478C91.9113 34.7726 94.1578 35.6134 94.648 34.7726C94.3428 35.8471 92.0055 35.0972 91.5867 36.149C91.1874 35.0972 88.8273 35.8471 88.5481 34.7726Z" fill="white"/>
</g>
<path d="M103.1 68.3169L116.004 68.2316H33.5246L46.4248 68.3169C38.0874 68.3778 32.8786 68.4916 32.8786 68.6379C32.8786 68.7841 44.4054 68.9914 60.5073 69.0442C53.6935 69.1051 49.273 69.2514 49.273 69.3652C49.273 69.4789 54.7459 69.6577 62.937 69.7186C44.9174 69.7755 31.9563 69.9502 31.9563 70.1249C31.9563 70.2997 45.5309 70.4744 64.2818 70.5312C50.9998 70.5922 41.6385 70.7385 41.6385 70.9132C41.6385 71.0879 49.3055 71.2057 60.5966 71.2951C55.27 71.352 51.9058 71.4698 51.9058 71.6161C51.9058 71.7623 57.9029 71.9086 66.6506 71.9939C62.4697 72.0549 59.7759 72.1727 59.7759 72.319C59.7759 72.5506 67.967 72.7253 78.088 72.7253C88.209 72.7253 96.3717 72.5506 96.3717 72.319C96.3717 72.1727 93.7104 72.0549 89.5295 71.9939C98.2448 71.9086 104.27 71.7623 104.27 71.6161C104.27 71.4698 100.906 71.352 95.555 71.2951C106.875 71.2057 114.542 71.0879 114.542 70.9132C114.542 70.7385 105.197 70.5922 91.8983 70.5312C110.621 70.4744 124.224 70.3281 124.224 70.1249C124.224 69.9218 111.263 69.7715 93.2147 69.7186C101.434 69.6577 106.875 69.5114 106.875 69.3652C106.875 69.2189 101.593 69.1051 93.6535 69.0157C107.285 68.9588 116.646 68.8126 116.646 68.6338C116.646 68.455 111.409 68.3778 103.1 68.3169Z" fill="white"/>
<path d="M92.6585 73.1438C107.403 73.0869 117.642 72.9691 117.642 72.8228C117.642 72.5872 98.4524 72.4165 74.7568 72.4165C51.0612 72.4165 31.8389 72.5912 31.8389 72.8228C31.8389 72.9691 42.1062 73.0869 56.851 73.1438C51.569 73.2047 48.3186 73.2901 48.3186 73.351C48.3186 73.4119 55.5711 73.5826 65.7897 73.611C61.4625 73.672 58.6834 73.7289 58.6834 73.8183C58.6834 73.9076 62.1329 74.0214 67.3133 74.0498C55.9368 74.0823 47.7417 74.1961 47.7417 74.3139C47.7417 74.4318 56.3106 74.5212 68.1584 74.5496C59.7642 74.6065 53.8565 74.6959 53.8565 74.8137C53.8565 74.9315 58.6834 74.9884 65.8506 75.0453C62.4539 75.1062 60.3208 75.1631 60.3208 75.2525C60.3208 75.3419 64.1238 75.4272 69.6658 75.4841C67.033 75.545 65.3346 75.6019 65.3346 75.6913C65.3346 75.7807 70.5109 75.9513 76.8899 75.9513C83.2689 75.9513 88.4452 75.8376 88.4452 75.6913C88.4452 75.545 86.7468 75.545 84.114 75.4841C89.6153 75.4272 93.4183 75.3378 93.4183 75.2525C93.4183 75.1672 91.3137 75.1062 87.917 75.0453C95.0557 74.9884 99.9111 74.899 99.9111 74.8137C99.9111 74.7284 94.0034 74.6065 85.6092 74.5496C97.4245 74.5212 106.026 74.4318 106.026 74.3139C106.026 74.1961 97.8348 74.0823 86.4543 74.0498C91.6347 74.0214 95.0842 73.9361 95.0842 73.8183C95.0842 73.7004 91.7525 73.6435 86.7184 73.611C95.3198 73.5541 101.227 73.4648 101.227 73.351C101.227 73.2372 97.9405 73.2047 92.6585 73.1438Z" fill="white"/>
<path d="M85.9301 76.305C95.1451 76.2766 101.553 76.1872 101.553 76.0694C101.553 75.9515 89.5584 75.8378 74.7568 75.8378C59.9551 75.8378 47.9407 75.9515 47.9407 76.0694C47.9407 76.1872 54.3481 76.2766 63.5631 76.305C60.2883 76.3335 58.2121 76.3619 58.2121 76.4228C58.2121 76.4838 62.7749 76.5691 69.1214 76.5976C66.4316 76.626 64.7048 76.6544 64.7048 76.7154C64.7048 76.7763 66.842 76.8291 70.0884 76.8616C62.978 76.8901 57.8586 76.947 57.8586 77.0079C57.8586 77.0689 63.2137 77.1542 70.6125 77.1826C65.3793 77.2111 61.6738 77.268 61.6738 77.3289C61.6738 77.3898 64.717 77.4467 69.162 77.4752C67.0573 77.5036 65.7409 77.5605 65.7409 77.593C65.7409 77.6255 68.1097 77.7393 71.5632 77.7393C69.8933 77.7677 68.841 77.8246 68.841 77.8855C68.841 77.9465 72.0914 78.0603 76.0691 78.0603C80.0469 78.0603 83.2932 77.9709 83.2932 77.8855C83.2932 77.8002 82.2125 77.7677 80.571 77.7393C84.0246 77.7393 86.3933 77.6783 86.3933 77.593C86.3933 77.5077 85.0769 77.5036 82.9438 77.4752C87.4131 77.4467 90.432 77.3858 90.432 77.3289C90.432 77.272 86.7468 77.2111 81.4933 77.1826C88.8921 77.1542 94.2472 77.0932 94.2472 77.0079C94.2472 76.9226 89.1277 76.8901 82.0174 76.8616C85.2354 76.8291 87.401 76.7723 87.401 76.7154C87.401 76.6585 85.3247 76.5976 82.1962 76.5691C87.5472 76.5366 91.2649 76.4797 91.2649 76.4228C91.2649 76.366 89.2049 76.3335 85.9301 76.305Z" fill="white"/>
<path d="M27.1808 65.7986C23.8799 50.127 25.0477 41.3764 28.7166 33.9592C28.0168 33.9645 27.3347 34.2152 26.7595 34.6786C26.7899 34.3176 26.9104 33.9749 27.1061 33.6925C26.0448 34.3254 25.1648 35.3037 24.5731 36.508C24.4977 36.1536 24.5106 35.7814 24.6105 35.4352C24.0345 36.1918 23.0107 38.536 22.6107 39.4538C22.5341 39.0594 22.5089 38.6539 22.5361 38.2507C21.9601 39.3174 21.3469 41.8229 21.2296 44.3656C21.1225 43.9881 21.0457 43.5999 21.0003 43.2059C21.0376 43.609 21.0749 45.5253 21.0376 45.885C19.3472 38.5608 21.4589 33.4816 27.1808 30.5668C26.719 29.8706 26.0453 29.4067 25.2984 29.2707C25.3895 29.1401 25.508 29.0389 25.6425 28.977C25.777 28.9151 25.9229 28.8945 26.0663 28.9172C25.0691 28.297 23.2666 29.4071 22.728 29.6738C22.7426 29.4765 22.7907 29.2845 22.8694 29.1088C22.9481 28.9332 23.0559 28.7774 23.1866 28.6505C22.4614 28.8242 21.1923 29.9901 20.1577 31.373C20.0825 31.0443 20.1089 30.6953 20.2324 30.387C19.5018 30.6102 18.6326 31.863 18.046 32.7994C19.4272 26.8644 24.4451 21.9961 29.2445 28.9606C28.7432 27.8877 28.2473 26.6412 27.554 26.2381C27.8323 26.1845 28.1179 26.2483 28.3593 26.4179C27.2715 25.0008 25.824 24.0233 24.2265 23.6271C24.4946 23.4501 24.7981 23.3582 25.1064 23.3605C24.0923 22.8777 23.002 22.6494 21.9068 22.6907C25.245 21.1713 28.6632 20.948 30.9296 27.6893C32.9613 23.4039 37.3287 23.6706 40.4109 28.5389C39.4165 27.8167 38.3393 27.2613 37.2114 26.8892L37.558 27.6458C36.2748 26.999 34.8418 26.8723 33.4892 27.2861C33.8803 27.2968 34.2681 27.372 34.6411 27.5094C33.8408 27.8026 33.1239 28.3427 32.5667 29.0722C36.7901 27.9125 39.8617 32.1111 40.8589 37.246C40.2816 35.7843 39.5036 34.4416 38.5552 33.2708L38.8645 34.3002C37.9034 32.892 36.6652 31.7732 35.2543 31.0382L35.9049 31.8444C34.7315 31.3777 33.4719 31.2856 32.2574 31.5777C37.2914 36.0429 36.7901 44.1237 32.5667 46.8897C33.1791 45.8787 33.6223 44.7426 33.8732 43.5408C33.7185 43.6772 33.5639 43.8074 33.4092 43.764C34.1113 41.9223 34.234 39.8521 33.7559 37.9158C33.7035 38.3442 33.5725 38.7545 33.3719 39.119C33.2173 37.1592 32.492 35.1499 31.8735 34.3871C31.9947 34.7265 32.0227 35.1013 31.9534 35.46C31.4202 34.3002 30.8869 33.8537 30.263 34.1638C25.8103 43.9439 29.3778 58.3504 31.8628 65.687C30.9083 65.718 27.1808 65.8916 27.1808 65.7986Z" fill="white"/>
<path d="M30.023 65.0483C32.9026 53.1658 38.5552 48.0308 43.9198 45.668C43.4689 45.3007 42.9343 45.0978 42.384 45.085C42.5506 44.8723 42.7647 44.7177 43.0026 44.6385C42.0501 44.4844 41.0795 44.6389 40.1976 45.085C40.2789 44.8192 40.4424 44.5981 40.6562 44.4649C39.6394 44.8476 38.6514 45.3267 37.702 45.8975C37.8259 45.6079 37.9799 45.3372 38.1606 45.0912C36.8664 45.8806 35.7292 46.9772 34.8224 48.3099C34.7477 48.3967 35.1317 47.5905 35.1317 47.4603C34.8117 48.0538 34.4553 48.6196 34.0651 49.1533C35.9102 43.6214 39.3284 41.5625 44.2771 42.7284C44.2756 42.3805 44.214 42.0364 44.0958 41.7168C43.9776 41.3971 43.8053 41.1084 43.5892 40.8679C43.7438 40.7376 44.0851 40.9175 44.2397 41.0477C43.8558 40.1113 42.208 39.8446 41.7068 39.7516C41.915 39.5109 42.1842 39.3544 42.4746 39.3051C41.4419 39.0914 40.3817 39.1379 39.3657 39.4415C39.4761 39.2071 39.6334 39.0072 39.8243 38.8585C39.2111 38.6353 38.1766 38.995 37.4087 39.2616C40.7096 36.1608 45.9675 35.7825 46.2768 42.747C46.3888 41.8105 46.5434 40.7376 46.2768 40.1113C46.4828 40.2141 46.647 40.4051 46.7354 40.6446C46.5729 39.1593 46.0133 37.7709 45.1356 36.6755C45.3868 36.703 45.6266 36.8103 45.8288 36.9856C45.358 36.1203 44.7278 35.3874 43.9838 34.8398C46.826 35.6461 49.1297 37.3205 47.8606 42.8338C50.9321 41.1842 53.6998 43.6835 53.7264 48.4153C53.3842 47.4095 52.9033 46.4753 52.3026 45.6494L52.1906 46.3192C51.6323 45.1951 50.7473 44.3396 49.695 43.9067C49.9479 44.1132 50.168 44.3692 50.3456 44.6633C49.702 44.4105 49.0092 44.3803 48.3512 44.5765C51.6147 46.0959 51.9187 50.3813 50.4842 54.1767C50.7221 52.9555 50.7601 51.6932 50.5962 50.4557L50.4042 51.2619C50.329 49.8563 49.9631 48.4926 49.3377 47.2866L49.4497 48.1363C48.8742 47.1876 48.0919 46.4342 47.1833 45.9533C48.6818 51.4914 45.1143 56.3597 41.2321 55.876C42.0217 55.5324 42.761 55.0492 43.4238 54.4434C43.2791 54.466 43.1319 54.4356 43.0026 54.3566C44.1985 53.5692 45.1207 52.3212 45.6102 50.8278C45.4045 51.0676 45.1547 51.2499 44.8796 51.3611C45.4934 50.2226 45.8255 48.9094 45.8395 47.5657C45.7563 47.8446 45.6109 48.0929 45.4182 48.2851C45.5356 47.2556 45.3809 46.6727 44.885 46.5858C38.9338 48.7316 33.1533 57.8357 33.1533 67.4359C32.5187 67.039 29.9857 65.1351 30.023 65.0483Z" fill="white"/>
<path d="M13.1667 68.6204C18.158 63.8389 20.5417 59.7333 24.8984 58.6605C29.1645 57.5876 30.8123 59.0636 34.3851 60.8931C35.8799 61.6244 37.5625 61.64 39.0671 60.9365C41.4081 60.1365 44.2504 60.6264 46.0582 62.6357C46.6341 63.2559 47.21 63.8761 47.8233 64.4962C49.3964 66.1521 50.8948 64.7195 52.5426 64.4962C54.6756 64.1861 55.1183 64.7629 56.846 65.656C58.4434 66.3914 60.1595 66.713 61.8747 66.5986C65.1755 66.5986 69.4363 66.2823 72.6252 66.8219C74.8173 67.1934 76.9766 67.7911 79.0776 68.608L13.1667 68.6204Z" fill="white"/>
<path d="M64.5783 54.4619L67.3406 56.0247L70.1082 57.5876V58.2573C69.2603 58.2573 68.6844 57.9038 68.6097 57.5876V57.631C68.6097 57.9907 68.1085 58.2511 67.5432 58.2511C66.978 58.2511 66.4767 57.9845 66.4767 57.631C66.4767 57.9907 65.6288 58.2511 64.5943 58.2511C63.5598 58.2511 62.7492 57.9845 62.7492 57.631C62.7492 57.9907 62.2533 58.2511 61.6827 58.2511C61.1121 58.2511 60.6162 57.9845 60.6162 57.631V57.5876C60.5042 57.9038 59.9283 58.2573 59.1177 58.2573V57.5876L61.8853 56.0247L64.5783 54.4619ZM66.4607 57.631V57.5876V57.631Z" fill="white"/>
<path d="M64.5996 53.8853C64.7009 53.8853 64.7809 53.9411 64.7809 54.0155V66.7538C64.7809 66.8282 64.7009 66.884 64.5996 66.884C64.5036 66.884 64.4236 66.8282 64.4236 66.7538V54.0155C64.4236 53.9411 64.5036 53.8853 64.5996 53.8853Z" fill="white"/>
<path d="M68.727 63.752L68.6097 62.8589C68.5724 62.5426 68.6097 62.6356 68.727 62.4124C69.0683 61.7922 69.3776 61.2031 69.7242 60.6263L68.727 63.752ZM66.0607 66.4311C65.9808 66.6544 66.2101 66.7412 66.3274 66.6544L67.3246 64.9551L68.6684 65.9846C68.5777 66.1383 68.5009 66.3025 68.4391 66.4745C68.3644 66.6978 68.5564 66.7846 68.6684 66.6544L68.9403 66.2078L70.2415 67.1877C70.5881 67.4544 70.7748 67.1443 70.4335 66.921L69.3243 66.0714L70.9721 65.9846C71.4927 66.3005 71.9935 66.6591 72.4705 67.0575C72.7372 67.2311 72.8918 67.0078 72.7372 66.8342L71.74 66.0714C71.6653 65.8915 71.2814 63.0822 71.244 62.8155C71.2293 62.7629 71.225 62.7072 71.2315 62.6524C71.2379 62.5976 71.255 62.5452 71.2814 62.4992L72.3159 60.1364C72.0866 59.9131 72.0866 60.0868 71.9693 60.2666C71.9319 60.31 70.2042 60.2232 69.9749 60.2232C69.9375 60.1364 69.9375 59.9565 69.7456 60.0433C69.7082 60.0433 69.6656 60.1364 69.6283 60.2232L68.5137 62.1457C68.1298 62.0093 68.2098 62.276 68.2471 62.5922L67.6712 63.6155L67.5965 63.7085C67.2641 63.7607 66.9294 63.7897 66.594 63.7954C66.4447 63.7954 66.4447 63.8388 66.3274 63.752C66.0607 63.5287 65.9434 63.7954 66.0981 64.0186C66.0981 64.0186 66.9406 64.6884 67.0206 64.7318C66.6642 65.2703 66.3365 65.8336 66.0394 66.4187L66.0607 66.4311ZM71.356 65.6249C71.2189 65.6351 71.083 65.589 70.9721 65.4946L70.3588 64.9985C70.2042 64.8683 70.0922 64.8248 70.0495 64.7318C70.3588 64.645 70.9721 63.3054 70.9721 63.262L71.356 65.6249ZM70.6254 65.6249L69.2443 65.7179L69.5536 65.1349C69.6283 64.9985 69.6656 64.9117 69.8576 65.0481L70.6254 65.6249ZM69.0257 65.3582H68.9937L68.9563 65.1349H69.1856L69.0257 65.3582ZM68.6044 65.0915L68.6791 65.5815L67.9538 64.9985C68.1662 65.0734 68.3881 65.1048 68.6097 65.0915H68.6044ZM68.4124 63.6589H67.9911L68.2951 63.1256L68.4124 63.6589Z" fill="white"/>
<path d="M60.4295 63.752L60.5842 62.859C60.6215 62.5427 60.5842 62.6357 60.4722 62.4124C60.1256 61.7923 59.8163 61.2031 59.4057 60.6264L60.4295 63.752ZM63.1598 66.4311C63.2345 66.6544 62.9678 66.7412 62.8505 66.6544L61.8906 64.9551L60.5468 65.9846C60.5842 66.1645 60.7388 66.2947 60.7761 66.4745C60.7928 66.5153 60.7956 66.5619 60.7841 66.605C60.7726 66.6481 60.7476 66.6845 60.714 66.7072C60.6804 66.7298 60.6408 66.737 60.6029 66.7272C60.565 66.7174 60.5317 66.6914 60.5095 66.6544L60.2802 66.2079L58.9737 67.1877C58.6271 67.4544 58.4405 67.1443 58.7817 66.9211L59.8483 66.0714L58.2005 65.9846C57.6893 66.2957 57.1975 66.648 56.7287 67.0389C56.4621 67.2125 56.3074 66.9893 56.4621 66.8156L57.4219 66.0528C57.4966 65.873 57.9179 63.0636 57.9552 62.7969C57.965 62.689 57.9503 62.5799 57.9125 62.4807L56.846 60.1178C57.0753 59.8946 57.1126 60.0682 57.23 60.2481C57.2673 60.2915 58.995 60.2046 59.187 60.2046C59.2617 60.1178 59.2617 59.938 59.4163 60.0248C59.571 60.1116 59.5336 60.1178 59.571 60.2046L60.6375 62.1272C61.0588 61.9907 60.9414 62.2574 60.9414 62.5737L61.5174 63.597C61.5385 63.6221 61.5517 63.655 61.5547 63.69C61.9086 63.7416 62.2646 63.7706 62.6212 63.7768C62.7332 63.7768 62.7759 63.8202 62.8505 63.7334C63.1171 63.5101 63.2345 63.7768 63.1171 64.0001C63.0798 64.0001 62.2373 64.6699 62.1573 64.7133C62.531 65.2489 62.8663 65.8193 63.1598 66.4187V66.4311ZM57.8592 65.6249C58.0885 65.6249 58.0512 65.5815 58.2431 65.4947L58.8564 64.9986C59.011 64.8683 59.0857 64.8249 59.1284 64.7319C58.8191 64.645 58.2432 63.3055 58.2058 63.2621L57.8592 65.6249ZM58.5898 65.6249L59.9709 65.7179L59.6616 65.135C59.587 64.9985 59.5123 64.9117 59.3577 65.0482L58.5898 65.6249ZM60.1256 65.3582H60.2002L60.2375 65.135H59.9709L60.1256 65.3582ZM60.5468 65.0916L60.4722 65.5815L61.1974 64.9986C60.9877 65.0777 60.7668 65.1093 60.5468 65.0916V65.0916ZM60.7761 63.659H61.1974L60.8561 63.1256L60.7761 63.659Z" fill="white"/>
<path d="M120.405 65.7986C123.706 50.127 122.538 41.3764 118.869 33.9592C119.569 33.9645 120.251 34.2152 120.827 34.6786C120.796 34.3176 120.676 33.9749 120.48 33.6925C121.541 34.3254 122.421 35.3037 123.013 36.508C123.088 36.1536 123.075 35.7814 122.976 35.4352C123.589 36.1918 124.549 38.536 124.975 39.4539C125.071 39.0629 125.096 38.6535 125.05 38.2507C125.626 39.3174 126.239 41.8229 126.356 44.3656C126.464 43.9881 126.54 43.5999 126.586 43.2059C126.548 43.609 126.511 45.5253 126.548 45.885C128.239 38.5608 126.127 33.4816 120.405 30.5668C120.867 29.8706 121.541 29.4067 122.288 29.2707C122.197 29.1401 122.078 29.0389 121.944 28.977C121.809 28.9151 121.663 28.8945 121.52 28.9172C122.517 28.297 124.319 29.4071 124.858 29.6738C124.843 29.4765 124.795 29.2845 124.717 29.1088C124.638 28.9332 124.53 28.7774 124.399 28.6505C125.125 28.8242 126.394 29.9901 127.428 31.3731C127.504 31.0443 127.477 30.6953 127.354 30.387C128.084 30.6102 128.927 31.863 129.54 32.7994C128.159 26.8644 123.141 21.9961 118.342 28.9606C118.843 27.8877 119.339 26.6412 120.032 26.2381C119.754 26.1845 119.468 26.2483 119.227 26.4179C120.322 24.9951 121.779 24.0172 123.386 23.6271C123.118 23.4501 122.815 23.3582 122.506 23.3605C123.52 22.8777 124.611 22.6494 125.706 22.6907C122.368 21.1713 118.949 20.948 116.683 27.6893C114.651 23.4039 110.284 23.6706 107.202 28.5389C108.205 27.814 109.291 27.2586 110.428 26.8892L110.055 27.6272C111.338 26.9804 112.771 26.8537 114.123 27.2675C113.732 27.2782 113.345 27.3534 112.972 27.4908C113.772 27.784 114.489 28.3241 115.046 29.0536C110.823 27.8939 107.751 32.0924 106.754 37.2274C107.331 35.7657 108.109 34.423 109.058 33.2522L108.748 34.2816C109.714 32.8606 110.967 31.7399 112.396 31.0196L111.708 31.8258C112.881 31.3591 114.141 31.267 115.355 31.5591C110.321 36.0243 110.823 44.1051 115.046 46.8711C114.434 45.8601 113.99 44.724 113.74 43.5222C113.804 43.5994 113.883 43.6593 113.969 43.6979C114.056 43.7364 114.148 43.7526 114.241 43.7454C113.508 41.9145 113.371 39.8363 113.857 37.8972C113.909 38.3256 114.04 38.7359 114.241 39.1004C114.395 37.1406 115.121 35.1313 115.739 34.3685C115.618 34.7079 115.59 35.0827 115.659 35.4414C116.193 34.2816 116.726 33.8351 117.35 34.1452C121.84 43.9253 118.235 58.3318 115.75 65.6684C116.678 65.718 120.405 65.8917 120.405 65.7986Z" fill="white"/>
<path d="M117.563 65.0483C114.683 53.1658 109.031 48.0308 103.666 45.668C104.117 45.3007 104.652 45.0978 105.202 45.085C105.035 44.8723 104.821 44.7177 104.583 44.6385C105.536 44.4844 106.507 44.6389 107.388 45.085C107.307 44.8192 107.144 44.5981 106.93 44.4649C107.947 44.8476 108.935 45.3267 109.884 45.8975C109.76 45.6079 109.606 45.3372 109.425 45.0912C110.72 45.8806 111.857 46.9772 112.764 48.3099C112.678 48.0187 112.574 47.7348 112.454 47.4603C112.766 48.0528 113.113 48.6186 113.494 49.1533C111.649 43.6214 108.231 41.5625 103.282 42.7284C103.284 42.3805 103.345 42.0364 103.464 41.7168C103.582 41.3971 103.754 41.1084 103.97 40.8679C103.816 40.7376 103.474 40.9175 103.32 41.0477C103.741 40.1113 105.351 39.8446 105.853 39.7516C105.65 39.5022 105.378 39.3441 105.085 39.3051C106.117 39.0914 107.178 39.1379 108.194 39.4415C108.083 39.2071 107.926 39.0072 107.735 38.8585C108.348 38.6353 109.383 38.995 110.151 39.2616C106.85 36.1608 101.592 35.7825 101.283 42.747C101.171 41.8105 101.016 40.7376 101.283 40.1113C101.077 40.2141 100.912 40.4051 100.824 40.6446C100.979 39.163 101.529 37.775 102.397 36.6755C102.146 36.703 101.906 36.8103 101.704 36.9856C102.175 36.1203 102.805 35.3874 103.549 34.8398C100.707 35.6461 98.403 37.3205 99.6721 42.8338C96.6006 41.1842 93.8756 43.6835 93.8063 48.4153C94.1485 47.4095 94.6294 46.4753 95.2301 45.6494L95.3421 46.3192C95.9004 45.1951 96.7854 44.3396 97.8377 43.9067C97.5848 44.1132 97.3647 44.3692 97.1871 44.6633C97.8307 44.4105 98.5235 44.3803 99.1815 44.5765C95.918 46.0959 95.614 50.3813 97.0485 54.1767C96.8106 52.9555 96.7726 51.6932 96.9365 50.4557L97.1285 51.2619C97.2037 49.8563 97.5696 48.4926 98.195 47.2866L98.083 48.1363C98.6732 47.179 99.4746 46.4248 100.403 45.9533C98.9042 51.4914 102.472 56.3597 106.354 55.876C105.564 55.5324 104.825 55.0492 104.162 54.4434C104.307 54.466 104.454 54.4356 104.583 54.3566C103.388 53.5692 102.465 52.3212 101.976 50.8278C102.182 51.0676 102.431 51.2499 102.706 51.3611C102.093 50.2226 101.76 48.9094 101.747 47.5657C101.83 47.8446 101.975 48.0929 102.168 48.2851C102.05 47.2556 102.205 46.6727 102.744 46.5858C108.658 48.7316 114.475 57.8357 114.475 67.4359C115.067 67.039 117.6 65.1351 117.563 65.0483Z" fill="white"/>
<path d="M134.419 68.6204C129.428 63.8389 127.044 59.7333 122.688 58.6605C118.422 57.5876 116.774 59.0636 113.201 60.8931C112.467 61.2553 111.679 61.4456 110.882 61.453C110.085 61.4605 109.295 61.2849 108.556 60.9365C106.178 60.1365 103.336 60.6264 101.528 62.6357C100.952 63.2559 100.376 63.8761 99.7628 64.4962C98.1897 66.1521 96.6912 64.7195 95.0434 64.4962C92.9104 64.1861 92.4678 64.7629 90.74 65.656C89.1426 66.3914 87.4266 66.713 85.7114 66.5986C82.4105 66.5986 78.1498 66.2823 74.9609 66.8219C72.7687 67.1934 70.6094 67.7911 68.5084 68.608L134.419 68.6204Z" fill="white"/>
<path d="M83.0077 54.4619L80.2455 56.0247L77.4778 57.5876V58.2573C78.3257 58.2573 78.9016 57.9038 78.9763 57.5876V57.631C78.9763 57.9907 79.4776 58.2511 80.0428 58.2511C80.6081 58.2511 81.1093 57.9845 81.1093 57.631C81.1093 57.9907 81.9572 58.2511 82.9918 58.2511C84.0263 58.2511 84.8368 57.9845 84.8368 57.631C84.8368 57.9907 85.3328 58.2511 85.9034 58.2511C86.4739 58.2511 86.9699 57.9845 86.9699 57.631V57.5876C87.0819 57.9038 87.6578 58.2573 88.4683 58.2573V57.5876L85.7007 56.0247L83.0077 54.4619ZM81.1253 57.631V57.5876V57.631Z" fill="white"/>
<path d="M82.9917 53.8853C83.0931 53.8853 83.1677 53.9411 83.1677 54.0155V66.7538C83.1677 66.8282 83.0931 66.884 82.9917 66.884C82.8958 66.884 82.8158 66.8282 82.8158 66.7538V54.0155C82.8158 53.9411 82.8958 53.8853 82.9917 53.8853Z" fill="white"/>
<path d="M78.859 63.752L78.9763 62.8589C79.0136 62.5426 78.9763 62.6356 78.859 62.4124C78.5177 61.7922 78.2084 61.2031 77.8618 60.6263L78.859 63.752ZM81.5253 66.4311C81.6053 66.6544 81.376 66.7412 81.2587 66.6544L80.2615 64.9551L78.9176 65.9846C79.0083 66.1383 79.0851 66.3025 79.1469 66.4745C79.2216 66.6978 79.0296 66.7846 78.9176 66.6544L78.6457 66.2078L77.3445 67.1877C76.9979 67.4544 76.8433 67.1443 77.1526 66.921L78.2617 66.0714L76.614 65.9846C76.0933 66.3005 75.5925 66.6591 75.1155 67.0575C74.8489 67.2311 74.6942 67.0078 74.8489 66.8342L75.8461 66.0714C75.9207 65.8915 76.3047 63.0822 76.342 62.8155C76.3635 62.7116 76.3635 62.6032 76.342 62.4992L75.2755 60.1364C75.5048 59.9131 75.5048 60.0868 75.6221 60.2666C75.6594 60.31 77.3872 60.2232 77.6165 60.2232C77.6538 60.1364 77.6538 59.9565 77.8458 60.0433C77.8831 60.0433 77.9258 60.1364 77.9631 60.2232L79.0776 62.1457C79.4616 62.0093 79.3816 62.276 79.3443 62.5922L79.9202 63.6155L79.9948 63.7085C80.3272 63.7607 80.662 63.7897 80.9974 63.7954C81.1467 63.7954 81.1467 63.8388 81.264 63.752C81.5306 63.5287 81.6479 63.7954 81.4933 64.0186C81.4933 64.0186 80.6507 64.6884 80.5708 64.7318C80.9253 65.2704 81.2512 65.8338 81.5466 66.4187L81.5253 66.4311ZM76.23 65.6249C76.3672 65.6351 76.503 65.589 76.614 65.4946L77.2272 64.9985C77.3819 64.8683 77.4938 64.8248 77.5365 64.7318C77.2272 64.645 76.614 63.3054 76.614 63.262L76.23 65.6249ZM76.9606 65.6249L78.3417 65.7179L78.0324 65.1349C77.9578 64.9985 77.9205 64.9117 77.7285 65.0481L76.9606 65.6249ZM78.5604 65.3582H78.5924L78.6297 65.1349H78.4004L78.5604 65.3582ZM78.9816 65.0915L78.907 65.5815L79.6322 64.9985C79.4198 65.0734 79.1979 65.1048 78.9763 65.0915H78.9816ZM79.1736 63.6589H79.5949L79.2909 63.1256L79.1736 63.6589Z" fill="white"/>
<path d="M87.1565 63.752L87.0019 62.859C86.9646 62.5427 87.0019 62.6357 87.1139 62.4124C87.4605 61.7923 87.8071 61.2031 88.1804 60.6264L87.1565 63.752ZM84.4262 66.4187C84.3516 66.642 84.6182 66.7288 84.7355 66.642L85.7327 64.9427L87.0392 65.9722C87.0019 66.1521 86.8472 66.2823 86.8099 66.4621C86.7933 66.5029 86.7904 66.5495 86.802 66.5926C86.8135 66.6357 86.8385 66.6721 86.8721 66.6948C86.9056 66.7174 86.9453 66.7246 86.9832 66.7148C87.021 66.705 87.0544 66.679 87.0765 66.642L87.3058 66.1955L88.6123 67.1753C88.9589 67.442 89.1456 67.1319 88.8043 66.9087L87.7378 66.059L89.3856 65.9722C89.902 66.2771 90.3945 66.6341 90.8574 67.0389C91.124 67.2125 91.2786 66.9893 91.124 66.8156L90.1641 66.0528C90.0895 65.873 89.6682 63.0636 89.6309 62.7969C89.621 62.689 89.6357 62.5799 89.6735 62.4807L90.74 60.1178C90.5107 59.8946 90.4734 60.0682 90.3561 60.2481C90.3188 60.2915 88.591 60.2046 88.399 60.2046C88.3244 60.1178 88.3244 59.938 88.1697 60.0248C88.0151 60.1116 88.0524 60.1178 88.0151 60.2046L86.9486 62.1272C86.5273 61.9907 86.6446 62.2574 86.6446 62.5737L86.058 63.6156C86.0369 63.6407 86.0237 63.6736 86.0207 63.7086C85.6668 63.7602 85.3108 63.7892 84.9542 63.7954C84.8422 63.7954 84.7995 63.8388 84.7249 63.752C84.4582 63.5287 84.3409 63.7954 84.4582 64.0187C84.4956 64.0187 85.3381 64.6885 85.4181 64.7319C85.0487 65.262 84.717 65.8261 84.4262 66.4187V66.4187ZM89.7268 65.6125C89.4975 65.6125 89.5349 65.5691 89.3429 65.4823L88.7296 64.9861C88.575 64.8559 88.5003 64.8125 88.4577 64.7195C88.767 64.6326 89.3429 63.2931 89.3802 63.2497L89.7268 65.6125ZM88.9963 65.6125L87.6151 65.7055L87.9244 65.1226C87.9991 64.9861 88.0737 64.8993 88.2284 65.0358L88.9963 65.6125ZM87.4605 65.3458H87.3858L87.3485 65.1226H87.6151L87.4605 65.3458ZM87.0392 65.0792L87.1139 65.5691L86.3886 64.9861C86.5977 65.0695 86.8185 65.1053 87.0392 65.0916V65.0792ZM86.8099 63.6466H86.3886L86.7299 63.1132L86.8099 63.6466Z" fill="white"/>
</g>
<defs>
<filter id="filter0_dd_545_3899" x="0.833344" y="0.888916" width="145.556" height="124" filterUnits="userSpaceOnUse" color-interpolation-filters="sRGB">
<feFlood flood-opacity="0" result="BackgroundImageFix"/>
<feColorMatrix in="SourceAlpha" type="matrix" values="0 0 0 0 0 0 0 0 0 0 0 0 0 0 0 0 0 0 127 0" result="hardAlpha"/>
<feMorphology radius="1" operator="dilate" in="SourceAlpha" result="effect1_dropShadow_545_3899"/>
<feOffset dy="6"/>
<feGaussianBlur stdDeviation="3"/>
<feComposite in2="hardAlpha" operator="out"/>
<feColorMatrix type="matrix" values="0 0 0 0 0.263417 0 0 0 0 0.189236 0 0 0 0 0.454167 0 0 0 1 0"/>
<feBlend mode="normal" in2="BackgroundImageFix" result="effect1_dropShadow_545_3899"/>
<feColorMatrix in="SourceAlpha" type="matrix" values="0 0 0 0 0 0 0 0 0 0 0 0 0 0 0 0 0 0 127 0" result="hardAlpha"/>
<feOffset dy="3"/>
<feComposite in2="hardAlpha" operator="out"/>
<feColorMatrix type="matrix" values="0 0 0 0 0.540257 0 0 0 0 0.267396 0 0 0 0 0.629167 0 0 0 1 0"/>
<feBlend mode="normal" in2="effect1_dropShadow_545_3899" result="effect2_dropShadow_545_3899"/>
<feBlend mode="normal" in="SourceGraphic" in2="effect2_dropShadow_545_3899" result="shape"/>
</filter>
<filter id="filter1_d_545_3899" x="13.1667" y="18.7778" width="121.253" height="61.2825" filterUnits="userSpaceOnUse" color-interpolation-filters="sRGB">
<feFlood flood-opacity="0" result="BackgroundImageFix"/>
<feColorMatrix in="SourceAlpha" type="matrix" values="0 0 0 0 0 0 0 0 0 0 0 0 0 0 0 0 0 0 127 0" result="hardAlpha"/>
<feOffset dy="2"/>
<feComposite in2="hardAlpha" operator="out"/>
<feColorMatrix type="matrix" values="0 0 0 0 0.662765 0 0 0 0 0.36875 0 0 0 0 0.75 0 0 0 1 0"/>
<feBlend mode="normal" in2="BackgroundImageFix" result="effect1_dropShadow_545_3899"/>
<feBlend mode="normal" in="SourceGraphic" in2="effect1_dropShadow_545_3899" result="shape"/>
</filter>
<linearGradient id="paint0_linear_545_3899" x1="73.6111" y1="1.88892" x2="73.6111" y2="111.889" gradientUnits="userSpaceOnUse">
<stop stop-color="#D57AF1"/>
<stop offset="1" stop-color="#D67AF0"/>
</linearGradient>
<linearGradient id="paint1_linear_545_3899" x1="75.9904" y1="65.5286" x2="75.9904" y2="17.381" gradientUnits="userSpaceOnUse">
<stop stop-color="#FAEB36"/>
<stop offset="0.63" stop-color="#F6A62A"/>
<stop offset="1" stop-color="#F2611D"/>
</linearGradient>
<linearGradient id="paint2_linear_545_3899" x1="94.4654" y1="39.3211" x2="94.4654" y2="42.2825" gradientUnits="userSpaceOnUse">
<stop stop-color="#F2C822"/>
<stop offset="1" stop-color="#FBED6F"/>
</linearGradient>
<linearGradient id="paint3_linear_545_3899" x1="74.127" y1="44.9596" x2="74.127" y2="49.0723" gradientUnits="userSpaceOnUse">
<stop stop-color="#F2C822"/>
<stop offset="1" stop-color="#FFF48C"/>
</linearGradient>
</defs>
</svg>
