<svg width="13" height="26" viewBox="0 0 13 26" fill="none" xmlns="http://www.w3.org/2000/svg">
<path d="M5.18467 22.2901L5.20153 22.2745L5.21741 22.2579C5.33108 22.1392 5.46621 22.0449 5.61479 21.9798C5.76055 21.916 5.91674 21.8815 6.07482 21.8779C6.22512 21.8804 6.3737 21.9134 6.51187 21.9752C6.65281 22.0383 6.78025 22.1302 6.88606 22.2457L6.8992 22.2601L6.91305 22.2737C7.035 22.3938 7.13198 22.5384 7.19751 22.699C7.26305 22.8596 7.2956 23.0324 7.29291 23.2067L7.2927 23.2201L7.29297 23.2334C7.29631 23.3987 7.26504 23.5626 7.20152 23.7142C7.138 23.8658 7.04384 24.0013 6.9258 24.1122L6.91752 24.1199L6.90947 24.128C6.67689 24.3601 6.36556 24.4884 6.04323 24.4884C5.72091 24.4884 5.40958 24.3601 5.177 24.128L5.16866 24.1196L5.16006 24.1116C5.04206 24.001 4.94795 23.8658 4.88453 23.7144C4.8211 23.563 4.78997 23.3993 4.79348 23.2342L4.79376 23.221L4.79358 23.2077C4.79114 23.0346 4.82502 22.8631 4.89268 22.7048C4.96033 22.5465 5.06005 22.4053 5.18467 22.2901Z" fill="black" stroke="black" stroke-width="1.5"/>
<path d="M10.3546 2.66683C9.25773 1.55563 7.92001 1.00003 6.3415 1.00003C5.15231 0.98564 3.9911 1.36565 3.03496 2.0821C2.0821 2.77679 1.36996 3.75839 1 4.88705L2.01065 5.14993C2.29818 4.17562 2.82746 3.4006 3.59851 2.82485C4.36956 2.2491 5.35601 1.96147 6.55786 1.96195C7.76068 1.96195 8.79098 2.41051 9.64876 3.30763C10.5065 4.20475 10.9347 5.36498 10.9333 6.78833C10.9333 8.21168 10.3752 9.43017 9.25916 10.4438C8.83475 10.7729 8.39169 11.0766 7.93223 11.3533C7.48432 11.6215 7.05053 11.9131 6.63262 12.2271C6.3633 12.4422 6.10837 12.7737 5.8678 13.2218C5.62071 13.6995 5.49706 14.2329 5.5084 14.7721V17.612H6.51905V15.3313C6.50744 14.8191 6.60938 14.3107 6.81736 13.8437C7.02006 13.415 7.21749 13.1174 7.40966 12.9509C7.70754 12.7115 8.02093 12.4925 8.34771 12.2956C8.779 12.0227 9.05334 11.8472 9.17075 11.7691C11.0569 10.3258 12 8.63912 12 6.70896C12 5.1259 11.4515 3.77852 10.3546 2.66683Z" fill="black" stroke="black"/>
</svg>
