<svg width="58" height="18" viewBox="0 0 58 18" fill="none" xmlns="http://www.w3.org/2000/svg">
<path d="M21.3392 12.8064V4.07912H23.1844V11.2851H26.9259V12.8064H21.3392ZM30.8311 12.9342C30.1692 12.9342 29.5967 12.7936 29.1138 12.5124C28.6337 12.2283 28.2629 11.8334 28.0016 11.3277C27.7402 10.8192 27.6095 10.2297 27.6095 9.55924C27.6095 8.8831 27.7402 8.29219 28.0016 7.78651C28.2629 7.27799 28.6337 6.8831 29.1138 6.60185C29.5967 6.31776 30.1692 6.17571 30.8311 6.17571C31.493 6.17571 32.0641 6.31776 32.5442 6.60185C33.0271 6.8831 33.3993 7.27799 33.6606 7.78651C33.922 8.29219 34.0527 8.8831 34.0527 9.55924C34.0527 10.2297 33.922 10.8192 33.6606 11.3277C33.3993 11.8334 33.0271 12.2283 32.5442 12.5124C32.0641 12.7936 31.493 12.9342 30.8311 12.9342ZM30.8396 11.528C31.1408 11.528 31.3922 11.4428 31.5939 11.2723C31.7956 11.099 31.9476 10.8632 32.0499 10.5649C32.155 10.2666 32.2075 9.92713 32.2075 9.54645C32.2075 9.16577 32.155 8.82628 32.0499 8.52799C31.9476 8.22969 31.7956 7.9939 31.5939 7.8206C31.3922 7.64731 31.1408 7.56066 30.8396 7.56066C30.5356 7.56066 30.28 7.64731 30.0726 7.8206C29.868 7.9939 29.7132 8.22969 29.6081 8.52799C29.5058 8.82628 29.4547 9.16577 29.4547 9.54645C29.4547 9.92713 29.5058 10.2666 29.6081 10.5649C29.7132 10.8632 29.868 11.099 30.0726 11.2723C30.28 11.4428 30.5356 11.528 30.8396 11.528ZM37.942 15.3973C37.3539 15.3973 36.8496 15.3163 36.4292 15.1544C36.0116 14.9953 35.6792 14.778 35.432 14.5024C35.1849 14.2269 35.0243 13.9172 34.9505 13.5734L36.6295 13.3476C36.6806 13.4783 36.7616 13.6004 36.8724 13.7141C36.9831 13.8277 37.1295 13.9186 37.3113 13.9868C37.4959 14.0578 37.7204 14.0933 37.9846 14.0933C38.3795 14.0933 38.7047 13.9967 38.9604 13.8036C39.2189 13.6132 39.3482 13.2936 39.3482 12.8447V11.6473H39.2715C39.192 11.8291 39.0726 12.001 38.9135 12.1629C38.7545 12.3249 38.5499 12.457 38.2999 12.5592C38.0499 12.6615 37.7516 12.7126 37.405 12.7126C36.9135 12.7126 36.4661 12.599 36.0627 12.3717C35.6621 12.1416 35.3425 11.7908 35.1039 11.3192C34.8681 10.8447 34.7502 10.2453 34.7502 9.52088C34.7502 8.77941 34.8709 8.16009 35.1124 7.66293C35.3539 7.16577 35.6749 6.79361 36.0755 6.54645C36.4789 6.29929 36.9206 6.17571 37.4008 6.17571C37.7672 6.17571 38.0741 6.23821 38.3212 6.36321C38.5684 6.48537 38.7672 6.63878 38.9178 6.82344C39.0712 7.00526 39.1891 7.18424 39.2715 7.36037H39.3397V6.26094H41.1422V12.8703C41.1422 13.4271 41.0059 13.893 40.7331 14.268C40.4604 14.643 40.0826 14.9243 39.5996 15.1118C39.1195 15.3021 38.567 15.3973 37.942 15.3973ZM37.9803 11.349C38.2729 11.349 38.5201 11.2766 38.7218 11.1317C38.9263 10.984 39.0826 10.7737 39.1905 10.501C39.3013 10.2254 39.3567 9.89589 39.3567 9.51236C39.3567 9.12884 39.3027 8.79645 39.1948 8.5152C39.0868 8.23111 38.9306 8.01094 38.726 7.85469C38.5215 7.69844 38.2729 7.62032 37.9803 7.62032C37.682 7.62032 37.4306 7.70128 37.226 7.86321C37.0215 8.02231 36.8667 8.2439 36.7616 8.52799C36.6564 8.81208 36.6039 9.1402 36.6039 9.51236C36.6039 9.8902 36.6564 10.2169 36.7616 10.4925C36.8695 10.7652 37.0243 10.9769 37.226 11.1274C37.4306 11.2751 37.682 11.349 37.9803 11.349ZM42.3468 12.8064V6.26094H44.1622V12.8064H42.3468ZM43.2588 5.41719C42.9889 5.41719 42.7574 5.3277 42.5642 5.14873C42.3738 4.96691 42.2787 4.74958 42.2787 4.49674C42.2787 4.24674 42.3738 4.03225 42.5642 3.85327C42.7574 3.67145 42.9889 3.58054 43.2588 3.58054C43.5287 3.58054 43.7588 3.67145 43.9491 3.85327C44.1423 4.03225 44.2389 4.24674 44.2389 4.49674C44.2389 4.74958 44.1423 4.96691 43.9491 5.14873C43.7588 5.3277 43.5287 5.41719 43.2588 5.41719ZM47.1917 9.02231V12.8064H45.3764V6.26094H47.1065V7.41577H47.1832C47.3281 7.03509 47.571 6.73395 47.9119 6.51236C48.2528 6.28793 48.6661 6.17571 49.1519 6.17571C49.6065 6.17571 50.0028 6.27515 50.3409 6.47401C50.6789 6.67287 50.9417 6.95696 51.1292 7.32628C51.3167 7.69276 51.4105 8.13026 51.4105 8.63878V12.8064H49.5951V8.96265C49.598 8.56208 49.4957 8.24958 49.2883 8.02515C49.0809 7.79787 48.7954 7.68424 48.4318 7.68424C48.1875 7.68424 47.9715 7.73679 47.784 7.84191C47.5994 7.94702 47.4545 8.10043 47.3494 8.30213C47.2471 8.501 47.1946 8.74106 47.1917 9.02231Z" fill="white"/>
<path d="M4.03225 7.77423V4.871C4.03225 3.26759 5.33207 1.96777 6.93548 1.96777C8.53889 1.96777 9.83871 3.26759 9.83871 4.871V7.77423M2.09677 7.77423H11.7742C12.3087 7.77423 12.7419 8.2075 12.7419 8.74197V14.5484C12.7419 15.0829 12.3087 15.5162 11.7742 15.5162H2.09677C1.5623 15.5162 1.12903 15.0829 1.12903 14.5484V8.74197C1.12903 8.2075 1.5623 7.77423 2.09677 7.77423Z" stroke="white" stroke-width="1.5"/>
</svg>
