<svg width="27" height="22" viewBox="0 0 27 22" fill="none" xmlns="http://www.w3.org/2000/svg">
<path d="M25.5529 2.70673H1.32212C0.770192 2.70673 0.3125 2.24904 0.3125 1.69712C0.3125 1.14519 0.770192 0.6875 1.32212 0.6875H25.5529C26.1048 0.6875 26.5625 1.14519 26.5625 1.69712C26.5625 2.24904 26.1048 2.70673 25.5529 2.70673Z" fill="white"/>
<path d="M14.287 8.98855H1.33802C0.777404 8.98855 0.3125 8.52364 0.3125 7.96302C0.3125 7.4024 0.777404 6.9375 1.33802 6.9375H14.287C14.8476 6.9375 15.3125 7.4024 15.3125 7.96302C15.3125 8.52364 14.8613 8.98855 14.287 8.98855Z" fill="white"/>
<path d="M25.5529 15.2067H1.32212C0.770192 15.2067 0.3125 14.749 0.3125 14.1971C0.3125 13.6452 0.770192 13.1875 1.32212 13.1875H25.5529C26.1048 13.1875 26.5625 13.6452 26.5625 14.1971C26.5625 14.749 26.1048 15.2067 25.5529 15.2067Z" fill="white"/>
<path d="M14.287 21.4885H1.33802C0.777404 21.4885 0.3125 21.0236 0.3125 20.463C0.3125 19.9024 0.777404 19.4375 1.33802 19.4375H14.287C14.8476 19.4375 15.3125 19.9024 15.3125 20.463C15.3125 21.0236 14.8613 21.4885 14.287 21.4885Z" fill="white"/>
</svg>
