<svg width="100" height="101" viewBox="0 0 100 101" fill="none" xmlns="http://www.w3.org/2000/svg">
<g filter="url(#filter0_dd_1417_2043)">
<rect x="5" y="1" width="90" height="90" rx="12" fill="#49C15C" shape-rendering="crispEdges"/>
<g filter="url(#filter1_d_1417_2043)">
<path fill-rule="evenodd" clip-rule="evenodd" d="M61.8672 12.7425C61.5652 12.8798 61.062 13.1451 60.7601 13.3372C60.0648 13.7581 58.9577 14.9383 58.8022 15.3958C58.7473 15.5788 58.6375 15.7709 58.5735 15.8075C58.299 15.9722 58.1252 16.8779 58.1252 18.2228V19.522L57.622 18.9914C56.9632 18.296 56.2862 17.802 55.353 17.3354C54.0996 16.7132 53.4225 16.5669 51.7665 16.5669C50.4948 16.576 50.2661 16.5943 49.5433 16.8139C48.0337 17.2805 46.9358 17.9575 45.8562 19.1012C45.4902 19.4763 45.0602 20.0252 44.8864 20.318L44.5753 20.8578L43.9715 20.9218C43.6421 20.9493 43.2487 21.0408 43.1023 21.1231C41.8855 21.7453 42.0044 23.6025 43.2853 24.0142L43.7153 24.1515V25.899V27.6464L43.1938 27.7654C42.7638 27.8569 42.5808 27.9575 42.2423 28.3052C41.5378 29.0005 41.428 29.9246 41.9587 30.7846C42.2514 31.2603 42.9925 31.6995 43.5323 31.6995H43.8617L44.0172 32.3308C44.4106 33.8587 45.4719 35.4872 46.7162 36.4753L47.2835 36.9328V38.7901C47.2835 40.4186 47.2652 40.6656 47.1279 40.8395C47.0181 40.9675 46.3228 41.2512 44.9504 41.6995C43.2396 42.2759 42.9193 42.4131 42.8004 42.6052C42.6998 42.7974 42.6906 42.8889 42.7821 43.081C42.9742 43.5202 43.2213 43.5293 44.4381 43.145L45.536 42.7974L45.7922 43.0718C46.4692 43.7946 47.869 44.0142 48.8114 43.5476C49.0675 43.4104 49.3329 43.2548 49.3878 43.1816C49.4792 43.0627 49.5799 43.1176 49.9916 43.4927C50.6229 44.0691 51.1993 44.2704 52.0319 44.2155C52.7455 44.1606 53.2304 43.941 53.7153 43.4287L54.0721 43.0627L54.5296 43.3738C54.7766 43.5476 55.0511 43.6848 55.1243 43.6848C55.1974 43.6848 55.2432 43.7123 55.2249 43.7489C55.2157 43.7946 52.3521 46.6492 48.8754 50.1075C43.2213 55.7251 42.5168 56.4021 42.2606 56.4021H41.977V53.2914V50.1716L41.7482 49.952C41.4921 49.6867 41.2816 49.6684 40.9889 49.8696L40.7876 50.0069V53.2091V56.4021H38.8663H36.945V54.3984C36.945 52.7516 36.9724 52.3307 37.1005 52.0014C37.192 51.7452 37.256 51.306 37.256 50.7754C37.2652 50.016 37.2377 49.8971 36.9633 49.339C36.6339 48.662 35.9477 47.9758 35.4262 47.7836C35.2524 47.7287 35.1151 47.619 35.1151 47.5549C35.1151 47.3628 36.5058 46.0453 37.0548 45.7159C37.3384 45.5513 37.869 45.3134 38.235 45.1853C38.601 45.0572 38.9578 44.9108 39.0218 44.8559C39.1865 44.7187 39.1682 44.188 38.9852 44.0051C38.5186 43.5385 36.3777 44.49 35.0419 45.7525L34.4656 46.3015L34.5204 43.7855C34.5466 42.4611 34.581 39.7841 34.608 37.6907L34.6119 37.3811L34.6668 33.511L34.8864 33.2182C35.2158 32.7791 35.353 32.1661 35.2432 31.608C35.1517 31.1505 35.17 31.0408 36.0118 28.3326C36.7254 25.9996 36.8626 25.4872 36.7894 25.286C36.6522 24.9383 33.7519 20.071 33.5323 19.8239C33.3036 19.5861 32.9102 19.5586 32.7089 19.7782C32.471 20.0527 29.3512 25.3134 29.3512 25.4506C29.3512 25.5238 29.7355 26.8322 30.2112 28.3601C31.0072 30.9127 31.0621 31.1688 30.9889 31.5257C30.934 31.7452 30.9248 32.0838 30.9614 32.2942C31.0255 32.6876 31.3 33.2914 31.4555 33.3921C31.5195 33.4287 31.547 35.8715 31.547 40.6382V47.8202L31.0804 48.2319C30.8334 48.4607 30.5131 48.8632 30.3759 49.1194C30.1472 49.5586 30.1289 49.6684 30.1014 51.0682C30.074 52.2576 30.1014 52.6418 30.2112 52.9986C30.385 53.5018 30.8882 54.1423 31.2725 54.3436C31.5195 54.4716 31.5287 54.4899 31.5561 55.4597C31.6019 56.6034 31.7574 56.9602 32.3521 57.2987L32.7181 57.5H51.1901H69.6713L69.9733 57.2896C70.138 57.1798 70.3667 56.9694 70.4673 56.8321C70.6595 56.5759 70.6595 56.4936 70.6412 53.0078C70.632 48.973 70.6137 48.8632 69.8543 47.3902C69.3877 46.4936 68.1343 45.1853 67.2285 44.6638C66.8077 44.4168 65.1883 43.8404 61.6384 42.6784C58.8571 41.7635 56.579 40.9584 56.5149 40.8761C56.4143 40.7663 56.3777 40.2631 56.3594 38.7992L56.3319 36.8687L56.8992 36.4113C58.052 35.4872 59.1316 33.7946 59.5067 32.3399C59.6714 31.7086 59.6805 31.6995 59.9916 31.6995C61.4371 31.6995 62.4344 30.199 61.8397 28.909C61.6018 28.3875 61.1352 27.9667 60.6046 27.8111C60.3575 27.7379 60.0922 27.6739 60.0282 27.6739C59.9367 27.6739 59.9092 27.3445 59.9092 26.0911C59.9092 25.2311 59.8818 24.4351 59.8543 24.3253C59.8086 24.1698 59.8543 24.124 60.0739 24.0783C60.4307 24.0051 60.9065 23.5934 61.062 23.2183C61.3822 22.4589 61.1352 21.6446 60.4399 21.1872L60.1014 20.9676L60.6229 20.6291C61.9312 19.7873 62.9376 18.5431 63.4225 17.1615C63.6695 16.4388 63.697 16.2741 63.697 15.1396C63.7061 13.8496 63.5414 12.9987 63.2304 12.6419C63.0199 12.4223 62.5259 12.4589 61.8672 12.7425ZM62.5076 14.2979C62.5808 14.6547 62.5716 14.6913 62.2514 14.9841C61.8397 15.3775 61.8123 15.6977 62.1874 16.0454L62.4527 16.2924L62.288 16.759C61.9861 17.6373 61.2176 18.6895 60.5405 19.1744L60.2752 19.3573L60.6869 18.4699C61.1718 17.436 61.2084 17.0426 60.8608 16.823C60.4307 16.5394 60.1929 16.7224 59.708 17.7013L59.278 18.5705L59.2871 17.9758C59.2963 17.1524 59.3694 16.8871 59.6348 16.759C59.8178 16.6675 59.8726 16.5577 59.9092 16.1917C59.9641 15.6611 60.2935 15.1853 60.9888 14.6638C61.5378 14.243 62.2148 13.8496 62.3338 13.8862C62.3887 13.9045 62.4618 14.0874 62.5076 14.2979ZM53.8251 18.0124C55.1243 18.4333 56.3777 19.2933 57.1462 20.2905C57.3566 20.5559 57.5305 20.812 57.5305 20.8395C57.5305 20.8761 54.9413 20.9035 51.7665 20.9035C48.6009 20.9035 46.0026 20.8761 46.0026 20.8486C46.0026 20.8212 46.1856 20.565 46.4143 20.2814C47.3384 19.092 48.8022 18.1954 50.3484 17.8477C51.3182 17.6282 52.8827 17.7013 53.8251 18.0124ZM33.6421 22.2851L34.127 23.1176L33.6879 23.5659C33.4409 23.813 33.1938 24.0142 33.1389 24.0142C33.0749 24.0142 32.8096 23.813 32.5442 23.5751L32.0685 23.1359L32.5625 22.2942C32.837 21.8367 33.0749 21.4525 33.1023 21.4525C33.1298 21.4525 33.3677 21.8276 33.6421 22.2851ZM45.0877 22.5046V22.9163H44.374C43.6421 22.9163 43.4408 22.834 43.4408 22.5412C43.4408 22.2119 43.697 22.0929 44.4106 22.0929H45.0877V22.5046ZM49.2048 22.5046V22.9163H47.7409H46.2771V22.5046V22.0929H47.7409H49.2048V22.5046ZM53.3219 22.5046V22.9163H51.858H50.3942V22.5046V22.0929H51.858H53.3219V22.5046ZM57.3475 22.5046V22.9163H55.8836H54.4198V22.5046V22.0929H55.8836H57.3475V22.5046ZM59.8269 22.1844C60.019 22.2942 60.0556 22.6419 59.8909 22.8066C59.8269 22.8706 59.525 22.9163 59.159 22.9163H58.5369V22.5046V22.0929H59.095C59.3969 22.0929 59.7263 22.1387 59.8269 22.1844ZM58.6009 27.7379C58.5643 31.8093 58.5552 31.855 57.8873 33.2182C57.2103 34.6089 56.1124 35.6977 54.74 36.3655C53.6512 36.887 53.0017 37.0426 51.7665 37.0426C50.5405 37.0426 49.8818 36.887 48.7931 36.3655C47.256 35.6245 46.0117 34.2612 45.3987 32.651C44.9687 31.5165 44.9138 30.9127 44.9047 27.372V24.1057H51.7757H58.6375L58.6009 27.7379ZM34.9322 27.7471C34.5662 28.9365 34.246 29.9429 34.2094 29.9703C34.1819 30.0069 34.063 29.9978 33.9532 29.952L33.7428 29.8788V27.5001V25.1304L34.2643 24.6638L34.7858 24.2064L35.1975 24.8926L35.6 25.5787L34.9322 27.7471ZM32.0593 24.7553L32.5534 25.2311V27.5366V29.8422L32.3064 29.952C32.1783 30.0161 32.041 30.0252 32.0044 29.9886C31.9678 29.952 31.6476 28.9365 31.2817 27.7471L30.6229 25.5787L31.0072 24.9291C31.2085 24.5815 31.428 24.2887 31.4738 24.2887C31.5195 24.2887 31.7849 24.4991 32.0593 24.7553ZM43.7153 29.6867C43.7153 30.4552 43.7062 30.5101 43.5323 30.5101C43.2853 30.5101 42.9193 30.1441 42.837 29.8239C42.7912 29.6501 42.8278 29.5037 42.9559 29.339C43.1206 29.1103 43.4774 28.8724 43.6513 28.8633C43.6879 28.8633 43.7153 29.2292 43.7153 29.6867ZM60.2661 28.9639C60.568 29.0737 60.8242 29.4397 60.8242 29.7782C60.8242 30.0527 60.3393 30.5101 60.0556 30.5101H59.8178V29.6867C59.8178 29.2292 59.8543 28.8633 59.9001 28.8633C59.9367 28.8633 60.1014 28.909 60.2661 28.9639ZM33.5049 31.1048C33.8068 31.2512 34.1087 31.6629 34.1087 31.9282C34.1087 32.4955 33.45 33.0536 32.9194 32.9346C32.5808 32.8614 32.2149 32.4955 32.1417 32.1569C32.0593 31.791 32.3155 31.2878 32.6723 31.114C33.0383 30.931 33.1389 30.931 33.5049 31.1048ZM33.4226 37.7105C33.3951 39.6684 33.3494 42.6693 33.3219 44.3893L33.267 47.5275H33.0017H32.7364V40.8486V34.1698H33.1023H33.4683L33.4226 37.7105ZM50.5131 38.1588C51.8489 38.3966 53.5323 38.2137 54.7308 37.7013C54.923 37.619 55.0968 37.5549 55.1151 37.5549C55.1334 37.5549 55.1517 37.802 55.1517 38.0947V38.6345L54.74 38.8358C54.5113 38.9456 54.191 39.1926 54.0355 39.3756L53.7519 39.7233L53.3127 39.4213C52.718 39.0279 51.9953 38.8724 51.3274 39.0096C50.8516 39.1011 50.1014 39.4671 49.9825 39.6592C49.955 39.705 49.7903 39.586 49.6165 39.3939C49.4427 39.2018 49.1133 38.9456 48.8846 38.8267L48.4728 38.6071V38.0947V37.5732L49.0767 37.7928C49.4061 37.9209 50.0556 38.0856 50.5131 38.1588ZM49.0309 40.7663C49.2322 41.4159 48.912 42.1295 48.2807 42.4497C47.9696 42.6144 47.3109 42.6235 47.0273 42.4589C46.8169 42.3491 46.8169 42.3399 47.1828 42.2393C47.6128 42.102 48.0611 41.7544 48.2441 41.4067C48.3082 41.2695 48.3997 40.9035 48.4363 40.5833L48.5003 40.016L48.7199 40.2173C48.8388 40.3363 48.976 40.5833 49.0309 40.7663ZM55.3987 41.4433C55.5726 41.7635 55.9385 42.038 56.396 42.221L56.8443 42.3857L56.5881 42.4863C55.1151 43.0535 53.8983 41.3427 54.9504 40.1807C55.0968 40.016 55.106 40.0343 55.1974 40.6382C55.2523 40.9767 55.3438 41.3427 55.3987 41.4433ZM52.407 40.318C52.9651 40.6016 53.2304 41.0224 53.2304 41.6171C53.2304 42.1752 53.02 42.532 52.5259 42.834C52.0684 43.1084 51.5652 43.1084 51.0803 42.8157C50.4033 42.4223 50.1746 41.4799 50.6046 40.8395C50.815 40.5192 51.4829 40.1167 51.8123 40.1167C51.9129 40.1167 52.1874 40.2082 52.407 40.318ZM60.3027 43.5019C61.5744 43.9136 61.7391 43.9959 61.7391 44.1697C61.7391 44.2795 61.7665 44.4625 61.794 44.5723L61.8489 44.7827H58.8937H55.9294L56.6339 44.1148C57.0181 43.758 57.5122 43.3097 57.7226 43.1267C58.1069 42.7974 58.116 42.7974 58.482 42.9163C58.6191 42.958 59.0127 43.0853 59.4905 43.2397L59.491 43.2399L59.4915 43.2401L59.4917 43.2401L59.4937 43.2407L59.4938 43.2408C59.7483 43.3231 60.0266 43.413 60.3027 43.5019ZM64.493 44.8742C65.17 45.0847 65.9477 45.3774 66.2313 45.5147C67.6677 46.2466 68.6832 47.4085 69.2047 48.9181C69.4243 49.5677 69.4335 49.6775 69.4884 52.8431L69.5433 56.1002L69.3145 56.2557C69.1133 56.3838 68.7564 56.4021 66.3502 56.3838L63.6146 56.3564L63.3219 51.0499C62.9833 44.8468 62.9742 44.3802 63.1389 44.4442C63.2121 44.4717 63.8159 44.6638 64.493 44.8742ZM61.8672 46.1185C61.8946 46.2008 61.922 46.6126 61.922 47.0334V47.8019H57.4207H52.9102L53.8251 46.887L54.74 45.9721H58.2715C61.4188 45.9721 61.8214 45.9904 61.8672 46.1185ZM34.9322 48.9273L35.3439 49.1286L34.6394 49.156C33.9075 49.1835 33.7977 49.2383 33.697 49.6409C33.6604 49.7964 33.697 49.9428 33.816 50.0984C33.9898 50.2996 34.0721 50.3179 35.0419 50.3637L36.0758 50.4094L36.1032 50.7022L36.1307 51.0041H35.0328C33.9989 51.0041 33.9258 51.0133 33.7977 51.2054C33.6055 51.4799 33.6147 51.672 33.8251 51.9282C33.9806 52.1203 34.0996 52.1478 34.8498 52.1935L35.7098 52.2393L35.353 52.6235C35.1609 52.8339 34.7766 53.1267 34.493 53.264C34.0355 53.4927 33.8709 53.5201 33.084 53.5201C32.1051 53.5201 31.8764 53.4286 31.4829 52.8339C31.2908 52.5595 31.2725 52.4314 31.2725 51.306C31.2725 49.9703 31.3457 49.6684 31.7849 49.2292C32.2057 48.8083 32.5076 48.726 33.5598 48.726C34.3741 48.7169 34.5845 48.7534 34.9322 48.9273ZM62.0501 49.4671C62.0776 49.7324 62.105 50.1258 62.105 50.3362V50.7297H56.0483H49.9825L50.8516 49.8605L51.7208 48.9913H56.8534H61.9861L62.0501 49.4671ZM62.1965 52.3033C62.1965 52.5229 62.224 52.9163 62.2514 53.1725L62.3155 53.6574H54.6851H47.0547L47.9239 52.7882L48.7931 51.919H55.4902H62.1965V52.3033ZM35.7556 55.1212V56.3106H34.3375L34.2064 56.3107C33.3447 56.3111 32.9877 56.3112 32.84 56.1355C32.7356 56.0112 32.7358 55.7989 32.7363 55.4364L32.7364 55.3591V54.7553H33.1755C33.88 54.7553 34.5845 54.5814 35.17 54.2521C35.4628 54.0874 35.719 53.9501 35.7373 53.941C35.7464 53.941 35.7556 54.4625 35.7556 55.1212ZM62.3795 55.6244V56.4021H53.3036H44.2185L44.9962 55.6244L45.7739 54.8468H54.0721H62.3795V55.6244ZM46.826 29.4671C46.3502 29.5952 45.9019 29.7599 45.847 29.8422C45.5451 30.2356 45.8287 30.7846 46.3228 30.7846C46.7071 30.7846 48.0062 30.4186 48.1618 30.2631C48.3173 30.0984 48.3264 29.6775 48.1801 29.4854C47.9788 29.2384 47.7226 29.2292 46.826 29.4671ZM55.4262 29.8788C55.4262 29.5952 55.4994 29.4763 55.7464 29.339C55.847 29.2841 55.9477 29.2384 55.9751 29.2384C56.1581 29.2292 57.75 29.6958 57.8507 29.7782C58.0337 29.9246 58.0245 30.4552 57.8415 30.6382C57.6494 30.8303 57.3841 30.8212 56.4966 30.5925C55.6549 30.382 55.4262 30.2265 55.4262 29.8788ZM46.9266 31.1048C46.1307 31.3152 45.9111 31.4799 45.9111 31.855C45.9111 32.1204 46.213 32.4314 46.4875 32.4314C46.7803 32.4314 48.299 32.0014 48.4088 31.8916C48.5826 31.7178 48.5277 31.1414 48.3356 31.0042C48.1069 30.8303 47.8324 30.8486 46.9266 31.1048ZM55.3896 31.8825C55.1792 31.672 55.17 31.2878 55.3804 31.0591C55.5909 30.8303 55.7098 30.8303 56.6796 31.0774C57.5305 31.2878 57.805 31.4708 57.805 31.8367C57.805 32.0929 57.5122 32.4314 57.3018 32.4314C56.9449 32.4314 55.5451 32.0289 55.3896 31.8825ZM35.5909 34.3161C35.3896 34.4534 35.3896 34.4625 35.3896 37.4085C35.3896 40.1533 35.3988 40.3729 35.5543 40.5101C35.8105 40.748 36.1673 40.7022 36.396 40.4186C36.579 40.1807 36.5881 40.1075 36.5607 37.3445L36.5333 34.5174L36.3137 34.3436C36.0575 34.1332 35.8654 34.124 35.5909 34.3161ZM35.536 42.9987C35.3347 42.7882 35.3256 41.5622 35.536 41.361C35.7098 41.178 36.1215 41.1688 36.3503 41.3427C36.5698 41.4982 36.6522 42.5137 36.4692 42.8614C36.3137 43.145 35.7647 43.2274 35.536 42.9987Z" fill="white"/>
</g>
<path d="M28.0957 70.3906H29.3359L31.1621 75.6104L32.9883 70.3906H34.2285L31.6602 77.5H30.6641L28.0957 70.3906ZM27.4268 70.3906H28.6621L28.8867 75.4785V77.5H27.4268V70.3906ZM33.6621 70.3906H34.9023V77.5H33.4375V75.4785L33.6621 70.3906ZM37.7441 70.3906V77.5H36.2842V70.3906H37.7441ZM44.2578 76.3574V77.5H39.2188V76.3574H44.2578ZM44.1846 71.2061L39.8682 77.5H38.8379V76.6602L43.1885 70.3906H44.1846V71.2061ZM43.6816 70.3906V71.5381H38.8428V70.3906H43.6816ZM50.9033 73.7793V74.1162C50.9033 74.6566 50.8301 75.1416 50.6836 75.5713C50.5371 76.001 50.3304 76.3672 50.0635 76.6699C49.7965 76.9694 49.4775 77.1989 49.1064 77.3584C48.7386 77.5179 48.3301 77.5977 47.8809 77.5977C47.4349 77.5977 47.0264 77.5179 46.6553 77.3584C46.2874 77.1989 45.9684 76.9694 45.6982 76.6699C45.4281 76.3672 45.2181 76.001 45.0684 75.5713C44.9219 75.1416 44.8486 74.6566 44.8486 74.1162V73.7793C44.8486 73.2357 44.9219 72.7507 45.0684 72.3242C45.2148 71.8945 45.4215 71.5283 45.6885 71.2256C45.9587 70.9229 46.2777 70.6917 46.6455 70.5322C47.0166 70.3727 47.4251 70.293 47.8711 70.293C48.3203 70.293 48.7288 70.3727 49.0967 70.5322C49.4678 70.6917 49.7868 70.9229 50.0537 71.2256C50.3239 71.5283 50.5322 71.8945 50.6787 72.3242C50.8285 72.7507 50.9033 73.2357 50.9033 73.7793ZM49.4238 74.1162V73.7695C49.4238 73.3919 49.3896 73.0599 49.3213 72.7734C49.2529 72.487 49.152 72.2461 49.0186 72.0508C48.8851 71.8555 48.7223 71.709 48.5303 71.6113C48.3382 71.5104 48.1185 71.46 47.8711 71.46C47.6237 71.46 47.404 71.5104 47.2119 71.6113C47.0231 71.709 46.862 71.8555 46.7285 72.0508C46.5983 72.2461 46.499 72.487 46.4307 72.7734C46.3623 73.0599 46.3281 73.3919 46.3281 73.7695V74.1162C46.3281 74.4906 46.3623 74.8226 46.4307 75.1123C46.499 75.3988 46.5999 75.6413 46.7334 75.8398C46.8669 76.0352 47.0296 76.1833 47.2217 76.2842C47.4137 76.3851 47.6335 76.4355 47.8809 76.4355C48.1283 76.4355 48.348 76.3851 48.54 76.2842C48.7321 76.1833 48.8932 76.0352 49.0234 75.8398C49.1536 75.6413 49.2529 75.3988 49.3213 75.1123C49.3896 74.8226 49.4238 74.4906 49.4238 74.1162ZM51.958 70.3906H54.6094C55.153 70.3906 55.6201 70.472 56.0107 70.6348C56.4046 70.7975 56.7074 71.0384 56.9189 71.3574C57.1305 71.6764 57.2363 72.0687 57.2363 72.5342C57.2363 72.915 57.1712 73.2422 57.041 73.5156C56.9141 73.7858 56.7334 74.012 56.499 74.1943C56.2679 74.3734 55.9961 74.5166 55.6836 74.624L55.2197 74.8682H52.915L52.9053 73.7256H54.6191C54.8763 73.7256 55.0895 73.68 55.2588 73.5889C55.4281 73.4977 55.555 73.3708 55.6396 73.208C55.7275 73.0452 55.7715 72.8564 55.7715 72.6416C55.7715 72.4137 55.7292 72.2168 55.6445 72.0508C55.5599 71.8848 55.4313 71.7578 55.2588 71.6699C55.0863 71.582 54.8698 71.5381 54.6094 71.5381H53.4229V77.5H51.958V70.3906ZM55.9326 77.5L54.3115 74.3311L55.8594 74.3213L57.5 77.4316V77.5H55.9326ZM61.2549 71.6064L59.3213 77.5H57.7637L60.4053 70.3906H61.3965L61.2549 71.6064ZM62.8613 77.5L60.9229 71.6064L60.7666 70.3906H61.7676L64.4238 77.5H62.8613ZM62.7734 74.8535V76.001H59.0186V74.8535H62.7734ZM65.752 70.3906H66.9922L68.8184 75.6104L70.6445 70.3906H71.8848L69.3164 77.5H68.3203L65.752 70.3906ZM65.083 70.3906H66.3184L66.543 75.4785V77.5H65.083V70.3906ZM71.3184 70.3906H72.5586V77.5H71.0938V75.4785L71.3184 70.3906Z" fill="white"/>
</g>
<defs>
<filter id="filter0_dd_1417_2043" x="0.0437061" y="0.291958" width="99.9126" height="99.9126" filterUnits="userSpaceOnUse" color-interpolation-filters="sRGB">
<feFlood flood-opacity="0" result="BackgroundImageFix"/>
<feColorMatrix in="SourceAlpha" type="matrix" values="0 0 0 0 0 0 0 0 0 0 0 0 0 0 0 0 0 0 127 0" result="hardAlpha"/>
<feMorphology radius="0.708042" operator="dilate" in="SourceAlpha" result="effect1_dropShadow_1417_2043"/>
<feOffset dy="4.24825"/>
<feGaussianBlur stdDeviation="2.12413"/>
<feComposite in2="hardAlpha" operator="out"/>
<feColorMatrix type="matrix" values="0 0 0 0 0.141176 0 0 0 0 0.560784 0 0 0 0 0.211765 0 0 0 0.51 0"/>
<feBlend mode="normal" in2="BackgroundImageFix" result="effect1_dropShadow_1417_2043"/>
<feColorMatrix in="SourceAlpha" type="matrix" values="0 0 0 0 0 0 0 0 0 0 0 0 0 0 0 0 0 0 127 0" result="hardAlpha"/>
<feOffset dy="3"/>
<feComposite in2="hardAlpha" operator="out"/>
<feColorMatrix type="matrix" values="0 0 0 0 0.141465 0 0 0 0 0.559701 0 0 0 0 0.20983 0 0 0 1 0"/>
<feBlend mode="normal" in2="effect1_dropShadow_1417_2043" result="effect2_dropShadow_1417_2043"/>
<feBlend mode="normal" in="SourceGraphic" in2="effect2_dropShadow_1417_2043" result="shape"/>
</filter>
<filter id="filter1_d_1417_2043" x="25.3512" y="12.5" width="49.2976" height="53" filterUnits="userSpaceOnUse" color-interpolation-filters="sRGB">
<feFlood flood-opacity="0" result="BackgroundImageFix"/>
<feColorMatrix in="SourceAlpha" type="matrix" values="0 0 0 0 0 0 0 0 0 0 0 0 0 0 0 0 0 0 127 0" result="hardAlpha"/>
<feOffset dy="4"/>
<feGaussianBlur stdDeviation="2"/>
<feComposite in2="hardAlpha" operator="out"/>
<feColorMatrix type="matrix" values="0 0 0 0 0 0 0 0 0 0 0 0 0 0 0 0 0 0 0.25 0"/>
<feBlend mode="normal" in2="BackgroundImageFix" result="effect1_dropShadow_1417_2043"/>
<feBlend mode="normal" in="SourceGraphic" in2="effect1_dropShadow_1417_2043" result="shape"/>
</filter>
</defs>
</svg>
