<svg width="104" height="104" viewBox="0 0 104 104" fill="none" xmlns="http://www.w3.org/2000/svg">
<g filter="url(#filter0_dd_1417_2120)">
<rect x="7" y="1" width="90" height="90" rx="12" fill="#BD62CC" shape-rendering="crispEdges"/>
<g filter="url(#filter1_d_1417_2120)">
<path fill-rule="evenodd" clip-rule="evenodd" d="M34.3837 8.72532C32.0205 10.2544 31.4644 15.0503 33.3063 18.734L34.2099 20.5759L33.0631 23.2171C27.9892 34.9287 32.09 47.0921 41.3689 47.8914C43.4541 48.0651 43.4888 48.0999 44.2186 49.49C44.7747 50.6021 45.4002 51.1581 46.9641 51.9574C48.7712 52.861 49.362 53 52.0032 53C54.6444 53 55.2352 52.861 57.0423 51.9574C58.6061 51.1581 59.2317 50.6021 59.7877 49.49C60.5175 48.0999 60.5523 48.0651 62.6027 47.8914C66.4602 47.5439 69.4142 45.424 71.2908 41.6012C72.8199 38.4387 73.3412 35.728 73.0632 31.9747C72.8199 28.4647 72.1249 25.615 70.7348 22.7306L69.7269 20.5759L70.6653 18.9426C72.0206 16.4751 72.2291 12.4786 71.0823 10.4282C69.7965 8.13453 67.6765 7.36997 65.9042 8.55156C65.4176 8.89908 64.3056 9.8374 63.402 10.7062L61.7339 12.3048L59.5792 11.5403C57.7026 10.88 56.6253 10.7757 52.0032 10.7757C47.3811 10.7757 46.3038 10.88 44.4271 11.5403L42.2725 12.3048L40.6044 10.7062C37.5461 7.787 36.4341 7.40473 34.3837 8.72532ZM38.5192 11.3665C39.527 12.2701 40.3611 13.1041 40.3611 13.2431C40.3611 13.3474 39.2143 14.668 37.8589 16.1276L35.322 18.7688L34.7659 17.6915C34.0014 16.1624 33.7234 13.1389 34.2794 11.8183C34.6964 10.8452 35.8085 9.73314 36.4341 9.73314C36.5731 9.73314 37.5114 10.4629 38.5192 11.3665ZM68.3716 10.0807C69.9007 10.9147 70.4915 13.6602 69.6922 16.5099C69.0319 18.9773 68.8581 18.9426 66.1474 16.0928C64.7573 14.6332 63.6453 13.3474 63.6453 13.1736C63.6453 12.8956 67.19 9.73314 67.5028 9.73314C67.607 9.73314 67.9893 9.90691 68.3716 10.0807ZM50.9606 13.3822C50.9606 14.2162 50.8911 14.251 48.6322 14.251C45.9562 14.251 44.0101 15.1198 44.0101 16.3361C44.0101 17.1702 45.2264 17.2744 46.2343 16.5099C46.9293 15.9886 49.3967 15.8148 50.4046 16.1971C50.7868 16.3361 50.9606 16.8574 50.9606 18.039V19.6376L49.2925 19.5333C48.0414 19.4291 47.4158 19.5681 46.7903 20.1241C45.991 20.7497 45.9562 20.8539 46.4775 21.3752C46.9641 21.8618 47.2073 21.8965 47.8329 21.549C48.2847 21.3057 49.084 21.2362 49.779 21.3752C50.8911 21.549 50.9606 21.688 50.9606 22.9043C50.9606 24.503 51.7252 25.337 52.5245 24.6767C52.8372 24.4334 53.0457 23.6689 53.0457 22.9043C53.0457 21.688 53.1153 21.549 54.2273 21.3752C54.9224 21.2362 55.7217 21.3057 56.1735 21.549C56.799 21.8965 57.0423 21.8618 57.5288 21.3752C58.0501 20.8539 58.0154 20.7497 57.216 20.1241C56.5905 19.5681 55.965 19.4291 54.7139 19.5333L53.0457 19.6376V18.039C53.0457 16.8574 53.2195 16.3361 53.6018 16.1971C54.6791 15.7801 57.077 15.9886 58.0849 16.6141C59.3012 17.3787 59.9962 17.2397 59.9962 16.3014C59.9962 15.1198 58.0154 14.251 55.4089 14.251C53.0805 14.251 53.0457 14.251 53.0457 13.3474V12.4091L55.5827 12.5828C59.9962 12.8956 64.0623 15.5368 67.1205 20.1589C68.5106 22.244 70.422 26.2058 70.422 27.0051C70.422 27.1441 69.9007 26.7271 69.2404 26.1016C68.1283 25.0242 66.9815 24.781 66.7035 25.5455C66.634 25.754 67.3985 26.7619 68.3716 27.7697C71.0128 30.5499 72.0206 33.3648 71.1518 35.5542C70.978 36.0408 70.7348 35.7628 70.1092 34.2684C69.2752 32.218 66.8425 29.1945 66.0432 29.1945C65.0354 29.1945 65.1744 30.2371 66.3907 31.7315C67.7113 33.3301 69.0667 36.1103 69.7269 38.5082C70.0397 39.7593 70.005 40.1416 69.4142 41.2537C69.0667 41.9835 68.3369 42.9565 67.8503 43.4083L66.9467 44.2424V42.7828C66.9467 40.0721 65.2439 34.8939 64.1318 34.1989C63.9233 34.0946 63.541 34.1989 63.263 34.4769C62.8112 34.8939 62.8807 35.2067 63.6105 36.8748C65.1396 40.2458 65.6262 45.0069 64.5141 45.702C64.3403 45.8062 63.3672 46.0147 62.3942 46.119C60.6913 46.3275 60.587 46.2928 60.8651 45.6672C62.4984 41.7402 62.4289 40.5239 60.0658 35.728C57.4246 30.3414 57.0075 28.1867 58.2586 26.1711C59.0927 24.781 60.6565 23.9469 62.9502 23.6689C64.3751 23.4951 64.6878 23.3561 64.6878 22.7653C64.6878 21.688 61.9424 21.6185 59.614 22.6263C55.0266 24.6072 54.6096 29.8201 58.5019 36.7706C60.031 39.516 60.4133 41.1146 59.9615 42.887C59.4402 44.7637 58.2239 45.8757 56.6948 45.8757C55.4437 45.8757 53.3933 45.0417 53.3933 44.5551C53.428 44.4161 53.9841 43.8253 54.6791 43.2693C57.8763 40.5934 58.0849 40.1416 56.8685 38.9252C56.243 38.2997 55.7217 38.2302 52.0032 38.2302C48.2847 38.2302 47.7634 38.2997 47.1378 38.9252C46.7555 39.3075 46.4428 39.8636 46.4428 40.1416C46.4428 40.6629 46.7555 41.0104 49.4315 43.3041C50.057 43.8601 50.5783 44.4161 50.5783 44.5551C50.6478 45.0417 48.5627 45.8757 47.3116 45.8757C45.7825 45.8757 44.5661 44.7637 44.0448 42.887C43.5931 41.1146 43.9058 39.7941 45.852 35.9713C47.6939 32.3223 48.1804 30.7237 48.1804 28.3605C48.1804 24.642 45.1222 21.8965 40.9519 21.8965C39.2143 21.8965 39.11 21.966 39.2143 22.6611C39.2838 23.3214 39.5965 23.4951 41.0561 23.6689C45.2612 24.1902 47.0683 26.6229 46.13 30.4804C45.9215 31.4187 44.9484 33.7124 43.9753 35.6585C41.5774 40.4543 41.4732 41.5317 43.176 45.6672C43.4193 46.2928 43.315 46.3275 41.6122 46.119C40.6391 46.0147 39.666 45.8062 39.4923 45.702C38.3802 45.0069 38.8667 40.2458 40.3958 36.8748C41.1256 35.2067 41.1951 34.8939 40.7434 34.4769C40.4653 34.1989 40.0831 34.0946 39.8745 34.1989C38.7625 34.8939 37.0596 40.1068 37.0596 42.887V44.2771L36.0518 43.3041C35.4957 42.7828 34.7659 41.7402 34.4532 40.9756C33.8624 39.655 33.8624 39.5855 34.6269 37.4656C35.5305 34.8592 36.8163 32.496 38.0327 31.2102C38.9015 30.2371 38.9015 29.1945 37.9632 29.1945C37.1639 29.1945 34.7312 32.218 33.8971 34.2684C33.2716 35.7628 33.0283 36.0408 32.8545 35.5542C31.9857 33.3648 32.9936 30.5499 35.6347 27.7697C36.6078 26.7619 37.3724 25.754 37.3029 25.5455C37.0248 24.781 35.878 25.0242 34.7659 26.1016C34.1056 26.7271 33.5843 27.1441 33.5843 27.0051C33.5843 26.8661 33.9666 25.8235 34.4184 24.6767C36.295 20.0199 39.9788 15.7453 43.6626 13.9034C45.852 12.7914 46.686 12.5828 48.9797 12.5481C50.8563 12.5133 50.9606 12.5481 50.9606 13.3822ZM55.4784 40.2806C55.4784 40.4543 55.0266 40.7671 54.4706 40.9409C53.9146 41.1494 53.289 41.6359 53.0457 42.0182C52.5245 42.9913 51.7599 42.9218 50.6478 41.7749C50.1265 41.2537 49.4315 40.6629 49.0492 40.4196C48.4932 40.0721 49.0145 40.0026 51.9337 40.0026C53.8798 39.9678 55.4784 40.1068 55.4784 40.2806ZM53.2543 46.7446C54.5401 47.6134 55.3394 47.7871 57.4941 47.6481C58.7452 47.5439 58.8494 47.7871 58.0501 48.934C55.9997 51.8879 48.3889 51.9922 46.0952 49.1077C45.1569 47.8914 45.2264 47.5439 46.3733 47.6481C48.4237 47.7871 49.501 47.5786 50.6478 46.7793C50.9528 46.5707 51.2355 46.3694 51.4548 46.2133L51.455 46.2132L51.4551 46.2131C51.7106 46.0312 51.8802 45.9105 51.8989 45.9105C51.9337 45.8757 52.5592 46.258 53.2543 46.7446ZM42.4811 26.6229C41.786 27.2832 41.786 27.4569 42.4811 28.43C43.6974 30.1676 46.0606 28.708 44.879 26.9009C44.2534 25.9278 43.2804 25.8235 42.4811 26.6229ZM60.17 29.1945C58.7452 29.1945 58.2587 27.1441 59.4402 26.3448C60.2743 25.754 62.0814 26.4838 62.0814 27.3874C62.0814 28.0825 60.8998 29.1945 60.17 29.1945Z" fill="white"/>
</g>
<path d="M32.6738 62.8906H33.9141L35.7402 68.1104L37.5664 62.8906H38.8066L36.2383 70H35.2422L32.6738 62.8906ZM32.0049 62.8906H33.2402L33.4648 67.9785V70H32.0049V62.8906ZM38.2402 62.8906H39.4805V70H38.0156V67.9785L38.2402 62.8906ZM43.7432 64.1064L41.8096 70H40.252L42.8936 62.8906H43.8848L43.7432 64.1064ZM45.3496 70L43.4111 64.1064L43.2549 62.8906H44.2559L46.9121 70H45.3496ZM45.2617 67.3535V68.501H41.5068V67.3535H45.2617ZM49.7539 70H48.2061L48.2158 68.8574H49.7539C50.138 68.8574 50.4619 68.7712 50.7256 68.5986C50.9893 68.4229 51.1878 68.1673 51.3213 67.832C51.458 67.4967 51.5264 67.0915 51.5264 66.6162V66.2695C51.5264 65.9049 51.4873 65.5843 51.4092 65.3076C51.3343 65.0309 51.222 64.7982 51.0723 64.6094C50.9225 64.4206 50.7386 64.279 50.5205 64.1846C50.3024 64.0869 50.0518 64.0381 49.7686 64.0381H48.1768V62.8906H49.7686C50.2438 62.8906 50.6784 62.972 51.0723 63.1348C51.4694 63.2943 51.8128 63.5238 52.1025 63.8232C52.3923 64.1227 52.6152 64.4808 52.7715 64.8975C52.931 65.3109 53.0107 65.7715 53.0107 66.2793V66.6162C53.0107 67.1208 52.931 67.5814 52.7715 67.998C52.6152 68.4147 52.3923 68.7728 52.1025 69.0723C51.8161 69.3685 51.4727 69.598 51.0723 69.7607C50.6751 69.9202 50.2357 70 49.7539 70ZM49.0361 62.8906V70H47.5713V62.8906H49.0361ZM58.8164 65.7861V66.9287H55.1055V65.7861H58.8164ZM55.54 62.8906V70H54.0752V62.8906H55.54ZM59.8613 62.8906V70H58.4014V62.8906H59.8613ZM61.9756 62.8906L63.46 66.1328L64.9443 62.8906H66.541L64.2021 67.4121V70H62.7178V67.4121L60.374 62.8906H61.9756ZM69.4365 64.1064L67.5029 70H65.9453L68.5869 62.8906H69.5781L69.4365 64.1064ZM71.043 70L69.1045 64.1064L68.9482 62.8906H69.9492L72.6055 70H71.043ZM70.9551 67.3535V68.501H67.2002V67.3535H70.9551ZM32.9424 79.4658H31.1309V78.3232H32.9424C33.2223 78.3232 33.4502 78.2777 33.626 78.1865C33.8018 78.0921 33.9303 77.9619 34.0117 77.7959C34.0931 77.6299 34.1338 77.4427 34.1338 77.2344C34.1338 77.0228 34.0931 76.8258 34.0117 76.6436C33.9303 76.4613 33.8018 76.3148 33.626 76.2041C33.4502 76.0934 33.2223 76.0381 32.9424 76.0381H31.6387V82H30.1738V74.8906H32.9424C33.499 74.8906 33.9759 74.9915 34.373 75.1934C34.7734 75.3919 35.0794 75.667 35.291 76.0186C35.5026 76.3701 35.6084 76.7721 35.6084 77.2246C35.6084 77.6836 35.5026 78.0807 35.291 78.416C35.0794 78.7513 34.7734 79.0101 34.373 79.1924C33.9759 79.3747 33.499 79.4658 32.9424 79.4658ZM36.6191 74.8906H39.2705C39.8141 74.8906 40.2812 74.972 40.6719 75.1348C41.0658 75.2975 41.3685 75.5384 41.5801 75.8574C41.7917 76.1764 41.8975 76.5687 41.8975 77.0342C41.8975 77.415 41.8324 77.7422 41.7021 78.0156C41.5752 78.2858 41.3945 78.512 41.1602 78.6943C40.929 78.8734 40.6572 79.0166 40.3447 79.124L39.8809 79.3682H37.5762L37.5664 78.2256H39.2803C39.5374 78.2256 39.7507 78.18 39.9199 78.0889C40.0892 77.9977 40.2161 77.8708 40.3008 77.708C40.3887 77.5452 40.4326 77.3564 40.4326 77.1416C40.4326 76.9137 40.3903 76.7168 40.3057 76.5508C40.221 76.3848 40.0924 76.2578 39.9199 76.1699C39.7474 76.082 39.5309 76.0381 39.2705 76.0381H38.084V82H36.6191V74.8906ZM40.5938 82L38.9727 78.8311L40.5205 78.8213L42.1611 81.9316V82H40.5938ZM45.916 76.1064L43.9824 82H42.4248L45.0664 74.8906H46.0576L45.916 76.1064ZM47.5225 82L45.584 76.1064L45.4277 74.8906H46.4287L49.085 82H47.5225ZM47.4346 79.3535V80.501H43.6797V79.3535H47.4346ZM51.9268 82H50.3789L50.3887 80.8574H51.9268C52.3109 80.8574 52.6348 80.7712 52.8984 80.5986C53.1621 80.4229 53.3607 80.1673 53.4941 79.832C53.6309 79.4967 53.6992 79.0915 53.6992 78.6162V78.2695C53.6992 77.9049 53.6602 77.5843 53.582 77.3076C53.5072 77.0309 53.3949 76.7982 53.2451 76.6094C53.0954 76.4206 52.9115 76.279 52.6934 76.1846C52.4753 76.0869 52.2246 76.0381 51.9414 76.0381H50.3496V74.8906H51.9414C52.4167 74.8906 52.8512 74.972 53.2451 75.1348C53.6423 75.2943 53.9857 75.5238 54.2754 75.8232C54.5651 76.1227 54.7881 76.4808 54.9443 76.8975C55.1038 77.3109 55.1836 77.7715 55.1836 78.2793V78.6162C55.1836 79.1208 55.1038 79.5814 54.9443 79.998C54.7881 80.4147 54.5651 80.7728 54.2754 81.0723C53.9889 81.3685 53.6455 81.598 53.2451 81.7607C52.848 81.9202 52.4085 82 51.9268 82ZM51.209 74.8906V82H49.7441V74.8906H51.209ZM61.0186 80.8574V82H57.2344V80.8574H61.0186ZM57.7129 74.8906V82H56.248V74.8906H57.7129ZM60.5254 77.7861V78.8994H57.2344V77.7861H60.5254ZM61.0137 74.8906V76.0381H57.2344V74.8906H61.0137ZM65.5742 80.1396C65.5742 80.0127 65.5547 79.8988 65.5156 79.7979C65.4798 79.6937 65.4115 79.5993 65.3105 79.5146C65.2096 79.4268 65.068 79.3405 64.8857 79.2559C64.7035 79.1712 64.4674 79.0833 64.1777 78.9922C63.8555 78.888 63.5495 78.7708 63.2598 78.6406C62.9733 78.5104 62.7194 78.359 62.498 78.1865C62.2799 78.0107 62.1074 77.8073 61.9805 77.5762C61.8568 77.3451 61.7949 77.0765 61.7949 76.7705C61.7949 76.4743 61.86 76.2057 61.9902 75.9648C62.1204 75.7207 62.3027 75.5124 62.5371 75.3398C62.7715 75.1641 63.0482 75.029 63.3672 74.9346C63.6895 74.8402 64.0426 74.793 64.4268 74.793C64.9508 74.793 65.4082 74.8874 65.7988 75.0762C66.1895 75.265 66.4922 75.5238 66.707 75.8525C66.9251 76.1813 67.0342 76.5573 67.0342 76.9805H65.5791C65.5791 76.7721 65.5352 76.5898 65.4473 76.4336C65.3626 76.2741 65.2324 76.1488 65.0566 76.0576C64.8841 75.9665 64.666 75.9209 64.4023 75.9209C64.1484 75.9209 63.9368 75.96 63.7676 76.0381C63.5983 76.113 63.4714 76.2155 63.3867 76.3457C63.3021 76.4727 63.2598 76.6159 63.2598 76.7754C63.2598 76.8958 63.2891 77.0049 63.3477 77.1025C63.4095 77.2002 63.5007 77.2913 63.6211 77.376C63.7415 77.4606 63.8896 77.5404 64.0654 77.6152C64.2412 77.6901 64.4447 77.7633 64.6758 77.835C65.0632 77.9521 65.4033 78.084 65.6963 78.2305C65.9925 78.377 66.2399 78.5413 66.4385 78.7236C66.637 78.9059 66.7868 79.1126 66.8877 79.3438C66.9886 79.5749 67.0391 79.8369 67.0391 80.1299C67.0391 80.4391 66.9788 80.7158 66.8584 80.96C66.738 81.2041 66.5638 81.4108 66.3359 81.5801C66.1081 81.7493 65.8363 81.8779 65.5205 81.9658C65.2048 82.0537 64.8516 82.0977 64.4609 82.0977C64.1094 82.0977 63.7627 82.0521 63.4209 81.9609C63.0791 81.8665 62.7682 81.7249 62.4883 81.5361C62.2116 81.3473 61.9902 81.1064 61.8242 80.8135C61.6582 80.5205 61.5752 80.1738 61.5752 79.7734H63.0449C63.0449 79.9948 63.0791 80.182 63.1475 80.335C63.2158 80.488 63.3118 80.6117 63.4355 80.7061C63.5625 80.8005 63.7122 80.8688 63.8848 80.9111C64.0605 80.9535 64.2526 80.9746 64.4609 80.9746C64.7148 80.9746 64.9232 80.9388 65.0859 80.8672C65.252 80.7956 65.374 80.6963 65.4521 80.5693C65.5335 80.4424 65.5742 80.2992 65.5742 80.1396ZM72.7764 77.7861V78.9287H69.0654V77.7861H72.7764ZM69.5 74.8906V82H68.0352V74.8906H69.5ZM73.8213 74.8906V82H72.3613V74.8906H73.8213Z" fill="white"/>
</g>
<defs>
<filter id="filter0_dd_1417_2120" x="0" y="0" width="104" height="104" filterUnits="userSpaceOnUse" color-interpolation-filters="sRGB">
<feFlood flood-opacity="0" result="BackgroundImageFix"/>
<feColorMatrix in="SourceAlpha" type="matrix" values="0 0 0 0 0 0 0 0 0 0 0 0 0 0 0 0 0 0 127 0" result="hardAlpha"/>
<feMorphology radius="1" operator="dilate" in="SourceAlpha" result="effect1_dropShadow_1417_2120"/>
<feOffset dy="6"/>
<feGaussianBlur stdDeviation="3"/>
<feComposite in2="hardAlpha" operator="out"/>
<feColorMatrix type="matrix" values="0 0 0 0 0.541176 0 0 0 0 0.266667 0 0 0 0 0.627451 0 0 0 0.5 0"/>
<feBlend mode="normal" in2="BackgroundImageFix" result="effect1_dropShadow_1417_2120"/>
<feColorMatrix in="SourceAlpha" type="matrix" values="0 0 0 0 0 0 0 0 0 0 0 0 0 0 0 0 0 0 127 0" result="hardAlpha"/>
<feOffset dy="3"/>
<feComposite in2="hardAlpha" operator="out"/>
<feColorMatrix type="matrix" values="0 0 0 0 0.540257 0 0 0 0 0.267396 0 0 0 0 0.629167 0 0 0 1 0"/>
<feBlend mode="normal" in2="effect1_dropShadow_1417_2120" result="effect2_dropShadow_1417_2120"/>
<feBlend mode="normal" in="SourceGraphic" in2="effect2_dropShadow_1417_2120" result="shape"/>
</filter>
<filter id="filter1_d_1417_2120" x="26.8654" y="8" width="50.2693" height="53" filterUnits="userSpaceOnUse" color-interpolation-filters="sRGB">
<feFlood flood-opacity="0" result="BackgroundImageFix"/>
<feColorMatrix in="SourceAlpha" type="matrix" values="0 0 0 0 0 0 0 0 0 0 0 0 0 0 0 0 0 0 127 0" result="hardAlpha"/>
<feOffset dy="4"/>
<feGaussianBlur stdDeviation="2"/>
<feComposite in2="hardAlpha" operator="out"/>
<feColorMatrix type="matrix" values="0 0 0 0 0 0 0 0 0 0 0 0 0 0 0 0 0 0 0.25 0"/>
<feBlend mode="normal" in2="BackgroundImageFix" result="effect1_dropShadow_1417_2120"/>
<feBlend mode="normal" in="SourceGraphic" in2="effect1_dropShadow_1417_2120" result="shape"/>
</filter>
</defs>
</svg>
