<svg width="27" height="43" viewBox="0 0 27 43" fill="none" xmlns="http://www.w3.org/2000/svg">
<path d="M7.97605 31.8517H5.00535V40.0909H3.79295V31.8517H0.828592V30.8488H7.97605V31.8517ZM10.5389 40.0909H9.36463V33.2228H10.5389V40.0909ZM9.26941 31.401C9.26941 31.2106 9.32654 31.0498 9.4408 30.9186C9.55929 30.7874 9.73279 30.7218 9.96131 30.7218C10.1898 30.7218 10.3633 30.7874 10.4818 30.9186C10.6003 31.0498 10.6595 31.2106 10.6595 31.401C10.6595 31.5914 10.6003 31.7501 10.4818 31.8771C10.3633 32.004 10.1898 32.0675 9.96131 32.0675C9.73279 32.0675 9.55929 32.004 9.4408 31.8771C9.32654 31.7501 9.26941 31.5914 9.26941 31.401ZM18.326 36.733C18.326 37.7783 18.0869 38.6204 17.6087 39.2594C17.1305 39.8984 16.483 40.2179 15.6663 40.2179C14.8326 40.2179 14.1767 39.9534 13.6985 39.4244V42.7316H12.5242V33.2228H13.597L13.6541 33.9845C14.1323 33.392 14.7967 33.0958 15.6472 33.0958C16.4724 33.0958 17.1241 33.4069 17.6023 34.0289C18.0847 34.651 18.326 35.5164 18.326 36.6251V36.733ZM17.1516 36.5997C17.1516 35.8253 16.9866 35.2138 16.6565 34.7653C16.3264 34.3167 15.8736 34.0924 15.2981 34.0924C14.5872 34.0924 14.054 34.4077 13.6985 35.0382V38.3199C14.0498 38.9462 14.5872 39.2594 15.3108 39.2594C15.8736 39.2594 16.3201 39.0372 16.6502 38.5929C16.9845 38.1443 17.1516 37.4799 17.1516 36.5997ZM23.923 38.2692C23.923 37.9518 23.8024 37.7063 23.5612 37.5328C23.3242 37.3551 22.9074 37.2028 22.3107 37.0758C21.7183 36.9489 21.2464 36.7965 20.8952 36.6188C20.5482 36.441 20.29 36.2295 20.1208 35.984C19.9557 35.7386 19.8732 35.4466 19.8732 35.108C19.8732 34.5452 20.1102 34.0691 20.5842 33.6798C21.0623 33.2905 21.6717 33.0958 22.4123 33.0958C23.1909 33.0958 23.8215 33.2968 24.3039 33.6989C24.7905 34.1009 25.0339 34.615 25.0339 35.2413H23.8532C23.8532 34.9197 23.7157 34.6425 23.4406 34.4098C23.1698 34.177 22.827 34.0607 22.4123 34.0607C21.9849 34.0607 21.6506 34.1538 21.4094 34.34C21.1681 34.5262 21.0475 34.7695 21.0475 35.0699C21.0475 35.3535 21.1597 35.5672 21.384 35.7111C21.6082 35.8549 22.0124 35.9925 22.5964 36.1237C23.1846 36.2548 23.6607 36.4114 24.0246 36.5934C24.3885 36.7753 24.6572 36.9954 24.8307 37.2535C25.0085 37.5074 25.0973 37.8185 25.0973 38.1866C25.0973 38.8003 24.8519 39.2933 24.361 39.6656C23.8701 40.0338 23.2332 40.2179 22.4504 40.2179C21.9002 40.2179 21.4136 40.1206 20.9904 39.9259C20.5672 39.7312 20.235 39.4604 19.9938 39.1134C19.7568 38.7622 19.6384 38.3834 19.6384 37.9772H20.8127C20.8338 38.3707 20.9904 38.6839 21.2824 38.9166C21.5786 39.1451 21.9679 39.2594 22.4504 39.2594C22.8947 39.2594 23.2502 39.1705 23.5168 38.9928C23.7876 38.8108 23.923 38.5696 23.923 38.2692Z" fill="#777777"/>
<path d="M10 12.9954H9.5V13.9954H10V12.9954ZM16 13.9954H16.5V12.9954H16V13.9954ZM10.0005 15.9935L9.50054 15.9929L9.49946 16.9929L9.99946 16.9935L10.0005 15.9935ZM15.9995 17L16.4995 17.0005L16.5005 16.0005L16.0005 16L15.9995 17ZM10.0003 9.99738L9.50033 9.99705L9.49967 10.997L9.99967 10.9974L10.0003 9.99738ZM13.9997 11L14.4997 11.0003L14.5003 10.0003L14.0003 10L13.9997 11ZM16 6.5L16.3536 6.14645L16.2071 6H16V6.5ZM19 9.5H19.5V9.29289L19.3536 9.14645L19 9.5ZM10 13.9954H16V12.9954H10V13.9954ZM9.99946 16.9935L15.9995 17L16.0005 16L10.0005 15.9935L9.99946 16.9935ZM9.99967 10.9974L13.9997 11L14.0003 10L10.0003 9.99738L9.99967 10.9974ZM18 20H8V21H18V20ZM7.5 19.5V7.5H6.5V19.5H7.5ZM8 7H16V6H8V7ZM18.5 9.5V19.5H19.5V9.5H18.5ZM15.6464 6.85355L18.6464 9.85355L19.3536 9.14645L16.3536 6.14645L15.6464 6.85355ZM8 20C7.72386 20 7.5 19.7761 7.5 19.5H6.5C6.5 20.3284 7.17157 21 8 21V20ZM18 21C18.8284 21 19.5 20.3284 19.5 19.5H18.5C18.5 19.7761 18.2761 20 18 20V21ZM7.5 7.5C7.5 7.22386 7.72386 7 8 7V6C7.17157 6 6.5 6.67157 6.5 7.5H7.5Z" fill="#777777"/>
</svg>
