<svg width="24" height="24" viewBox="0 0 24 24" fill="none" xmlns="http://www.w3.org/2000/svg">
<path d="M8 23.5H16M12 23.5V17.7857M12 17.7857C14.5247 17.7857 16.5714 15.739 16.5714 13.2143V8.64286C16.5714 8.01167 16.0598 7.5 15.4286 7.5H8.57143C7.94025 7.5 7.42857 8.01167 7.42857 8.64286V13.2143C7.42857 15.739 9.47527 17.7857 12 17.7857ZM7.42857 9.78571H6.28571C5.02335 9.78571 4 10.8091 4 12.0714C4 13.3338 5.02335 14.3571 6.28571 14.3571H7.42857M16.5714 9.78571H17.7143C18.9767 9.78571 20 10.8091 20 12.0714C20 13.3338 18.9767 14.3571 17.7143 14.3571H16.5714" stroke="#777777"/>
</svg>
