<svg width="29" height="41" viewBox="0 0 29 41" fill="none" xmlns="http://www.w3.org/2000/svg">
<path d="M1.71511 36.4728V40.0909H0.496362V30.8488H3.90505C4.91645 30.8488 5.70779 31.1069 6.27908 31.6232C6.8546 32.1394 7.14236 32.8229 7.14236 33.6735C7.14236 34.5706 6.86095 35.2625 6.29812 35.7491C5.73953 36.2316 4.93761 36.4728 3.89236 36.4728H1.71511ZM1.71511 35.4762H3.90505C4.55675 35.4762 5.05609 35.3239 5.4031 35.0192C5.75011 34.7102 5.92361 34.2659 5.92361 33.6862C5.92361 33.136 5.75011 32.6959 5.4031 32.3658C5.05609 32.0358 4.58002 31.8644 3.97488 31.8517H1.71511V35.4762ZM11.9333 34.2765C11.7555 34.2469 11.563 34.2321 11.3556 34.2321C10.5855 34.2321 10.0628 34.56 9.78777 35.2159V40.0909H8.61345V33.2228H9.75603L9.77507 34.0162C10.1602 33.4026 10.7061 33.0958 11.4128 33.0958C11.6413 33.0958 11.8148 33.1254 11.9333 33.1847V34.2765ZM14.3946 40.0909H13.2203V33.2228H14.3946V40.0909ZM13.1251 31.401C13.1251 31.2106 13.1822 31.0498 13.2965 30.9186C13.4149 30.7874 13.5885 30.7218 13.817 30.7218C14.0455 30.7218 14.219 30.7874 14.3375 30.9186C14.456 31.0498 14.5152 31.2106 14.5152 31.401C14.5152 31.5914 14.456 31.7501 14.3375 31.8771C14.219 32.004 14.0455 32.0675 13.817 32.0675C13.5885 32.0675 13.4149 32.004 13.2965 31.8771C13.1822 31.7501 13.1251 31.5914 13.1251 31.401ZM17.4843 39.1324H21.5024V40.0909H16.0498V39.2277L19.8393 34.194H16.1069V33.2228H21.312V34.0543L17.4843 39.1324ZM25.6776 40.2179C24.7466 40.2179 23.9891 39.9132 23.4052 39.3038C22.8212 38.6902 22.5292 37.8714 22.5292 36.8473V36.6315C22.5292 35.9502 22.6582 35.3429 22.9164 34.8097C23.1788 34.2723 23.5427 33.8533 24.0082 33.5529C24.4779 33.2482 24.9857 33.0958 25.5316 33.0958C26.4245 33.0958 27.1185 33.3899 27.6136 33.9781C28.1088 34.5664 28.3563 35.4085 28.3563 36.5045V36.9933H23.7035C23.7204 37.6704 23.9172 38.2184 24.2938 38.6373C24.6747 39.052 25.1571 39.2594 25.7411 39.2594C26.1558 39.2594 26.507 39.1748 26.7948 39.0055C27.0826 38.8362 27.3344 38.6119 27.5502 38.3326L28.2675 38.8912C27.6919 39.7757 26.8287 40.2179 25.6776 40.2179ZM25.5316 34.0607C25.0577 34.0607 24.6599 34.2342 24.3383 34.5812C24.0166 34.924 23.8177 35.4064 23.7416 36.0284H27.182V35.9396C27.1482 35.3429 26.9873 34.8816 26.6996 34.5558C26.4118 34.2257 26.0225 34.0607 25.5316 34.0607Z" fill="#777777"/>
<path d="M10.5 20.5H17.5M14 20.5V15.5M14 15.5C16.2091 15.5 18 13.7091 18 11.5V7.5C18 6.94772 17.5523 6.5 17 6.5H11C10.4477 6.5 10 6.94772 10 7.5V11.5C10 13.7091 11.7909 15.5 14 15.5ZM10 8.5H9C7.89543 8.5 7 9.39543 7 10.5C7 11.6046 7.89543 12.5 9 12.5H10M18 8.5H19C20.1046 8.5 21 9.39543 21 10.5C21 11.6046 20.1046 12.5 19 12.5H18" stroke="#777777"/>
</svg>
