<svg width="147" height="124" viewBox="0 0 147 124" fill="none" xmlns="http://www.w3.org/2000/svg">
<g filter="url(#filter0_dd_545_3895)">
<rect x="7.83331" y="1" width="131.556" height="110" rx="16" fill="url(#paint0_linear_545_3895)"/>
</g>
<g filter="url(#filter1_d_545_3895)">
<path d="M110.877 27.2278C110.839 27.1798 110.787 27.1435 110.729 27.1229C110.646 27.0947 110.555 27.0996 110.476 27.1366C110.397 27.1735 110.335 27.2396 110.305 27.3208L107.314 35.521C107.18 35.4726 107.033 35.4726 106.899 35.521C106.452 35.7105 106.068 36.0227 105.793 36.4208L104.279 36.7867C104.268 36.7454 104.25 36.7059 104.227 36.6698C104.218 36.6573 104.206 36.6462 104.194 36.6368C102.655 36.2495 101.148 35.7482 99.6857 35.1371C98.7011 33.1935 97.5256 31.9818 96.5712 32.0568C96.5081 32.0601 96.4453 32.0682 96.3834 32.0808H96.3531C96.3531 32.0808 96.3682 32.0808 96.3803 32.0628C96.2804 32.0628 95.7078 32.1288 95.6138 32.1557C95.4937 32.1897 95.3786 32.2391 95.2715 32.3027L95.0837 32.3417C94.1748 31.6099 93.3234 30.824 92.4751 30.0352C91.9813 29.5793 91.5662 28.8985 91.1087 28.4786C91.1087 28.4516 91.1087 28.4186 91.0875 28.4036C90.9845 27.9537 90.7634 28.0287 90.7634 28.0287C90.6878 28.0476 90.6087 28.0476 90.5331 28.0287C90.3301 27.9927 90.1756 27.8367 89.8181 27.8637C89.706 27.8637 89.5879 27.8637 89.4667 27.8637C89.3455 27.8637 89.2364 27.8637 89.1183 27.8637H89.0031C88.9126 27.87 88.8225 27.882 88.7335 27.8997H88.7183C88.5852 27.6938 88.4363 27.4983 88.273 27.3148C88.2265 27.2668 88.1811 27.2218 88.1367 27.1798C88.1333 27.161 88.1272 27.1429 88.1185 27.1259L88.0124 27.0749C87.874 26.9651 87.7108 26.89 87.5368 26.8559C87.4913 26.8289 87.455 26.8169 87.4277 26.8379H87.3883L87.3701 26.7329H87.3883C87.5065 26.6939 87.6186 26.589 87.6095 26.475L87.661 26.448C87.8246 26.493 88.0609 26.448 88.0851 26.259C88.0866 26.2401 88.0866 26.221 88.0851 26.2021L88.2154 26.1001C88.2518 26.0731 88.279 26.0431 88.3124 26.0131C88.3457 25.9831 88.4093 25.9171 88.4517 25.8691C88.4809 25.8346 88.5082 25.7986 88.5335 25.7611C88.564 25.7202 88.5914 25.6771 88.6153 25.6322L88.6759 25.5182V25.4882C88.7829 25.1633 88.7955 24.8151 88.7123 24.4834V24.4834C88.7108 24.4715 88.7108 24.4594 88.7123 24.4474C88.688 24.3245 88.6608 24.1985 88.6275 24.0665C88.7087 24.029 88.7787 23.9711 88.8304 23.8986C88.85 23.87 88.8672 23.8399 88.8819 23.8086C88.9172 23.7516 88.9467 23.6914 88.9698 23.6286C88.985 23.5866 88.991 23.5416 89.0031 23.4936C89.0202 23.4266 89.0323 23.3584 89.0395 23.2897C89.0395 23.2417 89.0395 23.1937 89.0395 23.1427C89.0395 23.0917 89.0395 22.9958 89.0395 22.9208C89.038 22.8998 89.038 22.8788 89.0395 22.8578C89.0395 22.8188 89.0213 22.7858 89.0153 22.7498C89.0092 22.7138 88.9971 22.6538 88.985 22.6058C88.9679 22.5468 88.9477 22.4887 88.9244 22.4319C88.9062 22.3899 88.891 22.3509 88.8698 22.3119C88.8395 22.2553 88.8018 22.2028 88.7577 22.1559C88.7382 22.1286 88.717 22.1026 88.6941 22.078C88.6264 22.0119 88.5446 21.9617 88.4548 21.931C88.4902 21.8497 88.5137 21.7639 88.5244 21.676C88.526 21.6551 88.526 21.634 88.5244 21.6131C88.5277 21.5495 88.5216 21.4859 88.5063 21.4241C88.5077 21.4091 88.5077 21.3941 88.5063 21.3791C88.4849 21.3066 88.4543 21.2371 88.4154 21.1722L88.3851 21.1302C88.3489 21.0788 88.3084 21.0307 88.2639 20.9862L88.2487 20.9682H88.27L88.3093 20.9412C88.3339 20.9232 88.3537 20.8995 88.3669 20.8722C88.3761 20.8576 88.3822 20.8413 88.3851 20.8242C88.3927 20.7886 88.3927 20.7519 88.3851 20.7163C88.388 20.6974 88.388 20.6782 88.3851 20.6593C88.3712 20.6217 88.3518 20.5863 88.3275 20.5543C88.9522 20.2158 89.5525 19.835 90.1241 19.4145C90.3119 19.2016 90.0029 18.8927 89.8211 18.5867C89.8734 18.5261 89.908 18.4524 89.9211 18.3738C90.0793 18.217 90.204 18.0304 90.2877 17.8249C90.3059 17.42 89.7787 17.399 89.5757 17.174C89.3728 16.9491 89.6757 16.3762 89.2091 16.1513C89.0637 16.0793 88.8062 16.1962 88.5487 16.2922C88.4865 16.1468 88.369 16.0315 88.2215 15.9713V15.9713C87.9458 15.8693 87.7852 15.5754 87.4913 15.1525C87.1975 14.7296 86.8642 15.6294 86.028 15.9623C85.3706 16.2232 85.2039 15.8963 85.1646 15.7703C85.1669 15.5684 85.1201 15.3688 85.0282 15.1885C84.7253 14.8615 83.1741 15.6324 82.7226 16.3402V16.3582C82.6889 16.4154 82.6635 16.477 82.6469 16.5412C82.6469 16.5412 82.6469 16.5682 82.6469 16.5832C82.6452 16.6081 82.6452 16.6332 82.6469 16.6581C82.6441 16.6991 82.6441 16.7402 82.6469 16.7811C82.6454 16.7991 82.6454 16.8171 82.6469 16.8351V16.8591C82.6884 17.0297 82.7452 17.1964 82.8166 17.357C82.556 17.6569 82.25 17.9749 82.247 18.1338C82.2639 18.2205 82.2979 18.303 82.347 18.3768V18.3768C82.3531 18.3841 82.3582 18.3921 82.3621 18.4008C82.4015 18.4757 82.45 18.5627 82.5075 18.6587L82.5227 18.6797L82.7136 18.9796L82.7348 19.0096C82.8044 19.1236 82.8802 19.2376 82.9559 19.3546L82.9953 19.4145C83.068 19.5285 83.1438 19.6425 83.2195 19.7535C83.2272 19.7651 83.2343 19.7771 83.2407 19.7895C83.2801 19.8434 83.3165 19.9004 83.3528 19.9544L83.2831 19.9964C83.2498 20.0204 83.2286 20.0474 83.1983 20.0714C83.1485 20.1096 83.1019 20.1517 83.0589 20.1974C83.0589 20.1974 83.0589 20.1974 83.0589 20.2154C83.0231 20.2641 82.9946 20.3176 82.9741 20.3743C82.9741 20.3743 82.959 20.3983 82.9559 20.4073C82.45 20.4943 82.0682 20.7073 82.4136 21.5711C82.3803 21.5711 82.3288 21.5951 82.2652 21.6101C82.2016 21.6251 82.1319 21.6461 82.0531 21.673H82.0349C81.9871 21.6909 81.9405 21.7119 81.8956 21.736V21.736C81.8429 21.7641 81.7932 21.7973 81.7471 21.835L81.7138 21.865C81.6731 21.9017 81.6347 21.9408 81.5986 21.982L81.5714 22.012C81.5295 22.0706 81.493 22.1328 81.4623 22.1979C81.4534 22.2141 81.4463 22.2312 81.4411 22.2489C81.4155 22.3111 81.3952 22.3753 81.3805 22.4409L81.3623 22.5129C81.3448 22.6119 81.3357 22.7122 81.3351 22.8128C81.3321 22.8357 81.3321 22.8589 81.3351 22.8818C81.3367 22.9821 81.3438 23.0822 81.3563 23.1817L81.3745 23.3047C81.3745 23.3587 81.3926 23.4127 81.4048 23.4697L81.3078 23.5116L81.0351 23.6316L80.917 23.6826H80.9382C80.3295 23.9784 79.7655 24.3569 79.2628 24.8074C79.1052 25.0803 79.3779 25.8691 79.6839 26.289C79.6839 26.289 79.7081 26.316 79.7203 26.334C79.7585 26.393 79.8092 26.4431 79.8687 26.481H79.896C79.9557 26.5134 80.0201 26.5366 80.0868 26.55L80.3383 26.1151C80.511 26.373 80.6685 26.7149 80.8806 27.0989C81.03 27.3498 81.2654 27.5393 81.5441 27.6327C81.5441 27.7497 81.5259 27.8697 81.5259 27.9927C81.5245 28.0096 81.5245 28.0267 81.5259 28.0436C81.5245 28.0606 81.5245 28.0777 81.5259 28.0946C81.5217 28.1235 81.5217 28.1528 81.5259 28.1816C81.5448 28.2195 81.5671 28.2557 81.5926 28.2896V28.3046C81.6274 28.3506 81.6659 28.3937 81.7077 28.4336C81.7142 28.443 81.7224 28.4512 81.732 28.4576C81.7814 28.508 81.8351 28.5542 81.8925 28.5955L81.9168 28.6135L82.0258 28.6825C81.8953 28.7435 81.7688 28.8126 81.6471 28.8895C81.5532 29.0018 81.4729 29.1246 81.4078 29.2554L81.3654 29.2974C81.3356 29.3249 81.3073 29.3539 81.2805 29.3844L81.2321 29.4383C81.1696 29.469 81.109 29.5031 81.0503 29.5403C80.92 29.6813 80.7928 29.8253 80.6655 29.9662C80.4171 30.2422 80.1717 30.5211 79.9293 30.8C79.1416 31.6998 78.369 32.6266 77.6328 33.5774C77.2905 34.0183 76.9542 34.4772 76.633 34.9301C76.4876 35.1401 76.3452 35.353 76.2119 35.569C75.9453 35.9949 75.7514 36.3908 75.303 36.6758C74.9758 36.8857 74.888 36.9757 75.0001 37.4586C75.1121 37.9415 73.6367 40.344 75.0001 45.7008C75.0128 45.7586 75.0364 45.8136 75.0697 45.8627L75.097 45.8987C75.1108 45.9178 75.1271 45.935 75.1455 45.9497C75.1395 46.1966 75.1861 46.4419 75.2821 46.6698C75.3781 46.8977 75.5215 47.103 75.7029 47.2724L75.6423 47.3654L75.0303 48.2802C75.0303 48.3012 75.0122 48.3222 75.0303 48.3282L75.0576 48.3462L75.1667 48.4152L75.4151 48.5742L75.4969 48.6281L75.5302 48.6521C75.5302 48.6521 75.5575 48.6521 75.5757 48.6161L76.2816 47.5454C76.2796 47.5622 76.2744 47.5784 76.2664 47.5934H76.3513L76.4876 47.5694H76.5088C76.5574 47.557 76.6051 47.5409 76.6512 47.5214V47.5214H76.6815H76.7027L76.7663 47.4914L76.8057 47.4704L76.8784 47.4284L76.9239 47.3984L76.9784 47.3534H76.9936L77.1723 47.2154C77.2238 47.1531 77.261 47.0804 77.2814 47.0025C77.3471 46.9782 77.4056 46.938 77.4516 46.8856C77.4976 46.8333 77.5297 46.7703 77.545 46.7026C77.5543 46.655 77.5543 46.6061 77.545 46.5586C77.5556 46.6433 77.5749 46.7267 77.6025 46.8075V46.8075C77.6172 46.8366 77.6405 46.8607 77.6692 46.8765H77.6964C77.7173 46.8823 77.7393 46.8823 77.7601 46.8765C77.7752 46.8765 77.7843 46.8765 77.7964 46.8525C77.8057 46.8483 77.8139 46.8421 77.8207 46.8345C77.8491 46.8017 77.8661 46.7607 77.8691 46.7176C77.9006 46.5289 77.9219 46.3386 77.9328 46.1477C77.9419 45.9455 77.8991 45.7443 77.8085 45.5628C77.7757 45.5151 77.7393 45.47 77.6995 45.4278L77.6752 45.4008L78.6387 43.9432C78.7084 44.2671 78.7902 44.591 78.8901 44.912C79.2657 46.1353 79.8166 47.2989 80.5261 48.3672C80.511 48.4512 80.4989 48.5292 80.4837 48.6161C80.4474 48.8081 80.408 49.0031 80.3716 49.198C80.2595 49.7739 80.1353 50.3618 80.005 50.9616L79.9142 51.3785C79.7475 52.1044 79.5688 52.8482 79.3688 53.601C79.3264 53.769 79.2779 53.94 79.2325 54.1109C79.0689 54.7108 78.8932 55.3287 78.7053 55.9645C78.6417 56.1805 78.5781 56.3934 78.5114 56.6094C78.2691 57.4012 78.0115 58.202 77.7267 59.0089C78.3043 59.0646 78.8773 59.1598 79.4415 59.2938L79.2688 60.3496H79.2961C79.2961 60.3736 79.2961 60.4006 79.281 60.4275C79.2355 60.7065 79.184 60.9794 79.1355 61.2464C79.084 61.5253 79.0325 61.7953 78.981 62.0592C78.981 62.1132 78.9598 62.1642 78.9507 62.2152C78.9083 62.4131 78.8689 62.6081 78.8326 62.794C78.8144 62.869 78.7992 62.941 78.7841 63.013C78.7508 63.1719 78.7174 63.3129 78.6841 63.4689C78.669 63.5439 78.6508 63.6158 78.6356 63.6878C78.6023 63.8348 78.569 63.9878 78.5357 64.1137L78.4993 64.2727C78.4569 64.4437 78.4175 64.5996 78.3781 64.7436C78.3781 64.7946 78.3539 64.8366 78.3418 64.8846C78.3145 64.9805 78.2903 65.0705 78.266 65.1515C78.2596 65.1681 78.2545 65.1851 78.2509 65.2025C78.2509 65.2235 78.2357 65.2445 78.2297 65.2625C78.2095 65.3385 78.1883 65.4045 78.166 65.4604L78.1388 65.5324C78.1205 65.5864 78.0972 65.6387 78.0691 65.6884C78.036 65.7246 78.0106 65.767 77.9944 65.8132C77.9783 65.8594 77.9717 65.9083 77.9751 65.957C77.9785 66.0057 77.9918 66.0533 78.0142 66.0968C78.0366 66.1403 78.0676 66.1789 78.1054 66.2103C78.2206 66.3333 78.3478 66.4322 78.2085 66.6032C78.0691 66.7742 78.0721 66.8431 78.0873 66.9391C78.1217 67.0961 78.1155 67.2591 78.0691 67.413C77.9843 67.7429 77.9025 68.1389 77.8207 68.5648C77.6661 69.4106 77.5177 70.3794 77.3874 71.2402L76.8512 70.6193L76.6815 70.4184C76.3886 70.0744 76.0857 69.7185 75.7726 69.3506L75.7363 69.3086L75.712 69.2786C75.1424 68.6008 74.5517 67.8899 73.9306 67.1491L73.767 66.9541L72.9399 65.9733C72.7581 65.7574 72.5763 65.5384 72.3885 65.3195L72.0249 64.8936L71.5099 64.2937L71.1009 63.8228L70.6192 63.2769L70.1768 62.773L69.6557 62.1912L69.277 61.7653L69.2528 61.7383C68.8983 61.3453 68.5317 60.9434 68.1561 60.5385L68.1318 60.5115L67.9682 60.3376L67.6955 60.0376H67.7289V60.0226C67.7834 60.0076 67.844 59.9926 67.8925 59.9746C68.0709 59.9134 68.2378 59.8232 68.3863 59.7077L68.4196 59.6717C68.5 59.6009 68.5721 59.5214 68.6347 59.4348C68.659 59.4018 68.6802 59.3658 68.7014 59.3298C68.7268 59.2932 68.7501 59.2551 68.7711 59.2158V59.2158C68.8701 59.0138 68.9346 58.7969 68.9619 58.574C68.9619 58.55 68.9619 58.532 68.9619 58.508C68.9619 58.4 68.9801 58.298 68.9832 58.208C68.9832 58.181 68.9832 58.1481 68.9832 58.1241C68.9799 58.0678 68.9687 58.0123 68.9498 57.9591C68.9498 57.9381 68.9286 57.9111 68.9195 57.8871C68.901 57.839 68.8798 57.7919 68.8559 57.7461L68.8377 57.7101L68.7862 57.6172C68.759 57.5662 68.7317 57.5152 68.6984 57.4612C68.6891 57.4403 68.6779 57.4202 68.665 57.4012L68.5984 57.2932L68.4863 57.1163C68.4863 57.1163 68.4863 57.1013 68.4863 57.0923L68.4499 57.0383L68.4196 56.9873L68.2894 56.7893L68.1712 56.6124L68.0591 56.4504C68.0491 56.4328 68.0379 56.4157 68.0258 56.3994V56.3994L67.9622 56.3065C67.8894 56.1955 67.8107 56.0845 67.7319 55.9675C67.5168 55.6676 67.2896 55.3317 67.0563 54.9927L67.0351 54.9597C66.8291 54.6598 66.623 54.3599 66.414 54.0419L66.3716 53.976C66.1656 53.676 65.9626 53.3461 65.7656 53.0282V53.0132C65.596 52.7372 65.4354 52.4583 65.2809 52.1854L65.1446 51.9424C64.984 51.6425 64.8416 51.3425 64.6992 51.0576L64.6689 50.9946C64.5841 50.8027 64.4962 50.5957 64.4053 50.3947L64.3054 50.1458C64.2357 49.9748 64.163 49.7979 64.0933 49.6149C63.7509 48.7331 63.4086 47.7583 63.0905 46.8165H63.1086C63.1516 46.7688 63.1744 46.7065 63.1723 46.6426C63.1754 46.6127 63.1754 46.5825 63.1723 46.5526C63.1611 46.4979 63.1439 46.4446 63.1208 46.3936L62.9117 46.1627L62.9269 46.1417H62.9481C63.0106 46.0627 63.0607 45.9747 63.0965 45.8807V45.8657L63.1268 45.8807C63.1992 45.9164 63.2793 45.9339 63.3601 45.9317C63.5449 45.9077 63.6237 45.8298 63.6449 45.7368C63.6495 45.7059 63.6495 45.6746 63.6449 45.6438C63.6388 45.5858 63.6235 45.5291 63.5994 45.4758C63.5896 45.4508 63.5775 45.4267 63.5631 45.4038L63.4722 45.3169L63.554 45.1999C63.6752 45.0229 63.8055 44.84 63.9357 44.648L64.0085 44.549L64.3114 44.1051L64.4175 43.9522C64.4417 43.9192 64.4659 43.8832 64.4871 43.8472C64.5763 43.8765 64.6674 43.8995 64.7598 43.9162C64.8952 43.9384 65.0334 43.9384 65.1688 43.9162C65.2876 43.9016 65.3993 43.8526 65.49 43.7752C65.5885 43.6858 65.6589 43.5702 65.6929 43.4423C65.7323 43.3883 65.7717 43.3253 65.8141 43.2563C65.8141 43.2353 65.8384 43.2083 65.8535 43.1843C65.8687 43.1603 65.9111 43.0854 65.9414 43.0284C65.9717 42.9714 65.9747 42.9594 65.9929 42.9264L66.0747 42.7644C66.0959 42.7194 66.1171 42.6684 66.1413 42.6205C66.1656 42.5725 66.1868 42.5215 66.208 42.4705C66.2292 42.4195 66.2595 42.3535 66.2837 42.2965C66.308 42.2395 66.3231 42.2005 66.3443 42.1496C66.3655 42.0986 66.3958 42.0236 66.4201 41.9606L66.4776 41.8136C66.5049 41.7416 66.5322 41.6697 66.5564 41.5947C66.5806 41.5197 66.5897 41.5077 66.6049 41.4627L66.6867 41.2258C66.6867 41.1868 66.7139 41.1478 66.7261 41.1058C66.7382 41.0638 66.7776 40.9408 66.8048 40.8598C66.8048 40.8238 66.826 40.7849 66.8382 40.7489C66.8624 40.6649 66.8866 40.5809 66.9078 40.4969C66.9078 40.4639 66.929 40.4309 66.9381 40.3979C66.9593 40.314 66.9775 40.23 66.9987 40.149C66.9987 40.119 67.0139 40.086 67.023 40.056C67.0411 39.975 67.0563 39.897 67.0714 39.8191L67.0896 39.7321C67.0896 39.6571 67.1139 39.5851 67.1229 39.5161C67.132 39.4471 67.1229 39.4561 67.1381 39.4292C67.1532 39.4022 67.1381 39.2972 67.1563 39.2372C67.1578 39.2102 67.1578 39.1832 67.1563 39.1562C67.1563 39.0992 67.1563 39.0452 67.1563 38.9912V38.9193C67.1563 38.8713 67.1563 38.8293 67.1411 38.7873C67.126 38.7453 67.1411 38.7513 67.1411 38.7333C67.1411 38.7333 67.1411 38.7003 67.1411 38.6883C67.0447 38.3241 66.9022 37.9734 66.717 37.6445L66.7654 37.7315C66.7503 37.6985 66.7261 37.6625 66.7079 37.6295L66.5564 37.3566C66.4867 37.2366 66.414 37.1137 66.3352 36.9847C66.2565 36.8557 66.208 36.7897 66.1444 36.6848C66.0807 36.5798 65.9686 36.4208 65.8747 36.2858L65.6536 35.9859C65.5536 35.8449 65.4475 35.704 65.3506 35.56L65.1143 35.2601C64.9991 35.1071 64.878 34.9601 64.7537 34.7982L64.5205 34.4982C64.3781 34.3213 64.2175 34.1443 64.0842 33.9674L63.8933 33.7394C63.6812 33.4875 63.4692 33.2385 63.2541 32.9956L63.0814 32.8006L62.6088 32.2697L62.3573 31.9938L61.9756 31.5799L61.718 31.3069L61.4363 31.007C61.4363 30.959 61.4363 30.908 61.4363 30.866C61.4363 30.824 61.4363 30.7581 61.412 30.7071C61.4971 30.6537 61.5924 30.6181 61.6919 30.6026C61.7915 30.5872 61.8932 30.5921 61.9907 30.6171C61.8479 30.484 61.6961 30.3607 61.5362 30.2482L61.4817 30.2122C61.3848 30.1462 61.2878 30.0832 61.1788 30.0262C61.1571 29.9867 61.1328 29.9486 61.106 29.9122C60.964 29.8215 60.8284 29.7213 60.7001 29.6123L60.485 29.4413C60.4254 29.3962 60.3615 29.357 60.2941 29.3244C60.2305 29.2941 60.1594 29.2829 60.0895 29.2919C60.0196 29.301 59.9538 29.33 59.9002 29.3754H59.8487H59.7821L59.7336 29.3334C59.6579 29.2674 59.5942 29.2164 59.5337 29.1684L59.4428 29.0904C59.4064 29.0634 59.3852 29.0544 59.3579 29.0364C59.3465 29.0247 59.3344 29.0137 59.3216 29.0034H59.2943H59.2761L59.2489 28.9345V28.8925C59.2155 28.7965 59.1852 28.7005 59.1549 28.5925L59.0731 28.2926C59.0731 28.2566 59.0731 28.2236 59.0489 28.1876L58.9853 27.9117L58.9217 27.5818C58.9217 27.5308 58.9035 27.4828 58.8974 27.4318C58.8914 27.3808 58.8671 27.2608 58.855 27.1768C58.8429 27.0929 58.8217 26.9399 58.8035 26.8199C58.8035 26.7539 58.7884 26.6879 58.7823 26.625L58.755 26.391C58.7399 26.265 58.7278 26.1421 58.7156 26.0131C58.7156 25.9291 58.7156 25.8481 58.6914 25.7641C58.6672 25.6802 58.6914 25.6322 58.6763 25.5632L58.6399 25.1583L58.6217 24.8973C58.6217 24.8254 58.6217 24.7504 58.6217 24.6784C58.5914 24.2795 58.5642 23.8776 58.5308 23.4787C58.5066 23.1787 58.4733 22.8788 58.4309 22.6178C58.4309 22.6178 58.4309 22.6178 58.4309 22.5968C58.3952 22.3657 58.3477 22.1364 58.2885 21.91C58.2902 21.8991 58.2902 21.8879 58.2885 21.877C58.237 21.676 58.1824 21.4991 58.1249 21.3401C58.1266 21.3272 58.1266 21.3141 58.1249 21.3011C58.0915 21.2052 58.0552 21.1152 58.0218 21.0342C57.9868 20.9273 57.9357 20.8262 57.8704 20.7343C57.7725 20.5327 57.6449 20.3467 57.4917 20.1824V20.1824C56.8221 19.4235 55.4285 18.7217 53.3077 19.0966C51.7929 19.3666 51.1688 20.6863 50.884 22.3059C50.8823 22.3138 50.8823 22.322 50.884 22.3299C50.8173 22.7138 50.7719 23.1157 50.7416 23.5296V23.5986C50.7083 24.0095 50.6901 24.4234 50.6749 24.8344C50.6749 25.1163 50.6749 25.3682 50.6537 25.6082V25.7522C50.6537 25.9711 50.6537 26.1721 50.6537 26.352C50.6537 26.532 50.6537 26.7569 50.6537 26.9309V26.9669C50.6537 27.1259 50.6537 27.2668 50.6537 27.4048C50.6523 27.4268 50.6523 27.4488 50.6537 27.4708C50.6537 27.6057 50.6537 27.7287 50.6295 27.8367C50.6295 27.9417 50.6052 28.0347 50.5871 28.1366V28.1786C50.5705 28.2597 50.5462 28.3391 50.5144 28.4156V28.4396C50.5144 28.3076 50.5144 28.2296 50.5144 28.2296C50.5144 28.2296 49.9993 27.8667 49.5842 28.0287L49.56 28.0826C47.6241 27.1348 44.3854 25.4822 44.0188 24.8314C43.4765 22.6718 43.5189 22.3569 43.431 22.1559C43.4128 22.102 43.331 22.057 43.2008 22.018C43.1765 21.6071 43.1462 21.2291 43.125 20.9112C43.125 20.8602 43.125 20.8092 43.125 20.7552C43.1921 20.7356 43.2541 20.7019 43.3068 20.6563C43.5098 20.4343 43.3916 20.2844 43.2765 20.2034C43.2319 20.1741 43.1842 20.15 43.1341 20.1314V20.0504C43.1341 20.0114 43.1341 19.9694 43.1341 19.9334C43.2231 19.9175 43.3066 19.8793 43.3765 19.8225C43.5037 19.6935 43.5128 19.5855 43.4734 19.5015C43.4409 19.4395 43.3916 19.3875 43.331 19.3516C43.3492 19.3186 43.3613 19.2826 43.3825 19.2466C43.4037 19.2106 43.425 19.1746 43.4462 19.1386C43.4674 19.1026 43.5128 19.0186 43.5522 18.9616C43.5916 18.9047 43.5976 18.8927 43.6189 18.8597L43.7431 18.6737C43.9619 18.2911 44.1474 17.8908 44.2975 17.477C44.3108 17.4486 44.319 17.4181 44.3217 17.387V17.387C44.3278 17.3573 44.3278 17.3267 44.3217 17.297V17.297C44.3156 17.2729 44.3042 17.2504 44.2884 17.231C44.2745 17.215 44.2568 17.2027 44.2369 17.195H44.2096H44.1521H44.1006H44.043L43.9673 17.219L43.9158 17.24C43.8822 17.2568 43.8498 17.2758 43.8188 17.297L43.7734 17.327C43.7215 17.3683 43.6738 17.4145 43.631 17.465C43.5674 17.537 43.4855 17.6899 43.4007 17.7859C43.3779 17.8156 43.349 17.8401 43.3159 17.8579C43.3013 17.8666 43.2845 17.8712 43.2674 17.8712C43.2503 17.8712 43.2336 17.8666 43.2189 17.8579L43.2008 17.8429C43.1774 17.8177 43.1617 17.7865 43.1553 17.7529C43.1521 17.707 43.1521 17.6609 43.1553 17.6149C43.1553 17.6149 43.1553 17.5909 43.1553 17.5789C43.1553 17.5669 43.1553 17.474 43.1553 17.429C43.1553 17.363 43.1735 17.309 43.1765 17.282C43.3189 16.5472 43.434 15.8063 43.528 15.0655C43.5431 14.9829 43.5347 14.8977 43.5037 14.8196V14.7986C43.4981 14.7707 43.484 14.7453 43.4635 14.7255C43.4429 14.7057 43.4168 14.6925 43.3886 14.6876C43.2432 14.6396 43.1402 14.8315 43.1038 14.9875C43.0826 15.0745 43.0614 15.1735 43.0372 15.2874C43.0372 15.3234 43.022 15.3624 43.0129 15.3984C42.9978 15.4794 42.9796 15.5604 42.9614 15.6444C42.9614 15.6804 42.9463 15.7164 42.9402 15.7523L42.8584 16.1513L42.8311 16.2772C42.816 16.3462 42.8039 16.4152 42.7887 16.4812L42.7615 16.6132C42.7615 16.6701 42.7342 16.7271 42.7221 16.7781C42.71 16.8291 42.7039 16.8501 42.6948 16.8831C42.6857 16.9161 42.6736 16.9731 42.6615 17.0061C42.6548 17.0295 42.6467 17.0526 42.6372 17.0751L42.613 17.144C42.5979 17.171 42.5827 17.183 42.5736 17.168C42.6009 16.3522 42.6251 15.5394 42.6524 14.7266C42.6535 14.6623 42.6484 14.598 42.6372 14.5346V14.5346C42.6344 14.5099 42.6283 14.4857 42.6191 14.4626C42.5706 14.3487 42.404 14.2737 42.3161 14.3966C42.2935 14.4334 42.278 14.4741 42.2707 14.5166C42.1828 14.9155 42.1646 15.3384 42.1161 15.7463C42.0646 16.2022 42.0525 17.183 41.9586 17.111C41.9586 16.4392 41.9536 15.7653 41.9435 15.0895C41.9435 14.9845 41.9253 14.8555 41.8314 14.8136C41.7912 14.8018 41.7482 14.8037 41.7092 14.8189C41.6702 14.8341 41.6375 14.8618 41.6162 14.8975C41.5764 14.9737 41.5547 15.0578 41.5526 15.1435C41.4799 15.7823 41.4102 16.4242 41.3406 17.0631C41.2557 17.123 41.3163 16.1872 41.3072 15.7493C41.3097 15.6841 41.2962 15.6193 41.2678 15.5604C41.253 15.5329 41.2281 15.5121 41.1983 15.502C41.1685 15.492 41.136 15.4936 41.1073 15.5064C41.0751 15.5311 41.0526 15.5661 41.0436 15.6054C40.9803 15.8628 40.9458 16.1263 40.9406 16.3912C40.9134 16.6911 40.8861 16.9551 40.8558 17.195C40.8316 17.39 40.8104 17.5819 40.7922 17.7469C40.774 17.9119 40.7498 18.1098 40.7407 18.2718C40.7407 18.5717 40.7407 18.8957 40.7407 19.2076C40.6629 19.2291 40.5934 19.273 40.5407 19.3336C40.5128 19.3751 40.4957 19.4228 40.4911 19.4725C40.4865 19.5222 40.4944 19.5723 40.5143 19.6181C40.5342 19.664 40.5653 19.7042 40.6048 19.7352C40.6443 19.7662 40.691 19.7869 40.7407 19.7955V20.0954H40.6771C40.6373 20.0981 40.5984 20.1086 40.5627 20.1263C40.527 20.1439 40.4952 20.1683 40.469 20.1981C40.4162 20.2583 40.3897 20.3368 40.3953 20.4163C40.4009 20.4959 40.4382 20.5699 40.499 20.6223C40.5598 20.6746 40.6391 20.7008 40.7195 20.6953V20.6953V20.7313C40.6924 21.1101 40.6408 21.4868 40.565 21.859C40.4447 21.8702 40.3252 21.8893 40.2075 21.916C39.55 22.066 39.5197 22.2159 39.5258 22.2459C39.5258 23.0827 39.1228 25.4522 40.2044 26.9849C40.3789 27.2326 40.5951 27.4487 40.8437 27.6237C40.9982 27.7437 41.1769 27.8727 41.3708 28.0047L41.6738 28.2086C41.8859 28.3466 42.1161 28.4906 42.3615 28.6345L42.7342 28.8535C43.3704 29.2224 44.0763 29.6033 44.7913 29.9722L45.6518 30.4071C46.082 30.6211 46.5021 30.821 46.9121 31.007C47.5029 31.2859 48.0543 31.5349 48.533 31.7418C48.23 34.1713 48.5087 37.1407 47.7392 40.9048C47.6907 41.1478 47.6362 41.4027 47.5816 41.6667L47.5271 41.9216C47.4847 42.1106 47.4453 42.2995 47.4029 42.4945C47.3787 42.5965 47.3575 42.6984 47.3332 42.7944C47.2878 43.0044 47.2423 43.2173 47.1938 43.4333C47.1757 43.5083 47.1605 43.5802 47.1423 43.6552C46.9545 44.507 46.7485 45.4128 46.5364 46.3546L46.5182 46.4356C46.4728 46.6456 46.4273 46.8555 46.3789 47.0685L46.2971 47.4404C46.2547 47.6414 46.2092 47.8423 46.1668 48.0403L46.085 48.4242C46.0395 48.6281 45.9971 48.8321 45.9547 49.0241C45.9275 49.153 45.9002 49.282 45.876 49.411C45.7305 50.1008 45.5942 50.7877 45.47 51.4565C45.4427 51.5945 45.4154 51.7325 45.3912 51.8674C45.367 52.0024 45.3276 52.2154 45.2973 52.3893C45.267 52.5633 45.2458 52.6892 45.2215 52.8242C45.1973 52.9592 45.167 53.1511 45.1428 53.3101C45.1185 53.4691 45.0973 53.61 45.0731 53.742C45.0489 53.874 45.0276 54.0419 45.0064 54.2039C45.005 54.2289 45.005 54.2539 45.0064 54.2789V54.2789C45.0064 54.3209 45.0064 54.3569 44.9913 54.3959C44.9458 54.7318 44.9065 55.0557 44.8701 55.3677C44.8701 55.4576 44.8519 55.5506 44.8428 55.6376C44.8065 55.9945 44.7792 56.3394 44.7641 56.6544C44.7641 56.6754 44.7641 56.6934 44.7641 56.7144V56.8133C44.7757 56.9703 44.819 57.1233 44.8913 57.2634C44.9636 57.4035 45.0635 57.5279 45.1852 57.6292V57.6292L45.2518 57.7371C45.2306 57.8001 45.2094 57.8631 45.1852 57.9231C45.1094 58.136 45.0307 58.349 44.9489 58.565C44.8671 58.7809 44.8186 58.9189 44.7489 59.0988L44.7216 59.1708C44.7216 59.2128 44.6914 59.2548 44.6732 59.2968C44.3429 60.1636 43.9854 61.0574 43.6067 61.9632L43.4977 62.2272L43.3401 62.5961L43.0372 63.3069C42.9917 63.4119 42.9432 63.5199 42.8948 63.6248C42.8099 63.8228 42.719 64.0208 42.6282 64.2247L42.51 64.4917C42.3525 64.8336 42.207 65.1755 42.0283 65.5204L41.9253 65.7394L41.798 65.9973C41.6799 66.2463 41.5557 66.4952 41.4345 66.7442C41.3618 66.8851 41.289 67.0291 41.2194 67.1731C41.1103 67.386 41.0012 67.599 40.8891 67.8119C40.5528 68.4658 40.1984 69.1226 39.8318 69.7735C39.7924 69.8485 39.75 69.9235 39.7076 69.9985C39.4955 70.3764 39.2652 70.7513 39.0441 71.1262C38.7104 71.5965 38.4127 72.0907 38.1534 72.6049C38.114 72.6679 38.0746 72.7309 38.0322 72.7938C37.9898 72.8568 37.9019 72.9978 37.8352 73.0938C37.6807 73.3307 37.5323 73.5677 37.3747 73.8016C37.3737 73.8086 37.3737 73.8156 37.3747 73.8226C37.326 73.897 37.2834 73.9753 37.2475 74.0566C37.2475 74.0866 37.2293 74.1136 37.2202 74.1435C37.1984 74.2019 37.1822 74.2621 37.1717 74.3235C37.1703 74.3365 37.1703 74.3495 37.1717 74.3625C37.1733 74.3714 37.1733 74.3805 37.1717 74.3895C37.1611 74.5027 37.1672 74.6169 37.1899 74.7284V74.7584C37.2177 74.8729 37.2615 74.9829 37.3202 75.0853V75.1033C37.3647 75.1802 37.4154 75.2534 37.4717 75.3223L37.4959 75.3493C37.5483 75.4149 37.605 75.477 37.6656 75.5352C37.6838 75.5562 37.708 75.5742 37.7262 75.5922L37.8989 75.7452L37.9776 75.8082L38.1655 75.9491L38.2564 76.0091L38.4684 76.1471L38.5654 76.2041L38.8078 76.3391L38.9017 76.39L39.1743 76.525L39.2652 76.57L39.5682 76.702L39.6349 76.732H39.653C39.8378 76.81 40.0317 76.8849 40.2287 76.9599L40.3196 76.9899C40.5215 77.0619 40.7235 77.1309 40.9255 77.1969H40.9709C41.1648 77.2569 41.3648 77.3138 41.5769 77.3708L41.6799 77.3978C41.8768 77.4518 42.0768 77.5028 42.2858 77.5478L42.3585 77.5688L42.4312 77.5838C42.6675 77.6378 42.9039 77.6858 43.1402 77.7308L43.222 77.7457C43.4734 77.7937 43.7249 77.8327 43.9673 77.8687H43.9945C44.4805 77.9408 44.97 77.9878 45.4609 78.0097V78.0097C45.5972 78.0097 45.7275 78.0097 45.8578 78.0097H45.9699H46.1698H46.2213H46.388C46.388 78.0247 46.3728 78.0427 46.3698 78.0607C46.2365 78.3366 46.0941 78.6126 45.979 78.8375C45.8972 78.9755 45.8214 79.1134 45.7548 79.2454C45.7548 79.2454 45.7548 79.2664 45.7396 79.2754L45.7123 79.3294L45.6881 79.3894C45.673 79.4314 45.6548 79.4734 45.6427 79.5154C45.6305 79.5574 45.6215 79.6083 45.6124 79.6503C45.6033 79.6923 45.6124 79.7193 45.6124 79.7493C45.6157 79.7936 45.6259 79.8371 45.6427 79.8783C45.6484 79.9011 45.6565 79.9232 45.6669 79.9443C45.7079 80.0059 45.7656 80.0548 45.8335 80.0852V80.0852L46.2153 80.1392L46.9363 80.2412L47.2938 80.2922L47.5968 80.3372L48.7541 80.4931L49.0571 80.5321L50.269 80.6851L50.6174 80.7241L51.0385 80.7721L51.5232 80.8201L51.8868 80.8561C52.2746 80.8921 52.6563 80.9251 53.0259 80.9491H53.0532C53.4349 80.973 53.8076 80.991 54.1742 81H54.4378C54.6135 81 54.7922 81 54.9649 81H55.2043C55.4062 81 55.6082 80.994 55.8102 80.982C56.0041 80.982 56.201 80.982 56.3919 80.952C56.5828 80.9221 56.813 80.9191 57.019 80.8981C57.225 80.8771 57.3886 80.8621 57.5704 80.8381C57.7522 80.8141 58.0158 80.7721 58.237 80.7361C58.4066 80.7061 58.5763 80.6821 58.7459 80.6491C59.0186 80.5981 59.2913 80.5321 59.5639 80.4662C59.676 80.4392 59.7851 80.4212 59.8972 80.3912H59.9427L60.1153 80.3432C60.4183 80.2622 60.7213 80.1752 61.0242 80.0792L61.3272 79.9803C61.6302 79.8813 61.9331 79.7763 62.2361 79.6623L62.4633 79.5784C62.7996 79.4494 63.1389 79.3144 63.4904 79.1644L63.5691 79.1285C63.9388 78.9695 64.3235 78.7925 64.7144 78.6096L64.9719 78.4926C65.4657 78.2586 65.9717 78.0067 66.5019 77.7308C66.7715 77.5928 67.0139 77.4728 67.2441 77.3618C67.3926 77.2898 67.5471 77.2239 67.6713 77.1639L67.9137 77.0559C68.047 76.9989 68.1712 76.9479 68.2894 76.9029C68.7413 76.7006 69.2271 76.5826 69.7224 76.555H69.7466C69.789 76.555 69.8284 76.555 69.8708 76.555H69.9254L70.0193 76.576H70.0829L70.1556 76.6L70.2253 76.624L70.2859 76.651L70.3556 76.684L70.4071 76.714L70.4798 76.756L70.5374 76.792L70.604 76.834L70.7161 76.9059L70.7404 76.9209L70.8464 76.9839H70.8737L70.9858 77.0439H71.0161C71.0564 77.0632 71.0979 77.0803 71.1403 77.0949H71.1736L71.313 77.1369H71.3342C71.4 77.1528 71.4668 77.1649 71.5341 77.1729H71.5705L71.7916 77.1879H72.0643H72.1552H72.2612H72.3491L72.4733 77.1699L72.5884 77.1549H72.6672H72.7066C72.8551 77.1309 73.0096 77.0979 73.1853 77.0559H73.2429C73.6276 76.9599 74.076 76.8279 74.5941 76.648L74.7092 76.609C75.1637 76.447 75.6696 76.2551 76.2422 76.0091H76.2604L76.3604 75.9671L76.3967 75.9521L76.6694 75.8352L76.7906 75.7782L76.9057 75.7182L76.9481 75.6972L77.036 75.6492L77.1935 75.5592L77.3783 75.4393L77.5419 75.3223L77.6843 75.2053L77.7177 75.1783H77.7358L77.86 75.2233L77.9994 75.2803L78.1782 75.3583L78.4236 75.4633L78.5872 75.5292L78.8295 75.6252L78.984 75.6822C78.9399 75.7799 78.9015 75.8801 78.8689 75.9821L78.8538 76.0331C78.8252 76.1316 78.8029 76.2318 78.7871 76.3331V76.3751C78.772 76.468 78.7629 76.555 78.7568 76.627C78.7585 76.6369 78.7585 76.6471 78.7568 76.657C78.7568 76.705 78.7568 76.747 78.7568 76.783H78.7417C78.7417 76.801 78.7417 76.822 78.7417 76.84C78.7417 76.8759 78.7417 76.9029 78.7417 76.9029H78.7599C78.8447 77.1819 79.2264 77.5028 79.8172 77.6138C79.9675 77.6372 80.1195 77.6492 80.2717 77.6498C80.4238 77.6491 80.5757 77.6371 80.7261 77.6138V77.6138C81.4138 77.4788 81.838 77.0679 81.8107 76.771C81.8107 76.771 81.8107 76.753 81.8107 76.744C81.8231 76.6827 81.8302 76.6205 81.8319 76.558C81.8319 76.558 81.8319 76.54 81.8319 76.531C81.8326 76.4597 81.8275 76.3885 81.8168 76.3181C81.8183 76.3001 81.8183 76.282 81.8168 76.2641C81.8182 76.2401 81.8182 76.2161 81.8168 76.1921C82.8953 76.1921 84.3587 75.8922 86.3613 74.5755L86.7763 74.2935C87.1914 73.9936 87.6277 73.6666 88.0851 73.2827C88.4184 73.0038 88.7608 72.7009 89.1183 72.3829C89.9544 71.6061 90.8543 70.6823 91.8268 69.5785C92.3206 69.0177 92.8296 68.4088 93.3628 67.7519C93.5385 67.536 93.7173 67.311 93.896 67.0861C94.2317 67.218 94.5867 67.2949 94.9473 67.314C98.0285 67.641 97.7285 66.7142 97.7285 66.7142C97.7285 66.7142 97.371 65.3705 96.8833 63.6008C96.8833 63.5199 96.8651 63.4329 96.856 63.3429C96.9227 63.2739 96.9923 63.1929 97.062 63.124L97.1559 63.028C97.3862 62.812 97.6134 62.6171 97.8376 62.4281L97.9588 62.3351C98.18 62.1642 98.3981 62.0142 98.6132 61.8792L98.7162 61.8192C98.8889 61.7143 99.0525 61.6303 99.2161 61.5493C99.1949 61.6693 99.1767 61.7893 99.1676 61.9092C99.1596 62.009 99.1596 62.1093 99.1676 62.2092C99.1676 62.2452 99.1676 62.2841 99.1676 62.3171C99.3197 62.385 99.478 62.4382 99.6403 62.4761C99.9225 62.5432 100.211 62.5834 100.501 62.5961C100.583 62.6016 100.666 62.5935 100.746 62.5721C100.843 62.5241 100.858 62.4071 100.873 62.3411C101.228 62.3561 103.818 63.2409 104.654 62.6411C104.847 62.5251 104.997 62.3506 105.081 62.1437C105.166 61.9368 105.181 61.7083 105.124 61.4923C105.032 61.1704 104.837 60.8864 104.57 60.6825V60.6825C104.872 61.0664 103.891 61.2824 102.57 61.0994C102.924 60.9494 103.121 60.7095 102.967 60.6315C102.685 60.4965 102.646 60.3316 102.861 60.1696C102.861 60.1696 102.861 60.1546 102.882 60.1456C102.917 60.12 102.946 60.0873 102.967 60.0496C102.979 60.0177 102.979 59.9826 102.967 59.9507C102.967 59.9507 102.967 59.9297 102.967 59.9177C102.85 59.7609 102.702 59.6301 102.531 59.5337C102.037 59.2008 100.734 55.9825 100.985 55.3947C101.237 54.8068 100.186 54.4559 100.398 54.021C100.68 53.9656 100.949 53.8555 101.188 53.697C101.405 53.5583 101.579 53.3632 101.691 53.1331C101.504 52.5424 101.277 51.9652 101.01 51.4055C100.828 51.0156 100.613 50.5837 100.349 50.1278C100.167 49.8639 99.9978 49.6419 99.8311 49.441C98.7859 48.1812 98.0285 48.0733 96.959 47.3024C97.0257 47.2814 97.0923 47.2634 97.159 47.2364C97.1351 47.2439 97.1108 47.2499 97.0863 47.2544C98.0194 46.9875 98.7798 46.7446 99.3312 46.5616C99.4501 46.5621 99.5684 46.5459 99.6827 46.5136C99.7766 46.4896 100.234 46.2737 100.322 46.2137C101.534 45.8657 101.925 43.3403 101.391 40.236C101.33 39.7053 101.229 39.1799 101.088 38.6643C101.482 38.7483 101.879 38.8263 102.279 38.8803C102.406 38.8983 102.618 38.9313 102.849 38.9523C102.961 38.9523 103.076 38.9733 103.194 38.9763C103.549 38.9763 103.885 38.9433 104.015 38.7693C104.053 38.7159 104.082 38.6573 104.103 38.5953C104.115 38.566 104.125 38.5359 104.133 38.5054C104.151 38.4484 104.173 38.3944 104.191 38.3254C104.191 38.3044 104.191 38.2834 104.206 38.2624C104.221 38.2414 104.288 38.2624 104.327 38.2624L105.175 38.3644C105.326 38.3805 105.479 38.3805 105.63 38.3644C105.833 38.3541 106.029 38.2887 106.196 38.1754L106.36 38.1124L106.103 38.8923C106.103 38.9223 106.103 38.9463 106.103 38.9493L106.145 38.9643L106.239 39.0002L106.542 39.1022L106.669 39.1442H106.702C106.702 39.1442 106.727 39.1442 106.736 39.1052C106.745 39.0662 106.736 39.1052 106.736 39.1052L107.09 38.1304H107.117C107.448 38.1454 107.863 37.6026 107.863 37.6026C107.903 37.519 107.926 37.4282 107.929 37.3356C107.966 37.2964 108 37.2554 108.032 37.2126C108.063 37.1561 108.084 37.0955 108.096 37.0327L108.141 36.9757C108.195 36.8571 108.22 36.7274 108.213 36.5976C108.206 36.4677 108.168 36.3413 108.102 36.2289C108.097 36.2186 108.09 36.2095 108.081 36.2019C108.072 36.1882 108.062 36.1751 108.051 36.1629C108.144 36.0787 108.246 36.0034 108.354 35.9379C108.426 35.8959 108.472 35.743 108.317 35.725C108.188 35.7157 108.058 35.733 107.935 35.776L110.471 28.8055L110.595 28.4606L110.935 27.5278C110.935 27.5278 110.935 27.5128 110.935 27.5038C110.947 27.4564 110.948 27.4071 110.938 27.3593C110.928 27.3116 110.907 27.2667 110.877 27.2278V27.2278ZM63.0087 38.7303L63.045 38.7993C63.0833 38.8702 63.1119 38.9458 63.1299 39.0242C63.1609 39.4417 63.0671 39.8589 62.8602 40.224C62.7421 40.4759 62.5997 40.7249 62.4603 40.9618L62.3209 41.1928C62.1785 41.4327 62.0513 41.6487 61.9695 41.8256C61.8574 41.1208 61.7635 40.4549 61.6877 39.8521C61.6877 39.7531 61.6635 39.6541 61.6544 39.5521C61.6453 39.4501 61.6271 39.3032 61.612 39.1832C61.5968 39.0632 61.5938 39.0092 61.5878 38.9283C61.5878 38.7993 61.5635 38.6793 61.5544 38.5593C61.5544 38.4994 61.5544 38.4334 61.5393 38.3734C61.5393 38.1994 61.5211 38.0375 61.515 37.8935C61.515 37.8035 61.515 37.7225 61.515 37.6355L61.5999 36.8437L61.6362 36.8857L61.7483 37.0207C61.8847 37.1856 62.018 37.3476 62.1392 37.5006L62.1785 37.5456C62.2876 37.6835 62.3876 37.8155 62.4815 37.9415L62.5633 38.0495C62.6633 38.1844 62.7542 38.3134 62.8299 38.4304V38.4484C62.9117 38.5473 62.9693 38.6433 63.0147 38.7303H63.0087ZM62.0998 42.4765L62.1634 42.5275L62.2179 42.5725L62.2422 42.5905L62.1422 42.8034L62.0876 42.4645L62.0998 42.4765ZM83.2316 26.9399C83.371 26.9399 83.5346 26.9159 83.6103 27.0269C83.6376 27.0659 83.6437 27.1139 83.677 27.1468C83.6876 27.1577 83.7003 27.1662 83.7144 27.1719C83.7285 27.1776 83.7436 27.1803 83.7588 27.1798C83.7214 27.2329 83.687 27.2879 83.6558 27.3448L83.5982 27.3928C83.5255 27.4348 83.4831 27.4648 83.4831 27.4648L83.4589 27.5008C83.4225 27.5308 83.3892 27.5698 83.3559 27.6027C83.3043 27.3838 83.265 27.1588 83.2225 26.9399H83.2316ZM81.026 35.8869C81.026 36.0909 81.0079 36.4178 81.0018 36.8317V36.9097C80.8533 36.9967 80.6988 37.0807 80.5746 37.1676C80.3504 37.2966 80.1171 37.4106 79.9051 37.5576C79.8142 37.6205 79.7294 37.6925 79.6445 37.7615C79.9263 37.3866 80.2111 37.0117 80.4868 36.6338L81.026 35.8869ZM87.5368 27.4108H87.4913H87.5337H87.5368ZM76.8057 44.78C76.8203 44.7367 76.8324 44.6926 76.8421 44.648C76.9691 44.2255 77.0703 43.7958 77.1451 43.3613C77.2874 42.7014 77.448 42.0416 77.6328 41.3937C77.7611 40.9591 77.9128 40.5316 78.0873 40.113C78.2311 39.7305 78.4235 39.3677 78.6599 39.0332L78.6932 38.9883C78.3721 39.975 78.2781 41.4717 78.4993 43.0404L77.2026 45.0019L76.8057 44.78ZM77.4632 46.3216C77.4646 46.3007 77.4646 46.2796 77.4632 46.2587C77.4923 46.3325 77.5146 46.4088 77.5298 46.4866C77.513 46.4296 77.4907 46.3744 77.4632 46.3216V46.3216ZM79.1961 77.0889H79.2325L79.4718 77.1099H79.5173C79.8202 77.1339 80.1596 77.1579 80.4898 77.1669C80.0563 77.1914 79.6215 77.1601 79.1961 77.0739V77.0889Z" fill="white"/>
</g>
<defs>
<filter id="filter0_dd_545_3895" x="0.833313" y="0" width="145.556" height="124" filterUnits="userSpaceOnUse" color-interpolation-filters="sRGB">
<feFlood flood-opacity="0" result="BackgroundImageFix"/>
<feColorMatrix in="SourceAlpha" type="matrix" values="0 0 0 0 0 0 0 0 0 0 0 0 0 0 0 0 0 0 127 0" result="hardAlpha"/>
<feMorphology radius="1" operator="dilate" in="SourceAlpha" result="effect1_dropShadow_545_3895"/>
<feOffset dy="6"/>
<feGaussianBlur stdDeviation="3"/>
<feComposite in2="hardAlpha" operator="out"/>
<feColorMatrix type="matrix" values="0 0 0 0 0.262745 0 0 0 0 0.188235 0 0 0 0 0.454902 0 0 0 0.51 0"/>
<feBlend mode="normal" in2="BackgroundImageFix" result="effect1_dropShadow_545_3895"/>
<feColorMatrix in="SourceAlpha" type="matrix" values="0 0 0 0 0 0 0 0 0 0 0 0 0 0 0 0 0 0 127 0" result="hardAlpha"/>
<feOffset dy="3"/>
<feComposite in2="hardAlpha" operator="out"/>
<feColorMatrix type="matrix" values="0 0 0 0 0.620833 0 0 0 0 0.478158 0 0 0 0 0.126753 0 0 0 1 0"/>
<feBlend mode="normal" in2="effect1_dropShadow_545_3895" result="effect2_dropShadow_545_3895"/>
<feBlend mode="normal" in="SourceGraphic" in2="effect2_dropShadow_545_3895" result="shape"/>
</filter>
<filter id="filter1_d_545_3895" x="37.1667" y="14.3334" width="73.7778" height="68.6666" filterUnits="userSpaceOnUse" color-interpolation-filters="sRGB">
<feFlood flood-opacity="0" result="BackgroundImageFix"/>
<feColorMatrix in="SourceAlpha" type="matrix" values="0 0 0 0 0 0 0 0 0 0 0 0 0 0 0 0 0 0 127 0" result="hardAlpha"/>
<feOffset dy="2"/>
<feComposite in2="hardAlpha" operator="out"/>
<feColorMatrix type="matrix" values="0 0 0 0 0.6625 0 0 0 0 0.522043 0 0 0 0 0.184948 0 0 0 1 0"/>
<feBlend mode="normal" in2="BackgroundImageFix" result="effect1_dropShadow_545_3895"/>
<feBlend mode="normal" in="SourceGraphic" in2="effect1_dropShadow_545_3895" result="shape"/>
</filter>
<linearGradient id="paint0_linear_545_3895" x1="73.6111" y1="1" x2="73.6111" y2="111" gradientUnits="userSpaceOnUse">
<stop stop-color="#FEC741"/>
<stop offset="1" stop-color="#FEC844"/>
</linearGradient>
</defs>
</svg>
