<svg width="104" height="104" viewBox="0 0 104 104" fill="none" xmlns="http://www.w3.org/2000/svg">
<g filter="url(#filter0_dd_1417_2084)">
<rect x="7" y="1" width="90" height="90" rx="12" fill="#E6AC21" shape-rendering="crispEdges"/>
<g filter="url(#filter1_d_1417_2084)">
<path fill-rule="evenodd" clip-rule="evenodd" d="M51.2512 14.4578C51.3692 14.287 51.3692 14.0346 51.3692 13.5304C51.3692 12.521 51.3902 12.5 52 12.5C52.6098 12.5 52.6308 12.521 52.6308 13.4883C52.6308 14.4766 52.6519 14.4977 53.5771 14.8762C54.8388 15.4019 55.7851 16.4953 55.7851 17.4416V18.1776H56.8575C57.7617 18.1776 58.0561 18.0724 58.6659 17.5467C59.0654 17.1893 59.6752 16.8528 60.0117 16.7687C60.5584 16.6635 60.6215 16.5794 60.6215 15.7804C60.6215 14.6869 60.8528 14.3294 61.4837 14.4346C61.9252 14.4977 61.9883 14.6238 62.0514 15.5701C62.1145 16.5584 62.1566 16.6635 62.6823 16.7687C62.9977 16.8318 63.6075 17.1893 64.0491 17.5467L64.8271 18.1986V19.8808V21.5421H66.257C67.8762 21.5421 68.1916 21.7313 68.1916 22.7407C68.1916 23.3925 68.2126 23.4136 68.7173 23.1822C69.1379 22.993 69.243 22.7827 69.2851 21.9836C69.3481 21.1005 69.3902 21.0164 69.8738 21.0164C70.3575 21.0164 70.3995 21.1005 70.4626 22.0047C70.5047 22.7827 70.6098 23.014 70.9673 23.1402C71.1986 23.2033 71.7664 23.6028 72.208 24.0023C72.965 24.6752 73.0281 24.8435 73.0281 25.8318V26.9463L74.1425 26.8621C74.9837 26.7991 75.4042 26.8832 75.9299 27.2196L75.986 27.2543C76.1657 27.3651 76.3195 27.46 76.4512 27.5794C77.234 28.2888 77.2339 29.8619 77.2337 40.7867L77.2337 41.4136V53.715H78.0748H78.9159V54.8715V56.028L83.6052 56.0701L88.2734 56.1332L88.3365 56.6379C88.3785 56.9112 88.2944 57.2266 88.1262 57.3107C87.979 57.4159 71.7243 57.5 52 57.5C32.2757 57.5 16.021 57.4159 15.8738 57.3107C15.7056 57.2266 15.6215 56.9112 15.6635 56.6379L15.7266 56.1332L20.4159 56.0701L25.0841 56.028V54.8925C25.0841 53.6939 25.2313 53.5047 26.2617 53.5047H26.7664V41.3084C26.7664 28.271 26.7664 28.25 27.8178 27.3248C28.1752 26.9883 28.5748 26.9042 29.6262 26.9042H30.972V25.8318C30.972 24.9486 31.0771 24.6752 31.6028 24.1285C31.9603 23.771 32.507 23.3715 32.8435 23.2243C33.3902 22.993 33.4743 22.8458 33.5374 21.9836C33.6005 21.1005 33.6425 21.0164 34.1262 21.0164C34.6098 21.0164 34.6519 21.1005 34.715 21.9836C34.757 22.7827 34.8622 22.993 35.2827 23.1822C35.7874 23.4136 35.8084 23.3925 35.8084 22.7407C35.8084 21.7523 36.1238 21.5421 37.6379 21.5421H38.9626V20.0491C38.9626 18.5771 38.9836 18.535 39.7827 17.736C40.2243 17.2734 40.8762 16.8528 41.2336 16.7897C41.8435 16.6635 41.8855 16.6005 41.9486 15.5701C42.0117 14.5397 42.0327 14.4977 42.6425 14.4977C43.2523 14.4977 43.2734 14.5397 43.3365 15.5911C43.3995 16.5584 43.4626 16.6846 43.9673 16.8107C44.2827 16.8738 44.8925 17.2103 45.3131 17.5678C45.9439 18.0514 46.2804 18.1776 47.1425 18.1776H48.215V17.4416C48.215 16.4953 49.1823 15.3808 50.4229 14.8972C50.8964 14.7183 51.133 14.6289 51.2512 14.4578ZM54.208 17.0421L53.493 16.5584C52.5888 15.9486 51.3061 15.9276 50.3808 16.5164L49.6869 16.9579V19.6916C49.6869 22.215 49.708 22.4252 50.0654 22.278C50.8855 21.9206 52.9673 21.9206 53.6612 22.257L54.3341 22.6145L54.271 19.8178L54.208 17.0421ZM44.7453 18.9346L44.0304 18.4509C43.6308 18.1776 43.021 17.9673 42.6425 17.9673C42.264 17.9673 41.6542 18.1776 41.2547 18.4509L40.5397 18.9346L40.4766 21.479L40.4136 24.0023L41.4229 23.6869C42.3061 23.3925 42.5374 23.3925 43.6308 23.6869L44.8715 24.0023L44.8084 21.4579L44.7453 18.9346ZM63.4603 18.9346L62.7453 18.4509C61.757 17.778 60.6215 17.8201 59.8014 18.514L59.1495 19.0607V21.5421V24.0023L60.1168 23.6869C61.0631 23.3715 62.0304 23.4556 63.208 23.9603C63.5444 24.1075 63.5654 23.9393 63.5234 21.521L63.4603 18.9346ZM48.215 43.8318V31.6355V19.4393H47.2687H46.3224V31.6355V43.8318H47.2687H48.215ZM57.6776 43.6215V31.6355V19.6495H56.7313H55.7851V31.6355V43.6215H56.7313H57.6776ZM38.9626 43.6215V33.3178V23.014H38.1215H37.2804V33.3178V43.6215H38.1215H38.9626ZM65.7734 43.6215H66.7196V33.3178V23.014H65.7734H64.8271V33.3178V43.6215H65.7734ZM53.8505 24.1075C53.5771 23.8762 53.0935 23.5818 52.778 23.4556C52.0631 23.1822 51.6425 23.1822 50.9486 23.4556C49.7921 23.9182 49.6869 24.1706 49.6869 26.5888V28.8598L50.486 28.5654C51.5164 28.1869 52.4837 28.2079 53.4089 28.5864C53.8084 28.7547 54.1869 28.9019 54.229 28.9019C54.271 28.9019 54.3131 27.9346 54.3131 26.736C54.3131 24.7593 54.271 24.528 53.8505 24.1075ZM35.8084 27.8715C35.8084 25.5794 35.7664 25.3692 35.3458 24.9696C35.0724 24.7383 34.6729 24.486 34.4206 24.4439C33.8318 24.2967 32.7383 24.7804 32.465 25.3061C32.3388 25.5374 32.2336 26.8201 32.2336 28.1659C32.2336 29.889 32.2336 30.3949 32.3967 30.4545C32.4645 30.4792 32.5604 30.4269 32.6963 30.3528C32.9696 30.2056 33.6636 30.1636 34.4836 30.2266L35.8084 30.3318V27.8715ZM71.5351 25.285C71.4089 25.0537 70.9883 24.7383 70.6098 24.5701C70.2103 24.4019 69.8528 24.2757 69.8318 24.2967C69.4112 24.4019 69.0538 24.6121 68.6752 24.9696C68.2337 25.3692 68.1916 25.5794 68.1916 27.8715V30.3318L69.5164 30.2266C70.3365 30.1636 71.0304 30.2056 71.3038 30.3528C71.4396 30.4269 71.5355 30.4792 71.6033 30.4545C71.7664 30.3949 71.7664 29.889 71.7664 28.1659C71.7664 26.8201 71.6612 25.5374 71.5351 25.285ZM44.7453 25.8738L44.0304 25.3902C43 24.6963 41.8224 24.7593 40.9182 25.6005C40.4766 26 40.4346 26.2313 40.4346 28.0818V30.1215L41.507 29.8061C42.5374 29.4907 43.2944 29.5537 44.493 30.0584C44.8294 30.2056 44.8715 30.0584 44.8084 28.0397L44.7453 25.8738ZM63.4603 25.8738L62.7453 25.3902C61.757 24.7173 60.6215 24.7593 59.8014 25.4533C59.594 25.6272 59.4526 25.7459 59.3561 25.8938C59.1495 26.2108 59.1495 26.6624 59.1495 28.0818C59.1495 30.0164 59.1706 30.1636 59.5281 29.9953C60.4953 29.4696 61.8201 29.5117 63.208 30.0584C63.5444 30.2056 63.5865 30.0584 63.5234 28.0397L63.4603 25.8738ZM30.972 30.5631C30.972 29.6799 30.8668 29.2383 30.5304 28.8178C30.0257 28.1659 29.1005 28.0818 28.5958 28.6495C28.3435 28.9229 28.2383 29.4276 28.2383 30.3949V31.7407H29.6051H30.972V30.5631ZM75.7617 30.3528C75.7617 29.2804 75.6776 28.8808 75.3832 28.6285C74.9837 28.25 74.1425 28.1659 73.743 28.4393C73.2804 28.7336 73.0281 29.5327 73.0281 30.6262V31.7407H74.3949H75.7617V30.3528ZM54.3131 30.8154L53.5351 30.2687C52.3995 29.5117 51.1168 29.5748 50.1706 30.4369C49.729 30.8364 49.6869 31.0467 49.6869 33.4439V36.0304L50.6752 35.6939C51.6425 35.3575 52.7991 35.4416 53.9556 35.9463C54.2921 36.0935 54.3131 35.8832 54.3131 33.4439V30.8154ZM44.8084 34.5374C44.7453 32.0771 44.7243 31.972 44.1986 31.5935C43.3154 30.9206 42.1379 30.8785 41.2757 31.4673L40.5397 31.972L40.4766 34.4533C40.4346 36.7664 40.4556 36.9346 40.7921 36.7874C41.6122 36.4299 43.5467 36.4089 44.1986 36.7453L44.8715 37.0818L44.8084 34.5374ZM63.5234 34.5584C63.4603 32.0771 63.4393 31.972 62.9136 31.5935C62.0304 30.9206 60.8528 30.8785 59.9907 31.4673L59.2547 31.972L59.1916 34.4533C59.1495 36.7664 59.1706 36.9346 59.507 36.7874C60.3481 36.4299 62.2196 36.4299 62.9136 36.7664L63.5865 37.1238L63.5234 34.5584ZM35.8084 34.8107C35.8084 32.3294 35.6822 32.035 34.6098 31.6145C33.9579 31.3832 33.9369 31.3832 33.243 31.7617C32.3808 32.2243 32.2336 32.6659 32.2336 34.979V37.1028L32.7804 36.8925C33.4743 36.6192 34.8832 36.6192 35.4089 36.8925C35.7874 37.1028 35.8084 37.0187 35.8084 34.8107ZM71.7664 35C71.7664 32.6449 71.6192 32.2033 70.715 31.7407C70.3785 31.5724 70.021 31.4252 69.9369 31.4252C69.6425 31.4252 68.5281 32.0771 68.3598 32.3294C68.2757 32.4766 68.1916 33.6121 68.1916 34.8528C68.1916 37.0187 68.2126 37.1028 68.5911 36.8925C68.8224 36.7874 69.4533 36.6822 69.979 36.6822C70.5047 36.6822 71.1355 36.7874 71.3668 36.8925C71.7453 37.1028 71.7664 37.0187 71.7664 35ZM30.7617 38.6799C30.7617 33.8224 30.7407 33.528 30.3622 33.3178C29.7313 33.0023 28.9743 33.0654 28.5958 33.486C28.2804 33.8224 28.2383 34.5164 28.2383 38.8481V43.8318H29.5H30.7617V38.6799ZM75.7617 38.7009C75.7617 33.8435 75.7617 33.7593 75.2991 33.4439C75.0467 33.2547 74.6262 33.1075 74.3949 33.1075C74.1636 33.1075 73.743 33.2547 73.4907 33.4439C73.0281 33.7593 73.0281 33.8435 73.0281 38.7009V43.6215H74.3949H75.7617V38.7009ZM53.8925 37.7336C53.6402 37.4813 53.2196 37.2079 52.9252 37.1028C52.0631 36.7664 51.264 36.8505 50.507 37.3762L49.7921 37.8598L49.729 40.7407L49.6659 43.6215H52H54.3131V40.8878C54.3131 38.4065 54.271 38.1121 53.8925 37.7336ZM35.8084 41.3505C35.8084 39.2477 35.7664 39.0374 35.3458 38.6378C34.736 38.0911 34.1472 37.965 33.4953 38.1963C32.3388 38.6168 32.2336 38.8902 32.2336 41.3505V43.6215H34.021H35.8084V41.3505ZM44.8505 41.4556C44.8505 39.1846 44.8294 39.0374 44.3248 38.5748C43.9883 38.2593 43.4626 38.0701 42.7897 37.986C41.9276 37.9019 41.6963 37.986 41.1075 38.4696L40.4346 39.0374V41.4346V43.8318H42.6425H44.8505V41.4556ZM63.5654 41.4556C63.5654 39.1846 63.5444 39.0374 63.0397 38.5748C62.7033 38.2593 62.1776 38.0701 61.5047 37.986C60.6425 37.9019 60.4112 37.986 59.8224 38.4696L59.1495 39.0374V41.4346V43.8318H61.3575H63.5654V41.4556ZM71.7664 41.4556C71.7664 39.8995 71.6823 39.1846 71.451 38.8481C70.8201 37.9439 69.4953 37.8808 68.5701 38.722C68.2547 39.0164 68.1916 39.4159 68.1916 41.3505V43.6215H69.979H71.7664V41.4556ZM29.6051 46.1449C30.9299 46.1449 30.972 46.1238 30.972 45.6192C30.972 45.1145 30.9299 45.0935 29.6051 45.0935C28.2804 45.0935 28.2383 45.1145 28.2383 45.6192C28.2383 46.1238 28.2804 46.1449 29.6051 46.1449ZM34.021 46.1449C35.7874 46.1449 35.8084 46.1449 35.8084 45.6192C35.8084 45.0935 35.7874 45.0935 34.021 45.0935C32.2547 45.0935 32.2336 45.0935 32.2336 45.6192C32.2336 46.1449 32.2547 46.1449 34.021 46.1449ZM38.1215 46.1449C38.8785 46.1449 38.9626 46.0818 38.9626 45.6192C38.9626 45.1355 38.8785 45.0935 38.1215 45.0935C37.3645 45.0935 37.2804 45.1355 37.2804 45.6192C37.2804 46.0818 37.3645 46.1449 38.1215 46.1449ZM44.8505 46.1449V45.6192V45.0935H42.6425H40.4346V45.6192V46.1449H42.6425H44.8505ZM47.2687 46.1449C48.1308 46.1449 48.215 46.1028 48.215 45.6192C48.215 45.1355 48.1308 45.0935 47.2687 45.0935C46.4065 45.0935 46.3224 45.1355 46.3224 45.6192C46.3224 46.1028 46.4065 46.1449 47.2687 46.1449ZM54.3131 46.1449V45.6192V45.0935H52H49.6869V45.6192V46.1449H52H54.3131ZM56.7313 46.1449C57.5935 46.1449 57.6776 46.1028 57.6776 45.6192C57.6776 45.1355 57.5935 45.0935 56.7313 45.0935C55.8692 45.0935 55.7851 45.1355 55.7851 45.6192C55.7851 46.1028 55.8692 46.1449 56.7313 46.1449ZM63.5654 46.1449V45.6192V45.0935H61.3575H59.1495V45.6192V46.1449H61.3575H63.5654ZM65.7734 46.1449C66.6355 46.1449 66.7196 46.1028 66.7196 45.6192C66.7196 45.1355 66.6355 45.0935 65.7734 45.0935C64.9112 45.0935 64.8271 45.1355 64.8271 45.6192C64.8271 46.1028 64.9112 46.1449 65.7734 46.1449ZM68.1916 45.6192C68.1916 46.1449 68.2126 46.1449 69.979 46.1449C71.7453 46.1449 71.7664 46.1449 71.7664 45.6192C71.7664 45.0935 71.7453 45.0935 69.979 45.0935C68.2126 45.0935 68.1916 45.0935 68.1916 45.6192ZM74.3949 46.1449C75.7196 46.1449 75.7617 46.1238 75.7617 45.6192C75.7617 45.1145 75.7196 45.0935 74.3949 45.0935C73.0701 45.0935 73.0281 45.1145 73.0281 45.6192C73.0281 46.1238 73.0701 46.1449 74.3949 46.1449ZM30.972 53.715V50.6659V47.6168H29.6051H28.2383V50.6659V53.715H29.6051H30.972ZM35.1776 48.6262C35.7874 48.8575 35.8084 48.8364 35.8084 48.2266V47.6168H34.021H32.2336V48.2687C32.2336 48.8154 32.2967 48.8995 32.6122 48.7523C33.264 48.479 34.5257 48.4159 35.1776 48.6262ZM38.9626 53.715V50.6659V47.6168H38.1215H37.2804V50.6659V53.715H38.1215H38.9626ZM44.8505 49.1098V48.3528V47.6168H42.6425H40.4346V48.2687C40.4346 48.8154 40.4977 48.8995 40.8131 48.7734C41.6332 48.4159 43.5047 48.4159 44.1776 48.7523L44.8505 49.1098ZM48.215 53.715V50.6659V47.6168H47.2687H46.3224V50.6659V53.715H47.2687H48.215ZM54.3131 49.0678V48.3318V47.6168H52H49.6869V48.3318C49.6869 48.71 49.6869 48.8939 49.7669 48.9404C49.8425 48.9844 49.9895 48.9056 50.2757 48.7524L50.2757 48.7523C51.0117 48.3738 52.6519 48.3738 53.5771 48.7523L54.3131 49.0678ZM57.6776 53.715V50.6659V47.6168H56.6893H55.6799L55.6168 50.6659L55.5748 53.715H56.6262H57.6776ZM63.5654 49.1098V48.3528V47.6168H61.3575H59.1495V48.2687C59.1495 48.8154 59.2126 48.8995 59.5281 48.7734C60.3481 48.4159 62.2196 48.4159 62.8925 48.7523L63.5654 49.1098ZM66.7196 53.715V50.6659V47.6168H65.7734H64.8271V50.6659V53.715H65.7734H66.7196ZM71.2196 48.6682C71.7243 48.8575 71.7664 48.8364 71.7664 48.2477V47.6168H69.979H68.1916V48.2477C68.1916 48.8364 68.2337 48.8575 68.7383 48.6682C69.0327 48.5421 69.5795 48.4579 69.979 48.4579C70.3785 48.4579 70.9252 48.5421 71.2196 48.6682ZM75.7617 53.4626V50.5397V47.6168H74.3949H73.0281V50.6028V53.6098L74.3949 53.5467L75.7617 53.4626ZM62.9136 50.4766C62.5561 50.1822 62.1355 49.9299 61.9883 49.9299C61.8411 49.9299 61.5888 49.8879 61.4206 49.8458C61 49.7196 60.3692 49.9299 59.7383 50.3925C59.1916 50.771 59.1495 50.8972 59.1495 52.285V53.778L60.4323 53.6308C61.1472 53.5678 62.1566 53.5047 62.6402 53.5047H63.5654V52.264C63.5654 51.1285 63.5024 50.9603 62.9136 50.4766ZM35.8084 52.1589C35.8084 50.9393 35.7453 50.75 35.2617 50.3715C34.4836 49.7617 33.3902 49.8037 32.7593 50.4556C32.2967 50.8972 32.2336 51.1495 32.2336 52.3692V53.778L33.3481 53.6308C33.9369 53.5678 34.757 53.5047 35.1355 53.5047H35.8084V52.1589ZM44.8505 52.264C44.8505 51.1285 44.7874 50.9603 44.1986 50.4766C43.1893 49.6145 41.3178 49.8248 40.6028 50.8551C40.5187 50.9813 40.4346 51.6963 40.4346 52.4322C40.4346 53.5467 40.4766 53.736 40.771 53.6308C40.9603 53.5678 41.9486 53.5047 42.979 53.5047H44.8505V52.264ZM54.3131 52.4743C54.3131 51.3178 54.271 51.1916 53.5771 50.5818C52.5888 49.7196 51.2851 49.6776 50.3388 50.4766C49.729 50.9813 49.6869 51.1285 49.6869 52.3692V53.715H52H54.3131V52.4743ZM71.7664 52.3692C71.7664 51.2126 71.7033 50.9603 71.2196 50.4766C70.5257 49.8037 69.5164 49.7617 68.7383 50.3715C68.2337 50.771 68.1916 50.9393 68.1916 52.264V53.715H69.979H71.7664V52.3692ZM77.6542 56.028V55.5023V54.9766H52H26.3458V55.5023V56.028H52H77.6542ZM51.4113 19.1449C51.3692 18.1145 51.4323 17.6308 51.6215 17.5257C51.7687 17.4206 51.937 17.3364 52 17.3364C52.5047 17.3364 52.6519 17.7991 52.5888 19.1449C52.5257 20.5327 52.5047 20.5958 52 20.5958C51.4954 20.5958 51.4743 20.5327 51.4113 19.1449ZM41.9907 19.7126C41.9276 19.8808 41.9066 20.5748 41.9486 21.2477L41.9489 21.254C42.0117 22.4674 42.0128 22.4883 42.6425 22.4883H43.2734V21.0164C43.2734 19.5654 43.2734 19.5444 42.6846 19.4813C42.3271 19.4393 42.0748 19.5234 41.9907 19.7126ZM60.6636 21.2477C60.6216 20.5748 60.6426 19.8808 60.7057 19.7126C60.7898 19.5234 61.0421 19.4393 61.3996 19.4813C61.9884 19.5444 61.9884 19.5654 61.9884 21.0164V22.4883H61.3576C60.7278 22.4883 60.7267 22.4674 60.664 21.254L60.6636 21.2477ZM51.3692 26.0631V27.6402H52.0001H52.6309V26.0631V24.486H52.0001H51.3692V26.0631ZM33.4742 28.6495C33.264 28.3341 33.2219 26.5678 33.4112 26.0631C33.4953 25.8528 33.7476 25.7477 34.1051 25.7897C34.6308 25.8528 34.6518 25.8949 34.6518 27.3248C34.6518 28.7126 34.6308 28.7967 34.1471 28.8598C33.8738 28.9019 33.5583 28.8178 33.4742 28.6495ZM69.3271 26.0421C69.264 26.1893 69.243 26.8832 69.285 27.5561C69.3481 28.6916 69.3902 28.7967 69.8528 28.8598C70.1262 28.9019 70.4416 28.8178 70.5257 28.6495C70.736 28.3341 70.778 26.5678 70.5888 26.0841C70.4416 25.6636 69.4743 25.6425 69.3271 26.0421ZM42.2429 28.9229C41.8224 28.5865 41.7803 26.3785 42.1588 26C42.306 25.8528 42.6215 25.7687 42.8528 25.7897C43.2313 25.8528 43.2733 26 43.2733 27.3037C43.2733 28.4182 43.1892 28.7967 42.9158 28.965C42.6635 29.1332 42.4743 29.1122 42.2429 28.9229ZM60.7266 26.2313C60.6425 26.5047 60.6215 27.1776 60.6635 27.7453C60.7266 28.9019 61.1892 29.3855 61.757 28.9229C62.1565 28.5864 62.2196 26.3785 61.8411 26C61.4205 25.5794 60.8528 25.7056 60.7266 26.2313ZM51.3692 33.1285C51.3692 32.3505 51.4323 31.6355 51.5164 31.5514C51.6005 31.4673 51.8529 31.4252 52.1052 31.4673C52.4837 31.5304 52.5258 31.6986 52.5889 33.0234C52.6309 34.222 52.5889 34.5584 52.3155 34.6425C51.5795 34.9369 51.3692 34.5794 51.3692 33.1285ZM42.159 32.5187C41.7805 32.8972 41.8435 35.1051 42.2431 35.4416C42.8529 35.9463 43.2734 35.4206 43.3365 34.0748C43.4206 32.5187 42.8739 31.8037 42.159 32.5187ZM60.958 35.4416C60.5584 35.1051 60.4953 32.8972 60.8738 32.5187C61.5888 31.8037 62.1355 32.5187 62.0514 34.0748C61.9883 35.4206 61.5678 35.9463 60.958 35.4416ZM33.5373 33.1495C33.3901 33.2967 33.285 33.9276 33.285 34.6005C33.285 35.9042 33.6004 36.3879 34.3364 36.1565C34.7359 36.0304 34.778 35.8832 34.7149 34.5164C34.6518 33.1916 34.6098 33.0023 34.2313 32.9393C33.9999 32.9182 33.6845 33.0023 33.5373 33.1495ZM69.2431 34.6005C69.2431 33.8224 69.3062 33.1075 69.3903 33.0444C69.6006 32.8131 70.1893 32.8762 70.4627 33.1495C70.7992 33.486 70.7781 35.4626 70.4417 35.9252C70.2314 36.1986 70.0211 36.2617 69.7057 36.1776C69.2851 36.0304 69.2431 35.8832 69.2431 34.6005ZM29.1215 35.2523C28.9743 35.3995 28.8692 35.9463 28.8692 36.493C28.8692 37.6495 29.2477 38.0911 29.8995 37.7337C30.6776 37.3131 30.4252 35 29.6051 35C29.479 35 29.2687 35.1051 29.1215 35.2523ZM28.8692 41.4346C28.8692 40.8248 28.9322 40.257 29.0164 40.1729C29.1005 40.0888 29.4159 40.0467 29.7103 40.0888C30.1939 40.1519 30.236 40.257 30.2991 41.2243C30.3621 42.4229 30.0257 42.9065 29.2897 42.6752C28.9322 42.5701 28.8692 42.3598 28.8692 41.4346ZM73.9112 35.2523C73.7641 35.3995 73.6589 35.9463 73.6589 36.514C73.6589 37.3131 73.743 37.5654 74.1005 37.7337C74.7524 38.0911 75.1309 37.6495 75.1309 36.493C75.1309 35.5257 74.8575 35 74.3949 35C74.2687 35 74.0584 35.1051 73.9112 35.2523ZM73.6589 41.3084C73.6589 40.7827 73.722 40.257 73.8061 40.1729C73.8902 40.0888 74.2056 40.0467 74.5 40.0888C74.9837 40.1519 75.0257 40.236 75.0888 41.3505C75.1519 42.4019 75.1098 42.5491 74.7103 42.6752C74.0164 42.8855 73.6589 42.4229 73.6589 41.3084ZM51.4534 39.6893C51.3903 39.8575 51.3693 40.5935 51.4113 41.3294C51.4744 42.6122 51.4954 42.6752 52.0001 42.6752C52.5048 42.6752 52.5258 42.6332 52.5258 41.0981C52.5258 39.6262 52.5048 39.521 52.0422 39.458C51.7898 39.4159 51.5375 39.521 51.4534 39.6893ZM33.285 41.1192C33.285 40.4463 33.3901 39.8154 33.5373 39.6682C33.6845 39.521 33.9999 39.4369 34.2313 39.458C34.6098 39.521 34.6518 39.6682 34.6518 41.0981C34.6518 42.4439 34.5887 42.6752 34.2733 42.7383C33.5794 42.8855 33.285 42.3808 33.285 41.1192ZM42.1588 39.6682C41.7803 40.0467 41.8224 42.2547 42.2429 42.5911C42.4743 42.7804 42.6635 42.8014 42.9158 42.6332C43.1892 42.465 43.2733 42.0865 43.2733 40.972C43.2733 39.6682 43.2313 39.521 42.8528 39.4579C42.6215 39.4369 42.306 39.521 42.1588 39.6682ZM60.958 42.5911C60.5584 42.2547 60.4953 40.0467 60.8738 39.6682C61.5888 38.9533 62.1355 39.6682 62.0514 41.2243C61.9883 42.5701 61.5678 43.0958 60.958 42.5911ZM69.3903 39.5631C69.3062 39.6262 69.2431 40.3411 69.2431 41.1402C69.2431 42.6752 69.5375 43.0958 70.2735 42.6332C70.694 42.3598 70.8622 40.1519 70.4837 39.7103C70.2314 39.3949 69.6216 39.3107 69.3903 39.5631ZM61.4837 52.5584C60.8108 52.5584 60.4533 51.9696 60.8108 51.528C61.1683 51.1075 61.5468 51.1075 61.8832 51.507C62.2617 51.9696 62.0514 52.5584 61.4837 52.5584ZM33.5795 51.486C33.3482 52.0958 33.6005 52.5584 34.1262 52.5584C34.5258 52.5584 34.673 52.4322 34.715 52.0537C34.8202 51.3178 33.8318 50.8341 33.5795 51.486ZM42.7057 52.6215C42.0748 52.5374 41.7594 51.9486 42.0958 51.528C42.4533 51.1075 42.8318 51.1075 43.1683 51.507C43.5258 51.9486 43.2314 52.7056 42.7057 52.6215ZM51.4534 51.486C51.3903 51.6542 51.3693 51.9696 51.4113 52.1799C51.5165 52.7056 52.4838 52.7056 52.5889 52.1799C52.7361 51.4229 51.7057 50.8131 51.4534 51.486ZM69.8738 52.5584C69.3271 52.5584 69.0958 52.0958 69.3271 51.486C69.4112 51.2967 69.6425 51.1916 69.9159 51.2336C70.2944 51.2757 70.3995 51.4229 70.3995 51.9276C70.3995 52.4533 70.3154 52.5584 69.8738 52.5584Z" fill="white"/>
</g>
<path d="M23.3281 70.3906H25.9795C26.5231 70.3906 26.9902 70.472 27.3809 70.6348C27.7747 70.7975 28.0775 71.0384 28.2891 71.3574C28.5007 71.6764 28.6064 72.0687 28.6064 72.5342C28.6064 72.915 28.5413 73.2422 28.4111 73.5156C28.2842 73.7858 28.1035 74.012 27.8691 74.1943C27.638 74.3734 27.3662 74.5166 27.0537 74.624L26.5898 74.8682H24.2852L24.2754 73.7256H25.9893C26.2464 73.7256 26.4596 73.68 26.6289 73.5889C26.7982 73.4977 26.9251 73.3708 27.0098 73.208C27.0977 73.0452 27.1416 72.8564 27.1416 72.6416C27.1416 72.4137 27.0993 72.2168 27.0146 72.0508C26.93 71.8848 26.8014 71.7578 26.6289 71.6699C26.4564 71.582 26.2399 71.5381 25.9795 71.5381H24.793V77.5H23.3281V70.3906ZM27.3027 77.5L25.6816 74.3311L27.2295 74.3213L28.8701 77.4316V77.5H27.3027ZM32.625 71.6064L30.6914 77.5H29.1338L31.7754 70.3906H32.7666L32.625 71.6064ZM34.2314 77.5L32.293 71.6064L32.1367 70.3906H33.1377L35.7939 77.5H34.2314ZM34.1436 74.8535V76.001H30.3887V74.8535H34.1436ZM39.3291 75.3174V70.3906H40.7891V75.3174C40.7891 75.7926 40.6849 76.2012 40.4766 76.543C40.2682 76.8815 39.9834 77.1419 39.6221 77.3242C39.264 77.5065 38.8604 77.5977 38.4111 77.5977C37.9456 77.5977 37.5339 77.5195 37.1758 77.3633C36.8177 77.207 36.5361 76.9678 36.3311 76.6455C36.126 76.32 36.0234 75.9082 36.0234 75.4102H37.4932C37.4932 75.6706 37.529 75.8773 37.6006 76.0303C37.6755 76.1833 37.7812 76.2923 37.918 76.3574C38.0547 76.4225 38.2191 76.4551 38.4111 76.4551C38.5967 76.4551 38.7578 76.4111 38.8945 76.3232C39.0312 76.2354 39.137 76.1068 39.2119 75.9375C39.29 75.7682 39.3291 75.5615 39.3291 75.3174ZM44.8223 71.6064L42.8887 77.5H41.3311L43.9727 70.3906H44.9639L44.8223 71.6064ZM46.4287 77.5L44.4902 71.6064L44.334 70.3906H45.335L47.9912 77.5H46.4287ZM46.3408 74.8535V76.001H42.5859V74.8535H46.3408ZM52.3516 75.6396C52.3516 75.5127 52.332 75.3988 52.293 75.2979C52.2572 75.1937 52.1888 75.0993 52.0879 75.0146C51.987 74.9268 51.8454 74.8405 51.6631 74.7559C51.4808 74.6712 51.2448 74.5833 50.9551 74.4922C50.6328 74.388 50.3268 74.2708 50.0371 74.1406C49.7507 74.0104 49.4967 73.859 49.2754 73.6865C49.0573 73.5107 48.8848 73.3073 48.7578 73.0762C48.6341 72.8451 48.5723 72.5765 48.5723 72.2705C48.5723 71.9743 48.6374 71.7057 48.7676 71.4648C48.8978 71.2207 49.0801 71.0124 49.3145 70.8398C49.5488 70.6641 49.8255 70.529 50.1445 70.4346C50.4668 70.3402 50.82 70.293 51.2041 70.293C51.7282 70.293 52.1855 70.3874 52.5762 70.5762C52.9668 70.765 53.2695 71.0238 53.4844 71.3525C53.7025 71.6813 53.8115 72.0573 53.8115 72.4805H52.3564C52.3564 72.2721 52.3125 72.0898 52.2246 71.9336C52.14 71.7741 52.0098 71.6488 51.834 71.5576C51.6615 71.4665 51.4434 71.4209 51.1797 71.4209C50.9258 71.4209 50.7142 71.46 50.5449 71.5381C50.3757 71.613 50.2487 71.7155 50.1641 71.8457C50.0794 71.9727 50.0371 72.1159 50.0371 72.2754C50.0371 72.3958 50.0664 72.5049 50.125 72.6025C50.1868 72.7002 50.278 72.7913 50.3984 72.876C50.5189 72.9606 50.667 73.0404 50.8428 73.1152C51.0186 73.1901 51.222 73.2633 51.4531 73.335C51.8405 73.4521 52.1807 73.584 52.4736 73.7305C52.7699 73.877 53.0173 74.0413 53.2158 74.2236C53.4144 74.4059 53.5641 74.6126 53.665 74.8438C53.766 75.0749 53.8164 75.3369 53.8164 75.6299C53.8164 75.9391 53.7562 76.2158 53.6357 76.46C53.5153 76.7041 53.3411 76.9108 53.1133 77.0801C52.8854 77.2493 52.6136 77.3779 52.2979 77.4658C51.9821 77.5537 51.6289 77.5977 51.2383 77.5977C50.8867 77.5977 50.54 77.5521 50.1982 77.4609C49.8564 77.3665 49.5456 77.2249 49.2656 77.0361C48.9889 76.8473 48.7676 76.6064 48.6016 76.3135C48.4355 76.0205 48.3525 75.6738 48.3525 75.2734H49.8223C49.8223 75.4948 49.8564 75.682 49.9248 75.835C49.9932 75.988 50.0892 76.1117 50.2129 76.2061C50.3398 76.3005 50.4896 76.3688 50.6621 76.4111C50.8379 76.4535 51.0299 76.4746 51.2383 76.4746C51.4922 76.4746 51.7005 76.4388 51.8633 76.3672C52.0293 76.2956 52.1514 76.1963 52.2295 76.0693C52.3109 75.9424 52.3516 75.7992 52.3516 75.6396ZM57.9912 70.3906V77.5H56.5312V70.3906H57.9912ZM60.1787 70.3906V71.5381H54.3779V70.3906H60.1787ZM65.7549 73.2861V74.4287H62.0439V73.2861H65.7549ZM62.4785 70.3906V77.5H61.0137V70.3906H62.4785ZM66.7998 70.3906V77.5H65.3398V70.3906H66.7998ZM71.0527 71.6064L69.1191 77.5H67.5615L70.2031 70.3906H71.1943L71.0527 71.6064ZM72.6592 77.5L70.7207 71.6064L70.5645 70.3906H71.5654L74.2217 77.5H72.6592ZM72.5713 74.8535V76.001H68.8164V74.8535H72.5713ZM80.667 70.3906V77.5H79.2021L76.3457 72.7344V77.5H74.8809V70.3906H76.3457L79.207 75.1611V70.3906H80.667Z" fill="white"/>
</g>
<defs>
<filter id="filter0_dd_1417_2084" x="0" y="0" width="104" height="104" filterUnits="userSpaceOnUse" color-interpolation-filters="sRGB">
<feFlood flood-opacity="0" result="BackgroundImageFix"/>
<feColorMatrix in="SourceAlpha" type="matrix" values="0 0 0 0 0 0 0 0 0 0 0 0 0 0 0 0 0 0 127 0" result="hardAlpha"/>
<feMorphology radius="1" operator="dilate" in="SourceAlpha" result="effect1_dropShadow_1417_2084"/>
<feOffset dy="6"/>
<feGaussianBlur stdDeviation="3"/>
<feComposite in2="hardAlpha" operator="out"/>
<feColorMatrix type="matrix" values="0 0 0 0 0.619608 0 0 0 0 0.478431 0 0 0 0 0.12549 0 0 0 0.51 0"/>
<feBlend mode="normal" in2="BackgroundImageFix" result="effect1_dropShadow_1417_2084"/>
<feColorMatrix in="SourceAlpha" type="matrix" values="0 0 0 0 0 0 0 0 0 0 0 0 0 0 0 0 0 0 127 0" result="hardAlpha"/>
<feOffset dy="3"/>
<feComposite in2="hardAlpha" operator="out"/>
<feColorMatrix type="matrix" values="0 0 0 0 0.620833 0 0 0 0 0.478158 0 0 0 0 0.126753 0 0 0 1 0"/>
<feBlend mode="normal" in2="effect1_dropShadow_1417_2084" result="effect2_dropShadow_1417_2084"/>
<feBlend mode="normal" in="SourceGraphic" in2="effect2_dropShadow_1417_2084" result="shape"/>
</filter>
<filter id="filter1_d_1417_2084" x="11.6143" y="12.5" width="80.7715" height="53.0772" filterUnits="userSpaceOnUse" color-interpolation-filters="sRGB">
<feFlood flood-opacity="0" result="BackgroundImageFix"/>
<feColorMatrix in="SourceAlpha" type="matrix" values="0 0 0 0 0 0 0 0 0 0 0 0 0 0 0 0 0 0 127 0" result="hardAlpha"/>
<feOffset dy="4.03858"/>
<feGaussianBlur stdDeviation="2.01929"/>
<feComposite in2="hardAlpha" operator="out"/>
<feColorMatrix type="matrix" values="0 0 0 0 0 0 0 0 0 0 0 0 0 0 0 0 0 0 0.25 0"/>
<feBlend mode="normal" in2="BackgroundImageFix" result="effect1_dropShadow_1417_2084"/>
<feBlend mode="normal" in="SourceGraphic" in2="effect1_dropShadow_1417_2084" result="shape"/>
</filter>
</defs>
</svg>
