<svg width="24" height="24" viewBox="0 0 24 24" fill="none" xmlns="http://www.w3.org/2000/svg">
<path d="M10.1611 15.7711V17.2586" stroke="#777777" stroke-linecap="round" stroke-linejoin="round"/>
<path d="M6.61926 19.6671H13.7026V18.9588C13.7026 18.1796 13.0651 17.5421 12.2859 17.5421H8.03593C7.25676 17.5421 6.61926 18.1796 6.61926 18.9588V19.6671V19.6671Z" stroke="#777777" stroke-miterlimit="10"/>
<path d="M5.91113 19.6671H14.4111" stroke="#777777" stroke-linecap="round" stroke-linejoin="round"/>
<path d="M10.0545 15.4167C7.31328 15.4167 5.09619 13.1996 5.09619 10.4583V8.33333C5.09619 6.76792 6.36411 5.5 7.92953 5.5H12.1795C13.7449 5.5 15.0129 6.76792 15.0129 8.33333V10.4583C15.0129 13.1996 12.7958 15.4167 10.0545 15.4167Z" stroke="#777777" stroke-linecap="round" stroke-linejoin="round"/>
<path d="M5.42958 12.3355C4.89833 12.1655 4.43083 11.8538 4.0625 11.4855C3.425 10.7772 3 9.92717 3 8.93551C3 7.94384 3.77917 7.16467 4.77083 7.16467H5.23125C5.08958 7.49051 5.01875 7.85176 5.01875 8.22717V10.3522C5.01875 11.0605 5.1675 11.7263 5.42958 12.3355Z" stroke="#777777" stroke-linecap="round" stroke-linejoin="round"/>
<path d="M14.6802 12.3355C15.2114 12.1655 15.6789 11.8538 16.0473 11.4855C16.6848 10.7772 17.1098 9.92717 17.1098 8.93551C17.1098 7.94384 16.3306 7.16467 15.3389 7.16467H14.8785C15.0202 7.49051 15.091 7.85176 15.091 8.22717V10.3522C15.091 11.0605 14.9423 11.7263 14.6802 12.3355Z" stroke="#777777" stroke-linecap="round" stroke-linejoin="round"/>
</svg>
