<svg width="104" height="104" viewBox="0 0 104 104" fill="none" xmlns="http://www.w3.org/2000/svg">
<g filter="url(#filter0_dd_1417_2135)">
<rect x="7" y="1" width="90" height="90" rx="12" fill="#F67B4B" shape-rendering="crispEdges"/>
<g filter="url(#filter1_d_1417_2135)">
<path fill-rule="evenodd" clip-rule="evenodd" d="M38.6167 12.7551C38.5007 12.9058 38.4312 13.2653 38.4312 13.6248C38.4312 14.1466 38.3616 14.3205 37.9673 14.8887C37.3644 15.7584 37.2716 16.1179 37.2716 17.7181C37.2716 18.9124 37.2484 19.0748 37.0397 19.2603C36.831 19.4342 36.8078 19.5966 36.8078 20.7909C36.8078 21.9853 36.831 22.1476 37.0397 22.3216C37.26 22.5187 37.2716 22.6694 37.2716 25.4524V28.3861H36.8889C36.1584 28.3861 36.054 28.5716 36.054 29.8588V30.9951L36.6106 31.83L37.1556 32.6649V34.4043V36.1552H36.4251L36.3606 36.1552C35.9931 36.1548 35.753 36.1546 35.596 36.2688C35.2999 36.4841 35.3 37.1067 35.3003 38.9038L35.3003 39.0773V41.5588L35.9381 42.4749L36.5758 43.3909V49.8613V56.3317H33.1203C29.9083 56.3317 29.6416 56.3433 29.4677 56.5405C29.2358 56.7956 29.2126 57.155 29.4097 57.3522C29.6068 57.5493 74.3894 57.5493 74.5865 57.3522C74.7953 57.1434 74.7605 56.7376 74.517 56.5289C74.3314 56.3549 73.8908 56.3317 70.8063 56.3317H67.3044V49.8961V43.4489L68.0002 42.5097L68.6959 41.5588V39.0425L68.696 38.8041C68.6965 37.1009 68.6967 36.492 68.4052 36.2748C68.2429 36.1539 67.9903 36.1544 67.5971 36.1551L67.5016 36.1552H66.7247V34.4275V32.6881L67.3044 31.7836C67.6059 31.3134 67.7506 31.0876 67.8201 30.8407C67.8842 30.6127 67.8842 30.3667 67.8842 29.8935C67.8842 28.6644 67.7335 28.3861 67.0609 28.3861H66.6087V25.4292C66.6087 23.6898 66.6551 22.4723 66.7131 22.4723C66.771 22.4723 66.9102 22.3911 67.003 22.2868C67.2697 22.0201 67.2697 19.5618 67.003 19.2951C66.9102 19.1907 66.771 19.1095 66.7131 19.1095C66.6551 19.1095 66.6087 18.4834 66.6087 17.6833C66.5971 16.0483 66.4927 15.6656 65.8086 14.7728C65.3912 14.2394 65.3332 14.0886 65.3332 13.5552C65.3332 12.7667 65.1824 12.5 64.7534 12.5C64.3244 12.5 64.1736 12.7667 64.1736 13.5552C64.1736 14.0886 64.104 14.2625 63.6286 14.9699L63.072 15.77L63.0372 17.405C63.0024 18.9124 62.9792 19.04 62.7473 19.2371C62.5154 19.4226 62.4922 19.5386 62.4922 20.7909C62.4922 22.078 62.5038 22.1592 62.7589 22.3216C63.014 22.4955 63.014 22.5187 63.014 25.4408V28.3861H62.5734C61.9356 28.3861 61.7385 28.6528 61.7385 29.4645V30.1255H51.9401H42.1418V29.4413C42.1418 28.6064 41.9678 28.3861 41.3185 28.3861H40.8663V25.4408C40.8663 22.5998 40.8779 22.4955 41.0982 22.4375C41.446 22.3447 41.5504 21.9041 41.5272 20.6402C41.504 19.4806 41.3765 19.1095 41.0286 19.1095C40.901 19.1095 40.8663 18.8081 40.8663 17.6021C40.8663 15.8975 40.8083 15.6888 40.0662 14.7148C39.6371 14.1466 39.5907 14.019 39.5907 13.4277C39.5907 13.0682 39.5328 12.7203 39.4516 12.6391C39.2313 12.4188 38.8138 12.4768 38.6167 12.7551ZM39.5443 15.9903C39.6603 16.2222 39.7067 16.7208 39.7067 17.7181V19.1095H39.0573H38.408L38.4544 17.6253C38.4891 16.3034 38.5123 16.1179 38.7558 15.77C39.0689 15.3409 39.2313 15.3873 39.5443 15.9903ZM65.1129 15.77C65.368 16.1179 65.3912 16.2802 65.4259 17.6253L65.4723 19.1095H64.823H64.1736V17.7065C64.1736 16.4773 64.2084 16.2454 64.4287 15.8512C64.5679 15.5961 64.7186 15.3989 64.7534 15.3989C64.7882 15.3989 64.9505 15.5729 65.1129 15.77ZM40.2865 20.7909V21.3127H39.1269H37.9673V20.7909V20.2691H39.1269H40.2865V20.7909ZM66.0289 20.7909V21.3127H64.8925C64.2664 21.3127 63.7214 21.2895 63.6982 21.2663C63.6634 21.2316 63.6634 20.9996 63.6866 20.7445L63.733 20.2691H64.8809H66.0289V20.7909ZM39.7067 25.4292V28.3861H39.0689H38.4312V25.4292V22.4723H39.0689H39.7067V25.4292ZM65.4491 25.4292V28.3861H64.8114H64.1736V25.4292V22.4723H64.8114H65.4491V25.4292ZM40.9822 30.0675C40.9822 30.4733 40.8894 30.7516 40.5764 31.227L40.1705 31.8648H39.1037H38.0253L37.5963 31.1923C37.1788 30.5545 37.0165 29.8356 37.2368 29.6268C37.2716 29.5805 38.1413 29.5457 39.1501 29.5457H40.9822V30.0675ZM66.7247 30.0211C66.7247 30.369 66.6087 30.6936 66.3072 31.1807L65.9014 31.8648H64.823H63.7446L63.3155 31.227C62.9908 30.7284 62.8981 30.4733 62.8981 30.0675V29.5457H64.8114H66.7247V30.0211ZM62.1791 31.5981L62.3415 31.8648H51.9517C43.6608 31.8648 41.562 31.83 41.6316 31.7141C41.644 31.6954 41.6589 31.6718 41.6754 31.6457C41.7206 31.5741 41.7778 31.4836 41.8287 31.4242C41.9215 31.3198 44.0319 31.285 51.9749 31.3082L62.0052 31.343L62.1791 31.5981ZM39.8226 34.5898V36.1552H39.1385C38.5819 36.1552 38.4428 36.1204 38.3964 35.9465C38.35 35.7726 38.35 35.2044 38.408 33.5694L38.4312 33.0244H39.1269H39.8226V34.5898ZM62.8981 36.1668L61.7733 36.132L60.6369 36.0972L60.6021 35.3667C60.5789 34.7637 60.521 34.613 60.3006 34.4738C59.7672 34.1144 59.4194 34.555 59.4194 35.587V36.1552H58.4337H57.4481V35.4595C57.4481 34.9145 57.4017 34.7174 57.2162 34.5318C56.9379 34.2535 56.8799 34.2535 56.5552 34.4738C56.3465 34.6246 56.2885 34.7869 56.2653 35.3783L56.2306 36.0972L55.2217 36.132L54.2013 36.1668V35.4595C54.2013 34.9145 54.1549 34.7174 53.9694 34.5318C53.6911 34.2535 53.6331 34.2535 53.2968 34.4854C53.0765 34.6362 53.0417 34.7637 53.0417 35.4131V36.1552H51.9981H50.9545V35.4131C50.9545 34.7637 50.9197 34.6362 50.6994 34.4854C50.3631 34.2535 50.3052 34.2535 50.0269 34.5318C49.8413 34.7174 49.7949 34.9145 49.7949 35.4595V36.1552H48.7513H47.7077V35.4131C47.7077 34.7637 47.6729 34.6362 47.4526 34.4854C47.1163 34.2535 47.0584 34.2535 46.7801 34.5318C46.5945 34.7174 46.5481 34.9145 46.5481 35.4595V36.1552H45.5625H44.5769V35.4595C44.5769 34.9145 44.5305 34.7174 44.345 34.5318C44.0667 34.2535 44.0087 34.2535 43.684 34.4738C43.4753 34.6246 43.4173 34.7869 43.3941 35.3783L43.3593 36.0972L42.1766 36.132L40.9822 36.1668V34.5898V33.0244H51.9401H62.8981V34.5898V36.1668ZM65.5651 34.5898V36.1552H64.8114H64.0576V34.5898V33.0244H64.8114H65.5651V34.5898ZM41.7939 39.0541V40.7935H39.1269H36.4599V39.0541V37.3148H39.1269H41.7939V39.0541ZM61.0428 38.1265V38.9382H51.9981H42.9535V38.1265V37.3148H51.9981H61.0428V38.1265ZM67.5364 39.0541V40.7935H64.8693H62.2023V39.0541V37.3148H64.8693H67.5364V39.0541ZM61.0428 40.4456V40.7935H51.9981H42.9535V40.4456V40.0978H51.9981H61.0428V40.4456ZM41.1446 42.0922C40.8431 42.6372 40.7851 42.6488 39.0805 42.6488H37.4339L37.2368 42.3009L37.0281 41.9531H39.1269C40.7735 41.9531 41.2141 41.9879 41.1446 42.0922ZM45.8524 48.0408V54.1286H43.7072H41.562V48.8061V43.4953L42.1418 42.7184L42.7332 41.9531H44.287H45.8524V48.0408ZM56.9843 44.5737C56.9843 46.6609 56.9495 47.1711 56.8451 47.09C55.5812 46.0927 54.6303 45.5593 53.1809 45.0375C52.1373 44.6665 51.9054 44.6665 50.8617 45.0143C49.6326 45.4318 48.6006 45.9652 47.7657 46.5913L47.012 47.1595V44.5621V41.9531H51.9981H56.9843V44.5737ZM61.7849 42.7068L62.3183 43.4721V48.7945V54.1286H60.2311H58.1438V48.0408V41.9531H59.6977H61.2515L61.7849 42.7068ZM66.8406 42.011C66.8406 42.0458 66.7594 42.2082 66.6551 42.3589C66.4696 42.6488 66.4464 42.6488 64.8114 42.6488C63.1764 42.6488 63.1532 42.6488 62.9677 42.3589C62.8633 42.2082 62.7821 42.0458 62.7821 42.011C62.7821 41.9763 63.6982 41.9531 64.8114 41.9531C65.9246 41.9531 66.8406 41.9763 66.8406 42.011ZM40.4024 48.9685V54.1286H39.0689H37.7354V49.0496C37.7354 46.2551 37.7702 43.9243 37.8166 43.8896C37.8514 43.8432 38.4544 43.8084 39.1501 43.8084H40.4024V48.9685ZM66.1217 48.9917L66.1449 54.1286H64.8114H63.4779V49.0496C63.4779 46.2551 63.5127 43.9243 63.559 43.878C63.6054 43.8432 64.1852 43.82 64.8578 43.8316L66.0869 43.8664L66.1217 48.9917ZM53.0649 46.2435C54.8855 46.9044 56.3001 47.948 56.764 48.9453C56.9611 49.3859 56.9843 49.7454 56.9843 52.8762V56.3317H51.9981H47.012V52.9574C47.012 50.6498 47.0584 49.4207 47.1511 49.096C47.3482 48.4351 48.3687 47.4494 49.4239 46.9044C50.2356 46.4754 51.6734 45.9072 51.9633 45.8956C52.0445 45.8956 52.5315 46.0579 53.0649 46.2435ZM40.4024 55.8099V56.3317H39.0689H37.7354V55.8099V55.2881H39.0689H40.4024V55.8099ZM45.8524 55.8099V56.3317H43.7072H41.562V55.8099V55.2881H43.7072H45.8524V55.8099ZM62.3183 55.8099V56.3317H60.2311H58.1438V55.8099V55.2881H60.2311H62.3183V55.8099ZM66.1449 55.8099V56.3317H64.8114H63.4779V55.8099V55.2881H64.8114H66.1449V55.8099ZM43.3709 43.9127C43.2202 44.0751 43.1854 44.2954 43.2086 44.8636C43.2434 45.5477 43.2666 45.6057 43.5565 45.7101C44.0667 45.884 44.345 45.5477 44.345 44.7708C44.345 43.8664 43.8348 43.4025 43.3709 43.9127ZM43.3245 49.2352C43.139 49.0496 43.139 47.7277 43.3245 47.5422C43.5449 47.3219 44.0899 47.3683 44.229 47.6234C44.287 47.7509 44.345 48.0988 44.345 48.3887C44.345 48.6786 44.287 49.0265 44.229 49.154C44.0899 49.4091 43.5449 49.4555 43.3245 49.2352ZM43.3245 51.1369C43.2434 51.218 43.1854 51.5891 43.1854 51.9949C43.1854 52.6211 43.2202 52.7487 43.4405 52.8994C43.7768 53.1313 43.8348 53.1313 44.1131 52.853C44.4261 52.5399 44.4377 51.4731 44.1362 51.1948C43.8811 50.9629 43.5217 50.9397 43.3245 51.1369ZM59.7904 45.6405C59.5817 45.4318 59.6165 44.0983 59.8368 43.878C60.0803 43.6344 60.3006 43.646 60.5789 43.9243C60.8804 44.2258 60.9036 45.2463 60.6137 45.5709C60.405 45.8144 59.9991 45.8492 59.7904 45.6405ZM59.7904 47.5422C59.7093 47.6234 59.6513 47.9944 59.6513 48.3887C59.6513 49.1772 59.7673 49.3743 60.2543 49.3743C60.6485 49.3743 60.8109 49.096 60.8109 48.3887C60.8109 48.0988 60.7529 47.7509 60.6949 47.6234C60.5558 47.3683 60.0108 47.3219 59.7904 47.5422ZM59.6513 51.9833C59.6513 51.5891 59.7093 51.218 59.7904 51.1369C59.9876 50.9397 60.347 50.9629 60.6021 51.1948C60.9036 51.4731 60.892 52.5399 60.5789 52.853C60.3007 53.1313 60.1383 53.1429 59.86 52.8878C59.6977 52.7487 59.6513 52.5283 59.6513 51.9833Z" fill="white"/>
</g>
<path d="M26.5557 70.3906V77.5H25.0957V70.3906H26.5557ZM28.7432 70.3906V71.5381H22.9424V70.3906H28.7432ZM34.3486 76.3574V77.5H30.5645V76.3574H34.3486ZM31.043 70.3906V77.5H29.5781V70.3906H31.043ZM33.8555 73.2861V74.3994H30.5645V73.2861H33.8555ZM34.3438 70.3906V71.5381H30.5645V70.3906H34.3438ZM39.7734 76.3574V77.5H36.1943V76.3574H39.7734ZM36.668 70.3906V77.5H35.2031V70.3906H36.668ZM43.6016 71.6064L41.668 77.5H40.1104L42.752 70.3906H43.7432L43.6016 71.6064ZM45.208 77.5L43.2695 71.6064L43.1133 70.3906H44.1143L46.7705 77.5H45.208ZM45.1201 74.8535V76.001H41.3652V74.8535H45.1201ZM53.2158 70.3906V77.5H51.751L48.8945 72.7344V77.5H47.4297V70.3906H48.8945L51.7559 75.1611V70.3906H53.2158ZM60.125 73.7842V76.6016C60.0143 76.735 59.8434 76.8799 59.6123 77.0361C59.3812 77.1891 59.0833 77.321 58.7188 77.4316C58.3542 77.5423 57.9131 77.5977 57.3955 77.5977C56.9365 77.5977 56.5182 77.5228 56.1406 77.373C55.763 77.2201 55.4375 76.9971 55.1641 76.7041C54.8939 76.4111 54.6855 76.0531 54.5391 75.6299C54.3926 75.2035 54.3193 74.7168 54.3193 74.1699V73.7256C54.3193 73.1787 54.3893 72.6921 54.5293 72.2656C54.6725 71.8392 54.876 71.4795 55.1396 71.1865C55.4033 70.8936 55.7174 70.6706 56.082 70.5176C56.4466 70.3646 56.8519 70.2881 57.2979 70.2881C57.9163 70.2881 58.4242 70.389 58.8213 70.5908C59.2184 70.7894 59.5212 71.0661 59.7295 71.4209C59.9411 71.7725 60.0713 72.1761 60.1201 72.6318H58.6992C58.6634 72.391 58.5951 72.181 58.4941 72.002C58.3932 71.8229 58.2484 71.6829 58.0596 71.582C57.874 71.4811 57.6331 71.4307 57.3369 71.4307C57.0928 71.4307 56.8747 71.4811 56.6826 71.582C56.4938 71.6797 56.3343 71.8245 56.2041 72.0166C56.0739 72.2087 55.9746 72.4463 55.9062 72.7295C55.8379 73.0127 55.8037 73.3415 55.8037 73.7158V74.1699C55.8037 74.541 55.8395 74.8698 55.9111 75.1562C55.9827 75.4395 56.0885 75.6787 56.2285 75.874C56.3717 76.0661 56.5475 76.2109 56.7559 76.3086C56.9642 76.4062 57.2067 76.4551 57.4834 76.4551C57.7145 76.4551 57.9066 76.4355 58.0596 76.3965C58.2158 76.3574 58.3411 76.3102 58.4355 76.2549C58.5332 76.1963 58.6081 76.141 58.6602 76.0889V74.8291H57.3223V73.7842H60.125ZM64.1973 71.6064L62.2637 77.5H60.7061L63.3477 70.3906H64.3389L64.1973 71.6064ZM65.8037 77.5L63.8652 71.6064L63.709 70.3906H64.71L67.3662 77.5H65.8037ZM65.7158 74.8535V76.001H61.9609V74.8535H65.7158ZM73.8115 70.3906V77.5H72.3467L69.4902 72.7344V77.5H68.0254V70.3906H69.4902L72.3516 75.1611V70.3906H73.8115ZM78.0645 71.6064L76.1309 77.5H74.5732L77.2148 70.3906H78.2061L78.0645 71.6064ZM79.6709 77.5L77.7324 71.6064L77.5762 70.3906H78.5771L81.2334 77.5H79.6709ZM79.583 74.8535V76.001H75.8281V74.8535H79.583Z" fill="white"/>
</g>
<defs>
<filter id="filter0_dd_1417_2135" x="0" y="0" width="104" height="104" filterUnits="userSpaceOnUse" color-interpolation-filters="sRGB">
<feFlood flood-opacity="0" result="BackgroundImageFix"/>
<feColorMatrix in="SourceAlpha" type="matrix" values="0 0 0 0 0 0 0 0 0 0 0 0 0 0 0 0 0 0 127 0" result="hardAlpha"/>
<feMorphology radius="1" operator="dilate" in="SourceAlpha" result="effect1_dropShadow_1417_2135"/>
<feOffset dy="6"/>
<feGaussianBlur stdDeviation="3"/>
<feComposite in2="hardAlpha" operator="out"/>
<feColorMatrix type="matrix" values="0 0 0 0 0.658824 0 0 0 0 0.321569 0 0 0 0 0.207843 0 0 0 0.51 0"/>
<feBlend mode="normal" in2="BackgroundImageFix" result="effect1_dropShadow_1417_2135"/>
<feColorMatrix in="SourceAlpha" type="matrix" values="0 0 0 0 0 0 0 0 0 0 0 0 0 0 0 0 0 0 127 0" result="hardAlpha"/>
<feOffset dy="3"/>
<feComposite in2="hardAlpha" operator="out"/>
<feColorMatrix type="matrix" values="0 0 0 0 0.660758 0 0 0 0 0.323483 0 0 0 0 0.207079 0 0 0 1 0"/>
<feBlend mode="normal" in2="effect1_dropShadow_1417_2135" result="effect2_dropShadow_1417_2135"/>
<feBlend mode="normal" in="SourceGraphic" in2="effect2_dropShadow_1417_2135" result="shape"/>
</filter>
<filter id="filter1_d_1417_2135" x="25.2764" y="12.5" width="53.4473" height="53" filterUnits="userSpaceOnUse" color-interpolation-filters="sRGB">
<feFlood flood-opacity="0" result="BackgroundImageFix"/>
<feColorMatrix in="SourceAlpha" type="matrix" values="0 0 0 0 0 0 0 0 0 0 0 0 0 0 0 0 0 0 127 0" result="hardAlpha"/>
<feOffset dy="4"/>
<feGaussianBlur stdDeviation="2"/>
<feComposite in2="hardAlpha" operator="out"/>
<feColorMatrix type="matrix" values="0 0 0 0 0 0 0 0 0 0 0 0 0 0 0 0 0 0 0.25 0"/>
<feBlend mode="normal" in2="BackgroundImageFix" result="effect1_dropShadow_1417_2135"/>
<feBlend mode="normal" in="SourceGraphic" in2="effect1_dropShadow_1417_2135" result="shape"/>
</filter>
</defs>
</svg>
