<svg width="101" height="12" viewBox="0 0 101 12" fill="none" xmlns="http://www.w3.org/2000/svg">
<path d="M6.1381 0.935791H8.18205V7.51196C8.18205 8.27759 8.01799 8.92244 7.68986 9.44653C7.36629 9.97062 6.9174 10.3648 6.34318 10.6292C5.77352 10.8935 5.11727 11.0256 4.37443 11.0256C3.63159 11.0256 2.97079 10.8935 2.39201 10.6292C1.81779 10.3648 1.36662 9.97062 1.03849 9.44653C0.714926 8.92244 0.553143 8.27759 0.553143 7.51196V0.935791H2.60392V7.51196C2.60392 7.95858 2.67456 8.32316 2.81584 8.60571C2.95711 8.88826 3.15991 9.09562 3.42424 9.22778C3.69312 9.35994 4.00985 9.42603 4.37443 9.42603C4.74813 9.42603 5.06486 9.35994 5.32463 9.22778C5.58895 9.09562 5.78947 8.88826 5.92619 8.60571C6.06747 8.32316 6.1381 7.95858 6.1381 7.51196V0.935791ZM14.3207 0.935791V10.8889H12.2768V0.935791H14.3207ZM17.3832 0.935791V2.54224H9.26213V0.935791H17.3832ZM23.1117 0.935791V10.8889H21.0678V0.935791H23.1117ZM26.1742 0.935791V2.54224H18.0531V0.935791H26.1742ZM30.6518 2.63794L27.9447 10.8889H25.7641L29.4623 0.935791H30.85L30.6518 2.63794ZM32.9008 10.8889L30.1869 2.63794L29.9682 0.935791H31.3695L35.0883 10.8889H32.9008ZM32.7778 7.18384V8.79028H27.5209V7.18384H32.7778ZM36.0112 0.935791H39.7231C40.4841 0.935791 41.1381 1.04972 41.685 1.27759C42.2364 1.50545 42.6602 1.84269 42.9565 2.28931C43.2527 2.73592 43.4008 3.28507 43.4008 3.93677C43.4008 4.46997 43.3097 4.92798 43.1274 5.31079C42.9496 5.68905 42.6967 6.00578 42.3686 6.26099C42.045 6.51164 41.6645 6.71216 41.227 6.86255L40.5776 7.20435H37.351L37.3373 5.60474H39.7367C40.0968 5.60474 40.3953 5.54093 40.6322 5.41333C40.8692 5.28573 41.047 5.10799 41.1654 4.88013C41.2885 4.65226 41.35 4.38794 41.35 4.08716C41.35 3.76815 41.2908 3.49243 41.1723 3.26001C41.0538 3.02759 40.8738 2.84985 40.6322 2.72681C40.3907 2.60376 40.0876 2.54224 39.7231 2.54224H38.0619V10.8889H36.0112V0.935791ZM41.5756 10.8889L39.3061 6.45239L41.4731 6.43872L43.7699 10.7932V10.8889H41.5756ZM49.0268 2.63794L46.3197 10.8889H44.1391L47.8373 0.935791H49.225L49.0268 2.63794ZM51.2758 10.8889L48.5619 2.63794L48.3432 0.935791H49.7445L53.4633 10.8889H51.2758ZM51.1528 7.18384V8.79028H45.8959V7.18384H51.1528ZM56.4369 0.935791V10.8889H54.3862V0.935791H56.4369ZM62.3979 0.935791L58.4535 5.85083L56.1772 8.2981L55.808 6.35669L57.3461 4.25122L59.8822 0.935791H62.3979ZM60.0668 10.8889L57.1342 6.28833L58.6518 5.01685L62.4936 10.8889H60.0668ZM69.9242 4.9895V6.58911H64.7289V4.9895H69.9242ZM65.3373 0.935791V10.8889H63.2865V0.935791H65.3373ZM71.3871 0.935791V10.8889H69.3432V0.935791H71.3871ZM77.3412 2.63794L74.6342 10.8889H72.4535L76.1518 0.935791H77.5395L77.3412 2.63794ZM79.5903 10.8889L76.8764 2.63794L76.6576 0.935791H78.059L81.7778 10.8889H79.5903ZM79.4672 7.18384V8.79028H74.2104V7.18384H79.4672ZM90.8012 0.935791V10.8889H88.7504L84.7514 4.21704V10.8889H82.7006V0.935791H84.7514L88.7572 7.6145V0.935791H90.8012ZM95.641 10.8889H93.474L93.4877 9.28931H95.641C96.1788 9.28931 96.6322 9.16854 97.0014 8.927C97.3705 8.68091 97.6485 8.32316 97.8354 7.85376C98.0268 7.38436 98.1225 6.81698 98.1225 6.15161V5.66626C98.1225 5.15584 98.0678 4.70695 97.9584 4.31958C97.8536 3.93221 97.6964 3.60636 97.4867 3.34204C97.2771 3.07772 97.0196 2.87948 96.7143 2.74731C96.4089 2.6106 96.058 2.54224 95.6615 2.54224H93.433V0.935791H95.6615C96.3269 0.935791 96.9353 1.04972 97.4867 1.27759C98.0427 1.5009 98.5235 1.82218 98.9291 2.24146C99.3347 2.66073 99.6469 3.16203 99.8656 3.74536C100.089 4.32414 100.201 4.96899 100.201 5.67993V6.15161C100.201 6.85799 100.089 7.50285 99.8656 8.08618C99.6469 8.66951 99.3347 9.17082 98.9291 9.59009C98.5281 10.0048 98.0473 10.3261 97.4867 10.554C96.9308 10.7773 96.3155 10.8889 95.641 10.8889ZM94.6362 0.935791V10.8889H92.5854V0.935791H94.6362Z" fill="white"/>
</svg>
