<svg width="110" height="12" viewBox="0 0 110 12" fill="none" xmlns="http://www.w3.org/2000/svg">
<path d="M6.24957 1.04688H8.29351V7.62305C8.29351 8.38867 8.12945 9.03353 7.80132 9.55762C7.47776 10.0817 7.02886 10.4759 6.45464 10.7402C5.88498 11.0046 5.22873 11.1367 4.48589 11.1367C3.74305 11.1367 3.08225 11.0046 2.50347 10.7402C1.92925 10.4759 1.47808 10.0817 1.14996 9.55762C0.826388 9.03353 0.664604 8.38867 0.664604 7.62305V1.04688H2.71539V7.62305C2.71539 8.06966 2.78602 8.43424 2.9273 8.7168C3.06858 8.99935 3.27138 9.20671 3.5357 9.33887C3.80458 9.47103 4.12131 9.53711 4.48589 9.53711C4.85959 9.53711 5.17632 9.47103 5.43609 9.33887C5.70041 9.20671 5.90093 8.99935 6.03765 8.7168C6.17893 8.43424 6.24957 8.06966 6.24957 7.62305V1.04688ZM14.4322 1.04688V11H12.3882V1.04688H14.4322ZM17.4947 1.04688V2.65332H9.37359V1.04688H17.4947ZM23.2232 1.04688V11H21.1793V1.04688H23.2232ZM26.2857 1.04688V2.65332H18.1646V1.04688H26.2857ZM30.7632 2.74902L28.0562 11H25.8755L29.5738 1.04688H30.9615L30.7632 2.74902ZM33.0123 11L30.2984 2.74902L30.0796 1.04688H31.481L35.1998 11H33.0123ZM32.8892 7.29492V8.90137H27.6324V7.29492H32.8892ZM36.1226 1.04688H39.8345C40.5956 1.04688 41.2496 1.16081 41.7964 1.38867C42.3479 1.61654 42.7717 1.95378 43.0679 2.40039C43.3641 2.84701 43.5123 3.39616 43.5123 4.04785C43.5123 4.58105 43.4211 5.03906 43.2388 5.42188C43.0611 5.80013 42.8082 6.11686 42.48 6.37207C42.1565 6.62272 41.7759 6.82324 41.3384 6.97363L40.689 7.31543H37.4625L37.4488 5.71582H39.8482C40.2082 5.71582 40.5067 5.65202 40.7437 5.52441C40.9807 5.39681 41.1584 5.21908 41.2769 4.99121C41.4 4.76335 41.4615 4.49902 41.4615 4.19824C41.4615 3.87923 41.4022 3.60352 41.2837 3.37109C41.1653 3.13867 40.9852 2.96094 40.7437 2.83789C40.5022 2.71484 40.1991 2.65332 39.8345 2.65332H38.1734V11H36.1226V1.04688ZM41.6871 11L39.4175 6.56348L41.5845 6.5498L43.8814 10.9043V11H41.6871ZM52.4537 7.45215H49.9175V5.85254H52.4537C52.8456 5.85254 53.1646 5.78874 53.4107 5.66113C53.6568 5.52897 53.8368 5.34668 53.9507 5.11426C54.0647 4.88184 54.1216 4.61979 54.1216 4.32812C54.1216 4.0319 54.0647 3.75618 53.9507 3.50098C53.8368 3.24577 53.6568 3.04069 53.4107 2.88574C53.1646 2.73079 52.8456 2.65332 52.4537 2.65332H50.6285V11H48.5777V1.04688H52.4537C53.233 1.04688 53.9006 1.18815 54.4566 1.4707C55.0171 1.7487 55.4455 2.13379 55.7418 2.62598C56.038 3.11816 56.1861 3.68099 56.1861 4.31445C56.1861 4.95703 56.038 5.51302 55.7418 5.98242C55.4455 6.45182 55.0171 6.81413 54.4566 7.06934C53.9006 7.32454 53.233 7.45215 52.4537 7.45215ZM57.6011 1.04688H61.313C62.0741 1.04688 62.7281 1.16081 63.275 1.38867C63.8264 1.61654 64.2502 1.95378 64.5464 2.40039C64.8427 2.84701 64.9908 3.39616 64.9908 4.04785C64.9908 4.58105 64.8996 5.03906 64.7173 5.42188C64.5396 5.80013 64.2867 6.11686 63.9585 6.37207C63.635 6.62272 63.2544 6.82324 62.8169 6.97363L62.1675 7.31543H58.941L58.9273 5.71582H61.3267C61.6867 5.71582 61.9852 5.65202 62.2222 5.52441C62.4592 5.39681 62.6369 5.21908 62.7554 4.99121C62.8785 4.76335 62.94 4.49902 62.94 4.19824C62.94 3.87923 62.8808 3.60352 62.7623 3.37109C62.6438 3.13867 62.4638 2.96094 62.2222 2.83789C61.9807 2.71484 61.6776 2.65332 61.313 2.65332H59.6519V11H57.6011V1.04688ZM63.1656 11L60.896 6.56348L63.063 6.5498L65.3599 10.9043V11H63.1656ZM70.6168 2.74902L67.9097 11H65.7291L69.4273 1.04688H70.815L70.6168 2.74902ZM72.8658 11L70.1519 2.74902L69.9332 1.04688H71.3345L75.0533 11H72.8658ZM72.7427 7.29492V8.90137H67.4859V7.29492H72.7427ZM79.0318 11H76.8648L76.8785 9.40039H79.0318C79.5696 9.40039 80.023 9.27962 80.3921 9.03809C80.7613 8.79199 81.0393 8.43424 81.2261 7.96484C81.4175 7.49544 81.5132 6.92806 81.5132 6.2627V5.77734C81.5132 5.26693 81.4585 4.81803 81.3492 4.43066C81.2444 4.04329 81.0871 3.71745 80.8775 3.45312C80.6679 3.1888 80.4104 2.99056 80.105 2.8584C79.7997 2.72168 79.4488 2.65332 79.0523 2.65332H76.8238V1.04688H79.0523C79.7177 1.04688 80.3261 1.16081 80.8775 1.38867C81.4335 1.61198 81.9143 1.93327 82.3199 2.35254C82.7255 2.77181 83.0377 3.27311 83.2564 3.85645C83.4797 4.43522 83.5914 5.08008 83.5914 5.79102V6.2627C83.5914 6.96908 83.4797 7.61393 83.2564 8.19727C83.0377 8.7806 82.7255 9.2819 82.3199 9.70117C81.9188 10.1159 81.438 10.4372 80.8775 10.665C80.3215 10.8883 79.7063 11 79.0318 11ZM78.0269 1.04688V11H75.9761V1.04688H78.0269ZM91.7603 9.40039V11H86.4625V9.40039H91.7603ZM87.1324 1.04688V11H85.0816V1.04688H87.1324ZM91.0699 5.10059V6.65918H86.4625V5.10059H91.0699ZM91.7535 1.04688V2.65332H86.4625V1.04688H91.7535ZM98.1382 8.39551C98.1382 8.21777 98.1109 8.05827 98.0562 7.91699C98.0061 7.77116 97.9104 7.639 97.7691 7.52051C97.6278 7.39746 97.4296 7.27669 97.1744 7.1582C96.9192 7.03971 96.5888 6.91667 96.1832 6.78906C95.732 6.64323 95.3036 6.47917 94.898 6.29688C94.497 6.11458 94.1415 5.90267 93.8316 5.66113C93.5263 5.41504 93.2847 5.13021 93.107 4.80664C92.9338 4.48307 92.8472 4.1071 92.8472 3.67871C92.8472 3.264 92.9384 2.88802 93.1207 2.55078C93.303 2.20898 93.5582 1.91732 93.8863 1.67578C94.2144 1.42969 94.6018 1.24056 95.0484 1.1084C95.4996 0.976237 95.994 0.910156 96.5318 0.910156C97.2655 0.910156 97.9058 1.04232 98.4527 1.30664C98.9996 1.57096 99.4234 1.93327 99.7242 2.39355C100.03 2.85384 100.182 3.38021 100.182 3.97266H98.1451C98.1451 3.68099 98.0835 3.42578 97.9605 3.20703C97.842 2.98372 97.6597 2.80827 97.4136 2.68066C97.1721 2.55306 96.8668 2.48926 96.4976 2.48926C96.1421 2.48926 95.8459 2.54395 95.6089 2.65332C95.372 2.75814 95.1942 2.90169 95.0757 3.08398C94.9572 3.26172 94.898 3.46224 94.898 3.68555C94.898 3.85417 94.939 4.00684 95.021 4.14355C95.1076 4.28027 95.2352 4.40788 95.4039 4.52637C95.5725 4.64486 95.7798 4.75651 96.0259 4.86133C96.272 4.96615 96.5569 5.06868 96.8804 5.16895C97.4227 5.33301 97.899 5.51758 98.3091 5.72266C98.7238 5.92773 99.0702 6.15788 99.3482 6.41309C99.6262 6.66829 99.8358 6.95768 99.9771 7.28125C100.118 7.60482 100.189 7.97168 100.189 8.38184C100.189 8.81478 100.105 9.20215 99.9361 9.54395C99.7675 9.88574 99.5237 10.1751 99.2046 10.4121C98.8856 10.6491 98.5051 10.8291 98.063 10.9521C97.621 11.0752 97.1265 11.1367 96.5796 11.1367C96.0875 11.1367 95.6021 11.0729 95.1236 10.9453C94.6451 10.8132 94.2099 10.6149 93.8179 10.3506C93.4306 10.0863 93.1207 9.74902 92.8882 9.33887C92.6558 8.92871 92.5396 8.44336 92.5396 7.88281H94.5972C94.5972 8.19271 94.6451 8.45475 94.7408 8.66895C94.8365 8.88314 94.9709 9.05632 95.1441 9.18848C95.3218 9.32064 95.5315 9.41634 95.773 9.47559C96.0191 9.53483 96.288 9.56445 96.5796 9.56445C96.9351 9.56445 97.2268 9.51432 97.4546 9.41406C97.6871 9.3138 97.858 9.1748 97.9673 8.99707C98.0813 8.81934 98.1382 8.61882 98.1382 8.39551ZM108.221 5.10059V6.7002H103.026V5.10059H108.221ZM103.634 1.04688V11H101.584V1.04688H103.634ZM109.684 1.04688V11H107.64V1.04688H109.684Z" fill="white"/>
</svg>
