<svg width="28" height="12" viewBox="0 0 28 12" fill="none" xmlns="http://www.w3.org/2000/svg">
<path d="M8.16288 5.68677V9.6311C8.00794 9.81795 7.76868 10.0208 7.44511 10.2395C7.12154 10.4537 6.70455 10.6383 6.19413 10.7932C5.68372 10.9482 5.0662 11.0256 4.34159 11.0256C3.69902 11.0256 3.1134 10.9208 2.58476 10.7112C2.05611 10.497 1.60038 10.1848 1.21757 9.77466C0.839316 9.3645 0.547649 8.8632 0.342571 8.27075C0.137493 7.67375 0.0349541 6.99243 0.0349541 6.22681V5.60474C0.0349541 4.83911 0.132936 4.1578 0.328899 3.56079C0.52942 2.96379 0.814251 2.46021 1.18339 2.05005C1.55253 1.63989 1.99231 1.32772 2.50273 1.11353C3.01314 0.899333 3.58053 0.792236 4.20488 0.792236C5.07076 0.792236 5.7817 0.933512 6.33769 1.21606C6.89368 1.49406 7.31751 1.88143 7.60917 2.37817C7.9054 2.87036 8.08769 3.43547 8.15605 4.07349H6.16679C6.11666 3.73625 6.02096 3.4423 5.87968 3.19165C5.7384 2.941 5.53561 2.74504 5.27128 2.60376C5.01152 2.46248 4.67428 2.39185 4.25956 2.39185C3.91777 2.39185 3.61243 2.46248 3.34355 2.60376C3.07922 2.74048 2.85592 2.94328 2.67363 3.21216C2.49133 3.48104 2.35234 3.81372 2.25663 4.21021C2.16093 4.60669 2.11308 5.06698 2.11308 5.59106V6.22681C2.11308 6.74634 2.16321 7.20662 2.26347 7.60767C2.36373 8.00415 2.51184 8.33911 2.70781 8.61255C2.90833 8.88143 3.15442 9.08423 3.44609 9.22095C3.73775 9.35767 4.07727 9.42603 4.46464 9.42603C4.78821 9.42603 5.05709 9.39868 5.27128 9.34399C5.49003 9.28931 5.66549 9.22323 5.79765 9.14575C5.93437 9.06372 6.03919 8.98625 6.1121 8.91333V7.14966H4.23906V5.68677H8.16288ZM17.993 5.67993V6.15161C17.993 6.90812 17.8904 7.58716 17.6853 8.18872C17.4803 8.79028 17.1909 9.30298 16.8172 9.72681C16.4435 10.1461 15.9969 10.4674 15.4773 10.6907C14.9624 10.914 14.3904 11.0256 13.7615 11.0256C13.1372 11.0256 12.5652 10.914 12.0457 10.6907C11.5307 10.4674 11.0841 10.1461 10.7059 9.72681C10.3276 9.30298 10.0337 8.79028 9.82402 8.18872C9.61894 7.58716 9.5164 6.90812 9.5164 6.15161V5.67993C9.5164 4.91886 9.61894 4.23983 9.82402 3.64282C10.0291 3.04126 10.3185 2.52856 10.6922 2.10474C11.0704 1.68091 11.5171 1.35734 12.032 1.13403C12.5516 0.910726 13.1235 0.799072 13.7478 0.799072C14.3768 0.799072 14.9487 0.910726 15.4637 1.13403C15.9832 1.35734 16.4298 1.68091 16.8035 2.10474C17.1818 2.52856 17.4734 3.04126 17.6785 3.64282C17.8881 4.23983 17.993 4.91886 17.993 5.67993ZM15.9217 6.15161V5.66626C15.9217 5.13761 15.8738 4.67277 15.7781 4.27173C15.6824 3.87069 15.5411 3.53345 15.3543 3.26001C15.1674 2.98657 14.9396 2.78149 14.6707 2.64478C14.4018 2.5035 14.0942 2.43286 13.7478 2.43286C13.4015 2.43286 13.0939 2.5035 12.825 2.64478C12.5607 2.78149 12.3351 2.98657 12.1482 3.26001C11.9659 3.53345 11.8269 3.87069 11.7312 4.27173C11.6355 4.67277 11.5877 5.13761 11.5877 5.66626V6.15161C11.5877 6.6757 11.6355 7.14054 11.7312 7.54614C11.8269 7.94718 11.9682 8.2867 12.1551 8.5647C12.3419 8.83813 12.5698 9.04549 12.8387 9.18677C13.1075 9.32804 13.4152 9.39868 13.7615 9.39868C14.1079 9.39868 14.4155 9.32804 14.6844 9.18677C14.9532 9.04549 15.1788 8.83813 15.3611 8.5647C15.5434 8.2867 15.6824 7.94718 15.7781 7.54614C15.8738 7.14054 15.9217 6.6757 15.9217 6.15161ZM23.366 2.63794L20.659 10.8889H18.4783L22.1766 0.935791H23.5643L23.366 2.63794ZM25.615 10.8889L22.9012 2.63794L22.6824 0.935791H24.0838L27.8025 10.8889H25.615ZM25.492 7.18384V8.79028H20.2351V7.18384H25.492Z" fill="white"/>
</svg>
