<svg width="54" height="11" viewBox="0 0 54 11" fill="none" xmlns="http://www.w3.org/2000/svg">
<path d="M4.2986 7.22998H1.76246V5.63037H4.2986C4.69052 5.63037 5.00953 5.56657 5.25563 5.43896C5.50172 5.3068 5.68173 5.12451 5.79567 4.89209C5.9096 4.65967 5.96656 4.39762 5.96656 4.10596C5.96656 3.80973 5.9096 3.53402 5.79567 3.27881C5.68173 3.0236 5.50172 2.81852 5.25563 2.66357C5.00953 2.50863 4.69052 2.43115 4.2986 2.43115H2.4734V10.7778H0.422619V0.824707H4.2986C5.07789 0.824707 5.74554 0.965983 6.30153 1.24854C6.86207 1.52653 7.29046 1.91162 7.58668 2.40381C7.88291 2.896 8.03102 3.45882 8.03102 4.09229C8.03102 4.73486 7.88291 5.29085 7.58668 5.76025C7.29046 6.22965 6.86207 6.59196 6.30153 6.84717C5.74554 7.10238 5.07789 7.22998 4.2986 7.22998ZM14.9422 0.824707H16.9861V7.40088C16.9861 8.1665 16.822 8.81136 16.4939 9.33545C16.1703 9.85954 15.7214 10.2537 15.1472 10.5181C14.5776 10.7824 13.9213 10.9146 13.1785 10.9146C12.4356 10.9146 11.7748 10.7824 11.1961 10.5181C10.6218 10.2537 10.1707 9.85954 9.84254 9.33545C9.51897 8.81136 9.35719 8.1665 9.35719 7.40088V0.824707H11.408V7.40088C11.408 7.84749 11.4786 8.21208 11.6199 8.49463C11.7612 8.77718 11.964 8.98454 12.2283 9.1167C12.4972 9.24886 12.8139 9.31494 13.1785 9.31494C13.5522 9.31494 13.8689 9.24886 14.1287 9.1167C14.393 8.98454 14.5935 8.77718 14.7302 8.49463C14.8715 8.21208 14.9422 7.84749 14.9422 7.40088V0.824707ZM26.7752 0.824707V10.7778H24.7244L20.7254 4.10596V10.7778H18.6746V0.824707H20.7254L24.7312 7.50342V0.824707H26.7752ZM32.5857 7.72217V0.824707H34.6297V7.72217C34.6297 8.38753 34.4838 8.95947 34.1922 9.43799C33.9005 9.91195 33.5017 10.2765 32.9959 10.5317C32.4946 10.7869 31.9295 10.9146 31.3005 10.9146C30.6489 10.9146 30.0724 10.8052 29.5711 10.5864C29.0698 10.3677 28.6755 10.0327 28.3884 9.58154C28.1013 9.12581 27.9578 8.54932 27.9578 7.85205H30.0154C30.0154 8.21663 30.0655 8.50602 30.1658 8.72021C30.2706 8.93441 30.4187 9.08708 30.6101 9.17822C30.8015 9.26937 31.0317 9.31494 31.3005 9.31494C31.5603 9.31494 31.7859 9.25342 31.9773 9.13037C32.1687 9.00732 32.3168 8.82731 32.4216 8.59033C32.531 8.35335 32.5857 8.06396 32.5857 7.72217ZM40.2761 2.52686L37.5691 10.7778H35.3884L39.0867 0.824707H40.4744L40.2761 2.52686ZM42.5252 10.7778L39.8113 2.52686L39.5925 0.824707H40.9939L44.7127 10.7778H42.5252ZM42.4021 7.07275V8.6792H37.1453V7.07275H42.4021ZM49.532 6.40967H46.9754L46.9617 5.00146H49.1082C49.4864 5.00146 49.7963 4.95361 50.0379 4.85791C50.2794 4.75765 50.4594 4.6141 50.5779 4.42725C50.7009 4.23584 50.7625 4.00342 50.7625 3.72998C50.7625 3.42008 50.7032 3.16943 50.5847 2.97803C50.4708 2.78662 50.2908 2.64762 50.0447 2.56104C49.8032 2.47445 49.491 2.43115 49.1082 2.43115H47.6863V10.7778H45.6355V0.824707H49.1082C49.6869 0.824707 50.2042 0.879395 50.6599 0.98877C51.1202 1.09814 51.5099 1.26449 51.8289 1.48779C52.1479 1.7111 52.3917 1.99365 52.5603 2.33545C52.7289 2.67269 52.8132 3.07373 52.8132 3.53857C52.8132 3.94873 52.7198 4.32699 52.533 4.67334C52.3507 5.01969 52.0613 5.30225 51.6648 5.521C51.2729 5.73975 50.7602 5.86051 50.1267 5.8833L49.532 6.40967ZM49.4431 10.7778H46.4148L47.2146 9.17822H49.4431C49.8032 9.17822 50.0971 9.12126 50.325 9.00732C50.5528 8.88883 50.7215 8.72933 50.8308 8.52881C50.9402 8.32829 50.9949 8.09814 50.9949 7.83838C50.9949 7.54671 50.9448 7.29378 50.8445 7.07959C50.7488 6.8654 50.5938 6.70133 50.3797 6.5874C50.1655 6.46891 49.8829 6.40967 49.532 6.40967H47.5564L47.5701 5.00146H50.031L50.5027 5.55518C51.1088 5.54606 51.5965 5.65316 51.9656 5.87646C52.3393 6.09521 52.6104 6.38005 52.7791 6.73096C52.9522 7.08187 53.0388 7.45785 53.0388 7.85889C53.0388 8.49691 52.8998 9.03467 52.6218 9.47217C52.3438 9.90511 51.936 10.231 51.3982 10.4497C50.865 10.6685 50.2133 10.7778 49.4431 10.7778Z" fill="white"/>
</svg>
