<svg width="18" height="18" viewBox="0 0 18 18" fill="none" xmlns="http://www.w3.org/2000/svg">
<path fill-rule="evenodd" clip-rule="evenodd" d="M9 18C4.032 18 0 13.977 0 9C0 4.032 4.032 0 9 0C13.977 0 18 4.032 18 9C18 13.977 13.977 18 9 18ZM11.871 12.3391C11.979 12.4021 12.096 12.4381 12.222 12.4381C12.447 12.4381 12.672 12.3211 12.798 12.1051C12.987 11.7901 12.888 11.3761 12.564 11.1781L9.36002 9.27009V5.11209C9.36002 4.73409 9.05402 4.43709 8.68502 4.43709C8.31602 4.43709 8.01002 4.73409 8.01002 5.11209V9.65709C8.01002 9.89109 8.13602 10.1071 8.34302 10.2331L11.871 12.3391Z" fill="#7F3DFF"/>
</svg>
