<svg width="24" height="24" viewBox="0 0 24 24" fill="none" xmlns="http://www.w3.org/2000/svg">
<g clip-path="url(#clip0_1037_12115)">
<path d="M9 10H16" stroke="#777777" stroke-linecap="round" stroke-linejoin="round"/>
<path d="M9 13H16" stroke="#777777" stroke-linecap="round" stroke-linejoin="round"/>
<path d="M9 16H16" stroke="#777777" stroke-linecap="round" stroke-linejoin="round"/>
<path d="M4 21C4.31826 21 4.62348 20.842 4.84853 20.5607C5.07357 20.2794 5.2 19.8978 5.2 19.5V6.75C5.2 6.55109 5.26321 6.36032 5.37574 6.21967C5.48826 6.07902 5.64087 6 5.8 6H18.4C18.5591 6 18.7117 6.07902 18.8243 6.21967C18.9368 6.36032 19 6.55109 19 6.75V19.5C19 19.8978 18.8736 20.2794 18.6485 20.5607C18.4235 20.842 18.1183 21 17.8 21H4Z" stroke="#777777" stroke-linecap="round" stroke-linejoin="round"/>
<path d="M4 21C3.73478 21 3.48043 20.842 3.29289 20.5607C3.10536 20.2794 3 19.8978 3 19.5V9" stroke="#777777" stroke-linecap="round" stroke-linejoin="round"/>
</g>
<defs>
<clipPath id="clip0_1037_12115">
<rect width="24" height="24" fill="white"/>
</clipPath>
</defs>
</svg>
