<svg width="146" height="124" viewBox="0 0 146 124" fill="none" xmlns="http://www.w3.org/2000/svg">
<g filter="url(#filter0_dd_545_3883)">
<rect x="7" y="1" width="131.556" height="110" rx="16" fill="url(#paint0_linear_545_3883)"/>
</g>
<g filter="url(#filter1_d_545_3883)">
<path d="M120.036 60.4299C120.017 60.3838 119.986 60.3434 119.947 60.3124C119.817 60.2348 119.663 60.2077 119.514 60.2361L119.365 51.3957L120.056 50.8948V50.1445C120.056 50.0323 120.019 49.9233 119.951 49.8337C119.884 49.7442 119.789 49.6789 119.681 49.6478L119.246 49.522L118.906 41.4587L119.306 41.2051L119.32 41.168C119.446 40.8166 119.512 40.4467 119.516 40.0735C119.479 39.684 118.928 39.4902 118.706 39.4263L118.254 30.8394C118.477 30.7034 118.582 30.3262 118.621 30.1613C118.776 30.0895 118.907 29.9757 119.001 29.8329C119.094 29.69 119.145 29.5239 119.149 29.3533C119.17 28.7514 118.613 28.4299 118.25 28.3227V26.614C118.47 26.581 118.939 26.4738 119.017 26.1522C119.038 26.0694 119.041 25.9833 119.028 25.899C119.014 25.8147 118.984 25.734 118.939 25.6617C118.778 25.4448 118.549 25.288 118.289 25.2165V24.7713L117.976 24.695C117.96 24.3858 117.849 24.0889 117.658 23.8451C117.467 23.6012 117.206 23.4222 116.909 23.3325C116.62 23.2033 116.378 22.9872 116.216 22.7142V21.5187H115.985V22.7121C115.814 22.9976 115.575 23.2362 115.288 23.4067C114.513 23.6293 114.228 24.5919 114.16 24.8743L113.954 24.9155L113.915 25.4762C113.707 25.4963 113.514 25.5925 113.373 25.7462C113.301 25.8235 113.247 25.9151 113.213 26.0149C113.179 26.1147 113.167 26.2205 113.177 26.3254C113.216 26.7005 113.688 26.8098 113.907 26.8407V28.7308C113.738 28.8112 113.371 29.0606 113.342 29.7511C113.316 29.9381 113.356 30.1281 113.454 30.2894C113.552 30.4507 113.702 30.5735 113.88 30.6374L114.136 30.9569L113.762 39.6984L113.453 39.7994C113.131 39.8942 113.154 40.3126 113.162 40.4487L113.222 41.4298L113.75 41.6957L113.449 49.7488L113.162 49.8271C113.079 49.8486 113.005 49.8987 112.955 49.9688C112.904 50.0388 112.88 50.1244 112.886 50.2105L112.952 51.2184L113.445 51.4472L113.259 60.2567H102.061V57.5648L102.381 57.3896V56.5548L101.944 56.5239L101.834 51.577L102.092 51.2617V50.53L101.68 50.4145L101.511 44.9874L101.898 44.7813V43.8929L101.451 43.6621V42.6047C101.657 42.5243 101.903 42.3986 101.9 42.1924C101.898 41.9863 101.608 41.8523 101.447 41.7967C101.428 41.5498 101.346 41.3119 101.208 41.1063C101.07 40.9007 100.881 40.7345 100.659 40.6239C100.493 40.5402 100.358 40.4069 100.271 40.2426V39.5211H100.038V40.2487C100.003 40.39 99.9174 40.5133 99.797 40.595C98.9721 40.7846 98.8298 41.6256 98.8071 41.908C98.438 42.0296 98.4091 42.2584 98.4277 42.3883C98.4607 42.6088 98.7515 42.6665 98.9268 42.6809V43.5982L98.5968 44.0104L98.6319 44.7854L98.9226 44.9153L98.6999 50.4496L98.3947 50.6042L98.3473 51.4575L98.6937 51.7275L98.4875 56.5857L98.1967 56.6455V57.5442H98.4834V60.2505H96.7552V45.3481C96.8059 45.3092 96.8479 45.2601 96.8784 45.204C96.9089 45.148 96.9274 45.0861 96.9326 45.0225C96.9357 44.8508 96.8722 44.6845 96.7552 44.5587V40.5435C96.7556 40.4343 96.7192 40.3282 96.6518 40.2422C96.5845 40.1562 96.4902 40.0953 96.384 40.0694V39.2449H96.1634V40.0694C96.0572 40.0956 95.9628 40.1564 95.8952 40.2423C95.8276 40.3282 95.7906 40.4342 95.7901 40.5435V43.1633H95.3777V38.3566C95.3775 38.2319 95.3349 38.111 95.257 38.0136C95.1791 37.9162 95.0704 37.8482 94.9487 37.8207V37.0333H94.7157V37.831C94.5937 37.8581 94.4845 37.926 94.4062 38.0234C94.3278 38.1208 94.285 38.2419 94.2847 38.3669V41.1289H93.633L92.9607 41.8008V41.3288C92.9602 41.227 92.9259 41.1283 92.8632 41.0481C92.8005 40.9679 92.713 40.9107 92.6143 40.8856V40.2941H92.3854V40.8856C92.2864 40.9101 92.1984 40.9671 92.1356 41.0474C92.0728 41.1277 92.0387 41.2268 92.0389 41.3288V42.5428L91.5193 42.3367V39.4201C91.5191 39.3035 91.4794 39.1904 91.4068 39.0991C91.3342 39.0078 91.2328 38.9437 91.1192 38.9172V38.1257H90.8862V38.9172C90.7901 38.9394 90.7023 38.9884 90.633 39.0584C90.5636 39.1285 90.5156 39.2167 90.4943 39.313L89.7354 38.9976V38.3318L89.3436 37.9979C89.5498 36.72 88.0011 35.745 87.7495 35.5966C87.6033 35.3582 87.3874 35.1704 87.1309 35.0587C86.7606 34.8457 86.4148 34.5927 86.0997 34.3043V32.8614H85.8688V34.3269C85.7863 34.5001 85.4563 34.6876 85.2501 34.766C84.617 35.0112 84.4067 35.2607 84.3448 35.3637C83.8615 35.6467 83.4406 36.0247 83.1075 36.4747V36.3304C85.2625 29.2337 78.3128 24.9176 77.4343 24.4044C77.4736 24.2857 77.4654 24.1565 77.4116 24.0436C77.2425 23.7118 76.7084 23.6067 76.663 23.5984C74.6008 22.8873 73.4212 20.8838 73.0356 20.1109C73.1936 20.0545 73.3279 19.9465 73.417 19.8044C73.5061 19.6623 73.5447 19.4944 73.5266 19.3277C73.5085 19.161 73.4347 19.0052 73.3172 18.8856C73.1997 18.7659 73.0453 18.6893 72.8788 18.6681V18.3568C73.055 18.3293 73.2155 18.2399 73.3316 18.1046C73.4477 17.9694 73.5116 17.7971 73.5119 17.6189C73.5119 17.2706 73.0335 16.8357 72.8788 16.7037V16.3946C73.0049 16.3677 73.118 16.2984 73.1991 16.1982C73.2802 16.098 73.3244 15.9731 73.3244 15.8442C73.3244 15.7154 73.2802 15.5904 73.1991 15.4902C73.118 15.3901 73.0049 15.3208 72.8788 15.2939V14.3334H72.6479V15.3021C72.5218 15.329 72.4087 15.3983 72.3276 15.4985C72.2465 15.5987 72.2023 15.7236 72.2023 15.8525C72.2023 15.9813 72.2465 16.1063 72.3276 16.2065C72.4087 16.3066 72.5218 16.3759 72.6479 16.4028V16.7202C72.4932 16.8522 72.0148 17.2871 72.0148 17.6354C72.0151 17.8136 72.079 17.9858 72.1951 18.1211C72.3112 18.2564 72.4717 18.3458 72.6479 18.3733V18.6845C72.4814 18.7058 72.327 18.7824 72.2095 18.902C72.092 19.0217 72.0182 19.1775 72.0001 19.3442C71.982 19.5109 72.0206 19.6788 72.1097 19.8209C72.1988 19.963 72.3331 20.071 72.4911 20.1274C72.1055 20.9003 70.9321 22.9038 68.8802 23.6108C68.8183 23.6232 68.2842 23.7283 68.1151 24.0601C68.0613 24.1729 68.0531 24.3022 68.0924 24.4208C67.2139 24.9341 60.256 29.2502 62.4192 36.3469V36.4912C62.0861 36.0411 61.6652 35.6632 61.1819 35.3802C61.12 35.2771 60.9097 35.0277 60.2787 34.7845C60.0724 34.7041 59.7404 34.5166 59.66 34.3455V32.8759H59.4311V34.3187C59.1153 34.6062 58.7696 34.8591 58.4 35.0731C58.1442 35.186 57.9286 35.3735 57.7813 35.6111C57.5318 35.7595 55.9748 36.7344 56.1893 38.0123L55.7974 38.3463V39.012L55.0385 39.3274C55.0173 39.2312 54.9692 39.1429 54.8999 39.0729C54.8306 39.0028 54.7428 38.9539 54.6467 38.9316V38.1401H54.424V38.9316C54.3098 38.9574 54.2078 39.0212 54.1347 39.1126C54.0616 39.204 54.0218 39.3176 54.0219 39.4346V42.3491L53.5022 42.5552V41.3412C53.5024 41.2392 53.4684 41.1401 53.4056 41.0598C53.3427 40.9794 53.2548 40.9225 53.1557 40.898V40.3065H52.9268V40.898C52.828 40.9228 52.7402 40.9798 52.6774 41.0601C52.6147 41.1404 52.5805 41.2393 52.5804 41.3412V41.8132L51.9143 41.1289H51.2626V38.3669C51.263 38.242 51.2204 38.1207 51.1419 38.0235C51.0634 37.9263 50.9538 37.859 50.8316 37.833V37.0436H50.6006V37.831C50.4786 37.8581 50.3694 37.926 50.2911 38.0234C50.2128 38.1208 50.1699 38.2419 50.1696 38.3669V43.1736H49.7572V40.5435C49.7563 40.4343 49.7192 40.3285 49.6517 40.2427C49.5841 40.1569 49.4899 40.0959 49.3839 40.0694V39.2449H49.153V40.0694C49.0466 40.0953 48.952 40.156 48.8844 40.242C48.8167 40.3279 48.7798 40.4341 48.7797 40.5435V44.5587C48.6628 44.6845 48.5992 44.8508 48.6024 45.0225C48.6075 45.0861 48.626 45.148 48.6565 45.204C48.6871 45.2601 48.729 45.3092 48.7797 45.3481V60.2588H47.0516V57.5524H47.3382V56.6538L47.0454 56.594L46.8392 51.7358L47.1856 51.4657L47.1423 50.6124L46.833 50.4578L46.6102 44.9235L46.901 44.7937L46.9361 44.0187L46.6061 43.6064V42.6954C46.7814 42.6809 47.0742 42.6232 47.1052 42.4006C47.1237 42.2708 47.1052 42.042 46.7278 41.9224C46.703 41.6462 46.5608 40.7991 45.74 40.6094C45.6184 40.528 45.5311 40.4048 45.4946 40.2632V39.5356H45.2636V40.257C45.1757 40.4209 45.0397 40.5539 44.8739 40.6383C44.6521 40.7485 44.463 40.9147 44.3252 41.1204C44.1874 41.3261 44.1057 41.5642 44.0881 41.8111C43.9252 41.8668 43.6406 41.9966 43.6345 42.2069C43.6283 42.4171 43.8716 42.5305 44.082 42.6191V43.6765L43.6345 43.9074V44.7957L44.0222 45.0018L43.8551 50.431L43.4427 50.5465V51.2782L43.7005 51.5935L43.5891 56.5404L43.156 56.5672V57.4061L43.4736 57.5813V60.2753H32.2943L32.1066 51.4657L32.5995 51.2287L32.6655 50.2208C32.6721 50.1349 32.6482 50.0494 32.5981 49.9793C32.5479 49.9092 32.4747 49.8589 32.3912 49.8374L32.1025 49.7591L31.8014 41.6978L32.3294 41.4319L32.3892 40.4507C32.4139 40.0838 32.317 39.8654 32.1046 39.8035L31.7891 39.7005L31.4158 30.9589L31.6736 30.6395C31.8512 30.5752 32.0014 30.4518 32.099 30.2901C32.1966 30.1284 32.2357 29.9381 32.2097 29.7511C32.1809 29.0626 31.8138 28.8132 31.6447 28.7329V26.8427C31.8633 26.8118 32.3355 26.7026 32.3747 26.3274C32.3852 26.2232 32.3736 26.1179 32.3405 26.0184C32.3075 25.9189 32.2538 25.8276 32.1829 25.7503C32.0402 25.5959 31.8458 25.4991 31.6365 25.4782L31.5993 24.9176L31.3931 24.8764C31.3271 24.594 31.0425 23.6397 30.2692 23.4088C29.9834 23.2387 29.744 23.0009 29.5722 22.7162V21.5207H29.3391V22.7142C29.1785 22.9876 28.9362 23.2039 28.6462 23.3325C28.3498 23.422 28.0884 23.601 27.8978 23.845C27.7073 24.0889 27.597 24.3859 27.5821 24.695L27.2666 24.7713V25.2165C27.0052 25.2902 26.7763 25.45 26.617 25.6699C26.5711 25.742 26.5406 25.8228 26.5274 25.9072C26.5143 25.9917 26.5188 26.0779 26.5407 26.1605C26.617 26.482 27.0851 26.5892 27.3058 26.6222V28.3309C26.9428 28.4402 26.386 28.7638 26.4067 29.3615C26.4104 29.532 26.4618 29.6981 26.5551 29.8409C26.6484 29.9837 26.7799 30.0975 26.9346 30.1695C26.9738 30.3344 27.0789 30.7116 27.3017 30.8476L26.85 39.4346C26.6273 39.4985 26.0788 39.6922 26.0396 40.0797C26.0433 40.4536 26.1095 40.8242 26.2355 41.1763L26.2499 41.2134L26.6521 41.4669L26.3118 49.5303L25.8767 49.654C25.7687 49.6853 25.6739 49.7509 25.6065 49.8409C25.5392 49.9309 25.503 50.0404 25.5034 50.1528V50.903L26.1922 51.4039L26.0416 60.2444C25.8935 60.2148 25.7396 60.2421 25.6106 60.3206C25.5721 60.3521 25.5417 60.3924 25.522 60.4381H21.2222V71.2223H124.333V60.4299H120.036ZM28.937 28.1784H28.1884V26.7479C28.1954 26.6535 28.2379 26.5652 28.3073 26.5008C28.3768 26.4364 28.468 26.4006 28.5627 26.4006C28.6574 26.4006 28.7487 26.4364 28.8181 26.5008C28.8875 26.5652 28.93 26.6535 28.937 26.7479V28.1784ZM30.7229 28.1784H29.9722V26.7479C29.9722 26.6484 30.0118 26.553 30.0822 26.4827C30.1526 26.4123 30.248 26.3728 30.3476 26.3728C30.4471 26.3728 30.5426 26.4123 30.613 26.4827C30.6833 26.553 30.7229 26.6484 30.7229 26.7479V28.1784ZM45.0904 43.6229H44.8615V42.8768C44.8615 42.846 44.8736 42.8164 44.8952 42.7944C44.9168 42.7724 44.9461 42.7598 44.977 42.7593C44.9922 42.7593 45.0073 42.7623 45.0213 42.7683C45.0354 42.7742 45.0481 42.7829 45.0587 42.7939C45.0692 42.8049 45.0775 42.8179 45.083 42.8321C45.0884 42.8463 45.0909 42.8615 45.0904 42.8768V43.6229ZM45.9153 43.6229H45.6843V42.8768C45.684 42.8614 45.6868 42.8462 45.6925 42.832C45.6982 42.8177 45.7066 42.8047 45.7174 42.7938C45.7281 42.7829 45.741 42.7742 45.7551 42.7682C45.7693 42.7623 45.7845 42.7593 45.7998 42.7593C45.8306 42.7598 45.86 42.7724 45.8816 42.7944C45.9032 42.8164 45.9153 42.846 45.9153 42.8768V43.6229ZM53.0464 60.3557H50.3243L50.3408 56.2621C50.3369 56.0232 50.3812 55.786 50.4712 55.5646C50.5612 55.3432 50.695 55.1423 50.8646 54.9739C51.0823 54.7323 51.3808 54.5784 51.7039 54.541V54.541C52.6773 54.541 53.0423 55.6026 53.0423 56.2683L53.0464 60.3557ZM53.0464 52.3995H50.3243L50.3408 48.3101C50.3367 48.0711 50.381 47.8338 50.471 47.6125C50.5611 47.3911 50.6949 47.1902 50.8646 47.0218C51.0833 46.7792 51.3834 46.6252 51.7081 46.589C52.6814 46.589 53.0464 47.6505 53.0464 48.3162V52.3995ZM55.8676 42.2996H55.0633V39.8365L55.4757 40.4013H55.8882L55.8676 42.2996ZM58.5155 41.269C58.516 41.0381 58.6081 40.8169 58.7717 40.6538C58.9352 40.4908 59.1568 40.3992 59.3878 40.3992C59.6193 40.3991 59.8416 40.4902 60.0064 40.6527C60.0877 40.7338 60.152 40.8302 60.1955 40.9364C60.2391 41.0426 60.261 41.1563 60.2601 41.2711V42.4274H58.5175L58.5155 41.269ZM56.6925 41.1289C56.6924 41.0008 56.7432 40.8779 56.8337 40.7871C56.9241 40.6963 57.0468 40.645 57.175 40.6445C57.2382 40.6441 57.3008 40.6563 57.3592 40.6804C57.4176 40.7045 57.4707 40.7399 57.5153 40.7846C57.5606 40.8297 57.5966 40.8834 57.621 40.9425C57.6454 41.0016 57.6579 41.0649 57.6576 41.1289V42.4274H56.6925V41.1289ZM60.9963 60.3721H56.3584V56.5198C56.3584 55.077 58.4392 54.5761 58.6784 54.5245C58.9155 54.5761 60.9942 55.0728 60.9942 56.5198L60.9963 60.3721ZM60.9963 52.3335H56.3584V48.0421C56.3584 46.5993 58.4392 46.0963 58.6784 46.0427C58.9155 46.0963 60.9942 46.5951 60.9942 48.0421L60.9963 52.3335ZM62.1635 42.4398H61.1984V41.1289C61.1981 41.0652 61.2105 41.0021 61.2347 40.9432C61.259 40.8843 61.2947 40.8308 61.3397 40.7858C61.3848 40.7407 61.4383 40.7051 61.4973 40.6808C61.5562 40.6566 61.6193 40.6442 61.683 40.6445C61.8099 40.6445 61.9315 40.695 62.0212 40.7846C62.0664 40.8299 62.1022 40.8835 62.1266 40.9426C62.1511 41.0017 62.1636 41.065 62.1635 41.1289V42.4398ZM78.5169 60.3845H67.0407V50.9917C67.0407 45.4265 72.4025 44.703 72.7778 44.6597C73.149 44.703 78.5149 45.4265 78.5149 50.9917L78.5169 60.3845ZM84.3613 42.4398H83.3962V41.1289C83.3965 40.9999 83.4476 40.8762 83.5385 40.7846C83.6281 40.695 83.7498 40.6445 83.8767 40.6445C83.9404 40.6442 84.0035 40.6566 84.0624 40.6808C84.1214 40.7051 84.1749 40.7407 84.22 40.7858C84.265 40.8308 84.3007 40.8843 84.325 40.9432C84.3492 41.0021 84.3616 41.0652 84.3613 41.1289V42.4398ZM87.9021 41.1412C87.9021 41.0133 87.953 40.8906 88.0435 40.8002C88.134 40.7097 88.2567 40.6589 88.3847 40.6589C88.5127 40.6589 88.6354 40.7097 88.7259 40.8002C88.8164 40.8906 88.8672 41.0133 88.8672 41.1412V42.4398H87.9021V41.1412ZM85.2975 41.2835C85.2981 41.0529 85.3899 40.832 85.553 40.669C85.7161 40.506 85.9372 40.4142 86.1678 40.4136C86.3988 40.4136 86.6204 40.5052 86.7839 40.6683C86.9474 40.8313 87.0396 41.0526 87.0401 41.2835V42.4398H85.2955L85.2975 41.2835ZM89.1993 60.3845H84.5613V56.5198C84.5613 55.077 86.64 54.5761 86.8793 54.5245C87.1164 54.5761 89.1972 55.0749 89.1972 56.5198L89.1993 60.3845ZM89.1993 52.3459H84.5613V48.0421C84.5613 46.5993 86.64 46.0963 86.8793 46.0427C87.1164 46.0963 89.1972 46.5931 89.1972 48.0421L89.1993 52.3459ZM90.4943 42.3182H89.688V40.4198H90.1005L90.5026 39.8551L90.4943 42.3182ZM92.5091 60.3742V56.2683C92.5091 55.6026 92.8741 54.5452 93.8496 54.541C94.1764 54.5736 94.4786 54.7291 94.6951 54.9759C94.8644 55.1444 94.9978 55.3454 95.0871 55.5668C95.1764 55.7882 95.2198 56.0255 95.2148 56.2642L95.2313 60.3557L92.5091 60.3742ZM92.5091 52.4201V48.3162C92.5091 47.6505 92.8741 46.5931 93.8496 46.589C94.1726 46.6267 94.4709 46.7805 94.6889 47.0218C94.8581 47.1908 94.9913 47.3921 95.0806 47.6139C95.17 47.8356 95.2135 48.0731 95.2086 48.3121L95.2251 52.4015L92.5091 52.4201ZM99.8713 43.6415H99.6403V42.8953C99.64 42.88 99.6428 42.8647 99.6485 42.8505C99.6542 42.8363 99.6626 42.8233 99.6734 42.8124C99.6841 42.8014 99.697 42.7927 99.7111 42.7868C99.7252 42.7809 99.7404 42.7778 99.7558 42.7778C99.7866 42.7784 99.816 42.791 99.8376 42.813C99.8592 42.8349 99.8713 42.8645 99.8713 42.8953V43.6415ZM100.696 43.6415H100.467V42.8953C100.465 42.879 100.466 42.8624 100.471 42.8466C100.476 42.8309 100.484 42.8163 100.495 42.8039C100.506 42.7915 100.519 42.7816 100.534 42.7748C100.549 42.768 100.565 42.7645 100.582 42.7645C100.598 42.7645 100.614 42.768 100.629 42.7748C100.644 42.7816 100.658 42.7915 100.669 42.8039C100.679 42.8163 100.688 42.8309 100.692 42.8466C100.697 42.8624 100.698 42.879 100.696 42.8953V43.6415ZM115.585 28.197H114.835V26.7665C114.835 26.667 114.874 26.5716 114.945 26.5012C115.015 26.4309 115.111 26.3913 115.21 26.3913C115.31 26.3913 115.405 26.4309 115.475 26.5012C115.546 26.5716 115.585 26.667 115.585 26.7665V28.197ZM117.369 28.197H116.621V26.7665C116.628 26.6721 116.67 26.5838 116.74 26.5194C116.809 26.4549 116.9 26.4191 116.995 26.4191C117.09 26.4191 117.181 26.4549 117.25 26.5194C117.32 26.5838 117.362 26.6721 117.369 26.7665V28.197Z" fill="white"/>
</g>
<defs>
<filter id="filter0_dd_545_3883" x="0" y="0" width="145.556" height="124" filterUnits="userSpaceOnUse" color-interpolation-filters="sRGB">
<feFlood flood-opacity="0" result="BackgroundImageFix"/>
<feColorMatrix in="SourceAlpha" type="matrix" values="0 0 0 0 0 0 0 0 0 0 0 0 0 0 0 0 0 0 127 0" result="hardAlpha"/>
<feMorphology radius="1" operator="dilate" in="SourceAlpha" result="effect1_dropShadow_545_3883"/>
<feOffset dy="6"/>
<feGaussianBlur stdDeviation="3"/>
<feComposite in2="hardAlpha" operator="out"/>
<feColorMatrix type="matrix" values="0 0 0 0 0.262745 0 0 0 0 0.188235 0 0 0 0 0.454902 0 0 0 0.51 0"/>
<feBlend mode="normal" in2="BackgroundImageFix" result="effect1_dropShadow_545_3883"/>
<feColorMatrix in="SourceAlpha" type="matrix" values="0 0 0 0 0 0 0 0 0 0 0 0 0 0 0 0 0 0 127 0" result="hardAlpha"/>
<feOffset dy="3"/>
<feComposite in2="hardAlpha" operator="out"/>
<feColorMatrix type="matrix" values="0 0 0 0 0.17875 0 0 0 0 0.65 0 0 0 0 0.642579 0 0 0 1 0"/>
<feBlend mode="normal" in2="effect1_dropShadow_545_3883" result="effect2_dropShadow_545_3883"/>
<feBlend mode="normal" in="SourceGraphic" in2="effect2_dropShadow_545_3883" result="shape"/>
</filter>
<filter id="filter1_d_545_3883" x="21.2222" y="14.3334" width="103.111" height="58.8889" filterUnits="userSpaceOnUse" color-interpolation-filters="sRGB">
<feFlood flood-opacity="0" result="BackgroundImageFix"/>
<feColorMatrix in="SourceAlpha" type="matrix" values="0 0 0 0 0 0 0 0 0 0 0 0 0 0 0 0 0 0 127 0" result="hardAlpha"/>
<feOffset dy="2"/>
<feComposite in2="hardAlpha" operator="out"/>
<feColorMatrix type="matrix" values="0 0 0 0 0.22592 0 0 0 0 0.593093 0 0 0 0 0.595833 0 0 0 1 0"/>
<feBlend mode="normal" in2="BackgroundImageFix" result="effect1_dropShadow_545_3883"/>
<feBlend mode="normal" in="SourceGraphic" in2="effect1_dropShadow_545_3883" result="shape"/>
</filter>
<linearGradient id="paint0_linear_545_3883" x1="72.7778" y1="1" x2="72.7778" y2="111" gradientUnits="userSpaceOnUse">
<stop stop-color="#43C2C8"/>
<stop offset="1" stop-color="#3CC4C4"/>
</linearGradient>
</defs>
</svg>
