<svg width="41" height="22" viewBox="0 0 41 22" fill="none" xmlns="http://www.w3.org/2000/svg">
<path d="M1.24464 8.96092H8.44064V10.8369C8.44064 11.2569 8.24464 11.4809 7.76864 11.4809H6.20064C3.73664 11.4809 2.14064 12.4889 2.14064 14.6729C2.14064 17.3329 4.49264 20.7209 7.65664 20.7209C9.50464 20.7209 10.7926 19.5449 10.7926 16.6329L10.7646 8.96092H13.5366L13.4806 20.5809L15.6926 21.2249L15.8886 21.0849L15.8326 8.96092H18.1846L18.3806 8.70892L17.4286 6.83292H0.488642L0.292642 7.08492L1.24464 8.96092ZM6.76064 18.7049C5.16464 18.7049 4.71664 16.6329 4.71664 15.7369C4.71664 14.3649 5.47264 13.5809 7.65664 13.5809H8.44064V16.0169C8.44064 17.8929 7.79664 18.7049 6.76064 18.7049ZM15.3072 7.11292L15.4192 6.97292C14.2992 2.71691 12.7312 1.26092 11.1352 1.26092C10.3792 1.26092 9.5952 1.76492 8.9232 1.76492C8.2512 1.76492 7.6352 1.48492 6.8232 0.588915L6.0952 1.12092C7.1872 2.71691 8.3632 4.34092 9.9312 4.34092C10.6032 4.34092 11.6112 3.89291 12.1712 3.89291C12.7872 3.89291 13.5152 4.73292 13.9912 7.11292H15.3072ZM30.159 20.5809L32.371 21.2249L32.567 21.0849L32.511 8.96092H36.067L36.011 14.0289L38.223 14.6729L38.419 14.5329L38.363 8.96092H40.771L40.939 8.70892L39.987 6.83292H30.411L30.215 7.08492L30.187 11.8729C29.487 12.0689 28.759 12.4049 28.003 12.7689C28.087 12.3209 28.143 11.8729 28.143 11.3689C28.143 9.88492 27.779 8.54092 26.743 7.84092C25.819 8.09292 24.363 8.84892 22.963 9.77292C22.655 8.09292 21.255 6.83292 18.903 6.83292H17.279L17.083 7.08492L18.035 8.96092H19.463C20.611 8.96092 21.031 9.49292 21.031 10.2209C21.031 10.5849 20.919 11.0049 20.779 11.3969C19.435 12.5169 18.427 13.6089 18.427 14.2809C18.427 15.0649 19.687 15.8769 20.247 15.8769C20.919 15.8769 21.871 14.5889 22.459 13.0489C23.887 11.7049 25.399 10.7529 26.435 10.3049C26.379 11.9569 25.679 13.4409 24.811 14.7569C23.495 15.7649 22.571 16.8009 22.571 17.4449C22.571 18.2009 23.859 19.0129 24.419 19.0129C25.091 19.0129 25.959 17.7529 26.715 16.2689C27.807 15.4569 28.983 14.8129 30.187 14.4209L30.159 20.5809Z" fill="white"/>
</svg>
