<svg width="51" height="24" viewBox="0 0 51 24" fill="none" xmlns="http://www.w3.org/2000/svg">
<path d="M1.34499 9.99783H2.63499C3.62499 9.99783 4.10499 10.2978 4.10499 11.3178C4.10499 12.7278 3.11499 14.1978 2.36499 15.3378L2.33499 15.6678C3.32499 18.2478 5.54499 20.3478 8.18499 20.3478C8.99499 20.3478 9.95499 20.1678 10.555 19.6878L10.525 22.4478L12.895 23.1378L13.105 22.9878L13.045 9.99783H15.565L15.775 9.72783L14.755 7.71783H10.795L10.615 7.98783L10.585 15.1878C10.585 17.0178 9.05499 18.0078 7.43499 18.0078C6.77499 18.0078 5.72499 17.7678 5.24499 17.2278C5.03499 17.0178 4.97499 16.8078 4.97499 16.5978C4.97499 16.3878 5.09499 16.1178 5.18499 15.9378C5.42499 15.4278 6.71499 13.5078 6.71499 12.0078C6.71499 11.1978 6.32499 10.2378 5.72499 9.45783C5.00499 8.49783 3.95499 7.71783 2.84499 7.71783H0.564993L0.354993 7.98783L1.34499 9.99783ZM13.7399 6.87783C14.9399 6.24783 15.4799 5.19783 15.4799 4.23783C15.4799 2.49783 13.8299 0.577832 11.6999 0.577832C9.92991 0.577832 8.63991 1.95783 8.63991 3.39783C8.63991 4.77783 9.53991 5.85783 10.6499 6.72783L11.4599 6.00783C10.9199 5.19783 10.7399 4.71783 10.7399 4.02783C10.7399 3.21783 11.3999 2.61783 12.2099 2.61783C12.8699 2.61783 13.4699 3.03783 13.4699 3.81783C13.4699 4.29783 13.2599 4.83783 12.6599 5.25783L13.7399 6.87783ZM15.3496 9.99783H24.9196V14.0178H20.8396C20.7496 12.9378 20.2696 12.0378 19.3696 12.0378C18.0496 12.0378 16.2796 13.9878 16.2796 15.2178C16.2796 15.9078 16.9396 16.4778 17.8996 16.4778H18.3796V17.3478C18.3796 18.9378 17.6896 20.1678 16.9696 21.1278L19.4296 22.7178H19.6696C20.4196 21.8778 20.6896 20.0778 20.6896 18.2178V16.4778H24.8896L24.8596 22.4478L27.2296 23.1378L27.4396 22.9878L27.3796 9.99783H29.8996L30.1096 9.72783L29.0896 7.71783H14.5396L14.3296 7.98783L15.3496 9.99783ZM29.6758 9.99783H31.1758L31.1158 15.4278L33.4858 16.1178L33.6958 15.9678L33.6358 9.99783H36.2158L36.3958 9.72783L35.3758 7.71783H28.8358L28.6558 7.98783L29.6758 9.99783ZM40.4174 13.8078C38.8874 14.3478 37.7474 15.1878 37.0574 16.3278V16.5378C37.5374 18.6078 39.8474 21.0678 43.0874 21.0678C43.9874 21.0678 44.8574 20.8878 45.6374 20.3778V22.4478L47.9774 23.1378L48.1874 22.9878L48.1274 9.99783H50.6474L50.8574 9.72783L49.8374 7.71783H35.0474L34.8374 7.98783L35.8574 9.99783H36.8174C37.2374 12.2178 38.7974 13.2978 40.4174 13.8078ZM42.0974 18.8178C41.0774 18.8178 39.9974 18.5778 39.5474 17.9178C39.4874 17.7978 39.4274 17.6778 39.4274 17.5578C39.4274 17.4378 39.4874 17.3178 39.5474 17.2278C40.2374 16.1778 41.9774 15.2478 44.9774 15.2478C45.1874 15.2478 45.4274 15.2478 45.6674 15.2778V15.9378C45.6374 17.9778 43.8074 18.8178 42.0974 18.8178ZM39.7274 9.99783H45.6974L45.6674 13.1778H44.7374H44.7074C41.5574 13.1778 39.9074 12.3078 39.7274 9.99783Z" fill="white"/>
</svg>
