<svg width="71" height="26" viewBox="0 0 71 26" fill="none" xmlns="http://www.w3.org/2000/svg">
<path d="M1.13197 8.96092H2.11197V9.15692C2.11197 14.2249 4.01597 20.7489 8.94397 20.7489C11.324 20.7489 12.528 19.0689 12.528 17.2489C12.528 16.0169 11.996 14.6729 10.792 13.6649C12.332 12.8809 13.088 11.3409 13.088 9.60492C13.088 9.40892 13.06 9.18492 13.032 8.96092H14.712L14.908 8.70892L13.956 6.83292H13.004C12.388 3.66892 10.792 1.26092 7.65597 1.26092C5.97597 1.26092 2.97997 1.93291 2.25197 6.83292H0.375971L0.179971 7.08492L1.13197 8.96092ZM4.26797 9.80092V8.96092H11.324V9.18492C11.324 10.9209 9.95197 11.9849 7.93597 11.9849H4.35197C4.29597 11.2289 4.26797 10.5009 4.26797 9.80092ZM10.456 16.3529C10.456 17.4169 9.75597 18.3969 8.41197 18.3969C6.31197 18.3969 5.24797 16.4929 4.71597 14.1969H7.99197C9.53197 14.1969 10.456 14.8689 10.456 16.3529ZM7.99197 3.47291C9.78397 3.47291 10.68 4.87292 11.128 6.83292H4.60397C5.07997 4.90091 6.14397 3.47291 7.99197 3.47291ZM3.37197 22.6529V22.7929C4.96797 24.4729 6.73197 25.2849 8.69197 25.2849C10.12 25.2849 11.52 24.8929 12.78 23.8569V23.7169L11.632 21.8409C10.456 22.7089 9.19597 23.1289 7.82397 23.1289C6.50797 23.1289 5.27597 22.9049 4.04397 21.8129L3.37197 22.6529ZM9.67875 1.40091C10.3228 4.48092 11.8348 5.76892 13.5428 5.76892C15.1948 5.76892 16.4828 4.48092 16.8468 1.87692L15.2788 0.924914L15.0828 0.980915C14.7468 3.08091 14.0188 3.64091 13.0668 3.64091C12.0588 3.64091 11.2748 2.91292 10.7428 1.00891L10.6308 0.952916L9.67875 1.40091ZM14.5031 8.96092H21.9231C22.0351 9.32492 22.0911 9.71692 22.0911 10.1089C22.0911 11.0889 21.8111 11.8449 21.1671 12.2929C20.1871 11.8169 19.1511 11.5089 18.1991 11.5089C16.9951 11.5089 16.0991 11.9569 16.0991 12.7969C16.0991 13.6089 16.8831 15.1489 18.5071 15.1489C19.0671 15.1489 19.9631 14.9529 20.9991 14.6169C22.1191 14.6169 22.6791 15.2609 22.6791 16.1289C22.6791 17.1369 21.6431 18.4249 19.8511 18.4249C18.3671 18.4249 16.5191 17.6689 15.4831 16.6049L15.1751 16.7729C15.5111 17.8089 15.8751 18.8169 16.8551 19.6009C17.7231 20.2729 18.9831 20.7209 20.4391 20.7209C23.4071 20.7209 24.8071 18.7609 24.8071 17.0809C24.8071 15.6809 23.9671 14.3649 22.7911 13.3849C23.9111 12.4609 24.3871 11.0609 24.3871 9.60492C24.3871 9.40892 24.3591 9.18492 24.3311 8.96092H26.6831L26.8791 8.70892L25.9271 6.83292H13.7471L13.5511 7.08492L14.5031 8.96092ZM26.4796 8.96092H34.0676V10.8369C34.0676 11.1729 33.8716 11.4809 33.3956 11.4809H31.5476C29.0836 11.4809 27.4876 12.5169 27.4876 14.6169C27.4876 17.3609 30.1196 20.7209 33.2836 20.7209C35.1316 20.7209 36.4196 19.5449 36.4196 16.6329L36.3916 8.96092H38.7156L38.9116 8.70892L37.9596 6.83292H25.7236L25.5276 7.08492L26.4796 8.96092ZM32.4156 18.7049C30.8476 18.7049 30.0636 16.6609 30.0636 15.5409C30.0636 14.3649 30.8756 13.5809 33.2836 13.5809H34.0676V16.0169C34.0676 17.8929 33.4236 18.7049 32.4156 18.7049ZM38.5109 8.96092H39.9109L39.8549 14.0289L42.0669 14.6729L42.2629 14.5329L42.2069 8.96092H44.6149L44.7829 8.70892L43.8309 6.83292H37.7269L37.5589 7.08492L38.5109 8.96092ZM44.0883 8.96092H45.2923C46.2163 8.96092 46.6643 9.24092 46.6643 10.1929C46.6643 11.5089 45.7403 12.8809 45.0403 13.9449L45.0123 14.2529C45.9363 16.6609 48.1203 18.6769 50.5843 18.6769C51.4244 18.6769 52.3203 18.4529 52.9643 18.0049V20.5809L55.1483 21.2249L55.3443 21.0849L55.2883 8.96092H57.6404L57.8363 8.70892L56.8844 6.83292H53.1884L53.0203 7.08492L52.9924 10.9209H49.1003V10.8369C49.1003 10.0809 48.7363 9.18492 48.1763 8.45692C47.5043 7.56092 46.5243 6.83292 45.4883 6.83292H43.3603L43.1643 7.08492L44.0883 8.96092ZM49.8843 16.4929C49.2683 16.4929 48.1763 16.2129 47.7283 15.7089C47.5323 15.5129 47.4763 15.3169 47.4763 15.1209C47.4763 14.9249 47.5883 14.6729 47.6723 14.5049C47.7563 14.3089 48.0643 13.8329 48.3443 13.2449H52.9924V13.8049C52.9924 15.5129 51.5363 16.4929 49.8843 16.4929ZM55.9304 6.04892C57.0504 5.46092 57.5544 4.48092 57.5544 3.58492C57.5544 1.96091 56.0144 0.168916 54.0264 0.168916C52.3744 0.168916 51.1704 1.45692 51.1704 2.80092C51.1704 4.08892 52.0104 5.09692 53.0464 5.90892L53.8024 5.23692C53.2984 4.48092 53.1304 4.03291 53.1304 3.38892C53.1304 2.63292 53.7464 2.07291 54.5024 2.07291C55.1184 2.07291 55.6784 2.46491 55.6784 3.19292C55.6784 3.64091 55.4824 4.14491 54.9224 4.53691L55.9304 6.04892ZM57.4328 8.96092H65.4968C65.5808 9.26892 65.6088 9.54892 65.6088 9.82892C65.6088 10.4729 65.2728 11.1449 64.5448 11.5929C63.5088 11.0329 62.3608 10.6689 61.3528 10.6689C60.2048 10.6689 59.3928 11.0329 59.3928 11.9009C59.3928 12.6849 60.1488 14.2529 61.7728 14.2529C62.3608 14.2529 63.2848 14.1409 64.3208 13.7489C65.5528 13.8609 66.1408 14.8969 66.1408 15.9889C66.1408 16.7449 65.8888 17.3609 65.4968 17.8369C64.7968 16.9129 63.2848 15.2609 61.1288 15.2609C59.1968 15.2609 58.5248 16.4649 58.5248 17.3329C58.5248 19.6289 61.7448 20.8329 63.8728 20.8329C66.2528 20.8329 68.2968 19.4049 68.2968 16.9409C68.2968 15.3449 67.4008 13.8329 66.1128 12.7129C67.2048 11.9289 67.8488 10.8089 67.8488 9.60492C67.8488 9.40892 67.8488 9.18492 67.8208 8.96092H70.1728L70.3688 8.70892L69.4168 6.83292H56.6768L56.4808 7.08492L57.4328 8.96092ZM62.4168 19.0969C61.4088 19.0969 60.9888 18.6489 60.9888 18.1169C60.9888 17.6689 61.4368 17.1929 62.1648 17.1929C63.2008 17.1929 63.9568 18.1169 64.3488 18.6769C63.7608 18.9569 63.0608 19.0969 62.4168 19.0969Z" fill="white"/>
</svg>
