<svg width="86" height="27" viewBox="0 0 86 27" fill="none" xmlns="http://www.w3.org/2000/svg">
<path d="M1.00393 8.84983H1.98393V9.04583C1.98393 14.1138 3.88793 20.6378 8.81593 20.6378C11.1959 20.6378 12.3999 18.9578 12.3999 17.1378C12.3999 15.9058 11.8679 14.5618 10.6639 13.5538C12.2039 12.7698 12.9599 11.2298 12.9599 9.49383C12.9599 9.29783 12.9319 9.07383 12.9039 8.84983H14.5839L14.7799 8.59783L13.8279 6.72183H12.8759C12.2599 3.55783 10.6639 1.14983 7.52793 1.14983C5.84793 1.14983 2.85193 1.82183 2.12393 6.72183H0.24793L0.0519304 6.97383L1.00393 8.84983ZM4.13993 9.68983V8.84983H11.1959V9.07383C11.1959 10.8098 9.82393 11.8738 7.80793 11.8738H4.22393C4.16793 11.1178 4.13993 10.3898 4.13993 9.68983ZM10.3279 16.2418C10.3279 17.3058 9.62793 18.2858 8.28393 18.2858C6.18393 18.2858 5.11993 16.3818 4.58793 14.0858H7.86393C9.40393 14.0858 10.3279 14.7578 10.3279 16.2418ZM7.86393 3.36183C9.65593 3.36183 10.5519 4.76183 10.9999 6.72183H4.47593C4.95193 4.78983 6.01593 3.36183 7.86393 3.36183ZM3.24393 22.5418V22.6818C4.83993 24.3618 6.60393 25.1738 8.56393 25.1738C9.99193 25.1738 11.3919 24.7818 12.6519 23.7458V23.6058L11.5039 21.7298C10.3279 22.5978 9.06793 23.0178 7.69593 23.0178C6.37993 23.0178 5.14793 22.7938 3.91593 21.7018L3.24393 22.5418ZM9.55071 1.28983C10.1947 4.36983 11.7067 5.65783 13.4147 5.65783C15.0667 5.65783 16.3547 4.36983 16.7187 1.76583L15.1507 0.81383L14.9547 0.869831C14.6187 2.96983 13.8907 3.52983 12.9387 3.52983C11.9307 3.52983 11.1467 2.80183 10.6147 0.897831L10.5027 0.841832L9.55071 1.28983ZM14.375 8.84983H21.795C21.907 9.21383 21.963 9.60583 21.963 9.99783C21.963 10.9778 21.683 11.7338 21.039 12.1818C20.059 11.7058 19.023 11.3978 18.071 11.3978C16.867 11.3978 15.971 11.8458 15.971 12.6858C15.971 13.4978 16.755 15.0378 18.379 15.0378C18.939 15.0378 19.835 14.8418 20.871 14.5058C21.991 14.5058 22.551 15.1498 22.551 16.0178C22.551 17.0258 21.515 18.3138 19.723 18.3138C18.239 18.3138 16.391 17.5578 15.355 16.4938L15.047 16.6618C15.383 17.6978 15.747 18.7058 16.727 19.4898C17.595 20.1618 18.855 20.6098 20.311 20.6098C23.279 20.6098 24.679 18.6498 24.679 16.9698C24.679 15.5698 23.839 14.2538 22.663 13.2738C23.783 12.3498 24.259 10.9498 24.259 9.49383C24.259 9.29783 24.231 9.07383 24.203 8.84983H26.555L26.751 8.59783L25.799 6.72183H13.619L13.423 6.97383L14.375 8.84983ZM26.3516 8.84983H33.9396V10.7258C33.9396 11.0618 33.7436 11.3698 33.2676 11.3698H31.4196C28.9556 11.3698 27.3596 12.4058 27.3596 14.5058C27.3596 17.2498 29.9916 20.6098 33.1556 20.6098C35.0036 20.6098 36.2916 19.4338 36.2916 16.5218L36.2636 8.84983H38.5876L38.7836 8.59783L37.8316 6.72183H25.5956L25.3996 6.97383L26.3516 8.84983ZM32.2876 18.5938C30.7196 18.5938 29.9356 16.5498 29.9356 15.4298C29.9356 14.2538 30.7476 13.4698 33.1556 13.4698H33.9396V15.9058C33.9396 17.7818 33.2956 18.5938 32.2876 18.5938ZM44.0423 8.84983H45.2463C46.1703 8.84983 46.6183 9.12983 46.6183 10.0818C46.6183 11.3978 45.6943 12.7698 44.9943 13.8338L44.9663 14.1418C45.8903 16.5498 47.9623 18.5098 50.4263 18.5098C51.1823 18.5098 52.0783 18.3418 52.6383 17.8938L52.6103 20.4698L54.8223 21.1138L55.0183 20.9738L54.9623 8.84983H57.3143L57.5103 8.59783L56.5583 6.72183H52.8623L52.6943 6.97383L52.6663 13.6938C52.6663 15.4018 51.2383 16.3258 49.7263 16.3258C49.1103 16.3258 48.1303 16.1018 47.6823 15.5978C47.4863 15.4018 47.4303 15.2058 47.4303 15.0098C47.4303 14.8138 47.5423 14.5618 47.6263 14.3938C47.8503 13.9178 49.0543 12.1258 49.0543 10.7258C49.0543 9.96983 48.6903 9.07383 48.1303 8.34583C47.4583 7.44983 46.4783 6.72183 45.4423 6.72183H43.3143L43.1183 6.97383L44.0423 8.84983ZM52.6215 19.3218V21.2538C52.4255 21.2258 52.2015 21.2258 52.0055 21.2258C50.9975 21.2258 49.9615 21.7298 49.9615 22.7098C49.9615 23.8018 51.3895 24.7258 52.4255 24.7258C53.0135 24.7258 53.7975 24.3898 54.2735 23.8298C55.6455 24.5858 56.5695 25.2858 57.9135 26.5738H58.0815L59.1455 25.5658C58.2775 24.6978 56.6815 23.1858 54.9735 22.1778V19.1538H52.8175L52.6215 19.3218ZM57.0853 8.84983H66.4093V11.8458C66.4093 12.2098 66.1853 12.4338 65.7653 12.4338H61.8453C61.7613 11.4258 61.3133 10.6418 60.4733 10.6418C59.2413 10.6418 57.6733 12.3218 57.6733 13.6098C57.6733 14.2818 58.0933 14.6178 58.9893 14.6178H59.3253V15.0658C59.3253 18.4818 62.7133 20.6098 66.2133 20.6098C67.4733 20.6098 69.0413 20.2738 70.3013 19.0138V18.7898L68.6213 17.1658C67.6693 18.1458 66.4093 18.7898 65.0093 18.7898C62.9093 18.7898 61.7613 17.6418 61.7613 14.9258V14.6178H68.5093L68.7333 14.3658L68.7053 8.84983H71.4773L71.6733 8.59783L70.7213 6.72183H56.3573L56.1613 6.97383L57.0853 8.84983ZM68.2234 7.00183L68.3074 6.86183C66.3474 2.24183 64.5554 0.225831 62.0354 0.225831C61.1394 0.225831 60.3274 0.42183 59.5434 0.729831L60.4954 3.16583L60.6914 3.24983C61.5594 2.82983 62.0914 2.77383 62.8194 2.77383C64.1914 2.77383 65.5074 3.38983 66.8794 7.00183H68.2234ZM71.2774 8.84983H73.4614C74.3574 9.91383 74.6654 11.4258 74.6654 12.8538C74.6654 13.3578 74.6094 13.8058 74.5254 14.1418C72.9014 15.8778 71.9774 17.3338 71.9774 17.9778C71.9774 18.9018 73.2654 19.6858 74.0494 19.6858C74.7774 19.6858 76.0094 17.8938 76.6254 15.7658H80.7414L80.7134 20.4698L82.9254 21.1138L83.1214 20.9738L83.0654 8.84983H85.4174L85.6134 8.59783L84.6614 6.72183H70.5214L70.3254 6.97383L71.2774 8.84983ZM75.6174 8.84983H80.7694V13.4418H76.9894C76.9894 11.6778 76.5414 10.1658 75.6174 8.84983ZM76.4574 19.0138L78.1934 20.7498L79.9294 19.0138L78.1934 17.2778L76.4574 19.0138Z" fill="white"/>
</svg>
