<svg width="331" height="248" viewBox="0 0 331 248" fill="none" xmlns="http://www.w3.org/2000/svg">
<rect x="1" width="330" height="248" rx="16" fill="white"/>
<path d="M1 16C1 7.16344 8.16344 0 17 0H315C323.837 0 331 7.16344 331 16V43H1V16Z" fill="#FF8F65"/>
<path d="M36.4529 63.96H41.0849V65.112C41.0849 66.444 40.4009 67.116 39.0329 67.116H37.7729V69.516C37.7729 71.016 38.5529 72.108 40.1489 72.108C41.5889 72.108 42.4529 71.148 42.4529 69.672V69.468H41.4929V69.696C41.4929 70.62 40.9769 71.244 40.1249 71.244C39.1889 71.244 38.7569 70.548 38.7569 69.576V67.932H39.3689C41.2289 67.932 42.0809 66.888 42.0809 65.112V63.96H43.5209V63.12H36.4529V63.96ZM40.9634 63.156H41.8274C40.0394 59.652 39.5714 59.508 37.9994 59.508H37.4834V60.168H38.0114C39.0554 60.168 39.5954 60.24 40.7234 62.316C39.5714 61.356 39.1754 61.332 37.9754 61.332H37.4834V61.98H37.9994C39.2834 61.98 39.5474 62.04 40.9634 63.156ZM42.7514 62.052C43.1234 62.052 43.4234 61.752 43.4234 61.38C43.4234 61.008 43.1234 60.708 42.7514 60.708C42.3674 60.708 42.0674 61.008 42.0674 61.38C42.0674 61.752 42.3674 62.052 42.7514 62.052ZM48.2748 72H49.2348V68.136C49.2348 67.188 49.7508 66.156 51.0348 66.156C52.0188 66.156 52.7988 66.888 52.7988 68.04C52.7988 69.252 52.0428 69.948 51.0708 69.948C50.9028 69.948 50.7108 69.936 50.5668 69.9V70.692C50.7828 70.752 51.0348 70.776 51.3108 70.776C52.7388 70.776 53.8188 69.768 53.8188 68.016C53.8188 66.408 52.7748 65.292 51.3108 65.292C50.2428 65.292 49.5708 65.844 49.2348 66.564V63.96H54.9708V63.12H42.3947V63.96H48.2748V66.516C47.9268 65.82 47.2308 65.292 46.1508 65.292C44.6388 65.292 43.5588 66.36 43.5588 68.04C43.5588 69.744 44.6148 70.824 46.1148 70.824C47.2188 70.824 47.9268 70.284 48.2748 69.576V72ZM46.4268 69.984C45.3588 69.984 44.5668 69.264 44.5668 68.04C44.5668 66.876 45.3948 66.156 46.4268 66.156C47.7228 66.156 48.2748 67.152 48.2748 68.064C48.2748 68.94 47.7108 69.984 46.4268 69.984ZM58.9874 72H60.0914V63.324H57.8354V64.32H58.9874V72Z" fill="#1A0628"/>
<path d="M123.896 63.4219V72H122.812V64.7754L120.627 65.5723V64.5938L123.727 63.4219H123.896Z" fill="#1A0628"/>
<path d="M187.34 71.1094V72H181.756V71.2207L184.551 68.1094C184.895 67.7266 185.161 67.4023 185.348 67.1367C185.539 66.8672 185.672 66.627 185.746 66.416C185.825 66.2012 185.864 65.9824 185.864 65.7598C185.864 65.4785 185.805 65.2246 185.688 64.998C185.575 64.7676 185.407 64.584 185.184 64.4473C184.961 64.3105 184.692 64.2422 184.375 64.2422C183.996 64.2422 183.68 64.3164 183.426 64.4648C183.176 64.6094 182.989 64.8125 182.864 65.0742C182.739 65.3359 182.676 65.6367 182.676 65.9766H181.592C181.592 65.4961 181.698 65.0566 181.909 64.6582C182.12 64.2598 182.432 63.9434 182.846 63.709C183.26 63.4707 183.77 63.3516 184.375 63.3516C184.914 63.3516 185.375 63.4473 185.758 63.6387C186.141 63.8262 186.434 64.0918 186.637 64.4355C186.844 64.7754 186.948 65.1738 186.948 65.6309C186.948 65.8809 186.905 66.1348 186.819 66.3926C186.737 66.6465 186.621 66.9004 186.473 67.1543C186.329 67.4082 186.159 67.6582 185.963 67.9043C185.772 68.1504 185.567 68.3926 185.348 68.6309L183.063 71.1094H187.34ZM189.631 67.9395L188.764 67.7168L189.192 63.4688H193.569V64.4707H190.112L189.854 66.791C190.01 66.7012 190.208 66.6172 190.446 66.5391C190.688 66.4609 190.965 66.4219 191.278 66.4219C191.673 66.4219 192.026 66.4902 192.339 66.627C192.651 66.7598 192.917 66.9512 193.135 67.2012C193.358 67.4512 193.528 67.752 193.645 68.1035C193.762 68.4551 193.821 68.8477 193.821 69.2812C193.821 69.6914 193.764 70.0684 193.651 70.4121C193.542 70.7559 193.376 71.0566 193.153 71.3145C192.93 71.5684 192.649 71.7656 192.309 71.9062C191.973 72.0469 191.577 72.1172 191.12 72.1172C190.776 72.1172 190.45 72.0703 190.141 71.9766C189.837 71.8789 189.563 71.7324 189.321 71.5371C189.083 71.3379 188.887 71.0918 188.735 70.7988C188.587 70.502 188.493 70.1543 188.454 69.7559H189.485C189.532 70.0762 189.626 70.3457 189.766 70.5645C189.907 70.7832 190.09 70.9492 190.317 71.0625C190.548 71.1719 190.815 71.2266 191.12 71.2266C191.378 71.2266 191.606 71.1816 191.805 71.0918C192.005 71.002 192.173 70.873 192.309 70.7051C192.446 70.5371 192.549 70.334 192.62 70.0957C192.694 69.8574 192.731 69.5898 192.731 69.293C192.731 69.0234 192.694 68.7734 192.62 68.543C192.546 68.3125 192.434 68.1113 192.286 67.9395C192.141 67.7676 191.964 67.6348 191.753 67.541C191.542 67.4434 191.299 67.3945 191.026 67.3945C190.663 67.3945 190.387 67.4434 190.2 67.541C190.016 67.6387 189.827 67.7715 189.631 67.9395ZM195.872 70.7109V71.584C195.872 71.9395 195.782 72.3145 195.602 72.709C195.423 73.1074 195.171 73.4395 194.847 73.7051L194.231 73.2773C194.356 73.1055 194.462 72.9297 194.548 72.75C194.634 72.5742 194.698 72.3906 194.741 72.1992C194.788 72.0117 194.811 71.8125 194.811 71.6016V70.7109H195.872ZM202.253 67.0547V68.3555C202.253 69.0547 202.191 69.6445 202.066 70.125C201.941 70.6055 201.761 70.9922 201.526 71.2852C201.292 71.5781 201.009 71.791 200.677 71.9238C200.349 72.0527 199.978 72.1172 199.564 72.1172C199.235 72.1172 198.933 72.0762 198.655 71.9941C198.378 71.9121 198.128 71.7812 197.905 71.6016C197.687 71.418 197.499 71.1797 197.343 70.8867C197.187 70.5938 197.068 70.2383 196.985 69.8203C196.903 69.4023 196.862 68.9141 196.862 68.3555V67.0547C196.862 66.3555 196.925 65.7695 197.05 65.2969C197.179 64.8242 197.36 64.4453 197.595 64.1602C197.829 63.8711 198.11 63.6641 198.439 63.5391C198.771 63.4141 199.142 63.3516 199.552 63.3516C199.884 63.3516 200.189 63.3926 200.466 63.4746C200.747 63.5527 200.997 63.6797 201.216 63.8555C201.435 64.0273 201.62 64.2578 201.773 64.5469C201.929 64.832 202.048 65.1816 202.13 65.5957C202.212 66.0098 202.253 66.4961 202.253 67.0547ZM201.163 68.5312V66.873C201.163 66.4902 201.14 66.1543 201.093 65.8652C201.05 65.5723 200.985 65.3223 200.9 65.1152C200.814 64.9082 200.704 64.7402 200.571 64.6113C200.443 64.4824 200.292 64.3887 200.12 64.3301C199.952 64.2676 199.763 64.2363 199.552 64.2363C199.294 64.2363 199.066 64.2852 198.866 64.3828C198.667 64.4766 198.499 64.627 198.362 64.834C198.23 65.041 198.128 65.3125 198.058 65.6484C197.987 65.9844 197.952 66.3926 197.952 66.873V68.5312C197.952 68.9141 197.974 69.252 198.017 69.5449C198.064 69.8379 198.132 70.0918 198.222 70.3066C198.312 70.5176 198.421 70.6914 198.55 70.8281C198.679 70.9648 198.827 71.0664 198.995 71.1328C199.167 71.1953 199.357 71.2266 199.564 71.2266C199.829 71.2266 200.062 71.1758 200.261 71.0742C200.46 70.9727 200.626 70.8145 200.759 70.5996C200.896 70.3809 200.997 70.1016 201.064 69.7617C201.13 69.418 201.163 69.0078 201.163 68.5312ZM208.763 67.0547V68.3555C208.763 69.0547 208.701 69.6445 208.576 70.125C208.451 70.6055 208.271 70.9922 208.036 71.2852C207.802 71.5781 207.519 71.791 207.187 71.9238C206.859 72.0527 206.488 72.1172 206.074 72.1172C205.745 72.1172 205.443 72.0762 205.165 71.9941C204.888 71.9121 204.638 71.7812 204.415 71.6016C204.197 71.418 204.009 71.1797 203.853 70.8867C203.697 70.5938 203.577 70.2383 203.495 69.8203C203.413 69.4023 203.372 68.9141 203.372 68.3555V67.0547C203.372 66.3555 203.435 65.7695 203.56 65.2969C203.689 64.8242 203.87 64.4453 204.105 64.1602C204.339 63.8711 204.62 63.6641 204.949 63.5391C205.281 63.4141 205.652 63.3516 206.062 63.3516C206.394 63.3516 206.699 63.3926 206.976 63.4746C207.257 63.5527 207.507 63.6797 207.726 63.8555C207.945 64.0273 208.13 64.2578 208.283 64.5469C208.439 64.832 208.558 65.1816 208.64 65.5957C208.722 66.0098 208.763 66.4961 208.763 67.0547ZM207.673 68.5312V66.873C207.673 66.4902 207.65 66.1543 207.603 65.8652C207.56 65.5723 207.495 65.3223 207.41 65.1152C207.324 64.9082 207.214 64.7402 207.081 64.6113C206.952 64.4824 206.802 64.3887 206.63 64.3301C206.462 64.2676 206.273 64.2363 206.062 64.2363C205.804 64.2363 205.576 64.2852 205.376 64.3828C205.177 64.4766 205.009 64.627 204.872 64.834C204.74 65.041 204.638 65.3125 204.568 65.6484C204.497 65.9844 204.462 66.3926 204.462 66.873V68.5312C204.462 68.9141 204.484 69.252 204.527 69.5449C204.574 69.8379 204.642 70.0918 204.732 70.3066C204.822 70.5176 204.931 70.6914 205.06 70.8281C205.189 70.9648 205.337 71.0664 205.505 71.1328C205.677 71.1953 205.867 71.2266 206.074 71.2266C206.339 71.2266 206.572 71.1758 206.771 71.0742C206.97 70.9727 207.136 70.8145 207.269 70.5996C207.406 70.3809 207.507 70.1016 207.574 69.7617C207.64 69.418 207.673 69.0078 207.673 68.5312ZM215.273 67.0547V68.3555C215.273 69.0547 215.211 69.6445 215.086 70.125C214.961 70.6055 214.781 70.9922 214.546 71.2852C214.312 71.5781 214.029 71.791 213.697 71.9238C213.369 72.0527 212.998 72.1172 212.584 72.1172C212.255 72.1172 211.953 72.0762 211.675 71.9941C211.398 71.9121 211.148 71.7812 210.925 71.6016C210.707 71.418 210.519 71.1797 210.363 70.8867C210.207 70.5938 210.088 70.2383 210.005 69.8203C209.923 69.4023 209.882 68.9141 209.882 68.3555V67.0547C209.882 66.3555 209.945 65.7695 210.07 65.2969C210.199 64.8242 210.38 64.4453 210.615 64.1602C210.849 63.8711 211.13 63.6641 211.459 63.5391C211.791 63.4141 212.162 63.3516 212.572 63.3516C212.904 63.3516 213.209 63.3926 213.486 63.4746C213.767 63.5527 214.017 63.6797 214.236 63.8555C214.455 64.0273 214.64 64.2578 214.793 64.5469C214.949 64.832 215.068 65.1816 215.15 65.5957C215.232 66.0098 215.273 66.4961 215.273 67.0547ZM214.183 68.5312V66.873C214.183 66.4902 214.16 66.1543 214.113 65.8652C214.07 65.5723 214.005 65.3223 213.92 65.1152C213.834 64.9082 213.724 64.7402 213.591 64.6113C213.463 64.4824 213.312 64.3887 213.14 64.3301C212.972 64.2676 212.783 64.2363 212.572 64.2363C212.314 64.2363 212.086 64.2852 211.886 64.3828C211.687 64.4766 211.519 64.627 211.382 64.834C211.25 65.041 211.148 65.3125 211.078 65.6484C211.007 65.9844 210.972 66.3926 210.972 66.873V68.5312C210.972 68.9141 210.994 69.252 211.037 69.5449C211.084 69.8379 211.152 70.0918 211.242 70.3066C211.332 70.5176 211.441 70.6914 211.57 70.8281C211.699 70.9648 211.847 71.0664 212.015 71.1328C212.187 71.1953 212.377 71.2266 212.584 71.2266C212.849 71.2266 213.082 71.1758 213.281 71.0742C213.48 70.9727 213.646 70.8145 213.779 70.5996C213.916 70.3809 214.017 70.1016 214.084 69.7617C214.15 69.418 214.183 69.0078 214.183 68.5312Z" fill="#1A0628"/>
<path d="M274.083 69.744C273.171 69.744 272.547 69.144 272.547 68.28C272.547 67.404 273.183 66.792 274.083 66.792C274.959 66.792 275.595 67.416 275.595 68.268C275.595 69.132 274.959 69.744 274.083 69.744ZM270.555 63.96H278.091V65.952H274.155C272.727 65.952 271.635 66.804 271.635 68.28C271.635 69.696 272.691 70.596 274.071 70.596C275.391 70.596 276.399 69.768 276.399 68.388C276.399 67.692 276.123 67.152 275.751 66.792H278.091V72H279.087V63.96H280.671V63.12H270.555V63.96ZM285.663 72H286.623V68.136C286.623 67.188 287.139 66.156 288.423 66.156C289.407 66.156 290.187 66.888 290.187 68.04C290.187 69.252 289.431 69.948 288.459 69.948C288.291 69.948 288.099 69.936 287.955 69.9V70.692C288.171 70.752 288.423 70.776 288.699 70.776C290.127 70.776 291.207 69.768 291.207 68.016C291.207 66.408 290.163 65.292 288.699 65.292C287.631 65.292 286.959 65.844 286.623 66.564V63.96H292.359V63.12H279.783V63.96H285.663V66.516C285.315 65.82 284.619 65.292 283.539 65.292C282.027 65.292 280.947 66.36 280.947 68.04C280.947 69.744 282.003 70.824 283.503 70.824C284.607 70.824 285.315 70.284 285.663 69.576V72ZM283.815 69.984C282.747 69.984 281.955 69.264 281.955 68.04C281.955 66.876 282.783 66.156 283.815 66.156C285.111 66.156 285.663 67.152 285.663 68.064C285.663 68.94 285.099 69.984 283.815 69.984ZM291.485 63.96H296.705V65.28H295.841C294.077 65.28 292.649 66.204 292.649 68.088C292.649 69.816 293.753 70.812 295.289 70.812C296.141 70.812 296.861 70.452 297.197 69.888V72.192H298.181V68.376H297.257C297.257 69.516 296.345 70.008 295.553 70.008C294.401 70.008 293.669 69.264 293.669 68.124C293.669 66.804 294.677 66.144 295.925 66.144H297.701V63.96H299.429L299.441 63.12H291.485V63.96Z" fill="#1A0628"/>
<path d="M34.8415 128.96H39.4735V130.112C39.4735 131.444 38.7895 132.116 37.4215 132.116H36.1615V134.516C36.1615 136.016 36.9415 137.108 38.5375 137.108C39.9775 137.108 40.8415 136.148 40.8415 134.672V134.468H39.8815V134.696C39.8815 135.62 39.3655 136.244 38.5135 136.244C37.5775 136.244 37.1455 135.548 37.1455 134.576V132.932H37.7575C39.6175 132.932 40.4695 131.888 40.4695 130.112V128.96H41.9095V128.12H34.8415V128.96ZM39.352 128.156H40.216C38.428 124.652 37.96 124.508 36.388 124.508H35.872V125.168H36.4C37.444 125.168 37.984 125.24 39.112 127.316C37.96 126.356 37.564 126.332 36.364 126.332H35.872V126.98H36.388C37.672 126.98 37.936 127.04 39.352 128.156ZM41.14 127.052C41.512 127.052 41.812 126.752 41.812 126.38C41.812 126.008 41.512 125.708 41.14 125.708C40.756 125.708 40.456 126.008 40.456 126.38C40.456 126.752 40.756 127.052 41.14 127.052ZM46.6634 137H47.6234V133.136C47.6234 132.188 48.1394 131.156 49.4234 131.156C50.4074 131.156 51.1874 131.888 51.1874 133.04C51.1874 134.252 50.4314 134.948 49.4594 134.948C49.2914 134.948 49.0994 134.936 48.9554 134.9V135.692C49.1714 135.752 49.4234 135.776 49.6994 135.776C51.1274 135.776 52.2074 134.768 52.2074 133.016C52.2074 131.408 51.1634 130.292 49.6994 130.292C48.6314 130.292 47.9594 130.844 47.6234 131.564V128.96H53.3594V128.12H40.7834V128.96H46.6634V131.516C46.3154 130.82 45.6194 130.292 44.5394 130.292C43.0274 130.292 41.9474 131.36 41.9474 133.04C41.9474 134.744 43.0034 135.824 44.5034 135.824C45.6074 135.824 46.3154 135.284 46.6634 134.576V137ZM44.8154 134.984C43.7474 134.984 42.9554 134.264 42.9554 133.04C42.9554 131.876 43.7834 131.156 44.8154 131.156C46.1114 131.156 46.6634 132.152 46.6634 133.064C46.6634 133.94 46.0994 134.984 44.8154 134.984ZM56.488 130.508H57.556C57.664 129.668 58.276 129.092 59.296 129.092C60.34 129.092 60.892 129.668 60.892 130.496C60.892 131.504 60.112 131.948 58.66 131.96H58.372V132.872H58.648C60.208 132.872 61.06 133.34 61.06 134.564C61.06 135.452 60.508 136.136 59.344 136.136C58.192 136.136 57.52 135.428 57.412 134.504H56.356C56.488 136.184 57.712 137.06 59.356 137.06C61.168 137.06 62.104 136.004 62.104 134.66C62.104 133.412 61.42 132.668 60.412 132.428V132.368C61.324 132.164 61.948 131.384 61.948 130.388C61.948 129.14 61.024 128.156 59.332 128.156C57.724 128.156 56.596 129.02 56.488 130.508Z" fill="#1A0628"/>
<path d="M123.896 128.422V137H122.812V129.775L120.627 130.572V129.594L123.727 128.422H123.896Z" fill="#1A0628"/>
<path d="M186.376 132.939L185.509 132.717L185.937 128.469H190.314V129.471H186.857L186.599 131.791C186.755 131.701 186.953 131.617 187.191 131.539C187.433 131.461 187.71 131.422 188.023 131.422C188.418 131.422 188.771 131.49 189.084 131.627C189.396 131.76 189.662 131.951 189.88 132.201C190.103 132.451 190.273 132.752 190.39 133.104C190.507 133.455 190.566 133.848 190.566 134.281C190.566 134.691 190.509 135.068 190.396 135.412C190.287 135.756 190.121 136.057 189.898 136.314C189.675 136.568 189.394 136.766 189.054 136.906C188.718 137.047 188.322 137.117 187.865 137.117C187.521 137.117 187.195 137.07 186.886 136.977C186.582 136.879 186.308 136.732 186.066 136.537C185.828 136.338 185.632 136.092 185.48 135.799C185.332 135.502 185.238 135.154 185.199 134.756H186.23C186.277 135.076 186.371 135.346 186.511 135.564C186.652 135.783 186.835 135.949 187.062 136.062C187.293 136.172 187.56 136.227 187.865 136.227C188.123 136.227 188.351 136.182 188.55 136.092C188.75 136.002 188.918 135.873 189.054 135.705C189.191 135.537 189.294 135.334 189.365 135.096C189.439 134.857 189.476 134.59 189.476 134.293C189.476 134.023 189.439 133.773 189.365 133.543C189.291 133.312 189.179 133.111 189.031 132.939C188.886 132.768 188.709 132.635 188.498 132.541C188.287 132.443 188.044 132.395 187.771 132.395C187.408 132.395 187.132 132.443 186.945 132.541C186.761 132.639 186.572 132.771 186.376 132.939ZM192.617 135.711V136.584C192.617 136.939 192.527 137.314 192.347 137.709C192.168 138.107 191.916 138.439 191.592 138.705L190.976 138.277C191.101 138.105 191.207 137.93 191.293 137.75C191.379 137.574 191.443 137.391 191.486 137.199C191.533 137.012 191.556 136.812 191.556 136.602V135.711H192.617ZM198.998 132.055V133.355C198.998 134.055 198.936 134.645 198.811 135.125C198.686 135.605 198.506 135.992 198.271 136.285C198.037 136.578 197.754 136.791 197.422 136.924C197.094 137.053 196.723 137.117 196.309 137.117C195.98 137.117 195.678 137.076 195.4 136.994C195.123 136.912 194.873 136.781 194.65 136.602C194.432 136.418 194.244 136.18 194.088 135.887C193.932 135.594 193.812 135.238 193.73 134.82C193.648 134.402 193.607 133.914 193.607 133.355V132.055C193.607 131.355 193.67 130.77 193.795 130.297C193.924 129.824 194.105 129.445 194.34 129.16C194.574 128.871 194.855 128.664 195.184 128.539C195.516 128.414 195.887 128.352 196.297 128.352C196.629 128.352 196.934 128.393 197.211 128.475C197.492 128.553 197.742 128.68 197.961 128.855C198.18 129.027 198.365 129.258 198.518 129.547C198.674 129.832 198.793 130.182 198.875 130.596C198.957 131.01 198.998 131.496 198.998 132.055ZM197.908 133.531V131.873C197.908 131.49 197.885 131.154 197.838 130.865C197.795 130.572 197.73 130.322 197.645 130.115C197.559 129.908 197.449 129.74 197.316 129.611C197.188 129.482 197.037 129.389 196.865 129.33C196.697 129.268 196.508 129.236 196.297 129.236C196.039 129.236 195.811 129.285 195.611 129.383C195.412 129.477 195.244 129.627 195.107 129.834C194.975 130.041 194.873 130.312 194.803 130.648C194.732 130.984 194.697 131.393 194.697 131.873V133.531C194.697 133.914 194.719 134.252 194.762 134.545C194.809 134.838 194.877 135.092 194.967 135.307C195.057 135.518 195.166 135.691 195.295 135.828C195.424 135.965 195.572 136.066 195.74 136.133C195.912 136.195 196.102 136.227 196.309 136.227C196.574 136.227 196.807 136.176 197.006 136.074C197.205 135.973 197.371 135.814 197.504 135.6C197.641 135.381 197.742 135.102 197.809 134.762C197.875 134.418 197.908 134.008 197.908 133.531ZM205.508 132.055V133.355C205.508 134.055 205.446 134.645 205.321 135.125C205.196 135.605 205.016 135.992 204.781 136.285C204.547 136.578 204.264 136.791 203.932 136.924C203.604 137.053 203.233 137.117 202.819 137.117C202.49 137.117 202.188 137.076 201.91 136.994C201.633 136.912 201.383 136.781 201.16 136.602C200.942 136.418 200.754 136.18 200.598 135.887C200.442 135.594 200.323 135.238 200.24 134.82C200.158 134.402 200.117 133.914 200.117 133.355V132.055C200.117 131.355 200.18 130.77 200.305 130.297C200.434 129.824 200.615 129.445 200.85 129.16C201.084 128.871 201.365 128.664 201.694 128.539C202.026 128.414 202.397 128.352 202.807 128.352C203.139 128.352 203.444 128.393 203.721 128.475C204.002 128.553 204.252 128.68 204.471 128.855C204.69 129.027 204.875 129.258 205.028 129.547C205.184 129.832 205.303 130.182 205.385 130.596C205.467 131.01 205.508 131.496 205.508 132.055ZM204.418 133.531V131.873C204.418 131.49 204.395 131.154 204.348 130.865C204.305 130.572 204.24 130.322 204.155 130.115C204.069 129.908 203.959 129.74 203.826 129.611C203.698 129.482 203.547 129.389 203.375 129.33C203.207 129.268 203.018 129.236 202.807 129.236C202.549 129.236 202.321 129.285 202.121 129.383C201.922 129.477 201.754 129.627 201.617 129.834C201.485 130.041 201.383 130.312 201.313 130.648C201.242 130.984 201.207 131.393 201.207 131.873V133.531C201.207 133.914 201.229 134.252 201.272 134.545C201.319 134.838 201.387 135.092 201.477 135.307C201.567 135.518 201.676 135.691 201.805 135.828C201.934 135.965 202.082 136.066 202.25 136.133C202.422 136.195 202.612 136.227 202.819 136.227C203.084 136.227 203.317 136.176 203.516 136.074C203.715 135.973 203.881 135.814 204.014 135.6C204.151 135.381 204.252 135.102 204.319 134.762C204.385 134.418 204.418 134.008 204.418 133.531ZM212.018 132.055V133.355C212.018 134.055 211.956 134.645 211.831 135.125C211.706 135.605 211.526 135.992 211.291 136.285C211.057 136.578 210.774 136.791 210.442 136.924C210.114 137.053 209.743 137.117 209.329 137.117C209 137.117 208.698 137.076 208.42 136.994C208.143 136.912 207.893 136.781 207.67 136.602C207.452 136.418 207.264 136.18 207.108 135.887C206.952 135.594 206.833 135.238 206.75 134.82C206.668 134.402 206.627 133.914 206.627 133.355V132.055C206.627 131.355 206.69 130.77 206.815 130.297C206.944 129.824 207.125 129.445 207.36 129.16C207.594 128.871 207.875 128.664 208.204 128.539C208.536 128.414 208.907 128.352 209.317 128.352C209.649 128.352 209.954 128.393 210.231 128.475C210.512 128.553 210.762 128.68 210.981 128.855C211.2 129.027 211.385 129.258 211.538 129.547C211.694 129.832 211.813 130.182 211.895 130.596C211.977 131.01 212.018 131.496 212.018 132.055ZM210.928 133.531V131.873C210.928 131.49 210.905 131.154 210.858 130.865C210.815 130.572 210.75 130.322 210.665 130.115C210.579 129.908 210.469 129.74 210.336 129.611C210.208 129.482 210.057 129.389 209.885 129.33C209.717 129.268 209.528 129.236 209.317 129.236C209.059 129.236 208.831 129.285 208.631 129.383C208.432 129.477 208.264 129.627 208.127 129.834C207.995 130.041 207.893 130.312 207.823 130.648C207.752 130.984 207.717 131.393 207.717 131.873V133.531C207.717 133.914 207.739 134.252 207.782 134.545C207.829 134.838 207.897 135.092 207.987 135.307C208.077 135.518 208.186 135.691 208.315 135.828C208.444 135.965 208.592 136.066 208.76 136.133C208.932 136.195 209.122 136.227 209.329 136.227C209.594 136.227 209.827 136.176 210.026 136.074C210.225 135.973 210.391 135.814 210.524 135.6C210.661 135.381 210.762 135.102 210.829 134.762C210.895 134.418 210.928 134.008 210.928 133.531Z" fill="#1A0628"/>
<path d="M255.698 120.624H255.23V121.44H255.698C256.358 121.44 256.79 121.668 257.054 121.992L257.066 122.064H257.102C257.294 122.328 257.378 122.652 257.378 122.964C257.378 123.876 256.766 124.5 255.794 124.5C254.822 124.5 254.138 123.84 254.138 122.928H253.202C253.202 124.38 254.306 125.364 255.866 125.364C257.33 125.364 258.302 124.452 258.302 123.048C258.302 122.712 258.23 122.364 258.086 122.064L259.982 122.076V126H260.978V117.96H262.562V117.12H259.982V121.248H257.33C257.138 121.14 256.922 121.056 256.682 121.02V120.996C257.654 120.756 258.146 120.048 258.146 119.148C258.146 117.84 257.162 117.012 255.77 117.012C254.33 117.012 253.286 117.864 253.286 119.244H254.222C254.222 118.392 254.906 117.864 255.77 117.864C256.586 117.864 257.246 118.392 257.246 119.28C257.246 119.94 256.742 120.624 255.698 120.624ZM264.796 123.936C264.064 123.936 263.524 123.444 263.524 122.664C263.524 121.86 264.112 121.38 264.928 121.38H266.044V122.352C266.044 123.348 265.576 123.936 264.796 123.936ZM269.176 120.552H266.98V117.96H269.176V120.552ZM261.688 117.96H266.044V120.552H264.904C263.584 120.552 262.588 121.296 262.588 122.664C262.588 123.936 263.464 124.788 264.796 124.788C266.2 124.788 266.98 123.9 266.98 122.304V121.38H269.176V126H270.184V117.96H271.756V117.12H261.688V117.96ZM268.985 117.168H269.933C268.349 114.444 267.737 114.228 266.153 114.228H265.661V115.044H266.165C267.341 115.044 267.749 115.212 268.985 117.168ZM270.641 117.96H278.789V120.012H275.537V121.992C275.537 122.916 275.021 123.552 274.181 123.552C273.365 123.552 272.873 122.916 272.873 121.992V120.012H271.865V122.016C271.865 123.432 272.693 124.428 274.169 124.428C275.621 124.428 276.509 123.432 276.509 122.016V120.876H278.789V126H279.785V117.96H281.369V117.12H270.641V117.96ZM284.008 123.744C283.096 123.744 282.472 123.144 282.472 122.28C282.472 121.404 283.108 120.792 284.008 120.792C284.884 120.792 285.52 121.416 285.52 122.268C285.52 123.132 284.884 123.744 284.008 123.744ZM280.48 117.96H288.016V119.952H284.08C282.652 119.952 281.56 120.804 281.56 122.28C281.56 123.696 282.616 124.596 283.996 124.596C285.316 124.596 286.324 123.768 286.324 122.388C286.324 121.692 286.048 121.152 285.676 120.792H288.016V126H289.012V117.96H290.596V117.12H280.48V117.96ZM295.26 117.96H296.832V117.12H295.248C295.248 115.356 296.736 114.84 298.968 114.84C301.212 114.84 302.784 115.488 302.784 117.216V117.384H303.768V117.18C303.768 115.08 301.968 114.012 298.98 114.012C296.028 114.012 294.3 114.912 294.252 117.12H292.668V117.96H294.252V126H295.26V117.96ZM302.963 126H303.959V117.96H305.543V117.12H295.955V117.96H299.819V121.236C299.819 121.824 299.627 122.448 298.823 122.448C298.079 122.448 297.839 121.848 297.839 121.272V120.9H296.855V121.26C296.855 122.46 297.515 123.312 298.859 123.312C300.263 123.312 300.827 122.352 300.827 121.2V117.96H302.963V126ZM308.7 122.784C307.536 122.784 307.008 121.98 307.008 120.708V117.96H310.368V120.972C310.368 121.944 309.78 122.784 308.7 122.784ZM313.44 119.292C312.372 119.292 311.7 119.832 311.364 120.528V117.96H318.708V119.352H318.432C317.172 119.352 316.152 119.772 315.552 120.564C315.156 119.76 314.448 119.292 313.44 119.292ZM311.364 122.244C311.364 121.224 311.892 120.156 313.2 120.156C314.352 120.156 314.964 120.972 314.964 122.268C314.964 122.34 314.964 122.4 314.964 122.472C314.964 124.26 316.32 125.484 318.204 125.484C320.112 125.484 321.384 124.224 321.384 122.364H320.424C320.424 123.684 319.524 124.62 318.18 124.62C316.884 124.62 315.96 123.72 315.96 122.46C315.96 120.936 317.076 120.204 318.48 120.204H319.692V117.96H322.248V117.12H304.668V117.96H306.012V120.708C306.012 122.472 306.84 123.636 308.472 123.636C309.36 123.636 309.996 123.252 310.368 122.628V126H311.364V122.244ZM281.736 144H282.696V140.136C282.696 139.188 283.212 138.156 284.496 138.156C285.48 138.156 286.26 138.888 286.26 140.04C286.26 141.252 285.504 141.948 284.532 141.948C284.364 141.948 284.172 141.936 284.028 141.9V142.692C284.244 142.752 284.496 142.776 284.772 142.776C286.2 142.776 287.28 141.768 287.28 140.016C287.28 138.408 286.236 137.292 284.772 137.292C283.704 137.292 283.032 137.844 282.696 138.564V135.96H288.432V135.12H275.856V135.96H281.736V138.516C281.388 137.82 280.692 137.292 279.612 137.292C278.1 137.292 277.02 138.36 277.02 140.04C277.02 141.744 278.076 142.824 279.576 142.824C280.68 142.824 281.388 142.284 281.736 141.576V144ZM279.888 141.984C278.82 141.984 278.028 141.264 278.028 140.04C278.028 138.876 278.856 138.156 279.888 138.156C281.184 138.156 281.736 139.152 281.736 140.064C281.736 140.94 281.172 141.984 279.888 141.984ZM289.142 144H290.15V135.96H291.722V135.12H287.558V135.96H289.142V144ZM290.845 135.96H295.741V137.412H294.373C293.281 137.412 292.201 137.844 292.201 139.104C292.201 140.46 293.353 140.844 294.361 140.844H294.853C295.705 140.844 296.533 141.144 296.533 142.14C296.533 142.86 296.005 143.4 294.925 143.4C293.677 143.4 293.017 142.74 293.005 141.852H292.021C292.045 143.244 293.149 144.168 294.949 144.168C296.617 144.168 297.481 143.328 297.481 142.152C297.481 140.616 296.233 140.124 295.021 140.124H294.481C293.809 140.124 293.209 139.872 293.209 139.128C293.209 138.312 293.989 138.132 294.649 138.132H296.701V135.96H298.369V135.12H290.845V135.96ZM295.53 135.3H296.466V134.232C296.466 133.26 296.814 132.768 297.546 132.768C298.194 132.768 298.59 133.236 298.566 133.944H299.454C299.49 132.744 298.782 131.916 297.522 131.916C296.106 131.916 295.53 132.912 295.53 134.232V135.3Z" fill="#1A0628"/>
<path d="M21.5166 168.96H26.1486V170.112C26.1486 171.444 25.4646 172.116 24.0966 172.116H22.8366V174.516C22.8366 176.016 23.6166 177.108 25.2126 177.108C26.6526 177.108 27.5166 176.148 27.5166 174.672V174.468H26.5566V174.696C26.5566 175.62 26.0406 176.244 25.1886 176.244C24.2526 176.244 23.8206 175.548 23.8206 174.576V172.932H24.4326C26.2926 172.932 27.1446 171.888 27.1446 170.112V168.96H28.5846V168.12H21.5166V168.96ZM26.0271 168.156H26.8911C25.1031 164.652 24.6351 164.508 23.0631 164.508H22.5471V165.168H23.0751C24.1191 165.168 24.6591 165.24 25.7871 167.316C24.6351 166.356 24.2391 166.332 23.0391 166.332H22.5471V166.98H23.0631C24.3471 166.98 24.6111 167.04 26.0271 168.156ZM33.3385 177H34.2985V173.136C34.2985 172.188 34.8145 171.156 36.0985 171.156C37.0825 171.156 37.8625 171.888 37.8625 173.04C37.8625 174.252 37.1065 174.948 36.1345 174.948C35.9665 174.948 35.7745 174.936 35.6305 174.9V175.692C35.8465 175.752 36.0985 175.776 36.3745 175.776C37.8025 175.776 38.8825 174.768 38.8825 173.016C38.8825 171.408 37.8385 170.292 36.3745 170.292C35.3065 170.292 34.6345 170.844 34.2985 171.564V168.96H40.0345V168.12H27.4585V168.96H33.3385V171.516C32.9905 170.82 32.2945 170.292 31.2145 170.292C29.7025 170.292 28.6225 171.36 28.6225 173.04C28.6225 174.744 29.6785 175.824 31.1785 175.824C32.2825 175.824 32.9905 175.284 33.3385 174.576V177ZM31.4905 174.984C30.4225 174.984 29.6305 174.264 29.6305 173.04C29.6305 171.876 30.4585 171.156 31.4905 171.156C32.7865 171.156 33.3385 172.152 33.3385 173.064C33.3385 173.94 32.7745 174.984 31.4905 174.984ZM47.3631 177H48.4431V175.068H49.6431V174.12H48.4431V168.408H47.1351L42.9231 174.24V175.068H47.3631V177ZM44.1831 174.12L47.4111 169.548V174.12H44.1831ZM57.8572 170.052V168.96H60.2812V171.984H57.1252C57.5812 171.564 57.8572 170.904 57.8572 170.052ZM52.3852 168.96H56.8732V170.052C56.8732 171.276 56.1892 172.068 54.8092 172.068H53.7052V174.516C53.7052 176.004 54.4972 177.108 56.0932 177.108C57.5452 177.108 58.4332 176.184 58.4332 174.744C58.4332 174.708 58.4332 174.636 58.4212 174.552H57.4612V174.696C57.4612 175.62 56.9452 176.244 56.0812 176.244C55.1212 176.244 54.6892 175.536 54.6892 174.564V172.812H60.2812V177H61.2652V168.96H62.8612V168.12H52.3852V168.96ZM60.0813 168.168H61.0293C59.4453 165.444 58.8333 165.228 57.2493 165.228H56.7573V166.044H57.2613C58.4373 166.044 58.8453 166.212 60.0813 168.168ZM66.6285 177H67.7325V168.324H65.4765V169.32H66.6285V177ZM69.3682 172.572C69.3682 175.092 69.9922 177 72.3922 177C74.7802 177 75.4042 175.092 75.4042 172.572C75.4042 170.088 74.7802 168.192 72.3922 168.192C69.9922 168.192 69.3682 170.088 69.3682 172.572ZM74.3242 172.572C74.3242 174.444 74.0962 176.004 72.3922 176.004C70.6762 176.004 70.4482 174.444 70.4482 172.572C70.4482 170.772 70.6762 169.188 72.3922 169.188C74.0962 169.188 74.3242 170.772 74.3242 172.572Z" fill="#1A0628"/>
<path d="M125.848 168.469V169.078L122.314 177H121.172L124.699 169.359H120.082V168.469H125.848Z" fill="#1A0628"/>
<path d="M188.568 168.422V177H187.484V169.775L185.298 170.572V169.594L188.398 168.422H188.568ZM192.617 175.711V176.584C192.617 176.939 192.527 177.314 192.347 177.709C192.168 178.107 191.916 178.439 191.592 178.705L190.976 178.277C191.101 178.105 191.207 177.93 191.293 177.75C191.379 177.574 191.443 177.391 191.486 177.199C191.533 177.012 191.556 176.812 191.556 176.602V175.711H192.617ZM198.998 172.055V173.355C198.998 174.055 198.936 174.645 198.811 175.125C198.686 175.605 198.506 175.992 198.271 176.285C198.037 176.578 197.754 176.791 197.422 176.924C197.094 177.053 196.723 177.117 196.309 177.117C195.98 177.117 195.678 177.076 195.4 176.994C195.123 176.912 194.873 176.781 194.65 176.602C194.432 176.418 194.244 176.18 194.088 175.887C193.932 175.594 193.812 175.238 193.73 174.82C193.648 174.402 193.607 173.914 193.607 173.355V172.055C193.607 171.355 193.67 170.77 193.795 170.297C193.924 169.824 194.105 169.445 194.34 169.16C194.574 168.871 194.855 168.664 195.184 168.539C195.516 168.414 195.887 168.352 196.297 168.352C196.629 168.352 196.934 168.393 197.211 168.475C197.492 168.553 197.742 168.68 197.961 168.855C198.18 169.027 198.365 169.258 198.518 169.547C198.674 169.832 198.793 170.182 198.875 170.596C198.957 171.01 198.998 171.496 198.998 172.055ZM197.908 173.531V171.873C197.908 171.49 197.885 171.154 197.838 170.865C197.795 170.572 197.73 170.322 197.645 170.115C197.559 169.908 197.449 169.74 197.316 169.611C197.188 169.482 197.037 169.389 196.865 169.33C196.697 169.268 196.508 169.236 196.297 169.236C196.039 169.236 195.811 169.285 195.611 169.383C195.412 169.477 195.244 169.627 195.107 169.834C194.975 170.041 194.873 170.312 194.803 170.648C194.732 170.984 194.697 171.393 194.697 171.873V173.531C194.697 173.914 194.719 174.252 194.762 174.545C194.809 174.838 194.877 175.092 194.967 175.307C195.057 175.518 195.166 175.691 195.295 175.828C195.424 175.965 195.572 176.066 195.74 176.133C195.912 176.195 196.102 176.227 196.309 176.227C196.574 176.227 196.807 176.176 197.006 176.074C197.205 175.973 197.371 175.814 197.504 175.6C197.641 175.381 197.742 175.102 197.809 174.762C197.875 174.418 197.908 174.008 197.908 173.531ZM205.508 172.055V173.355C205.508 174.055 205.446 174.645 205.321 175.125C205.196 175.605 205.016 175.992 204.781 176.285C204.547 176.578 204.264 176.791 203.932 176.924C203.604 177.053 203.233 177.117 202.819 177.117C202.49 177.117 202.188 177.076 201.91 176.994C201.633 176.912 201.383 176.781 201.16 176.602C200.942 176.418 200.754 176.18 200.598 175.887C200.442 175.594 200.323 175.238 200.24 174.82C200.158 174.402 200.117 173.914 200.117 173.355V172.055C200.117 171.355 200.18 170.77 200.305 170.297C200.434 169.824 200.615 169.445 200.85 169.16C201.084 168.871 201.365 168.664 201.694 168.539C202.026 168.414 202.397 168.352 202.807 168.352C203.139 168.352 203.444 168.393 203.721 168.475C204.002 168.553 204.252 168.68 204.471 168.855C204.69 169.027 204.875 169.258 205.028 169.547C205.184 169.832 205.303 170.182 205.385 170.596C205.467 171.01 205.508 171.496 205.508 172.055ZM204.418 173.531V171.873C204.418 171.49 204.395 171.154 204.348 170.865C204.305 170.572 204.24 170.322 204.155 170.115C204.069 169.908 203.959 169.74 203.826 169.611C203.698 169.482 203.547 169.389 203.375 169.33C203.207 169.268 203.018 169.236 202.807 169.236C202.549 169.236 202.321 169.285 202.121 169.383C201.922 169.477 201.754 169.627 201.617 169.834C201.485 170.041 201.383 170.312 201.313 170.648C201.242 170.984 201.207 171.393 201.207 171.873V173.531C201.207 173.914 201.229 174.252 201.272 174.545C201.319 174.838 201.387 175.092 201.477 175.307C201.567 175.518 201.676 175.691 201.805 175.828C201.934 175.965 202.082 176.066 202.25 176.133C202.422 176.195 202.612 176.227 202.819 176.227C203.084 176.227 203.317 176.176 203.516 176.074C203.715 175.973 203.881 175.814 204.014 175.6C204.151 175.381 204.252 175.102 204.319 174.762C204.385 174.418 204.418 174.008 204.418 173.531ZM212.018 172.055V173.355C212.018 174.055 211.956 174.645 211.831 175.125C211.706 175.605 211.526 175.992 211.291 176.285C211.057 176.578 210.774 176.791 210.442 176.924C210.114 177.053 209.743 177.117 209.329 177.117C209 177.117 208.698 177.076 208.42 176.994C208.143 176.912 207.893 176.781 207.67 176.602C207.452 176.418 207.264 176.18 207.108 175.887C206.952 175.594 206.833 175.238 206.75 174.82C206.668 174.402 206.627 173.914 206.627 173.355V172.055C206.627 171.355 206.69 170.77 206.815 170.297C206.944 169.824 207.125 169.445 207.36 169.16C207.594 168.871 207.875 168.664 208.204 168.539C208.536 168.414 208.907 168.352 209.317 168.352C209.649 168.352 209.954 168.393 210.231 168.475C210.512 168.553 210.762 168.68 210.981 168.855C211.2 169.027 211.385 169.258 211.538 169.547C211.694 169.832 211.813 170.182 211.895 170.596C211.977 171.01 212.018 171.496 212.018 172.055ZM210.928 173.531V171.873C210.928 171.49 210.905 171.154 210.858 170.865C210.815 170.572 210.75 170.322 210.665 170.115C210.579 169.908 210.469 169.74 210.336 169.611C210.208 169.482 210.057 169.389 209.885 169.33C209.717 169.268 209.528 169.236 209.317 169.236C209.059 169.236 208.831 169.285 208.631 169.383C208.432 169.477 208.264 169.627 208.127 169.834C207.995 170.041 207.893 170.312 207.823 170.648C207.752 170.984 207.717 171.393 207.717 171.873V173.531C207.717 173.914 207.739 174.252 207.782 174.545C207.829 174.838 207.897 175.092 207.987 175.307C208.077 175.518 208.186 175.691 208.315 175.828C208.444 175.965 208.592 176.066 208.76 176.133C208.932 176.195 209.122 176.227 209.329 176.227C209.594 176.227 209.827 176.176 210.026 176.074C210.225 175.973 210.391 175.814 210.524 175.6C210.661 175.381 210.762 175.102 210.829 174.762C210.895 174.418 210.928 174.008 210.928 173.531Z" fill="#1A0628"/>
<path d="M255.698 162.624H255.23V163.44H255.698C256.358 163.44 256.79 163.668 257.054 163.992L257.066 164.064H257.102C257.294 164.328 257.378 164.652 257.378 164.964C257.378 165.876 256.766 166.5 255.794 166.5C254.822 166.5 254.138 165.84 254.138 164.928H253.202C253.202 166.38 254.306 167.364 255.866 167.364C257.33 167.364 258.302 166.452 258.302 165.048C258.302 164.712 258.23 164.364 258.086 164.064L259.982 164.076V168H260.978V159.96H262.562V159.12H259.982V163.248H257.33C257.138 163.14 256.922 163.056 256.682 163.02V162.996C257.654 162.756 258.146 162.048 258.146 161.148C258.146 159.84 257.162 159.012 255.77 159.012C254.33 159.012 253.286 159.864 253.286 161.244H254.222C254.222 160.392 254.906 159.864 255.77 159.864C256.586 159.864 257.246 160.392 257.246 161.28C257.246 161.94 256.742 162.624 255.698 162.624ZM264.796 165.936C264.064 165.936 263.524 165.444 263.524 164.664C263.524 163.86 264.112 163.38 264.928 163.38H266.044V164.352C266.044 165.348 265.576 165.936 264.796 165.936ZM269.176 162.552H266.98V159.96H269.176V162.552ZM261.688 159.96H266.044V162.552H264.904C263.584 162.552 262.588 163.296 262.588 164.664C262.588 165.936 263.464 166.788 264.796 166.788C266.2 166.788 266.98 165.9 266.98 164.304V163.38H269.176V168H270.184V159.96H271.756V159.12H261.688V159.96ZM268.985 159.168H269.933C268.349 156.444 267.737 156.228 266.153 156.228H265.661V157.044H266.165C267.341 157.044 267.749 157.212 268.985 159.168ZM270.641 159.96H278.789V162.012H275.537V163.992C275.537 164.916 275.021 165.552 274.181 165.552C273.365 165.552 272.873 164.916 272.873 163.992V162.012H271.865V164.016C271.865 165.432 272.693 166.428 274.169 166.428C275.621 166.428 276.509 165.432 276.509 164.016V162.876H278.789V168H279.785V159.96H281.369V159.12H270.641V159.96ZM284.008 165.744C283.096 165.744 282.472 165.144 282.472 164.28C282.472 163.404 283.108 162.792 284.008 162.792C284.884 162.792 285.52 163.416 285.52 164.268C285.52 165.132 284.884 165.744 284.008 165.744ZM280.48 159.96H288.016V161.952H284.08C282.652 161.952 281.56 162.804 281.56 164.28C281.56 165.696 282.616 166.596 283.996 166.596C285.316 166.596 286.324 165.768 286.324 164.388C286.324 163.692 286.048 163.152 285.676 162.792H288.016V168H289.012V159.96H290.596V159.12H280.48V159.96ZM295.26 159.96H296.832V159.12H295.248C295.248 157.356 296.736 156.84 298.968 156.84C301.212 156.84 302.784 157.488 302.784 159.216V159.384H303.768V159.18C303.768 157.08 301.968 156.012 298.98 156.012C296.028 156.012 294.3 156.912 294.252 159.12H292.668V159.96H294.252V168H295.26V159.96ZM302.963 168H303.959V159.96H305.543V159.12H295.955V159.96H299.819V163.236C299.819 163.824 299.627 164.448 298.823 164.448C298.079 164.448 297.839 163.848 297.839 163.272V162.9H296.855V163.26C296.855 164.46 297.515 165.312 298.859 165.312C300.263 165.312 300.827 164.352 300.827 163.2V159.96H302.963V168ZM308.7 164.784C307.536 164.784 307.008 163.98 307.008 162.708V159.96H310.368V162.972C310.368 163.944 309.78 164.784 308.7 164.784ZM313.44 161.292C312.372 161.292 311.7 161.832 311.364 162.528V159.96H318.708V161.352H318.432C317.172 161.352 316.152 161.772 315.552 162.564C315.156 161.76 314.448 161.292 313.44 161.292ZM311.364 164.244C311.364 163.224 311.892 162.156 313.2 162.156C314.352 162.156 314.964 162.972 314.964 164.268C314.964 164.34 314.964 164.4 314.964 164.472C314.964 166.26 316.32 167.484 318.204 167.484C320.112 167.484 321.384 166.224 321.384 164.364H320.424C320.424 165.684 319.524 166.62 318.18 166.62C316.884 166.62 315.96 165.72 315.96 164.46C315.96 162.936 317.076 162.204 318.48 162.204H319.692V159.96H322.248V159.12H304.668V159.96H306.012V162.708C306.012 164.472 306.84 165.636 308.472 165.636C309.36 165.636 309.996 165.252 310.368 164.628V168H311.364V164.244ZM281.736 186H282.696V182.136C282.696 181.188 283.212 180.156 284.496 180.156C285.48 180.156 286.26 180.888 286.26 182.04C286.26 183.252 285.504 183.948 284.532 183.948C284.364 183.948 284.172 183.936 284.028 183.9V184.692C284.244 184.752 284.496 184.776 284.772 184.776C286.2 184.776 287.28 183.768 287.28 182.016C287.28 180.408 286.236 179.292 284.772 179.292C283.704 179.292 283.032 179.844 282.696 180.564V177.96H288.432V177.12H275.856V177.96H281.736V180.516C281.388 179.82 280.692 179.292 279.612 179.292C278.1 179.292 277.02 180.36 277.02 182.04C277.02 183.744 278.076 184.824 279.576 184.824C280.68 184.824 281.388 184.284 281.736 183.576V186ZM279.888 183.984C278.82 183.984 278.028 183.264 278.028 182.04C278.028 180.876 278.856 180.156 279.888 180.156C281.184 180.156 281.736 181.152 281.736 182.064C281.736 182.94 281.172 183.984 279.888 183.984ZM289.142 186H290.15V177.96H291.722V177.12H287.558V177.96H289.142V186ZM290.845 177.96H295.741V179.412H294.373C293.281 179.412 292.201 179.844 292.201 181.104C292.201 182.46 293.353 182.844 294.361 182.844H294.853C295.705 182.844 296.533 183.144 296.533 184.14C296.533 184.86 296.005 185.4 294.925 185.4C293.677 185.4 293.017 184.74 293.005 183.852H292.021C292.045 185.244 293.149 186.168 294.949 186.168C296.617 186.168 297.481 185.328 297.481 184.152C297.481 182.616 296.233 182.124 295.021 182.124H294.481C293.809 182.124 293.209 181.872 293.209 181.128C293.209 180.312 293.989 180.132 294.649 180.132H296.701V177.96H298.369V177.12H290.845V177.96ZM295.53 177.3H296.466V176.232C296.466 175.26 296.814 174.768 297.546 174.768C298.194 174.768 298.59 175.236 298.566 175.944H299.454C299.49 174.744 298.782 173.916 297.522 173.916C296.106 173.916 295.53 174.912 295.53 176.232V177.3Z" fill="#1A0628"/>
<path d="M19.955 210.96H24.587V212.112C24.587 213.444 23.903 214.116 22.535 214.116H21.275V216.516C21.275 218.016 22.055 219.108 23.651 219.108C25.091 219.108 25.955 218.148 25.955 216.672V216.468H24.995V216.696C24.995 217.62 24.479 218.244 23.627 218.244C22.691 218.244 22.259 217.548 22.259 216.576V214.932H22.871C24.731 214.932 25.583 213.888 25.583 212.112V210.96H27.023V210.12H19.955V210.96ZM24.4655 210.156H25.3295C23.5415 206.652 23.0735 206.508 21.5015 206.508H20.9855V207.168H21.5135C22.5575 207.168 23.0975 207.24 24.2255 209.316C23.0735 208.356 22.6775 208.332 21.4775 208.332H20.9855V208.98H21.5015C22.7855 208.98 23.0495 209.04 24.4655 210.156ZM31.7769 219H32.7369V215.136C32.7369 214.188 33.2529 213.156 34.5369 213.156C35.5209 213.156 36.3009 213.888 36.3009 215.04C36.3009 216.252 35.5449 216.948 34.5729 216.948C34.4049 216.948 34.2129 216.936 34.0689 216.9V217.692C34.2849 217.752 34.5369 217.776 34.8129 217.776C36.2409 217.776 37.3209 216.768 37.3209 215.016C37.3209 213.408 36.2769 212.292 34.8129 212.292C33.7449 212.292 33.0729 212.844 32.7369 213.564V210.96H38.4729V210.12H25.8969V210.96H31.7769V213.516C31.4289 212.82 30.7329 212.292 29.6529 212.292C28.1409 212.292 27.0609 213.36 27.0609 215.04C27.0609 216.744 28.1169 217.824 29.6169 217.824C30.7209 217.824 31.4289 217.284 31.7769 216.576V219ZM29.9289 216.984C28.8609 216.984 28.0689 216.264 28.0689 215.04C28.0689 213.876 28.8969 213.156 29.9289 213.156C31.2249 213.156 31.7769 214.152 31.7769 215.064C31.7769 215.94 31.2129 216.984 29.9289 216.984ZM42.4895 219H43.5935V210.324H41.3375V211.32H42.4895V219ZM46.0932 219H47.1972V210.324H44.9412V211.32H46.0932V219ZM56.1962 212.052V210.96H58.6202V213.984H55.4642C55.9202 213.564 56.1962 212.904 56.1962 212.052ZM50.7242 210.96H55.2122V212.052C55.2122 213.276 54.5282 214.068 53.1482 214.068H52.0442V216.516C52.0442 218.004 52.8362 219.108 54.4322 219.108C55.8842 219.108 56.7722 218.184 56.7722 216.744C56.7722 216.708 56.7722 216.636 56.7602 216.552H55.8002V216.696C55.8002 217.62 55.2842 218.244 54.4202 218.244C53.4602 218.244 53.0282 217.536 53.0282 216.564V214.812H58.6202V219H59.6042V210.96H61.2002V210.12H50.7242V210.96ZM58.4202 210.168H59.3682C57.7842 207.444 57.1722 207.228 55.5882 207.228H55.0962V208.044H55.6002C56.7762 208.044 57.1842 208.212 58.4202 210.168ZM64.0795 212.508H65.1475C65.2555 211.668 65.8675 211.092 66.8875 211.092C67.9315 211.092 68.4835 211.668 68.4835 212.496C68.4835 213.504 67.7035 213.948 66.2515 213.96H65.9635V214.872H66.2395C67.7995 214.872 68.6515 215.34 68.6515 216.564C68.6515 217.452 68.0995 218.136 66.9355 218.136C65.7835 218.136 65.1115 217.428 65.0035 216.504H63.9475C64.0795 218.184 65.3035 219.06 66.9475 219.06C68.7595 219.06 69.6955 218.004 69.6955 216.66C69.6955 215.412 69.0115 214.668 68.0035 214.428V214.368C68.9155 214.164 69.5395 213.384 69.5395 212.388C69.5395 211.14 68.6155 210.156 66.9235 210.156C65.3155 210.156 64.1875 211.02 64.0795 212.508ZM70.9299 214.572C70.9299 217.092 71.5539 219 73.9539 219C76.3419 219 76.9659 217.092 76.9659 214.572C76.9659 212.088 76.3419 210.192 73.9539 210.192C71.5539 210.192 70.9299 212.088 70.9299 214.572ZM75.8859 214.572C75.8859 216.444 75.6579 218.004 73.9539 218.004C72.2379 218.004 72.0099 216.444 72.0099 214.572C72.0099 212.772 72.2379 211.188 73.9539 211.188C75.6579 211.188 75.8859 212.772 75.8859 214.572Z" fill="#1A0628"/>
<path d="M122.669 218.109V219H117.085V218.221L119.88 215.109C120.224 214.727 120.489 214.402 120.677 214.137C120.868 213.867 121.001 213.627 121.075 213.416C121.153 213.201 121.192 212.982 121.192 212.76C121.192 212.479 121.134 212.225 121.016 211.998C120.903 211.768 120.735 211.584 120.513 211.447C120.29 211.311 120.02 211.242 119.704 211.242C119.325 211.242 119.009 211.316 118.755 211.465C118.505 211.609 118.317 211.812 118.192 212.074C118.067 212.336 118.005 212.637 118.005 212.977H116.921C116.921 212.496 117.026 212.057 117.237 211.658C117.448 211.26 117.761 210.943 118.175 210.709C118.589 210.471 119.099 210.352 119.704 210.352C120.243 210.352 120.704 210.447 121.087 210.639C121.47 210.826 121.763 211.092 121.966 211.436C122.173 211.775 122.276 212.174 122.276 212.631C122.276 212.881 122.233 213.135 122.147 213.393C122.065 213.646 121.95 213.9 121.802 214.154C121.657 214.408 121.487 214.658 121.292 214.904C121.1 215.15 120.895 215.393 120.677 215.631L118.391 218.109H122.669ZM128.944 214.055V215.355C128.944 216.055 128.882 216.645 128.757 217.125C128.632 217.605 128.452 217.992 128.218 218.285C127.984 218.578 127.7 218.791 127.368 218.924C127.04 219.053 126.669 219.117 126.255 219.117C125.927 219.117 125.624 219.076 125.347 218.994C125.069 218.912 124.819 218.781 124.597 218.602C124.378 218.418 124.191 218.18 124.034 217.887C123.878 217.594 123.759 217.238 123.677 216.82C123.595 216.402 123.554 215.914 123.554 215.355V214.055C123.554 213.355 123.616 212.77 123.741 212.297C123.87 211.824 124.052 211.445 124.286 211.16C124.521 210.871 124.802 210.664 125.13 210.539C125.462 210.414 125.833 210.352 126.243 210.352C126.575 210.352 126.88 210.393 127.157 210.475C127.439 210.553 127.689 210.68 127.907 210.855C128.126 211.027 128.312 211.258 128.464 211.547C128.62 211.832 128.739 212.182 128.821 212.596C128.903 213.01 128.944 213.496 128.944 214.055ZM127.855 215.531V213.873C127.855 213.49 127.831 213.154 127.784 212.865C127.741 212.572 127.677 212.322 127.591 212.115C127.505 211.908 127.396 211.74 127.263 211.611C127.134 211.482 126.984 211.389 126.812 211.33C126.644 211.268 126.454 211.236 126.243 211.236C125.985 211.236 125.757 211.285 125.558 211.383C125.359 211.477 125.191 211.627 125.054 211.834C124.921 212.041 124.819 212.312 124.749 212.648C124.679 212.984 124.644 213.393 124.644 213.873V215.531C124.644 215.914 124.665 216.252 124.708 216.545C124.755 216.838 124.823 217.092 124.913 217.307C125.003 217.518 125.112 217.691 125.241 217.828C125.37 217.965 125.519 218.066 125.687 218.133C125.859 218.195 126.048 218.227 126.255 218.227C126.521 218.227 126.753 218.176 126.952 218.074C127.151 217.973 127.317 217.814 127.45 217.6C127.587 217.381 127.689 217.102 127.755 216.762C127.821 216.418 127.855 216.008 127.855 215.531Z" fill="#1A0628"/>
<path d="M194.914 218.109V219H189.33V218.221L192.125 215.109C192.469 214.727 192.734 214.402 192.922 214.137C193.113 213.867 193.246 213.627 193.32 213.416C193.398 213.201 193.437 212.982 193.437 212.76C193.437 212.479 193.379 212.225 193.261 211.998C193.148 211.768 192.98 211.584 192.758 211.447C192.535 211.311 192.265 211.242 191.949 211.242C191.57 211.242 191.254 211.316 191 211.465C190.75 211.609 190.562 211.812 190.437 212.074C190.312 212.336 190.25 212.637 190.25 212.977H189.166C189.166 212.496 189.271 212.057 189.482 211.658C189.693 211.26 190.006 210.943 190.42 210.709C190.834 210.471 191.344 210.352 191.949 210.352C192.488 210.352 192.949 210.447 193.332 210.639C193.715 210.826 194.008 211.092 194.211 211.436C194.418 211.775 194.521 212.174 194.521 212.631C194.521 212.881 194.478 213.135 194.392 213.393C194.31 213.646 194.195 213.9 194.047 214.154C193.902 214.408 193.732 214.658 193.537 214.904C193.345 215.15 193.14 215.393 192.922 215.631L190.636 218.109H194.914ZM197.205 214.939L196.338 214.717L196.766 210.469H201.143V211.471H197.686L197.428 213.791C197.584 213.701 197.781 213.617 198.02 213.539C198.262 213.461 198.539 213.422 198.852 213.422C199.246 213.422 199.6 213.49 199.912 213.627C200.225 213.76 200.49 213.951 200.709 214.201C200.932 214.451 201.102 214.752 201.219 215.104C201.336 215.455 201.395 215.848 201.395 216.281C201.395 216.691 201.338 217.068 201.225 217.412C201.115 217.756 200.949 218.057 200.727 218.314C200.504 218.568 200.223 218.766 199.883 218.906C199.547 219.047 199.15 219.117 198.693 219.117C198.35 219.117 198.023 219.07 197.715 218.977C197.41 218.879 197.137 218.732 196.895 218.537C196.656 218.338 196.461 218.092 196.309 217.799C196.16 217.502 196.066 217.154 196.027 216.756H197.059C197.105 217.076 197.199 217.346 197.34 217.564C197.48 217.783 197.664 217.949 197.891 218.062C198.121 218.172 198.389 218.227 198.693 218.227C198.951 218.227 199.18 218.182 199.379 218.092C199.578 218.002 199.746 217.873 199.883 217.705C200.02 217.537 200.123 217.334 200.193 217.096C200.268 216.857 200.305 216.59 200.305 216.293C200.305 216.023 200.268 215.773 200.193 215.543C200.119 215.312 200.008 215.111 199.859 214.939C199.715 214.768 199.537 214.635 199.326 214.541C199.115 214.443 198.873 214.395 198.6 214.395C198.236 214.395 197.961 214.443 197.773 214.541C197.59 214.639 197.4 214.771 197.205 214.939ZM207.699 214.055V215.355C207.699 216.055 207.637 216.645 207.512 217.125C207.387 217.605 207.207 217.992 206.973 218.285C206.739 218.578 206.455 218.791 206.123 218.924C205.795 219.053 205.424 219.117 205.01 219.117C204.682 219.117 204.379 219.076 204.102 218.994C203.824 218.912 203.574 218.781 203.352 218.602C203.133 218.418 202.946 218.18 202.789 217.887C202.633 217.594 202.514 217.238 202.432 216.82C202.35 216.402 202.309 215.914 202.309 215.355V214.055C202.309 213.355 202.371 212.77 202.496 212.297C202.625 211.824 202.807 211.445 203.041 211.16C203.276 210.871 203.557 210.664 203.885 210.539C204.217 210.414 204.588 210.352 204.998 210.352C205.33 210.352 205.635 210.393 205.912 210.475C206.194 210.553 206.444 210.68 206.662 210.855C206.881 211.027 207.067 211.258 207.219 211.547C207.375 211.832 207.494 212.182 207.576 212.596C207.658 213.01 207.699 213.496 207.699 214.055ZM206.61 215.531V213.873C206.61 213.49 206.586 213.154 206.539 212.865C206.496 212.572 206.432 212.322 206.346 212.115C206.26 211.908 206.151 211.74 206.018 211.611C205.889 211.482 205.739 211.389 205.567 211.33C205.399 211.268 205.209 211.236 204.998 211.236C204.74 211.236 204.512 211.285 204.313 211.383C204.114 211.477 203.946 211.627 203.809 211.834C203.676 212.041 203.574 212.312 203.504 212.648C203.434 212.984 203.399 213.393 203.399 213.873V215.531C203.399 215.914 203.42 216.252 203.463 216.545C203.51 216.838 203.578 217.092 203.668 217.307C203.758 217.518 203.867 217.691 203.996 217.828C204.125 217.965 204.274 218.066 204.442 218.133C204.614 218.195 204.803 218.227 205.01 218.227C205.276 218.227 205.508 218.176 205.707 218.074C205.906 217.973 206.072 217.814 206.205 217.6C206.342 217.381 206.444 217.102 206.51 216.762C206.576 216.418 206.61 216.008 206.61 215.531Z" fill="#1A0628"/>
<path d="M255.698 202.624H255.23V203.44H255.698C256.358 203.44 256.79 203.668 257.054 203.992L257.066 204.064H257.102C257.294 204.328 257.378 204.652 257.378 204.964C257.378 205.876 256.766 206.5 255.794 206.5C254.822 206.5 254.138 205.84 254.138 204.928H253.202C253.202 206.38 254.306 207.364 255.866 207.364C257.33 207.364 258.302 206.452 258.302 205.048C258.302 204.712 258.23 204.364 258.086 204.064L259.982 204.076V208H260.978V199.96H262.562V199.12H259.982V203.248H257.33C257.138 203.14 256.922 203.056 256.682 203.02V202.996C257.654 202.756 258.146 202.048 258.146 201.148C258.146 199.84 257.162 199.012 255.77 199.012C254.33 199.012 253.286 199.864 253.286 201.244H254.222C254.222 200.392 254.906 199.864 255.77 199.864C256.586 199.864 257.246 200.392 257.246 201.28C257.246 201.94 256.742 202.624 255.698 202.624ZM264.796 205.936C264.064 205.936 263.524 205.444 263.524 204.664C263.524 203.86 264.112 203.38 264.928 203.38H266.044V204.352C266.044 205.348 265.576 205.936 264.796 205.936ZM269.176 202.552H266.98V199.96H269.176V202.552ZM261.688 199.96H266.044V202.552H264.904C263.584 202.552 262.588 203.296 262.588 204.664C262.588 205.936 263.464 206.788 264.796 206.788C266.2 206.788 266.98 205.9 266.98 204.304V203.38H269.176V208H270.184V199.96H271.756V199.12H261.688V199.96ZM268.985 199.168H269.933C268.349 196.444 267.737 196.228 266.153 196.228H265.661V197.044H266.165C267.341 197.044 267.749 197.212 268.985 199.168ZM270.641 199.96H278.789V202.012H275.537V203.992C275.537 204.916 275.021 205.552 274.181 205.552C273.365 205.552 272.873 204.916 272.873 203.992V202.012H271.865V204.016C271.865 205.432 272.693 206.428 274.169 206.428C275.621 206.428 276.509 205.432 276.509 204.016V202.876H278.789V208H279.785V199.96H281.369V199.12H270.641V199.96ZM284.008 205.744C283.096 205.744 282.472 205.144 282.472 204.28C282.472 203.404 283.108 202.792 284.008 202.792C284.884 202.792 285.52 203.416 285.52 204.268C285.52 205.132 284.884 205.744 284.008 205.744ZM280.48 199.96H288.016V201.952H284.08C282.652 201.952 281.56 202.804 281.56 204.28C281.56 205.696 282.616 206.596 283.996 206.596C285.316 206.596 286.324 205.768 286.324 204.388C286.324 203.692 286.048 203.152 285.676 202.792H288.016V208H289.012V199.96H290.596V199.12H280.48V199.96ZM295.26 199.96H296.832V199.12H295.248C295.248 197.356 296.736 196.84 298.968 196.84C301.212 196.84 302.784 197.488 302.784 199.216V199.384H303.768V199.18C303.768 197.08 301.968 196.012 298.98 196.012C296.028 196.012 294.3 196.912 294.252 199.12H292.668V199.96H294.252V208H295.26V199.96ZM302.963 208H303.959V199.96H305.543V199.12H295.955V199.96H299.819V203.236C299.819 203.824 299.627 204.448 298.823 204.448C298.079 204.448 297.839 203.848 297.839 203.272V202.9H296.855V203.26C296.855 204.46 297.515 205.312 298.859 205.312C300.263 205.312 300.827 204.352 300.827 203.2V199.96H302.963V208ZM308.7 204.784C307.536 204.784 307.008 203.98 307.008 202.708V199.96H310.368V202.972C310.368 203.944 309.78 204.784 308.7 204.784ZM313.44 201.292C312.372 201.292 311.7 201.832 311.364 202.528V199.96H318.708V201.352H318.432C317.172 201.352 316.152 201.772 315.552 202.564C315.156 201.76 314.448 201.292 313.44 201.292ZM311.364 204.244C311.364 203.224 311.892 202.156 313.2 202.156C314.352 202.156 314.964 202.972 314.964 204.268C314.964 204.34 314.964 204.4 314.964 204.472C314.964 206.26 316.32 207.484 318.204 207.484C320.112 207.484 321.384 206.224 321.384 204.364H320.424C320.424 205.684 319.524 206.62 318.18 206.62C316.884 206.62 315.96 205.72 315.96 204.46C315.96 202.936 317.076 202.204 318.48 202.204H319.692V199.96H322.248V199.12H304.668V199.96H306.012V202.708C306.012 204.472 306.84 205.636 308.472 205.636C309.36 205.636 309.996 205.252 310.368 204.628V208H311.364V204.244ZM281.736 226H282.696V222.136C282.696 221.188 283.212 220.156 284.496 220.156C285.48 220.156 286.26 220.888 286.26 222.04C286.26 223.252 285.504 223.948 284.532 223.948C284.364 223.948 284.172 223.936 284.028 223.9V224.692C284.244 224.752 284.496 224.776 284.772 224.776C286.2 224.776 287.28 223.768 287.28 222.016C287.28 220.408 286.236 219.292 284.772 219.292C283.704 219.292 283.032 219.844 282.696 220.564V217.96H288.432V217.12H275.856V217.96H281.736V220.516C281.388 219.82 280.692 219.292 279.612 219.292C278.1 219.292 277.02 220.36 277.02 222.04C277.02 223.744 278.076 224.824 279.576 224.824C280.68 224.824 281.388 224.284 281.736 223.576V226ZM279.888 223.984C278.82 223.984 278.028 223.264 278.028 222.04C278.028 220.876 278.856 220.156 279.888 220.156C281.184 220.156 281.736 221.152 281.736 222.064C281.736 222.94 281.172 223.984 279.888 223.984ZM289.142 226H290.15V217.96H291.722V217.12H287.558V217.96H289.142V226ZM290.845 217.96H295.741V219.412H294.373C293.281 219.412 292.201 219.844 292.201 221.104C292.201 222.46 293.353 222.844 294.361 222.844H294.853C295.705 222.844 296.533 223.144 296.533 224.14C296.533 224.86 296.005 225.4 294.925 225.4C293.677 225.4 293.017 224.74 293.005 223.852H292.021C292.045 225.244 293.149 226.168 294.949 226.168C296.617 226.168 297.481 225.328 297.481 224.152C297.481 222.616 296.233 222.124 295.021 222.124H294.481C293.809 222.124 293.209 221.872 293.209 221.128C293.209 220.312 293.989 220.132 294.649 220.132H296.701V217.96H298.369V217.12H290.845V217.96ZM295.53 217.3H296.466V216.232C296.466 215.26 296.814 214.768 297.546 214.768C298.194 214.768 298.59 215.236 298.566 215.944H299.454C299.49 214.744 298.782 213.916 297.522 213.916C296.106 213.916 295.53 214.912 295.53 216.232V217.3Z" fill="#1A0628"/>
<path d="M34.0432 93.96H38.6752V95.112C38.6752 96.444 37.9912 97.116 36.6232 97.116H35.3632V99.516C35.3632 101.016 36.1432 102.108 37.7392 102.108C39.1792 102.108 40.0432 101.148 40.0432 99.672V99.468H39.0832V99.696C39.0832 100.62 38.5672 101.244 37.7152 101.244C36.7792 101.244 36.3472 100.548 36.3472 99.576V97.932H36.9592C38.8192 97.932 39.6712 96.888 39.6712 95.112V93.96H41.1112V93.12H34.0432V93.96ZM38.4131 93.156H39.2771C37.4891 89.652 37.0211 89.508 35.4491 89.508H34.9331V90.168H35.4611C36.5051 90.168 37.0451 90.24 38.1731 92.316C37.0211 91.356 36.6251 91.332 35.4251 91.332H34.9331V91.98H35.4491C36.7331 91.98 36.9971 92.04 38.4131 93.156ZM38.5451 91.98C38.9171 91.98 39.2171 91.68 39.2171 91.308C39.2171 90.936 38.9171 90.636 38.5451 90.636C38.1611 90.636 37.8611 90.936 37.8611 91.308C37.8611 91.68 38.1611 91.98 38.5451 91.98ZM45.6251 102H46.5851V98.136C46.5851 97.188 47.1011 96.156 48.3851 96.156C49.3691 96.156 50.1491 96.888 50.1491 98.04C50.1491 99.252 49.3931 99.948 48.4211 99.948C48.2531 99.948 48.0611 99.936 47.9171 99.9V100.692C48.1331 100.752 48.3851 100.776 48.6611 100.776C50.0891 100.776 51.1691 99.768 51.1691 98.016C51.1691 96.408 50.1251 95.292 48.6611 95.292C47.5931 95.292 46.9211 95.844 46.5851 96.564V93.96H52.3211V93.12H39.7451V93.96H45.6251V96.516C45.2771 95.82 44.5811 95.292 43.5011 95.292C41.9891 95.292 40.9091 96.36 40.9091 98.04C40.9091 99.744 41.9651 100.824 43.4651 100.824C44.5691 100.824 45.2771 100.284 45.6251 99.576V102ZM43.7771 99.984C42.7091 99.984 41.9171 99.264 41.9171 98.04C41.9171 96.876 42.7451 96.156 43.7771 96.156C45.0731 96.156 45.6251 97.152 45.6251 98.064C45.6251 98.94 45.0611 99.984 43.7771 99.984ZM55.3417 101.904H61.1137V100.992H56.9857C58.5337 99.732 60.8617 97.896 60.8617 95.736C60.8617 94.128 59.8057 93.168 58.1737 93.168C56.6137 93.168 55.4497 94.128 55.3777 95.976H56.4337C56.4817 94.884 57.0577 94.104 58.1857 94.104C59.3617 94.104 59.7817 94.824 59.7817 95.784C59.7817 97.56 57.6217 99.288 55.3417 101.124V101.904Z" fill="#1A0628"/>
<path d="M123.896 95.4219V104H122.812V96.7754L120.627 97.5723V96.5938L123.727 95.4219H123.896Z" fill="#1A0628"/>
<path d="M185.313 95.4219V104H184.229V96.7754L182.043 97.5723V96.5938L185.143 95.4219H185.313ZM189.631 99.9395L188.764 99.7168L189.192 95.4688H193.569V96.4707H190.112L189.854 98.791C190.01 98.7012 190.208 98.6172 190.446 98.5391C190.688 98.4609 190.965 98.4219 191.278 98.4219C191.673 98.4219 192.026 98.4902 192.339 98.627C192.651 98.7598 192.917 98.9512 193.135 99.2012C193.358 99.4512 193.528 99.752 193.645 100.104C193.762 100.455 193.821 100.848 193.821 101.281C193.821 101.691 193.764 102.068 193.651 102.412C193.542 102.756 193.376 103.057 193.153 103.314C192.93 103.568 192.649 103.766 192.309 103.906C191.973 104.047 191.577 104.117 191.12 104.117C190.776 104.117 190.45 104.07 190.141 103.977C189.837 103.879 189.563 103.732 189.321 103.537C189.083 103.338 188.887 103.092 188.735 102.799C188.587 102.502 188.493 102.154 188.454 101.756H189.485C189.532 102.076 189.626 102.346 189.766 102.564C189.907 102.783 190.09 102.949 190.317 103.062C190.548 103.172 190.815 103.227 191.12 103.227C191.378 103.227 191.606 103.182 191.805 103.092C192.005 103.002 192.173 102.873 192.309 102.705C192.446 102.537 192.549 102.334 192.62 102.096C192.694 101.857 192.731 101.59 192.731 101.293C192.731 101.023 192.694 100.773 192.62 100.543C192.546 100.312 192.434 100.111 192.286 99.9395C192.141 99.7676 191.964 99.6348 191.753 99.541C191.542 99.4434 191.299 99.3945 191.026 99.3945C190.663 99.3945 190.387 99.4434 190.2 99.541C190.016 99.6387 189.827 99.7715 189.631 99.9395ZM195.872 102.711V103.584C195.872 103.939 195.782 104.314 195.602 104.709C195.423 105.107 195.171 105.439 194.847 105.705L194.231 105.277C194.356 105.105 194.462 104.93 194.548 104.75C194.634 104.574 194.698 104.391 194.741 104.199C194.788 104.012 194.811 103.812 194.811 103.602V102.711H195.872ZM202.253 99.0547V100.355C202.253 101.055 202.191 101.645 202.066 102.125C201.941 102.605 201.761 102.992 201.526 103.285C201.292 103.578 201.009 103.791 200.677 103.924C200.349 104.053 199.978 104.117 199.564 104.117C199.235 104.117 198.933 104.076 198.655 103.994C198.378 103.912 198.128 103.781 197.905 103.602C197.687 103.418 197.499 103.18 197.343 102.887C197.187 102.594 197.068 102.238 196.985 101.82C196.903 101.402 196.862 100.914 196.862 100.355V99.0547C196.862 98.3555 196.925 97.7695 197.05 97.2969C197.179 96.8242 197.36 96.4453 197.595 96.1602C197.829 95.8711 198.11 95.6641 198.439 95.5391C198.771 95.4141 199.142 95.3516 199.552 95.3516C199.884 95.3516 200.189 95.3926 200.466 95.4746C200.747 95.5527 200.997 95.6797 201.216 95.8555C201.435 96.0273 201.62 96.2578 201.773 96.5469C201.929 96.832 202.048 97.1816 202.13 97.5957C202.212 98.0098 202.253 98.4961 202.253 99.0547ZM201.163 100.531V98.873C201.163 98.4902 201.14 98.1543 201.093 97.8652C201.05 97.5723 200.985 97.3223 200.9 97.1152C200.814 96.9082 200.704 96.7402 200.571 96.6113C200.443 96.4824 200.292 96.3887 200.12 96.3301C199.952 96.2676 199.763 96.2363 199.552 96.2363C199.294 96.2363 199.066 96.2852 198.866 96.3828C198.667 96.4766 198.499 96.627 198.362 96.834C198.23 97.041 198.128 97.3125 198.058 97.6484C197.987 97.9844 197.952 98.3926 197.952 98.873V100.531C197.952 100.914 197.974 101.252 198.017 101.545C198.064 101.838 198.132 102.092 198.222 102.307C198.312 102.518 198.421 102.691 198.55 102.828C198.679 102.965 198.827 103.066 198.995 103.133C199.167 103.195 199.357 103.227 199.564 103.227C199.829 103.227 200.062 103.176 200.261 103.074C200.46 102.973 200.626 102.814 200.759 102.6C200.896 102.381 200.997 102.102 201.064 101.762C201.13 101.418 201.163 101.008 201.163 100.531ZM208.763 99.0547V100.355C208.763 101.055 208.701 101.645 208.576 102.125C208.451 102.605 208.271 102.992 208.036 103.285C207.802 103.578 207.519 103.791 207.187 103.924C206.859 104.053 206.488 104.117 206.074 104.117C205.745 104.117 205.443 104.076 205.165 103.994C204.888 103.912 204.638 103.781 204.415 103.602C204.197 103.418 204.009 103.18 203.853 102.887C203.697 102.594 203.577 102.238 203.495 101.82C203.413 101.402 203.372 100.914 203.372 100.355V99.0547C203.372 98.3555 203.435 97.7695 203.56 97.2969C203.689 96.8242 203.87 96.4453 204.105 96.1602C204.339 95.8711 204.62 95.6641 204.949 95.5391C205.281 95.4141 205.652 95.3516 206.062 95.3516C206.394 95.3516 206.699 95.3926 206.976 95.4746C207.257 95.5527 207.507 95.6797 207.726 95.8555C207.945 96.0273 208.13 96.2578 208.283 96.5469C208.439 96.832 208.558 97.1816 208.64 97.5957C208.722 98.0098 208.763 98.4961 208.763 99.0547ZM207.673 100.531V98.873C207.673 98.4902 207.65 98.1543 207.603 97.8652C207.56 97.5723 207.495 97.3223 207.41 97.1152C207.324 96.9082 207.214 96.7402 207.081 96.6113C206.952 96.4824 206.802 96.3887 206.63 96.3301C206.462 96.2676 206.273 96.2363 206.062 96.2363C205.804 96.2363 205.576 96.2852 205.376 96.3828C205.177 96.4766 205.009 96.627 204.872 96.834C204.74 97.041 204.638 97.3125 204.568 97.6484C204.497 97.9844 204.462 98.3926 204.462 98.873V100.531C204.462 100.914 204.484 101.252 204.527 101.545C204.574 101.838 204.642 102.092 204.732 102.307C204.822 102.518 204.931 102.691 205.06 102.828C205.189 102.965 205.337 103.066 205.505 103.133C205.677 103.195 205.867 103.227 206.074 103.227C206.339 103.227 206.572 103.176 206.771 103.074C206.97 102.973 207.136 102.814 207.269 102.6C207.406 102.381 207.507 102.102 207.574 101.762C207.64 101.418 207.673 101.008 207.673 100.531ZM215.273 99.0547V100.355C215.273 101.055 215.211 101.645 215.086 102.125C214.961 102.605 214.781 102.992 214.546 103.285C214.312 103.578 214.029 103.791 213.697 103.924C213.369 104.053 212.998 104.117 212.584 104.117C212.255 104.117 211.953 104.076 211.675 103.994C211.398 103.912 211.148 103.781 210.925 103.602C210.707 103.418 210.519 103.18 210.363 102.887C210.207 102.594 210.088 102.238 210.005 101.82C209.923 101.402 209.882 100.914 209.882 100.355V99.0547C209.882 98.3555 209.945 97.7695 210.07 97.2969C210.199 96.8242 210.38 96.4453 210.615 96.1602C210.849 95.8711 211.13 95.6641 211.459 95.5391C211.791 95.4141 212.162 95.3516 212.572 95.3516C212.904 95.3516 213.209 95.3926 213.486 95.4746C213.767 95.5527 214.017 95.6797 214.236 95.8555C214.455 96.0273 214.64 96.2578 214.793 96.5469C214.949 96.832 215.068 97.1816 215.15 97.5957C215.232 98.0098 215.273 98.4961 215.273 99.0547ZM214.183 100.531V98.873C214.183 98.4902 214.16 98.1543 214.113 97.8652C214.07 97.5723 214.005 97.3223 213.92 97.1152C213.834 96.9082 213.724 96.7402 213.591 96.6113C213.463 96.4824 213.312 96.3887 213.14 96.3301C212.972 96.2676 212.783 96.2363 212.572 96.2363C212.314 96.2363 212.086 96.2852 211.886 96.3828C211.687 96.4766 211.519 96.627 211.382 96.834C211.25 97.041 211.148 97.3125 211.078 97.6484C211.007 97.9844 210.972 98.3926 210.972 98.873V100.531C210.972 100.914 210.994 101.252 211.037 101.545C211.084 101.838 211.152 102.092 211.242 102.307C211.332 102.518 211.441 102.691 211.57 102.828C211.699 102.965 211.847 103.066 212.015 103.133C212.187 103.195 212.377 103.227 212.584 103.227C212.849 103.227 213.082 103.176 213.281 103.074C213.48 102.973 213.646 102.814 213.779 102.6C213.916 102.381 214.017 102.102 214.084 101.762C214.15 101.418 214.183 101.008 214.183 100.531Z" fill="#1A0628"/>
<path d="M274.083 101.744C273.171 101.744 272.547 101.144 272.547 100.28C272.547 99.404 273.183 98.792 274.083 98.792C274.959 98.792 275.595 99.416 275.595 100.268C275.595 101.132 274.959 101.744 274.083 101.744ZM270.555 95.96H278.091V97.952H274.155C272.727 97.952 271.635 98.804 271.635 100.28C271.635 101.696 272.691 102.596 274.071 102.596C275.391 102.596 276.399 101.768 276.399 100.388C276.399 99.692 276.123 99.152 275.751 98.792H278.091V104H279.087V95.96H280.671V95.12H270.555V95.96ZM285.663 104H286.623V100.136C286.623 99.188 287.139 98.156 288.423 98.156C289.407 98.156 290.187 98.888 290.187 100.04C290.187 101.252 289.431 101.948 288.459 101.948C288.291 101.948 288.099 101.936 287.955 101.9V102.692C288.171 102.752 288.423 102.776 288.699 102.776C290.127 102.776 291.207 101.768 291.207 100.016C291.207 98.408 290.163 97.292 288.699 97.292C287.631 97.292 286.959 97.844 286.623 98.564V95.96H292.359V95.12H279.783V95.96H285.663V98.516C285.315 97.82 284.619 97.292 283.539 97.292C282.027 97.292 280.947 98.36 280.947 100.04C280.947 101.744 282.003 102.824 283.503 102.824C284.607 102.824 285.315 102.284 285.663 101.576V104ZM283.815 101.984C282.747 101.984 281.955 101.264 281.955 100.04C281.955 98.876 282.783 98.156 283.815 98.156C285.111 98.156 285.663 99.152 285.663 100.064C285.663 100.94 285.099 101.984 283.815 101.984ZM291.485 95.96H296.705V97.28H295.841C294.077 97.28 292.649 98.204 292.649 100.088C292.649 101.816 293.753 102.812 295.289 102.812C296.141 102.812 296.861 102.452 297.197 101.888V104.192H298.181V100.376H297.257C297.257 101.516 296.345 102.008 295.553 102.008C294.401 102.008 293.669 101.264 293.669 100.124C293.669 98.804 294.677 98.144 295.925 98.144H297.701V95.96H299.429L299.441 95.12H291.485V95.96Z" fill="#1A0628"/>
<path d="M40.5065 18.63H44.7525V19.686C44.7525 20.907 44.1255 21.523 42.8715 21.523H41.7165V23.723C41.7165 25.098 42.4315 26.099 43.8945 26.099C45.2145 26.099 46.0065 25.219 46.0065 23.866V23.679H45.1265V23.888C45.1265 24.735 44.6535 25.307 43.8725 25.307C43.0145 25.307 42.6185 24.669 42.6185 23.778V22.271H43.1795C44.8845 22.271 45.6655 21.314 45.6655 19.686V18.63H46.9855V17.86H40.5065V18.63ZM44.6411 17.893H45.4331C43.7941 14.681 43.3651 14.549 41.9241 14.549H41.4511V15.154H41.9351C42.8921 15.154 43.3871 15.22 44.4211 17.123C43.3651 16.243 43.0021 16.221 41.9021 16.221H41.4511V16.815H41.9241C43.1011 16.815 43.3431 16.87 44.6411 17.893ZM46.2801 16.881C46.6211 16.881 46.8961 16.606 46.8961 16.265C46.8961 15.924 46.6211 15.649 46.2801 15.649C45.9281 15.649 45.6531 15.924 45.6531 16.265C45.6531 16.606 45.9281 16.881 46.2801 16.881ZM51.3432 26H52.2232V22.458C52.2232 21.589 52.6962 20.643 53.8732 20.643C54.7752 20.643 55.4902 21.314 55.4902 22.37C55.4902 23.481 54.7972 24.119 53.9062 24.119C53.7522 24.119 53.5762 24.108 53.4442 24.075V24.801C53.6422 24.856 53.8732 24.878 54.1262 24.878C55.4352 24.878 56.4252 23.954 56.4252 22.348C56.4252 20.874 55.4682 19.851 54.1262 19.851C53.1472 19.851 52.5312 20.357 52.2232 21.017V18.63H57.4812V17.86H45.9532V18.63H51.3432V20.973C51.0242 20.335 50.3862 19.851 49.3962 19.851C48.0102 19.851 47.0202 20.83 47.0202 22.37C47.0202 23.932 47.9882 24.922 49.3632 24.922C50.3752 24.922 51.0242 24.427 51.3432 23.778V26ZM49.6492 24.152C48.6702 24.152 47.9442 23.492 47.9442 22.37C47.9442 21.303 48.7032 20.643 49.6492 20.643C50.8372 20.643 51.3432 21.556 51.3432 22.392C51.3432 23.195 50.8262 24.152 49.6492 24.152Z" fill="white"/>
<path d="M98.9699 10.63H103.656V11.719C103.656 12.5 103.183 13.083 102.237 13.083H101.841V13.897H102.347C103.546 13.897 104.008 14.766 104.008 15.536C104.008 16.471 103.392 17.142 102.424 17.142C101.445 17.142 100.708 16.438 100.708 15.503H99.8279C99.8279 16.955 100.928 17.967 102.468 17.967C103.986 17.967 104.877 16.977 104.877 15.602C104.877 14.557 104.283 13.677 103.326 13.468V13.446C104.03 13.325 104.547 12.687 104.547 11.774V10.63H105.889V9.86H98.9699V10.63ZM108.883 15.052C107.739 15.052 107.222 14.293 107.222 13.105V10.63H110.511V13.347C110.511 14.271 109.928 15.052 108.883 15.052ZM105.077 10.63H106.309V13.105C106.309 14.733 107.09 15.833 108.663 15.833C109.532 15.833 110.159 15.47 110.511 14.887V18H111.424V10.63H112.865V9.86H105.077V10.63ZM118.17 17.318H117.29C117.147 17.824 116.641 18.374 115.728 18.374C114.672 18.374 114.089 17.659 114.089 16.724C114.089 15.811 114.672 15.063 115.728 15.063C116.674 15.063 117.169 15.646 117.29 16.141H118.17C118.016 15.217 117.279 14.326 115.75 14.326C115.53 14.326 115.321 14.348 115.134 14.381C114.683 14.249 114.353 13.941 114.353 13.479C114.353 12.819 114.914 12.588 115.53 12.588H117.543V10.63H119.094V9.86H112.065V10.63H116.674V11.917H115.233C114.199 11.917 113.451 12.379 113.451 13.314C113.451 13.985 113.858 14.425 114.375 14.645C113.627 15.041 113.187 15.789 113.187 16.713C113.187 18.077 114.089 19.144 115.728 19.144C117.169 19.144 118.016 18.286 118.17 17.318ZM119.742 18H120.666V10.63H122.107V9.86H118.29V10.63H119.742V18ZM121.304 10.63H125.55V11.686C125.55 12.907 124.923 13.523 123.669 13.523H122.514V15.723C122.514 17.098 123.229 18.099 124.692 18.099C126.012 18.099 126.804 17.219 126.804 15.866V15.679H125.924V15.888C125.924 16.735 125.451 17.307 124.67 17.307C123.812 17.307 123.416 16.669 123.416 15.778V14.271H123.977C125.682 14.271 126.463 13.314 126.463 11.686V10.63H127.783V9.86H121.304V10.63ZM129.346 18V10.63H130.787V9.86H129.313C127.883 7.407 127.322 7.209 125.87 7.209H125.419V7.957H125.881C126.948 7.957 127.322 8.111 128.433 9.86H126.97V10.63H128.422V18H129.346ZM130.127 8.87C130.468 8.87 130.743 8.595 130.743 8.254C130.743 7.913 130.468 7.638 130.127 7.638C129.775 7.638 129.5 7.913 129.5 8.254C129.5 8.595 129.775 8.87 130.127 8.87ZM138.086 18H138.966V14.458C138.966 13.589 139.439 12.643 140.616 12.643C141.518 12.643 142.233 13.314 142.233 14.37C142.233 15.481 141.54 16.119 140.649 16.119C140.495 16.119 140.319 16.108 140.187 16.075V16.801C140.385 16.856 140.616 16.878 140.869 16.878C142.178 16.878 143.168 15.954 143.168 14.348C143.168 12.874 142.211 11.851 140.869 11.851C139.89 11.851 139.274 12.357 138.966 13.017V10.63H144.224V9.86H132.696V10.63H138.086V12.973C137.767 12.335 137.129 11.851 136.139 11.851C134.753 11.851 133.763 12.83 133.763 14.37C133.763 15.932 134.731 16.922 136.106 16.922C137.118 16.922 137.767 16.427 138.086 15.778V18ZM136.392 16.152C135.413 16.152 134.687 15.492 134.687 14.37C134.687 13.303 135.446 12.643 136.392 12.643C137.58 12.643 138.086 13.556 138.086 14.392C138.086 15.195 137.569 16.152 136.392 16.152ZM137.879 10.08H138.759V9.761C138.759 8.716 139.254 7.671 141.839 7.671C144.435 7.671 144.897 8.716 144.897 9.761V9.86H143.423V10.63H144.875V18H145.799V10.63H147.24V9.86H145.799V9.706C145.799 8.144 144.908 6.901 141.839 6.901C138.825 6.901 137.879 8.144 137.879 9.706V10.08ZM103.023 35H103.903V31.458C103.903 30.589 104.376 29.643 105.553 29.643C106.455 29.643 107.17 30.314 107.17 31.37C107.17 32.481 106.477 33.119 105.586 33.119C105.432 33.119 105.256 33.108 105.124 33.075V33.801C105.322 33.856 105.553 33.878 105.806 33.878C107.115 33.878 108.105 32.954 108.105 31.348C108.105 29.874 107.148 28.851 105.806 28.851C104.827 28.851 104.211 29.357 103.903 30.017V27.63H109.161V26.86H97.6327V27.63H103.023V29.973C102.704 29.335 102.066 28.851 101.076 28.851C99.6897 28.851 98.6997 29.83 98.6997 31.37C98.6997 32.932 99.6677 33.922 101.043 33.922C102.055 33.922 102.704 33.427 103.023 32.778V35ZM101.329 33.152C100.35 33.152 99.6237 32.492 99.6237 31.37C99.6237 30.303 100.383 29.643 101.329 29.643C102.517 29.643 103.023 30.556 103.023 31.392C103.023 32.195 102.506 33.152 101.329 33.152ZM102.675 38.3C104.017 38.3 104.853 37.596 104.853 36.43C104.853 35.44 104.226 34.681 103.027 34.681H102.763V35.407H103.027C103.698 35.407 104.061 35.891 104.061 36.419C104.061 37.156 103.511 37.574 102.653 37.574C101.685 37.574 100.915 37.09 100.97 35.99H100.145C100.101 37.629 101.311 38.3 102.675 38.3ZM114.992 34.241C116.719 34.241 117.61 33.086 117.61 31.546C117.61 30.226 116.961 29.335 115.96 29.093V27.63H118.666V26.86H108.139V27.63H115.058V29.049C114.068 29.181 113.606 29.918 113.43 30.622H113.397C113.199 29.852 112.66 29.027 111.494 29.027C110.152 29.027 109.206 29.973 109.206 31.546C109.206 33.086 110.097 34.241 111.824 34.241C111.934 34.241 112.055 34.23 112.198 34.219V33.416C112.088 33.427 111.967 33.438 111.879 33.438C110.746 33.438 110.13 32.657 110.13 31.568C110.13 30.578 110.636 29.841 111.615 29.841C112.561 29.841 113.012 30.688 113.012 31.854V32.019H113.793V31.854C113.793 30.666 114.266 29.841 115.256 29.841C116.213 29.841 116.686 30.6 116.686 31.568C116.686 32.657 116.07 33.438 114.937 33.438C114.849 33.438 114.739 33.427 114.618 33.416V34.219C114.761 34.23 114.882 34.241 114.992 34.241ZM125.595 28.631V27.63H127.817V30.402H124.924C125.342 30.017 125.595 29.412 125.595 28.631ZM120.579 27.63H124.693V28.631C124.693 29.753 124.066 30.479 122.801 30.479H121.789V32.723C121.789 34.087 122.515 35.099 123.978 35.099C125.309 35.099 126.123 34.252 126.123 32.932C126.123 32.899 126.123 32.833 126.112 32.756H125.232V32.888C125.232 33.735 124.759 34.307 123.967 34.307C123.087 34.307 122.691 33.658 122.691 32.767V31.161H127.817V35H128.719V27.63H130.182V26.86H120.579V27.63ZM128.052 25.815C128.393 25.815 128.668 25.54 128.668 25.199C128.668 24.858 128.393 24.583 128.052 24.583C127.7 24.583 127.425 24.858 127.425 25.199C127.425 25.54 127.7 25.815 128.052 25.815ZM136.203 32.8C135.268 32.8 134.652 32.195 134.652 31.26C134.652 30.325 135.268 29.72 136.203 29.72C137.149 29.72 137.765 30.325 137.765 31.26C137.765 32.195 137.149 32.8 136.203 32.8ZM140.79 32.998C139.426 32.998 138.656 32.25 138.634 30.963C140.119 30.897 140.614 30.105 140.614 28.686V27.63H142.99V30.93C142.99 32.162 142.033 32.998 140.79 32.998ZM133.134 34.23C131.968 34.23 131.275 33.504 131.275 32.426V31.293C132.331 31.293 133.244 30.743 133.244 29.071V27.63H139.712V28.532C139.712 29.731 139.404 30.314 138.381 30.424C138.084 29.544 137.292 29.016 136.203 29.016C134.806 29.016 133.827 29.863 133.827 31.26C133.827 32.129 134.212 32.789 134.85 33.163C134.575 33.724 134.036 34.23 133.134 34.23ZM136.203 33.504C137.116 33.504 137.842 33.13 138.216 32.459C138.634 33.284 139.404 33.768 140.614 33.768C141.802 33.768 142.594 33.251 142.99 32.58V35H143.903V27.63H145.344V26.86H129.152V27.63H132.32V28.961C132.32 30.27 131.627 30.611 130.758 30.611H130.362V32.327C130.362 34.032 131.451 35.033 133.112 35.033C134.355 35.033 135.18 34.318 135.587 33.438C135.774 33.482 135.983 33.504 136.203 33.504ZM145.992 35H146.916V27.63H148.357V26.86H144.54V27.63H145.992V35Z" fill="white"/>
<path d="M175.367 9.63H180.053V10.719C180.053 11.5 179.58 12.083 178.634 12.083H178.238V12.897H178.744C179.943 12.897 180.405 13.766 180.405 14.536C180.405 15.471 179.789 16.142 178.821 16.142C177.842 16.142 177.105 15.438 177.105 14.503H176.225C176.225 15.955 177.325 16.967 178.865 16.967C180.383 16.967 181.274 15.977 181.274 14.602C181.274 13.557 180.68 12.677 179.723 12.468V12.446C180.427 12.325 180.944 11.687 180.944 10.774V9.63H182.286V8.86H175.367V9.63ZM185.28 14.052C184.136 14.052 183.619 13.293 183.619 12.105V9.63H186.908V12.347C186.908 13.271 186.325 14.052 185.28 14.052ZM181.474 9.63H182.706V12.105C182.706 13.733 183.487 14.833 185.06 14.833C185.929 14.833 186.556 14.47 186.908 13.887V17H187.821V9.63H189.262V8.86H181.474V9.63ZM194.567 16.318H193.687C193.544 16.824 193.038 17.374 192.125 17.374C191.069 17.374 190.486 16.659 190.486 15.724C190.486 14.811 191.069 14.063 192.125 14.063C193.071 14.063 193.566 14.646 193.687 15.141H194.567C194.413 14.217 193.676 13.326 192.147 13.326C191.927 13.326 191.718 13.348 191.531 13.381C191.08 13.249 190.75 12.941 190.75 12.479C190.75 11.819 191.311 11.588 191.927 11.588H193.94V9.63H195.491V8.86H188.462V9.63H193.071V10.917H191.63C190.596 10.917 189.848 11.379 189.848 12.314C189.848 12.985 190.255 13.425 190.772 13.645C190.024 14.041 189.584 14.789 189.584 15.713C189.584 17.077 190.486 18.144 192.125 18.144C193.566 18.144 194.413 17.286 194.567 16.318ZM194.687 9.63H198.933V10.686C198.933 11.907 198.306 12.523 197.052 12.523H195.897V14.723C195.897 16.098 196.612 17.099 198.075 17.099C199.395 17.099 200.187 16.219 200.187 14.866V14.679H199.307V14.888C199.307 15.735 198.834 16.307 198.053 16.307C197.195 16.307 196.799 15.669 196.799 14.778V13.271H197.36C199.065 13.271 199.846 12.314 199.846 10.686V9.63H201.166V8.86H194.687V9.63ZM201.806 17H202.73V9.63H204.171V8.86H200.354V9.63H201.806V17ZM211.47 17H212.35V13.458C212.35 12.589 212.823 11.643 214 11.643C214.902 11.643 215.617 12.314 215.617 13.37C215.617 14.481 214.924 15.119 214.033 15.119C213.879 15.119 213.703 15.108 213.571 15.075V15.801C213.769 15.856 214 15.878 214.253 15.878C215.562 15.878 216.552 14.954 216.552 13.348C216.552 11.874 215.595 10.851 214.253 10.851C213.274 10.851 212.658 11.357 212.35 12.017V9.63H217.608V8.86H206.08V9.63H211.47V11.973C211.151 11.335 210.513 10.851 209.523 10.851C208.137 10.851 207.147 11.83 207.147 13.37C207.147 14.932 208.115 15.922 209.49 15.922C210.502 15.922 211.151 15.427 211.47 14.778V17ZM209.776 15.152C208.797 15.152 208.071 14.492 208.071 13.37C208.071 12.303 208.83 11.643 209.776 11.643C210.964 11.643 211.47 12.556 211.47 13.392C211.47 14.195 210.953 15.152 209.776 15.152ZM211.262 9.08H212.142V8.761C212.142 7.716 212.637 6.671 215.222 6.671C217.818 6.671 218.28 7.716 218.28 8.761V8.86H216.806V9.63H218.258V17H219.182V9.63H220.623V8.86H219.182V8.706C219.182 7.144 218.291 5.901 215.222 5.901C212.208 5.901 211.262 7.144 211.262 8.706V9.08ZM169.823 26.63H174.069V27.686C174.069 28.907 173.442 29.523 172.188 29.523H171.033V31.723C171.033 33.098 171.748 34.099 173.211 34.099C174.531 34.099 175.323 33.219 175.323 31.866V31.679H174.443V31.888C174.443 32.735 173.97 33.307 173.189 33.307C172.331 33.307 171.935 32.669 171.935 31.778V30.271H172.496C174.201 30.271 174.982 29.314 174.982 27.686V26.63H176.302V25.86H169.823V26.63ZM176.942 34H177.866V26.63H179.307V25.86H175.49V26.63H176.942V34ZM180.879 26.63H182.32V25.86H180.868C180.901 24.254 182.232 23.748 184.839 23.748C187.501 23.748 188.953 24.386 188.953 25.959V26.124H189.855V25.948C189.855 24.001 188.205 22.989 184.861 22.989C181.572 22.989 179.999 23.847 179.955 25.86H178.503V26.63H179.955V34H180.879V26.63ZM185.147 34.088C186.489 34.088 187.325 33.23 187.325 31.833V31.679H186.434V31.822C186.434 32.702 185.95 33.296 185.125 33.296C184.135 33.296 183.728 32.603 183.728 31.69V30.48H184.718C186.269 30.48 187.457 29.688 187.457 28.082C187.457 26.597 186.522 25.761 185.169 25.761C183.772 25.761 182.881 26.663 182.881 27.994C182.881 28.17 182.903 28.324 182.925 28.5H183.838C183.816 28.335 183.805 28.181 183.805 28.016C183.805 27.125 184.333 26.564 185.169 26.564C186.005 26.564 186.522 27.125 186.522 28.027C186.522 29.182 185.576 29.699 184.41 29.699H182.804V31.624C182.804 33.109 183.618 34.088 185.147 34.088ZM188.689 34H189.613V26.63H191.065V25.86H188.689V34ZM197.731 36.046V35.947C196.202 34.374 195.421 32.207 195.421 29.974C195.421 27.73 196.202 25.42 197.896 23.825V23.726H196.851C195.289 25.167 194.453 27.488 194.453 29.974C194.453 32.449 195.289 34.671 196.686 36.046H197.731ZM199.856 30.172V30.128H199.933L199.856 30.172ZM197.744 26.63H201.99V27.609C201.99 28.83 201.363 29.446 200.109 29.446H198.954V31.723C198.954 33.098 199.669 34.099 201.132 34.099C202.452 34.099 203.244 33.23 203.244 31.877V31.723H202.364V31.899C202.364 32.735 201.891 33.307 201.11 33.307C200.252 33.307 199.856 32.669 199.856 31.778V30.205H204.476C205.29 30.205 205.807 30.623 205.807 31.36C205.807 32.086 205.334 32.482 204.597 32.482C204.421 32.482 204.212 32.46 204.036 32.405V33.164C204.223 33.197 204.454 33.23 204.674 33.23C205.873 33.23 206.643 32.526 206.643 31.404C206.643 30.161 205.862 29.446 204.41 29.446H202.254C202.683 29.006 202.903 28.379 202.903 27.609V26.63H207.677V25.86H197.744V26.63ZM210.45 31.052C209.306 31.052 208.789 30.293 208.789 29.105V26.63H212.078V29.347C212.078 30.271 211.495 31.052 210.45 31.052ZM206.644 26.63H207.876V29.105C207.876 30.733 208.657 31.833 210.23 31.833C211.099 31.833 211.726 31.47 212.078 30.887V34H212.991V26.63H214.432V25.86H206.644V26.63ZM213.632 26.63H215.051L215.062 30.997C215.062 32.658 215.898 33.791 217.713 33.791C219.275 33.791 220.243 32.856 220.243 31.272H219.341C219.341 32.361 218.736 32.999 217.691 32.999C216.558 32.999 215.964 32.251 215.964 31.019V26.63H219.264V27.884C219.264 28.951 218.868 29.391 217.889 29.303V30.117C219.55 30.293 220.155 29.534 220.155 27.906V26.63H221.387V25.86H213.632V26.63ZM221.413 36.046V35.947C222.942 34.374 223.723 32.207 223.723 29.974C223.723 27.73 222.942 25.42 221.248 23.825V23.726H222.293C223.855 25.167 224.691 27.488 224.691 29.974C224.691 32.449 223.855 34.671 222.458 36.046H221.413Z" fill="white"/>
<path d="M261.977 9.63H266.663V10.719C266.663 11.5 266.19 12.083 265.244 12.083H264.848V12.897H265.354C266.553 12.897 267.015 13.766 267.015 14.536C267.015 15.471 266.399 16.142 265.431 16.142C264.452 16.142 263.715 15.438 263.715 14.503H262.835C262.835 15.955 263.935 16.967 265.475 16.967C266.993 16.967 267.884 15.977 267.884 14.602C267.884 13.557 267.29 12.677 266.333 12.468V12.446C267.037 12.325 267.554 11.687 267.554 10.774V9.63H268.896V8.86H261.977V9.63ZM271.89 14.052C270.746 14.052 270.229 13.293 270.229 12.105V9.63H273.518V12.347C273.518 13.271 272.935 14.052 271.89 14.052ZM268.084 9.63H269.316V12.105C269.316 13.733 270.097 14.833 271.67 14.833C272.539 14.833 273.166 14.47 273.518 13.887V17H274.431V9.63H275.872V8.86H268.084V9.63ZM281.177 16.318H280.297C280.154 16.824 279.648 17.374 278.735 17.374C277.679 17.374 277.096 16.659 277.096 15.724C277.096 14.811 277.679 14.063 278.735 14.063C279.681 14.063 280.176 14.646 280.297 15.141H281.177C281.023 14.217 280.286 13.326 278.757 13.326C278.537 13.326 278.328 13.348 278.141 13.381C277.69 13.249 277.36 12.941 277.36 12.479C277.36 11.819 277.921 11.588 278.537 11.588H280.55V9.63H282.101V8.86H275.072V9.63H279.681V10.917H278.24C277.206 10.917 276.458 11.379 276.458 12.314C276.458 12.985 276.865 13.425 277.382 13.645C276.634 14.041 276.194 14.789 276.194 15.713C276.194 17.077 277.096 18.144 278.735 18.144C280.176 18.144 281.023 17.286 281.177 16.318ZM282.749 17H283.673V9.63H285.114V8.86H281.297V9.63H282.749V17ZM284.31 9.63H288.556V10.686C288.556 11.907 287.929 12.523 286.675 12.523H285.52V14.723C285.52 16.098 286.235 17.099 287.698 17.099C289.018 17.099 289.81 16.219 289.81 14.866V14.679H288.93V14.888C288.93 15.735 288.457 16.307 287.676 16.307C286.818 16.307 286.422 15.669 286.422 14.778V13.271H286.983C288.688 13.271 289.469 12.314 289.469 10.686V9.63H290.789V8.86H284.31V9.63ZM298.08 17H298.96V13.458C298.96 12.589 299.433 11.643 300.61 11.643C301.512 11.643 302.227 12.314 302.227 13.37C302.227 14.481 301.534 15.119 300.643 15.119C300.489 15.119 300.313 15.108 300.181 15.075V15.801C300.379 15.856 300.61 15.878 300.863 15.878C302.172 15.878 303.162 14.954 303.162 13.348C303.162 11.874 302.205 10.851 300.863 10.851C299.884 10.851 299.268 11.357 298.96 12.017V9.63H304.218V8.86H292.69V9.63H298.08V11.973C297.761 11.335 297.123 10.851 296.133 10.851C294.747 10.851 293.757 11.83 293.757 13.37C293.757 14.932 294.725 15.922 296.1 15.922C297.112 15.922 297.761 15.427 298.08 14.778V17ZM296.386 15.152C295.407 15.152 294.681 14.492 294.681 13.37C294.681 12.303 295.44 11.643 296.386 11.643C297.574 11.643 298.08 12.556 298.08 13.392C298.08 14.195 297.563 15.152 296.386 15.152ZM304.868 17H305.792V9.63H307.233V8.86H303.416V9.63H304.868V17ZM274.702 31.052C273.558 31.052 273.041 30.293 273.041 29.105V26.63H276.33V29.347C276.33 30.271 275.747 31.052 274.702 31.052ZM270.896 26.63H272.128V29.105C272.128 30.722 272.909 31.789 274.482 31.789C274.515 31.789 274.548 31.789 274.581 31.789L272.249 34.132H273.272L276 31.272C276.121 31.151 276.242 31.019 276.33 30.865V34H277.243V26.63H278.684V25.86H270.896V26.63ZM283.274 34H284.154V30.458C284.154 29.589 284.627 28.643 285.804 28.643C286.706 28.643 287.421 29.314 287.421 30.37C287.421 31.481 286.728 32.119 285.837 32.119C285.683 32.119 285.507 32.108 285.375 32.075V32.801C285.573 32.856 285.804 32.878 286.057 32.878C287.366 32.878 288.356 31.954 288.356 30.348C288.356 28.874 287.399 27.851 286.057 27.851C285.078 27.851 284.462 28.357 284.154 29.017V26.63H289.412V25.86H277.884V26.63H283.274V28.973C282.955 28.335 282.317 27.851 281.327 27.851C279.941 27.851 278.951 28.83 278.951 30.37C278.951 31.932 279.919 32.922 281.294 32.922C282.306 32.922 282.955 32.427 283.274 31.778V34ZM281.58 32.152C280.601 32.152 279.875 31.492 279.875 30.37C279.875 29.303 280.634 28.643 281.58 28.643C282.768 28.643 283.274 29.556 283.274 30.392C283.274 31.195 282.757 32.152 281.58 32.152ZM290.062 34H290.986V26.63H292.427V25.86H288.61V26.63H290.062V34ZM291.623 26.63H295.869V27.686C295.869 28.907 295.242 29.523 293.988 29.523H292.833V31.723C292.833 33.098 293.548 34.099 295.011 34.099C296.331 34.099 297.123 33.219 297.123 31.866V31.679H296.243V31.888C296.243 32.735 295.77 33.307 294.989 33.307C294.131 33.307 293.735 32.669 293.735 31.778V30.271H294.296C296.001 30.271 296.782 29.314 296.782 27.686V26.63H298.102V25.86H291.623V26.63Z" fill="white"/>
</svg>
