<svg width="45" height="18" viewBox="0 0 45 18" fill="none" xmlns="http://www.w3.org/2000/svg">
<path d="M6.62326 12.8138C5.36526 12.8138 4.80426 11.9298 4.80426 10.6718V7.42483H8.44226V10.8248C8.44226 11.9128 7.83026 12.8138 6.62326 12.8138ZM0.690259 7.42483H2.13526V10.6718C2.13526 13.1878 3.41026 15.0578 5.92626 15.0578C7.04826 15.0578 7.88126 14.6838 8.44226 14.0718V17.7778H11.1113V7.42483H12.7773V5.19783H0.690259V7.42483ZM9.74714 3.95683C10.6141 3.95683 11.3111 3.25983 11.3111 2.40983C11.3111 1.54283 10.6141 0.862831 9.74714 0.862831C8.88014 0.862831 8.20014 1.54283 8.20014 2.40983C8.20014 3.25983 8.88014 3.95683 9.74714 3.95683ZM12.1951 7.42483H23.0581V9.48183H18.4851V12.2018C18.4851 13.1538 18.0601 13.7488 17.2781 13.7488C16.4791 13.7488 16.0541 13.1538 16.0541 12.2018V9.48183H13.3681V12.2698C13.3681 14.4968 14.6941 16.0778 17.2611 16.0778C19.6411 16.0778 21.1031 14.4968 21.1031 12.2698V11.7598H23.0581V17.7778H25.7271V7.42483H27.3931V5.19783H12.1951V7.42483ZM28.4871 17.7778H31.1561V7.42483H32.8221V5.19783H26.8211V7.42483H28.4871V17.7778ZM40.2908 17.7778H42.8578V7.42483H44.5238V5.19783H32.2498V7.42483H40.2908V9.61783C39.6618 8.98883 38.7268 8.58083 37.5538 8.58083C35.1908 8.58083 33.4398 10.2128 33.4398 12.6098C33.4398 15.0748 35.2078 16.7748 37.5708 16.7748C38.7778 16.7748 39.7468 16.3328 40.2908 15.6358V17.7778ZM38.1318 10.2978C39.5768 10.2978 40.4438 11.3688 40.4438 12.5928C40.4438 12.9158 40.3758 13.2388 40.2568 13.5278L36.6528 10.7738C37.0608 10.4678 37.5708 10.2978 38.1318 10.2978ZM38.1318 14.8708C36.8568 14.8708 35.7688 14.0208 35.7688 12.6098C35.7688 12.2698 35.8368 11.9468 35.9558 11.6578L39.6108 14.3948C39.2368 14.7008 38.7438 14.8708 38.1318 14.8708Z" fill="white"/>
</svg>
