<svg width="65" height="19" viewBox="0 0 65 19" fill="none" xmlns="http://www.w3.org/2000/svg">
<path d="M0.478986 7.53592H6.59899V8.43692C6.59899 9.49092 5.98699 10.0009 5.08599 10.0009H4.43999V12.3299H5.45999C6.61599 12.3299 7.09199 13.1289 7.09199 13.9109C7.09199 14.8119 6.51399 15.4409 5.59599 15.4409C4.66099 15.4409 3.99799 14.7609 3.99799 13.8429H1.44799C1.44799 16.3249 3.21599 17.8209 5.73199 17.8209C8.17999 17.8209 9.60799 16.3079 9.60799 14.1319C9.60799 12.6359 8.79199 11.4629 7.61899 11.1229V11.0719C8.51999 10.8509 9.18299 9.96692 9.18299 8.55592V7.53592H10.662V5.30892H0.478986V7.53592ZM10.0913 7.53592H19.3223V9.52492H10.7713V11.7689H13.0153C12.5733 12.3299 12.2843 13.0949 12.2843 14.0809C12.2843 16.5289 14.2563 17.8719 16.6703 17.8719H17.3843V15.7639H17.0953C15.6503 15.7639 14.9363 14.9989 14.9363 13.8429C14.9363 12.5169 15.8543 11.8199 17.2143 11.8199H19.3223V17.8889H22.0083V7.53592H23.6743V5.30892H10.0913V7.53592ZM23.0903 7.53592H28.5813V8.43692C28.5813 9.79692 27.9863 10.6469 26.1673 10.6469H24.4503V14.3529C24.4503 16.4269 25.7083 18.0419 28.1733 18.0419C30.4173 18.0419 31.7093 16.6309 31.7093 14.4719V14.0809H29.1423V14.5569C29.1423 15.2539 28.7683 15.7639 28.1223 15.7639C27.3913 15.7639 27.0853 15.2199 27.0853 14.4889V12.7889H27.1703C30.2813 12.7889 31.2503 10.9189 31.2503 8.43692V7.53592H32.6953V5.30892H23.0903V7.53592ZM33.7876 17.8889H36.4566V7.53592H38.1226V5.30892H32.1216V7.53592H33.7876V17.8889ZM48.7193 13.9619C47.8863 13.9619 47.2403 13.4519 47.2403 12.4659C47.2403 11.5479 47.9033 11.0209 48.7193 11.0209C49.6883 11.0209 50.1133 11.7519 50.1303 12.4829C50.1303 13.2649 49.6543 13.9619 48.7193 13.9619ZM48.1243 16.0019C49.0593 16.0019 49.7053 15.6789 50.1303 15.2029V17.8889H52.7823V7.53592H54.4483V5.30892H37.5503V7.53592H41.6813V8.82792C41.6813 10.3919 40.9163 11.0379 39.3863 11.0379H38.9443V13.1969C38.9443 16.2739 40.8143 18.0079 43.7383 18.0079C45.5403 18.0079 46.8323 17.1239 47.5973 15.9679C47.7673 15.9849 47.9373 16.0019 48.1243 16.0019ZM43.8063 15.6959C42.3613 15.6959 41.5963 14.7609 41.5963 13.5199V12.8909C43.2283 12.6869 44.3503 11.4799 44.3503 9.20192V7.53592H50.1303V9.81392C49.7053 9.32092 49.0593 8.99792 48.1243 8.99792C46.2203 8.99792 44.8603 10.4599 44.8603 12.4659C44.8603 13.4179 45.1493 14.2339 45.6423 14.8629C45.3193 15.3219 44.7413 15.6959 43.8063 15.6959ZM51.4216 4.06792C52.2886 4.06792 52.9856 3.37092 52.9856 2.52092C52.9856 1.65392 52.2886 0.973915 51.4216 0.973915C50.5546 0.973915 49.8746 1.65392 49.8746 2.52092C49.8746 3.37092 50.5546 4.06792 51.4216 4.06792ZM53.8696 7.53592H59.5816V8.79392H58.3746C56.6746 8.79392 55.2636 9.57592 55.2636 11.3609C55.2636 13.6899 57.3206 14.1149 58.6126 14.1149H59.2246C60.0916 14.1149 60.7036 14.4209 60.7036 15.1859C60.7036 15.8149 60.1936 16.2229 59.3096 16.2229C58.4256 16.2229 57.7116 15.7979 57.6776 14.9479H55.0256C55.1106 17.0559 56.9296 18.2289 59.3946 18.2289C61.8596 18.2289 63.2196 17.0389 63.2196 15.2029C63.2196 12.9759 61.4516 12.2279 59.7176 12.2279H58.9526C58.4086 12.2279 57.9496 12.0239 57.9496 11.4459C57.9496 10.8509 58.5106 10.6639 59.0546 10.6639H62.1656V7.53592H64.0526V5.30892H53.8696V7.53592Z" fill="white"/>
</svg>
