<svg width="73" height="19" viewBox="0 0 73 19" fill="none" xmlns="http://www.w3.org/2000/svg">
<path d="M0.68493 7.42483H6.80493V8.32583C6.80493 9.37983 6.19293 9.88983 5.29193 9.88983H4.64593V12.2188H5.66593C6.82193 12.2188 7.29793 13.0178 7.29793 13.7998C7.29793 14.7008 6.71993 15.3298 5.80193 15.3298C4.86693 15.3298 4.20393 14.6498 4.20393 13.7318H1.65393C1.65393 16.2138 3.42193 17.7098 5.93793 17.7098C8.38593 17.7098 9.81393 16.1968 9.81393 14.0208C9.81393 12.5248 8.99793 11.3518 7.82493 11.0118V10.9608C8.72593 10.7398 9.38893 9.85583 9.38893 8.44483V7.42483H10.8679V5.19783H0.68493V7.42483ZM10.2972 7.42483H19.5282V9.41383H10.9772V11.6578H13.2212C12.7792 12.2188 12.4902 12.9838 12.4902 13.9698C12.4902 16.4178 14.4622 17.7608 16.8762 17.7608H17.5902V15.6528H17.3012C15.8562 15.6528 15.1422 14.8878 15.1422 13.7318C15.1422 12.4058 16.0602 11.7088 17.4202 11.7088H19.5282V17.7778H22.2142V7.42483H23.8802V5.19783H10.2972V7.42483ZM23.2963 7.42483H28.7873V8.32583C28.7873 9.68583 28.1923 10.5358 26.3733 10.5358H24.6563V14.2418C24.6563 16.3158 25.9143 17.9308 28.3793 17.9308C30.6233 17.9308 31.9153 16.5198 31.9153 14.3608V13.9698H29.3483V14.4458C29.3483 15.1428 28.9743 15.6528 28.3283 15.6528C27.5973 15.6528 27.2913 15.1088 27.2913 14.3778V12.6778H27.3763C30.4873 12.6778 31.4563 10.8078 31.4563 8.32583V7.42483H32.9013V5.19783H23.2963V7.42483ZM41.863 12.8138C40.605 12.8138 40.044 11.9298 40.044 10.6718V7.42483H43.682V10.8248C43.682 11.9128 43.07 12.8138 41.863 12.8138ZM35.93 7.42483H37.375V10.6718C37.375 12.8478 38.378 14.5138 40.35 14.8708L37.375 18.2198H40.265L43.631 14.0548C43.648 14.0378 43.665 14.0038 43.682 13.9868V17.7778H46.351V7.42483H48.017V5.19783H35.93V7.42483ZM47.4349 7.42483H53.7929V8.78483H53.1469C50.5459 8.78483 48.6249 10.1958 48.6249 12.8138C48.6249 15.4318 50.3419 16.6728 52.2459 16.6728C53.1809 16.6728 53.9459 16.3668 54.4219 15.8398V18.3388H57.0399V13.0008H54.5579C54.5579 14.0038 53.8609 14.5648 53.0109 14.5648C51.9909 14.5648 51.3619 13.9018 51.3619 12.8818C51.3619 11.7258 52.1949 11.0628 53.4359 11.0628H56.4619V7.42483H58.3999L58.4169 5.19783H47.4349V7.42483ZM53.9409 5.28283H56.4399C54.2129 1.25383 53.2949 0.794831 50.6429 0.777832H49.8099V2.91983H50.6939C52.2069 2.91983 52.6149 3.20883 53.9409 5.28283ZM63.3521 17.8968C65.6471 17.8968 67.1091 16.5538 67.1091 14.2588C67.1091 14.2248 67.1091 14.1228 67.0921 13.9528H64.5081V14.2248C64.5081 15.0238 64.0661 15.6018 63.2841 15.6018C62.2981 15.6018 61.9581 14.9048 61.9581 14.0888V12.8988H62.6381C65.2051 12.8988 67.2791 11.6408 67.2791 8.85283C67.2791 6.40483 65.6981 5.04483 63.3861 5.04483C60.9891 5.04483 59.4931 6.52383 59.4931 8.61483C59.4931 8.83583 59.5271 9.05683 59.5441 9.27783H62.2131C62.1961 9.09083 62.1961 8.90383 62.1961 8.69983C62.1961 7.90083 62.6211 7.35683 63.3861 7.35683C64.1511 7.35683 64.5761 7.90083 64.5761 8.68283C64.5761 10.1958 63.1311 10.6548 61.6351 10.6548H59.2721V13.9188C59.2721 16.3498 60.7851 17.8968 63.3521 17.8968ZM68.6051 17.7778H71.3081V7.42483H72.9741V5.19783H68.6051V17.7778Z" fill="white"/>
</svg>
