<svg width="37" height="18" viewBox="0 0 37 18" fill="none" xmlns="http://www.w3.org/2000/svg">
<path d="M10.3825 17.8889H13.0515V7.53592H14.7175V5.30892H0.284498V7.53592H5.5545V11.4799C5.5545 12.0749 5.4185 12.7379 4.6875 12.7379C3.9905 12.7379 3.7865 12.1769 3.7865 11.4969V10.9699H1.2025C1.1855 11.1399 1.1855 11.3269 1.1855 11.5139C1.1855 13.7749 2.4945 15.0159 4.7555 15.0159C7.2035 15.0159 8.2405 13.4179 8.2405 11.3779V7.53592H10.3825V17.8889ZM18.4818 17.8889V7.53592H20.1478V5.30892H18.4138C16.2378 1.36491 15.3198 0.905915 12.6678 0.888916H11.8348V3.03092H12.7188C14.2148 3.03092 14.6228 3.31992 15.9148 5.30892H14.1468V7.53592H15.8128V17.8889H18.4818ZM25.3211 14.7099C24.1821 14.7099 23.4001 13.9279 23.4001 12.8059C23.4001 11.7009 24.1991 10.9359 25.3211 10.9359C26.5791 10.9359 27.2421 11.8199 27.2421 12.8059V12.8229C27.2421 13.7579 26.5791 14.7099 25.3211 14.7099ZM31.5091 7.53592V5.30892H19.5921V7.53592H27.2421V9.98392C26.6641 9.23592 25.7461 8.79392 24.5901 8.79392C22.2101 8.79392 20.7821 10.4769 20.7821 12.7379C20.7821 15.0839 22.1931 16.8349 24.5901 16.8349C25.7461 16.8349 26.6641 16.3929 27.2421 15.6109V17.8889H29.8431V7.53592H31.5091ZM32.597 17.8889H35.266V7.53592H36.932V5.30892H30.931V7.53592H32.597V17.8889Z" fill="white"/>
</svg>
