<svg width="69" height="14" viewBox="0 0 69 14" fill="none" xmlns="http://www.w3.org/2000/svg">
<path d="M3.56813 9.26904V13.7778H0.931408V0.980957H5.9236C6.88453 0.980957 7.72828 1.15674 8.45485 1.5083C9.18727 1.85986 9.74977 2.36084 10.1423 3.01123C10.5349 3.65576 10.7312 4.39111 10.7312 5.21729C10.7312 6.47119 10.3005 7.46143 9.43922 8.18799C8.58375 8.90869 7.39723 9.26904 5.87965 9.26904H3.56813ZM3.56813 7.1333H5.9236C6.62086 7.1333 7.15113 6.96924 7.51442 6.64111C7.88356 6.31299 8.06813 5.84424 8.06813 5.23486C8.06813 4.60791 7.88356 4.10107 7.51442 3.71436C7.14528 3.32764 6.63551 3.12842 5.98512 3.1167H3.56813V7.1333ZM22.2361 0.980957V9.40967C22.2361 10.8101 21.7966 11.9175 20.9177 12.7319C20.0447 13.5464 18.8494 13.9536 17.3318 13.9536C15.8377 13.9536 14.6511 13.5581 13.7722 12.7671C12.8933 11.9761 12.4451 10.8892 12.4275 9.50635V0.980957H15.0642V9.42725C15.0642 10.2651 15.2634 10.8774 15.6619 11.2642C16.0662 11.645 16.6228 11.8354 17.3318 11.8354C18.8142 11.8354 19.5672 11.0562 19.5906 9.49756V0.980957H22.2361ZM34.8045 13.7778H32.1677L27.0349 5.35791V13.7778H24.3982V0.980957H27.0349L32.1765 9.41846V0.980957H34.8045V13.7778ZM42.2664 0.980957H44.9031V9.84033C44.9031 10.6548 44.7214 11.3755 44.3582 12.0024C44.0007 12.6235 43.4939 13.104 42.8377 13.4438C42.1814 13.7837 41.4402 13.9536 40.614 13.9536C39.2605 13.9536 38.2058 13.6108 37.45 12.9253C36.6941 12.2339 36.3162 11.2583 36.3162 9.99854H38.9705C38.9705 10.6255 39.1023 11.0884 39.366 11.3872C39.6297 11.686 40.0457 11.8354 40.614 11.8354C41.1179 11.8354 41.5193 11.6626 41.8181 11.3169C42.117 10.9712 42.2664 10.479 42.2664 9.84033V0.980957ZM54.1931 11.1411H49.5701L48.6912 13.7778H45.8875L50.6511 0.980957H53.0945L57.8845 13.7778H55.0808L54.1931 11.1411ZM50.282 9.00537H53.4812L51.8728 4.21533L50.282 9.00537ZM59.0798 13.7778V0.980957H63.5623C65.115 0.980957 66.2927 1.27979 67.0955 1.87744C67.8982 2.46924 68.2996 3.33936 68.2996 4.48779C68.2996 5.11475 68.1384 5.66846 67.8162 6.14893C67.4939 6.62354 67.0457 6.97217 66.4715 7.19482C67.1277 7.35889 67.6433 7.68994 68.0183 8.18799C68.3992 8.68604 68.5896 9.29541 68.5896 10.0161C68.5896 11.2466 68.197 12.1782 67.4119 12.811C66.6267 13.4438 65.5076 13.7661 64.0545 13.7778H59.0798ZM61.7166 8.20557V11.6597H63.9754C64.5965 11.6597 65.0798 11.5132 65.4256 11.2202C65.7771 10.9214 65.9529 10.5112 65.9529 9.98975C65.9529 8.81787 65.3465 8.22314 64.1336 8.20557H61.7166ZM61.7166 6.34229H63.6677C64.9978 6.31885 65.6629 5.78857 65.6629 4.75146C65.6629 4.17139 65.4929 3.75537 65.1531 3.50342C64.8191 3.24561 64.2888 3.1167 63.5623 3.1167H61.7166V6.34229Z" fill="white"/>
</svg>
