<svg width="36" height="15" viewBox="0 0 36 15" fill="none" xmlns="http://www.w3.org/2000/svg">
<path d="M10.5711 12.2717C10.0964 12.8401 9.42555 13.2825 8.55836 13.5989C7.69117 13.9094 6.73024 14.0647 5.67555 14.0647C4.56813 14.0647 3.59547 13.8245 2.75758 13.344C1.92555 12.8577 1.28102 12.1545 0.823986 11.2346C0.372814 10.3147 0.141369 9.23364 0.12965 7.99146V7.12134C0.12965 5.84399 0.343517 4.7395 0.771252 3.80786C1.20485 2.87036 1.82594 2.15552 2.63453 1.66333C3.44899 1.16528 4.40113 0.91626 5.49098 0.91626C7.00856 0.91626 8.19508 1.27954 9.05055 2.0061C9.90602 2.72681 10.4129 3.77856 10.5711 5.16138H8.00465C7.88746 4.42896 7.62672 3.89282 7.22242 3.55298C6.82399 3.21313 6.2732 3.04321 5.57008 3.04321C4.6736 3.04321 3.99098 3.38013 3.52223 4.05396C3.05348 4.72778 2.81617 5.72974 2.81031 7.05981V7.8772C2.81031 9.21899 3.0652 10.2327 3.57496 10.9182C4.08473 11.6038 4.8318 11.9465 5.81617 11.9465C6.80641 11.9465 7.51246 11.7356 7.93434 11.3137V9.10767H5.53492V7.16528H10.5711V12.2717ZM23.2273 7.78052C23.2273 9.04028 23.0047 10.1448 22.5593 11.094C22.114 12.0432 21.4754 12.7756 20.6433 13.2913C19.8172 13.8069 18.8679 14.0647 17.7957 14.0647C16.7351 14.0647 15.7888 13.8098 14.9568 13.3C14.1248 12.7903 13.4802 12.0637 13.0232 11.1204C12.5662 10.1711 12.3347 9.0813 12.3289 7.85083V7.21802C12.3289 5.95825 12.5545 4.85083 13.0056 3.89575C13.4627 2.93481 14.1043 2.19946 14.9304 1.6897C15.7625 1.17407 16.7117 0.91626 17.7781 0.91626C18.8445 0.91626 19.7908 1.17407 20.617 1.6897C21.449 2.19946 22.0906 2.93481 22.5418 3.89575C22.9988 4.85083 23.2273 5.95532 23.2273 7.20923V7.78052ZM20.5554 7.20044C20.5554 5.85864 20.3152 4.83911 19.8347 4.14185C19.3543 3.44458 18.6687 3.09595 17.7781 3.09595C16.8933 3.09595 16.2107 3.44165 15.7302 4.13306C15.2498 4.8186 15.0066 5.82642 15.0007 7.15649V7.78052C15.0007 9.08716 15.241 10.1008 15.7214 10.8215C16.2019 11.5422 16.8933 11.9026 17.7957 11.9026C18.6804 11.9026 19.3601 11.5569 19.8347 10.8655C20.3093 10.1682 20.5496 9.15454 20.5554 7.82446V7.20044ZM32.1746 11.2522H27.5515L26.6726 13.8889H23.8689L28.6326 1.09204H31.0759L35.866 13.8889H33.0623L32.1746 11.2522ZM28.2634 9.11646H31.4627L29.8543 4.32642L28.2634 9.11646Z" fill="white"/>
</svg>
