<svg width="110" height="11" viewBox="0 0 110 11" fill="none" xmlns="http://www.w3.org/2000/svg">
<path d="M7.96612 0.824707V7.38037C7.96612 8.46956 7.62432 9.33089 6.94073 9.96436C6.26169 10.5978 5.332 10.9146 4.15166 10.9146C2.98956 10.9146 2.0667 10.6069 1.38311 9.9917C0.699516 9.37646 0.350883 8.53109 0.337212 7.45557V0.824707H2.38799V7.39404C2.38799 8.04574 2.54294 8.52197 2.85284 8.82275C3.16729 9.11898 3.60023 9.26709 4.15166 9.26709C5.30466 9.26709 5.89027 8.66097 5.9085 7.44873V0.824707H7.96612ZM17.1399 2.48584H14.0911V10.7778H12.0403V2.48584H9.03252V0.824707H17.1399V2.48584ZM25.9173 2.48584H22.8685V10.7778H20.8177V2.48584H17.8099V0.824707H25.9173V2.48584ZM31.8919 8.72705H28.2962L27.6126 10.7778H25.4319L29.137 0.824707H31.0374L34.763 10.7778H32.5823L31.8919 8.72705ZM28.8499 7.06592H31.3382L30.0872 3.34033L28.8499 7.06592ZM39.3773 7.13428H37.7435V10.7778H35.6927V0.824707H39.3909C40.5667 0.824707 41.4736 1.08675 42.1116 1.61084C42.7496 2.13493 43.0687 2.87549 43.0687 3.83252C43.0687 4.51156 42.9205 5.07894 42.6243 5.53467C42.3327 5.98584 41.8883 6.34587 41.2913 6.61475L43.4446 10.6821V10.7778H41.2435L39.3773 7.13428ZM37.7435 5.47314H39.3978C39.9127 5.47314 40.3115 5.34326 40.594 5.0835C40.8766 4.81917 41.0179 4.45687 41.0179 3.99658C41.0179 3.52718 40.8834 3.15804 40.6146 2.88916C40.3502 2.62028 39.9424 2.48584 39.3909 2.48584H37.7435V5.47314ZM50.1712 7.271V10.7778H48.1204V0.824707H52.0032C52.7506 0.824707 53.4069 0.961426 53.972 1.23486C54.5416 1.5083 54.9791 1.89795 55.2845 2.40381C55.5898 2.90511 55.7425 3.47705 55.7425 4.11963C55.7425 5.09489 55.4075 5.86507 54.7376 6.43018C54.0722 6.99072 53.1494 7.271 51.969 7.271H50.1712ZM50.1712 5.60986H52.0032C52.5455 5.60986 52.958 5.48226 53.2405 5.22705C53.5276 4.97184 53.6712 4.60726 53.6712 4.1333C53.6712 3.64567 53.5276 3.25146 53.2405 2.95068C52.9534 2.6499 52.5569 2.49495 52.0511 2.48584H50.1712V5.60986ZM60.8421 7.13428H59.2083V10.7778H57.1575V0.824707H60.8558C62.0315 0.824707 62.9384 1.08675 63.5765 1.61084C64.2145 2.13493 64.5335 2.87549 64.5335 3.83252C64.5335 4.51156 64.3854 5.07894 64.0892 5.53467C63.7975 5.98584 63.3532 6.34587 62.7562 6.61475L64.9095 10.6821V10.7778H62.7083L60.8421 7.13428ZM59.2083 5.47314H60.8626C61.3776 5.47314 61.7763 5.34326 62.0589 5.0835C62.3414 4.81917 62.4827 4.45687 62.4827 3.99658C62.4827 3.52718 62.3483 3.15804 62.0794 2.88916C61.8151 2.62028 61.4072 2.48584 60.8558 2.48584H59.2083V5.47314ZM71.7181 8.72705H68.1224L67.4388 10.7778H65.2581L68.9632 0.824707H70.8636L74.5892 10.7778H72.4085L71.7181 8.72705ZM68.6761 7.06592H71.1644L69.9134 3.34033L68.6761 7.06592ZM75.5189 10.7778V0.824707H78.5814C79.4564 0.824707 80.2379 1.02295 80.9261 1.41943C81.6188 1.81136 82.1588 2.37191 82.5462 3.10107C82.9336 3.82568 83.1273 4.65055 83.1273 5.57568V6.03369C83.1273 6.95882 82.9358 7.78141 82.553 8.50146C82.1748 9.22152 81.6393 9.77979 80.9466 10.1763C80.2539 10.5728 79.4723 10.7733 78.6019 10.7778H75.5189ZM77.5696 2.48584V9.13037H78.5608C79.3629 9.13037 79.9759 8.86833 80.3997 8.34424C80.8235 7.82015 81.04 7.07048 81.0491 6.09521V5.56885C81.0491 4.55713 80.8395 3.7915 80.4202 3.27197C80.0009 2.74788 79.388 2.48584 78.5814 2.48584H77.5696ZM90.6126 6.46436H86.6751V9.13037H91.2962V10.7778H84.6243V0.824707H91.2825V2.48584H86.6751V4.85791H90.6126V6.46436ZM97.6605 8.1665C97.6605 7.77913 97.5237 7.48291 97.2503 7.27783C96.9769 7.0682 96.4847 6.84945 95.7737 6.62158C95.0628 6.38916 94.5 6.1613 94.0853 5.93799C92.9551 5.32731 92.3899 4.50472 92.3899 3.47021C92.3899 2.93245 92.5403 2.45394 92.8411 2.03467C93.1465 1.61084 93.5817 1.28044 94.1468 1.04346C94.7164 0.806478 95.3545 0.687988 96.0608 0.687988C96.7718 0.687988 97.4052 0.817871 97.9612 1.07764C98.5172 1.33285 98.9479 1.69515 99.2532 2.16455C99.5631 2.63395 99.7181 3.16715 99.7181 3.76416H97.6673C97.6673 3.30843 97.5237 2.95524 97.2366 2.70459C96.9495 2.44938 96.5462 2.32178 96.0267 2.32178C95.5254 2.32178 95.1357 2.42887 94.8577 2.64307C94.5797 2.8527 94.4407 3.1307 94.4407 3.47705C94.4407 3.80062 94.6025 4.07178 94.9261 4.29053C95.2542 4.50928 95.735 4.71436 96.3685 4.90576C97.5351 5.25667 98.3851 5.69189 98.9183 6.21143C99.4515 6.73096 99.7181 7.37809 99.7181 8.15283C99.7181 9.01416 99.3922 9.69092 98.7405 10.1831C98.0888 10.6707 97.2116 10.9146 96.1087 10.9146C95.3431 10.9146 94.6458 10.7756 94.0169 10.4976C93.388 10.215 92.9072 9.82992 92.5745 9.34229C92.2464 8.85465 92.0823 8.28955 92.0823 7.64697H94.1399C94.1399 8.74528 94.7962 9.29443 96.1087 9.29443C96.5963 9.29443 96.9769 9.19645 97.2503 9.00049C97.5237 8.79997 97.6605 8.52197 97.6605 8.1665ZM109.213 10.7778H107.162V6.51221H103.163V10.7778H101.113V0.824707H103.163V4.85791H107.162V0.824707H109.213V10.7778Z" fill="white"/>
</svg>
