<svg width="92" height="12" viewBox="0 0 92 12" fill="none" xmlns="http://www.w3.org/2000/svg">
<path d="M8.52971 0.935791V7.49146C8.52971 8.58065 8.18791 9.44198 7.50431 10.0754C6.82528 10.7089 5.89559 11.0256 4.71525 11.0256C3.55314 11.0256 2.63029 10.718 1.9467 10.1028C1.2631 9.48755 0.914471 8.64217 0.900799 7.56665V0.935791H2.95158V7.50513C2.95158 8.15682 3.10653 8.63306 3.41642 8.93384C3.73088 9.23006 4.16382 9.37817 4.71525 9.37817C5.86825 9.37817 6.45386 8.77205 6.47209 7.55981V0.935791H8.52971ZM17.7035 2.59692H14.6547V10.8889H12.6039V2.59692H9.59611V0.935791H17.7035V2.59692ZM26.4809 2.59692H23.432V10.8889H21.3813V2.59692H18.3735V0.935791H26.4809V2.59692ZM31.3412 7.24536H29.7074V10.8889H27.6567V0.935791H31.3549C32.5307 0.935791 33.4376 1.19784 34.0756 1.72192C34.7136 2.24601 35.0326 2.98657 35.0326 3.9436C35.0326 4.62264 34.8845 5.19002 34.5883 5.64575C34.2966 6.09692 33.8523 6.45695 33.2553 6.72583L35.4086 10.7932V10.8889H33.2074L31.3412 7.24536ZM29.7074 5.58423H31.3617C31.8767 5.58423 32.2755 5.45435 32.558 5.19458C32.8406 4.93026 32.9819 4.56795 32.9819 4.10767C32.9819 3.63826 32.8474 3.26912 32.5785 3.00024C32.3142 2.73136 31.9063 2.59692 31.3549 2.59692H29.7074V5.58423ZM42.2172 8.83813H38.6215L37.9379 10.8889H35.7572L39.4623 0.935791H41.3627L45.0883 10.8889H42.9076L42.2172 8.83813ZM39.1752 7.177H41.6635L40.4125 3.45142L39.1752 7.177ZM49.1352 6.89673L48.0688 8.04517V10.8889H46.018V0.935791H48.0688V5.44751L48.9711 4.21021L51.5072 0.935791H54.0297L50.4955 5.35864L54.1322 10.8889H51.6918L49.1352 6.89673ZM63.0053 10.8889H60.9545V6.62329H56.9555V10.8889H54.9047V0.935791H56.9555V4.96899H60.9545V0.935791H63.0053V10.8889ZM70.5453 8.83813H66.9496L66.266 10.8889H64.0854L67.7905 0.935791H69.6908L73.4164 10.8889H71.2358L70.5453 8.83813ZM67.5033 7.177H69.9916L68.7406 3.45142L67.5033 7.177ZM82.4399 10.8889H80.3891L76.3969 4.34009V10.8889H74.3461V0.935791H76.3969L80.3959 7.49829V0.935791H82.4399V10.8889ZM84.2309 10.8889V0.935791H87.2934C88.1684 0.935791 88.95 1.13403 89.6381 1.53052C90.3308 1.92244 90.8709 2.48299 91.2582 3.21216C91.6456 3.93677 91.8393 4.76164 91.8393 5.68677V6.14478C91.8393 7.06991 91.6479 7.8925 91.2651 8.61255C90.8868 9.3326 90.3513 9.89087 89.6586 10.2874C88.9659 10.6838 88.1843 10.8844 87.3139 10.8889H84.2309ZM86.2817 2.59692V9.24146H87.2729C88.075 9.24146 88.6879 8.97941 89.1117 8.45532C89.5356 7.93123 89.752 7.18156 89.7612 6.2063V5.67993C89.7612 4.66821 89.5515 3.90259 89.1322 3.38306C88.713 2.85897 88.1 2.59692 87.2934 2.59692H86.2817Z" fill="white"/>
</svg>
