<svg width="16" height="12" viewBox="0 0 16 12" fill="none" xmlns="http://www.w3.org/2000/svg">
<g clip-path="url(#clip0_1202_120255)">
<path d="M0 2.46143V10.3717L4.75529 6.41603L0 2.46143Z" fill="#CACACA"/>
<path d="M14.7376 0H1.25962C0.962249 0.000808429 0.674652 0.106287 0.447273 0.297938C0.219894 0.489589 0.0672545 0.755176 0.0161133 1.04812L6.30163 6.27597L7.34975 7.14781C7.53475 7.29188 7.76252 7.37011 7.99699 7.37011C8.23146 7.37011 8.45924 7.29188 8.64424 7.14781L9.74545 6.23244L15.9789 1.04812C15.9277 0.755625 15.7753 0.490436 15.5484 0.298865C15.3215 0.107293 15.0345 0.00151407 14.7376 0Z" fill="#CACACA"/>
<path d="M15.9999 10.3717V2.46143L11.2446 6.41603L15.9999 10.3717Z" fill="#CACACA"/>
<path d="M9.4988 7.86775L8.64926 8.57605C8.46426 8.72012 8.23649 8.79834 8.00202 8.79834C7.76755 8.79834 7.53978 8.72012 7.35478 8.57605L6.25676 7.6628L5.6196 7.13184L0.480957 11.405C0.703795 11.5849 0.981466 11.6831 1.26783 11.6832H14.7426C15.0292 11.6829 15.3072 11.5847 15.5305 11.405L10.3908 7.13184L9.4988 7.86775Z" fill="#CACACA"/>
</g>
<defs>
<clipPath id="clip0_1202_120255">
<rect width="16" height="11.6812" fill="white"/>
</clipPath>
</defs>
</svg>
