<svg width="13" height="13" viewBox="0 0 13 13" fill="none" xmlns="http://www.w3.org/2000/svg">
<path d="M12.9993 9.69168V12.2453C12.9994 12.4282 12.9301 12.6042 12.8054 12.738C12.6808 12.8718 12.51 12.9533 12.3276 12.9661C12.0121 12.9877 11.7542 12.9993 11.5549 12.9993C5.17299 12.9993 0 7.82629 0 1.44436C0 1.24504 0.0108327 0.987223 0.0332204 0.67163C0.0460192 0.489238 0.127524 0.31849 0.261288 0.19384C0.395052 0.06919 0.571118 -8.26415e-05 0.753958 1.85297e-07H3.30759C3.39717 -9.05143e-05 3.48359 0.0331186 3.55005 0.0931763C3.61651 0.153234 3.65828 0.235852 3.66724 0.324982C3.68385 0.491084 3.69902 0.623243 3.71346 0.723627C3.85698 1.72524 4.1511 2.6994 4.58586 3.61308C4.65446 3.75751 4.60969 3.93012 4.4797 4.02255L2.92123 5.13616C3.87411 7.35647 5.64353 9.12589 7.86384 10.0788L8.976 8.52319C9.02146 8.45964 9.08778 8.41406 9.1634 8.39439C9.23903 8.37473 9.31915 8.38223 9.38981 8.41559C10.3034 8.84952 11.2773 9.14291 12.2785 9.28582C12.3789 9.30026 12.5111 9.31615 12.6757 9.33204C12.7647 9.34116 12.8472 9.383 12.9071 9.44945C12.967 9.5159 13.0001 9.60222 13 9.69168H12.9993Z" fill="#CACACA"/>
</svg>
