<svg width="18" height="19" viewBox="0 0 18 19" fill="none" xmlns="http://www.w3.org/2000/svg">
<g clip-path="url(#clip0_1202_120250)">
<path d="M5.205 7.52559C6.11914 9.59496 7.85936 10.7144 9.02185 10.7144C10.1843 10.7144 11.7537 9.6386 12.6872 7.58937C12.931 7.02488 13.1168 6.4392 13.2421 5.84055C13.4141 5.21187 13.4929 4.56335 13.4763 3.91384C13.4763 1.79077 11.4825 0 9.02185 0C6.56124 0 4.56739 1.79077 4.56739 3.91384C4.56232 4.39508 4.59647 4.87596 4.66955 5.35216C4.74694 6.09592 4.92697 6.8267 5.205 7.52559Z" fill="#CACACA"/>
<path d="M16.8991 13.5745C16.0096 12.6665 13.5049 12.8948 12.2667 12.2704C11.7172 13.2522 11.7101 14.8634 10.796 14.8634C10.7553 14.863 10.7147 14.8602 10.6744 14.855C9.29706 14.657 9.9928 11.3171 9.02229 11.3171C8.05179 11.3171 8.74576 14.662 7.37014 14.8601C7.32926 14.8653 7.28808 14.8681 7.24684 14.8685C6.33446 14.8685 6.32566 13.2573 5.77612 12.2755C4.54317 12.8998 2.035 12.6715 1.14728 13.5795C0.664669 14.0713 0.414551 17.1141 0.414551 18.4668H17.6283C17.6283 17.109 17.3799 14.0662 16.8991 13.5745Z" fill="#CACACA"/>
</g>
<defs>
<clipPath id="clip0_1202_120250">
<rect width="17.2137" height="18.4615" fill="white" transform="translate(0.414551)"/>
</clipPath>
</defs>
</svg>
